M48
; DRILL file {KiCad (5.1.12)-1} date 09/24/22 14:43:43
; FORMAT={-:-/ absolute / metric / decimal}
; #@! TF.CreationDate,2022-09-24T14:43:43-05:00
; #@! TF.GenerationSoftware,Kicad,Pcbnew,(5.1.12)-1
; #@! TF.FileFunction,Plated,1,2,PTH
FMAT,2
METRIC
T1C0.400
T2C1.100
T3C2.200
T4C3.200
%
G90
G05
T1
X128.5Y-78.5
X128.5Y-84.5
X146.0Y-80.0
X146.0Y-83.0
T2
X128.19Y-74.0
X128.19Y-88.0
X130.73Y-74.0
X130.73Y-88.0
X133.27Y-74.0
X133.27Y-88.0
X135.81Y-74.0
X135.81Y-88.0
X145.19Y-74.0
X145.19Y-88.0
X147.73Y-74.0
X147.73Y-88.0
X150.27Y-74.0
X150.27Y-88.0
X152.81Y-74.0
X152.81Y-88.0
T3
X127.0Y-81.5
X154.0Y-81.5
T4
X120.5Y-75.0
X120.5Y-88.0
X160.5Y-75.0
X160.5Y-88.0
T0
M30
