%FSLAX45Y45*%
G04 Gerber Fmt 4.5, Leading zero omitted, Abs format (unit mm)*
G04 Created by KiCad (PCBNEW (5.1.12)-1) date 2022-09-24 14:43:44*
%MOMM*%
%LPD*%
G01*
G04 APERTURE LIST*
%TA.AperFunction,Profile*%
%ADD10C,0.050000*%
%TD*%
%ADD11C,0.200000*%
%ADD12C,0.300000*%
G04 APERTURE END LIST*
D10*
X16450000Y-6950000D02*
X11650000Y-6950000D01*
X16450000Y-9350000D02*
X16450000Y-6950000D01*
X11650000Y-9350000D02*
X16450000Y-9350000D01*
X11650000Y-6950000D02*
X11650000Y-9350000D01*
D11*
X12830000Y-7830000D02*
X12870000Y-7870000D01*
X12870000Y-7830000D02*
X12830000Y-7870000D01*
X12830000Y-8430000D02*
X12870000Y-8470000D01*
X12870000Y-8430000D02*
X12830000Y-8470000D01*
X14580000Y-7980000D02*
X14620000Y-8020000D01*
X14620000Y-7980000D02*
X14580000Y-8020000D01*
X14580000Y-8280000D02*
X14620000Y-8320000D01*
X14620000Y-8280000D02*
X14580000Y-8320000D01*
X12874000Y-7400000D02*
G75*
G03*
X12874000Y-7400000I-55000J0D01*
G01*
X12874000Y-8800000D02*
G75*
G03*
X12874000Y-8800000I-55000J0D01*
G01*
X13128000Y-7400000D02*
G75*
G03*
X13128000Y-7400000I-55000J0D01*
G01*
X13128000Y-8800000D02*
G75*
G03*
X13128000Y-8800000I-55000J0D01*
G01*
X13382000Y-7400000D02*
G75*
G03*
X13382000Y-7400000I-55000J0D01*
G01*
X13382000Y-8800000D02*
G75*
G03*
X13382000Y-8800000I-55000J0D01*
G01*
X13636000Y-7400000D02*
G75*
G03*
X13636000Y-7400000I-55000J0D01*
G01*
X13636000Y-8800000D02*
G75*
G03*
X13636000Y-8800000I-55000J0D01*
G01*
X14574000Y-7400000D02*
G75*
G03*
X14574000Y-7400000I-55000J0D01*
G01*
X14574000Y-8800000D02*
G75*
G03*
X14574000Y-8800000I-55000J0D01*
G01*
X14828000Y-7400000D02*
G75*
G03*
X14828000Y-7400000I-55000J0D01*
G01*
X14828000Y-8800000D02*
G75*
G03*
X14828000Y-8800000I-55000J0D01*
G01*
X15082000Y-7400000D02*
G75*
G03*
X15082000Y-7400000I-55000J0D01*
G01*
X15082000Y-8800000D02*
G75*
G03*
X15082000Y-8800000I-55000J0D01*
G01*
X15336000Y-7400000D02*
G75*
G03*
X15336000Y-7400000I-55000J0D01*
G01*
X15336000Y-8800000D02*
G75*
G03*
X15336000Y-8800000I-55000J0D01*
G01*
X12700000Y-8040000D02*
X12700000Y-8260000D01*
X12590000Y-8150000D02*
X12810000Y-8150000D01*
X15400000Y-8040000D02*
X15400000Y-8260000D01*
X15290000Y-8150000D02*
X15510000Y-8150000D01*
X12163138Y-7613138D02*
X12163138Y-7386862D01*
X11936862Y-7386862D01*
X11936862Y-7613138D01*
X12163138Y-7613138D01*
X12163138Y-8913138D02*
X12163138Y-8686862D01*
X11936862Y-8686862D01*
X11936862Y-8913138D01*
X12163138Y-8913138D01*
X16163138Y-7613138D02*
X16163138Y-7386862D01*
X15936862Y-7386862D01*
X15936862Y-7613138D01*
X16163138Y-7613138D01*
X16163138Y-8913138D02*
X16163138Y-8686862D01*
X15936862Y-8686862D01*
X15936862Y-8913138D01*
X16163138Y-8913138D01*
D12*
X11933928Y-9818214D02*
X11933928Y-9518214D01*
X12005357Y-9518214D01*
X12048214Y-9532500D01*
X12076786Y-9561072D01*
X12091071Y-9589643D01*
X12105357Y-9646786D01*
X12105357Y-9689643D01*
X12091071Y-9746786D01*
X12076786Y-9775357D01*
X12048214Y-9803929D01*
X12005357Y-9818214D01*
X11933928Y-9818214D01*
X12233928Y-9818214D02*
X12233928Y-9618214D01*
X12233928Y-9675357D02*
X12248214Y-9646786D01*
X12262500Y-9632500D01*
X12291071Y-9618214D01*
X12319643Y-9618214D01*
X12419643Y-9818214D02*
X12419643Y-9618214D01*
X12419643Y-9518214D02*
X12405357Y-9532500D01*
X12419643Y-9546786D01*
X12433928Y-9532500D01*
X12419643Y-9518214D01*
X12419643Y-9546786D01*
X12605357Y-9818214D02*
X12576786Y-9803929D01*
X12562500Y-9775357D01*
X12562500Y-9518214D01*
X12762500Y-9818214D02*
X12733928Y-9803929D01*
X12719643Y-9775357D01*
X12719643Y-9518214D01*
X13105357Y-9818214D02*
X13105357Y-9518214D01*
X13205357Y-9732500D01*
X13305357Y-9518214D01*
X13305357Y-9818214D01*
X13576786Y-9818214D02*
X13576786Y-9661072D01*
X13562500Y-9632500D01*
X13533928Y-9618214D01*
X13476786Y-9618214D01*
X13448214Y-9632500D01*
X13576786Y-9803929D02*
X13548214Y-9818214D01*
X13476786Y-9818214D01*
X13448214Y-9803929D01*
X13433928Y-9775357D01*
X13433928Y-9746786D01*
X13448214Y-9718214D01*
X13476786Y-9703929D01*
X13548214Y-9703929D01*
X13576786Y-9689643D01*
X13719643Y-9618214D02*
X13719643Y-9918214D01*
X13719643Y-9632500D02*
X13748214Y-9618214D01*
X13805357Y-9618214D01*
X13833928Y-9632500D01*
X13848214Y-9646786D01*
X13862500Y-9675357D01*
X13862500Y-9761072D01*
X13848214Y-9789643D01*
X13833928Y-9803929D01*
X13805357Y-9818214D01*
X13748214Y-9818214D01*
X13719643Y-9803929D01*
X13991071Y-9789643D02*
X14005357Y-9803929D01*
X13991071Y-9818214D01*
X13976786Y-9803929D01*
X13991071Y-9789643D01*
X13991071Y-9818214D01*
X13991071Y-9632500D02*
X14005357Y-9646786D01*
X13991071Y-9661072D01*
X13976786Y-9646786D01*
X13991071Y-9632500D01*
X13991071Y-9661072D01*
X11607500Y-10292500D02*
X11647500Y-10332500D01*
X11647500Y-10292500D02*
X11607500Y-10332500D01*
X11991071Y-10148214D02*
X12019643Y-10148214D01*
X12048214Y-10162500D01*
X12062500Y-10176786D01*
X12076786Y-10205357D01*
X12091071Y-10262500D01*
X12091071Y-10333929D01*
X12076786Y-10391072D01*
X12062500Y-10419643D01*
X12048214Y-10433929D01*
X12019643Y-10448214D01*
X11991071Y-10448214D01*
X11962500Y-10433929D01*
X11948214Y-10419643D01*
X11933928Y-10391072D01*
X11919643Y-10333929D01*
X11919643Y-10262500D01*
X11933928Y-10205357D01*
X11948214Y-10176786D01*
X11962500Y-10162500D01*
X11991071Y-10148214D01*
X12219643Y-10419643D02*
X12233928Y-10433929D01*
X12219643Y-10448214D01*
X12205357Y-10433929D01*
X12219643Y-10419643D01*
X12219643Y-10448214D01*
X12491071Y-10248214D02*
X12491071Y-10448214D01*
X12419643Y-10133929D02*
X12348214Y-10348214D01*
X12533928Y-10348214D01*
X12705357Y-10148214D02*
X12733928Y-10148214D01*
X12762500Y-10162500D01*
X12776786Y-10176786D01*
X12791071Y-10205357D01*
X12805357Y-10262500D01*
X12805357Y-10333929D01*
X12791071Y-10391072D01*
X12776786Y-10419643D01*
X12762500Y-10433929D01*
X12733928Y-10448214D01*
X12705357Y-10448214D01*
X12676786Y-10433929D01*
X12662500Y-10419643D01*
X12648214Y-10391072D01*
X12633928Y-10333929D01*
X12633928Y-10262500D01*
X12648214Y-10205357D01*
X12662500Y-10176786D01*
X12676786Y-10162500D01*
X12705357Y-10148214D01*
X12991071Y-10148214D02*
X13019643Y-10148214D01*
X13048214Y-10162500D01*
X13062500Y-10176786D01*
X13076786Y-10205357D01*
X13091071Y-10262500D01*
X13091071Y-10333929D01*
X13076786Y-10391072D01*
X13062500Y-10419643D01*
X13048214Y-10433929D01*
X13019643Y-10448214D01*
X12991071Y-10448214D01*
X12962500Y-10433929D01*
X12948214Y-10419643D01*
X12933928Y-10391072D01*
X12919643Y-10333929D01*
X12919643Y-10262500D01*
X12933928Y-10205357D01*
X12948214Y-10176786D01*
X12962500Y-10162500D01*
X12991071Y-10148214D01*
X13219643Y-10448214D02*
X13219643Y-10248214D01*
X13219643Y-10276786D02*
X13233928Y-10262500D01*
X13262500Y-10248214D01*
X13305357Y-10248214D01*
X13333928Y-10262500D01*
X13348214Y-10291072D01*
X13348214Y-10448214D01*
X13348214Y-10291072D02*
X13362500Y-10262500D01*
X13391071Y-10248214D01*
X13433928Y-10248214D01*
X13462500Y-10262500D01*
X13476786Y-10291072D01*
X13476786Y-10448214D01*
X13619643Y-10448214D02*
X13619643Y-10248214D01*
X13619643Y-10276786D02*
X13633928Y-10262500D01*
X13662500Y-10248214D01*
X13705357Y-10248214D01*
X13733928Y-10262500D01*
X13748214Y-10291072D01*
X13748214Y-10448214D01*
X13748214Y-10291072D02*
X13762500Y-10262500D01*
X13791071Y-10248214D01*
X13833928Y-10248214D01*
X13862500Y-10262500D01*
X13876786Y-10291072D01*
X13876786Y-10448214D01*
X14462500Y-10133929D02*
X14205357Y-10519643D01*
X14848214Y-10148214D02*
X14876786Y-10148214D01*
X14905357Y-10162500D01*
X14919643Y-10176786D01*
X14933928Y-10205357D01*
X14948214Y-10262500D01*
X14948214Y-10333929D01*
X14933928Y-10391072D01*
X14919643Y-10419643D01*
X14905357Y-10433929D01*
X14876786Y-10448214D01*
X14848214Y-10448214D01*
X14819643Y-10433929D01*
X14805357Y-10419643D01*
X14791071Y-10391072D01*
X14776786Y-10333929D01*
X14776786Y-10262500D01*
X14791071Y-10205357D01*
X14805357Y-10176786D01*
X14819643Y-10162500D01*
X14848214Y-10148214D01*
X15076786Y-10419643D02*
X15091071Y-10433929D01*
X15076786Y-10448214D01*
X15062500Y-10433929D01*
X15076786Y-10419643D01*
X15076786Y-10448214D01*
X15276786Y-10148214D02*
X15305357Y-10148214D01*
X15333928Y-10162500D01*
X15348214Y-10176786D01*
X15362500Y-10205357D01*
X15376786Y-10262500D01*
X15376786Y-10333929D01*
X15362500Y-10391072D01*
X15348214Y-10419643D01*
X15333928Y-10433929D01*
X15305357Y-10448214D01*
X15276786Y-10448214D01*
X15248214Y-10433929D01*
X15233928Y-10419643D01*
X15219643Y-10391072D01*
X15205357Y-10333929D01*
X15205357Y-10262500D01*
X15219643Y-10205357D01*
X15233928Y-10176786D01*
X15248214Y-10162500D01*
X15276786Y-10148214D01*
X15662500Y-10448214D02*
X15491071Y-10448214D01*
X15576786Y-10448214D02*
X15576786Y-10148214D01*
X15548214Y-10191072D01*
X15519643Y-10219643D01*
X15491071Y-10233929D01*
X15933928Y-10148214D02*
X15791071Y-10148214D01*
X15776786Y-10291072D01*
X15791071Y-10276786D01*
X15819643Y-10262500D01*
X15891071Y-10262500D01*
X15919643Y-10276786D01*
X15933928Y-10291072D01*
X15948214Y-10319643D01*
X15948214Y-10391072D01*
X15933928Y-10419643D01*
X15919643Y-10433929D01*
X15891071Y-10448214D01*
X15819643Y-10448214D01*
X15791071Y-10433929D01*
X15776786Y-10419643D01*
X16048214Y-10148214D02*
X16248214Y-10148214D01*
X16119643Y-10448214D01*
X16348214Y-10148214D02*
X16348214Y-10205357D01*
X16462500Y-10148214D02*
X16462500Y-10205357D01*
X16905357Y-10562500D02*
X16891071Y-10548214D01*
X16862500Y-10505357D01*
X16848214Y-10476786D01*
X16833928Y-10433929D01*
X16819643Y-10362500D01*
X16819643Y-10305357D01*
X16833928Y-10233929D01*
X16848214Y-10191072D01*
X16862500Y-10162500D01*
X16891071Y-10119643D01*
X16905357Y-10105357D01*
X17148214Y-10248214D02*
X17148214Y-10448214D01*
X17076786Y-10133929D02*
X17005357Y-10348214D01*
X17191071Y-10348214D01*
X17533928Y-10448214D02*
X17533928Y-10148214D01*
X17662500Y-10448214D02*
X17662500Y-10291072D01*
X17648214Y-10262500D01*
X17619643Y-10248214D01*
X17576786Y-10248214D01*
X17548214Y-10262500D01*
X17533928Y-10276786D01*
X17848214Y-10448214D02*
X17819643Y-10433929D01*
X17805357Y-10419643D01*
X17791071Y-10391072D01*
X17791071Y-10305357D01*
X17805357Y-10276786D01*
X17819643Y-10262500D01*
X17848214Y-10248214D01*
X17891071Y-10248214D01*
X17919643Y-10262500D01*
X17933928Y-10276786D01*
X17948214Y-10305357D01*
X17948214Y-10391072D01*
X17933928Y-10419643D01*
X17919643Y-10433929D01*
X17891071Y-10448214D01*
X17848214Y-10448214D01*
X18119643Y-10448214D02*
X18091071Y-10433929D01*
X18076786Y-10405357D01*
X18076786Y-10148214D01*
X18348214Y-10433929D02*
X18319643Y-10448214D01*
X18262500Y-10448214D01*
X18233928Y-10433929D01*
X18219643Y-10405357D01*
X18219643Y-10291072D01*
X18233928Y-10262500D01*
X18262500Y-10248214D01*
X18319643Y-10248214D01*
X18348214Y-10262500D01*
X18362500Y-10291072D01*
X18362500Y-10319643D01*
X18219643Y-10348214D01*
X18476786Y-10433929D02*
X18505357Y-10448214D01*
X18562500Y-10448214D01*
X18591071Y-10433929D01*
X18605357Y-10405357D01*
X18605357Y-10391072D01*
X18591071Y-10362500D01*
X18562500Y-10348214D01*
X18519643Y-10348214D01*
X18491071Y-10333929D01*
X18476786Y-10305357D01*
X18476786Y-10291072D01*
X18491071Y-10262500D01*
X18519643Y-10248214D01*
X18562500Y-10248214D01*
X18591071Y-10262500D01*
X18705357Y-10562500D02*
X18719643Y-10548214D01*
X18748214Y-10505357D01*
X18762500Y-10476786D01*
X18776786Y-10433929D01*
X18791071Y-10362500D01*
X18791071Y-10305357D01*
X18776786Y-10233929D01*
X18762500Y-10191072D01*
X18748214Y-10162500D01*
X18719643Y-10119643D01*
X18705357Y-10105357D01*
X11647500Y-10708500D02*
G75*
G03*
X11647500Y-10708500I-55000J0D01*
G01*
X12091071Y-10844214D02*
X11919643Y-10844214D01*
X12005357Y-10844214D02*
X12005357Y-10544214D01*
X11976786Y-10587072D01*
X11948214Y-10615643D01*
X11919643Y-10629929D01*
X12219643Y-10815643D02*
X12233928Y-10829929D01*
X12219643Y-10844214D01*
X12205357Y-10829929D01*
X12219643Y-10815643D01*
X12219643Y-10844214D01*
X12519643Y-10844214D02*
X12348214Y-10844214D01*
X12433928Y-10844214D02*
X12433928Y-10544214D01*
X12405357Y-10587072D01*
X12376786Y-10615643D01*
X12348214Y-10629929D01*
X12705357Y-10544214D02*
X12733928Y-10544214D01*
X12762500Y-10558500D01*
X12776786Y-10572786D01*
X12791071Y-10601357D01*
X12805357Y-10658500D01*
X12805357Y-10729929D01*
X12791071Y-10787072D01*
X12776786Y-10815643D01*
X12762500Y-10829929D01*
X12733928Y-10844214D01*
X12705357Y-10844214D01*
X12676786Y-10829929D01*
X12662500Y-10815643D01*
X12648214Y-10787072D01*
X12633928Y-10729929D01*
X12633928Y-10658500D01*
X12648214Y-10601357D01*
X12662500Y-10572786D01*
X12676786Y-10558500D01*
X12705357Y-10544214D01*
X12991071Y-10544214D02*
X13019643Y-10544214D01*
X13048214Y-10558500D01*
X13062500Y-10572786D01*
X13076786Y-10601357D01*
X13091071Y-10658500D01*
X13091071Y-10729929D01*
X13076786Y-10787072D01*
X13062500Y-10815643D01*
X13048214Y-10829929D01*
X13019643Y-10844214D01*
X12991071Y-10844214D01*
X12962500Y-10829929D01*
X12948214Y-10815643D01*
X12933928Y-10787072D01*
X12919643Y-10729929D01*
X12919643Y-10658500D01*
X12933928Y-10601357D01*
X12948214Y-10572786D01*
X12962500Y-10558500D01*
X12991071Y-10544214D01*
X13219643Y-10844214D02*
X13219643Y-10644214D01*
X13219643Y-10672786D02*
X13233928Y-10658500D01*
X13262500Y-10644214D01*
X13305357Y-10644214D01*
X13333928Y-10658500D01*
X13348214Y-10687072D01*
X13348214Y-10844214D01*
X13348214Y-10687072D02*
X13362500Y-10658500D01*
X13391071Y-10644214D01*
X13433928Y-10644214D01*
X13462500Y-10658500D01*
X13476786Y-10687072D01*
X13476786Y-10844214D01*
X13619643Y-10844214D02*
X13619643Y-10644214D01*
X13619643Y-10672786D02*
X13633928Y-10658500D01*
X13662500Y-10644214D01*
X13705357Y-10644214D01*
X13733928Y-10658500D01*
X13748214Y-10687072D01*
X13748214Y-10844214D01*
X13748214Y-10687072D02*
X13762500Y-10658500D01*
X13791071Y-10644214D01*
X13833928Y-10644214D01*
X13862500Y-10658500D01*
X13876786Y-10687072D01*
X13876786Y-10844214D01*
X14462500Y-10529929D02*
X14205357Y-10915643D01*
X14848214Y-10544214D02*
X14876786Y-10544214D01*
X14905357Y-10558500D01*
X14919643Y-10572786D01*
X14933928Y-10601357D01*
X14948214Y-10658500D01*
X14948214Y-10729929D01*
X14933928Y-10787072D01*
X14919643Y-10815643D01*
X14905357Y-10829929D01*
X14876786Y-10844214D01*
X14848214Y-10844214D01*
X14819643Y-10829929D01*
X14805357Y-10815643D01*
X14791071Y-10787072D01*
X14776786Y-10729929D01*
X14776786Y-10658500D01*
X14791071Y-10601357D01*
X14805357Y-10572786D01*
X14819643Y-10558500D01*
X14848214Y-10544214D01*
X15076786Y-10815643D02*
X15091071Y-10829929D01*
X15076786Y-10844214D01*
X15062500Y-10829929D01*
X15076786Y-10815643D01*
X15076786Y-10844214D01*
X15276786Y-10544214D02*
X15305357Y-10544214D01*
X15333928Y-10558500D01*
X15348214Y-10572786D01*
X15362500Y-10601357D01*
X15376786Y-10658500D01*
X15376786Y-10729929D01*
X15362500Y-10787072D01*
X15348214Y-10815643D01*
X15333928Y-10829929D01*
X15305357Y-10844214D01*
X15276786Y-10844214D01*
X15248214Y-10829929D01*
X15233928Y-10815643D01*
X15219643Y-10787072D01*
X15205357Y-10729929D01*
X15205357Y-10658500D01*
X15219643Y-10601357D01*
X15233928Y-10572786D01*
X15248214Y-10558500D01*
X15276786Y-10544214D01*
X15633928Y-10644214D02*
X15633928Y-10844214D01*
X15562500Y-10529929D02*
X15491071Y-10744214D01*
X15676786Y-10744214D01*
X15762500Y-10544214D02*
X15948214Y-10544214D01*
X15848214Y-10658500D01*
X15891071Y-10658500D01*
X15919643Y-10672786D01*
X15933928Y-10687072D01*
X15948214Y-10715643D01*
X15948214Y-10787072D01*
X15933928Y-10815643D01*
X15919643Y-10829929D01*
X15891071Y-10844214D01*
X15805357Y-10844214D01*
X15776786Y-10829929D01*
X15762500Y-10815643D01*
X16048214Y-10544214D02*
X16233928Y-10544214D01*
X16133928Y-10658500D01*
X16176786Y-10658500D01*
X16205357Y-10672786D01*
X16219643Y-10687072D01*
X16233928Y-10715643D01*
X16233928Y-10787072D01*
X16219643Y-10815643D01*
X16205357Y-10829929D01*
X16176786Y-10844214D01*
X16091071Y-10844214D01*
X16062500Y-10829929D01*
X16048214Y-10815643D01*
X16348214Y-10544214D02*
X16348214Y-10601357D01*
X16462500Y-10544214D02*
X16462500Y-10601357D01*
X16905357Y-10958500D02*
X16891071Y-10944214D01*
X16862500Y-10901357D01*
X16848214Y-10872786D01*
X16833928Y-10829929D01*
X16819643Y-10758500D01*
X16819643Y-10701357D01*
X16833928Y-10629929D01*
X16848214Y-10587072D01*
X16862500Y-10558500D01*
X16891071Y-10515643D01*
X16905357Y-10501357D01*
X17176786Y-10844214D02*
X17005357Y-10844214D01*
X17091071Y-10844214D02*
X17091071Y-10544214D01*
X17062500Y-10587072D01*
X17033928Y-10615643D01*
X17005357Y-10629929D01*
X17433928Y-10544214D02*
X17376786Y-10544214D01*
X17348214Y-10558500D01*
X17333928Y-10572786D01*
X17305357Y-10615643D01*
X17291071Y-10672786D01*
X17291071Y-10787072D01*
X17305357Y-10815643D01*
X17319643Y-10829929D01*
X17348214Y-10844214D01*
X17405357Y-10844214D01*
X17433928Y-10829929D01*
X17448214Y-10815643D01*
X17462500Y-10787072D01*
X17462500Y-10715643D01*
X17448214Y-10687072D01*
X17433928Y-10672786D01*
X17405357Y-10658500D01*
X17348214Y-10658500D01*
X17319643Y-10672786D01*
X17305357Y-10687072D01*
X17291071Y-10715643D01*
X17819643Y-10844214D02*
X17819643Y-10544214D01*
X17948214Y-10844214D02*
X17948214Y-10687072D01*
X17933928Y-10658500D01*
X17905357Y-10644214D01*
X17862500Y-10644214D01*
X17833928Y-10658500D01*
X17819643Y-10672786D01*
X18133928Y-10844214D02*
X18105357Y-10829929D01*
X18091071Y-10815643D01*
X18076786Y-10787072D01*
X18076786Y-10701357D01*
X18091071Y-10672786D01*
X18105357Y-10658500D01*
X18133928Y-10644214D01*
X18176786Y-10644214D01*
X18205357Y-10658500D01*
X18219643Y-10672786D01*
X18233928Y-10701357D01*
X18233928Y-10787072D01*
X18219643Y-10815643D01*
X18205357Y-10829929D01*
X18176786Y-10844214D01*
X18133928Y-10844214D01*
X18405357Y-10844214D02*
X18376786Y-10829929D01*
X18362500Y-10801357D01*
X18362500Y-10544214D01*
X18633928Y-10829929D02*
X18605357Y-10844214D01*
X18548214Y-10844214D01*
X18519643Y-10829929D01*
X18505357Y-10801357D01*
X18505357Y-10687072D01*
X18519643Y-10658500D01*
X18548214Y-10644214D01*
X18605357Y-10644214D01*
X18633928Y-10658500D01*
X18648214Y-10687072D01*
X18648214Y-10715643D01*
X18505357Y-10744214D01*
X18762500Y-10829929D02*
X18791071Y-10844214D01*
X18848214Y-10844214D01*
X18876786Y-10829929D01*
X18891071Y-10801357D01*
X18891071Y-10787072D01*
X18876786Y-10758500D01*
X18848214Y-10744214D01*
X18805357Y-10744214D01*
X18776786Y-10729929D01*
X18762500Y-10701357D01*
X18762500Y-10687072D01*
X18776786Y-10658500D01*
X18805357Y-10644214D01*
X18848214Y-10644214D01*
X18876786Y-10658500D01*
X18991071Y-10958500D02*
X19005357Y-10944214D01*
X19033928Y-10901357D01*
X19048214Y-10872786D01*
X19062500Y-10829929D01*
X19076786Y-10758500D01*
X19076786Y-10701357D01*
X19062500Y-10629929D01*
X19048214Y-10587072D01*
X19033928Y-10558500D01*
X19005357Y-10515643D01*
X18991071Y-10501357D01*
X11537500Y-10994500D02*
X11537500Y-11214500D01*
X11427500Y-11104500D02*
X11647500Y-11104500D01*
X11919643Y-10968786D02*
X11933928Y-10954500D01*
X11962500Y-10940214D01*
X12033928Y-10940214D01*
X12062500Y-10954500D01*
X12076786Y-10968786D01*
X12091071Y-10997357D01*
X12091071Y-11025929D01*
X12076786Y-11068786D01*
X11905357Y-11240214D01*
X12091071Y-11240214D01*
X12219643Y-11211643D02*
X12233928Y-11225929D01*
X12219643Y-11240214D01*
X12205357Y-11225929D01*
X12219643Y-11211643D01*
X12219643Y-11240214D01*
X12348214Y-10968786D02*
X12362500Y-10954500D01*
X12391071Y-10940214D01*
X12462500Y-10940214D01*
X12491071Y-10954500D01*
X12505357Y-10968786D01*
X12519643Y-10997357D01*
X12519643Y-11025929D01*
X12505357Y-11068786D01*
X12333928Y-11240214D01*
X12519643Y-11240214D01*
X12705357Y-10940214D02*
X12733928Y-10940214D01*
X12762500Y-10954500D01*
X12776786Y-10968786D01*
X12791071Y-10997357D01*
X12805357Y-11054500D01*
X12805357Y-11125929D01*
X12791071Y-11183072D01*
X12776786Y-11211643D01*
X12762500Y-11225929D01*
X12733928Y-11240214D01*
X12705357Y-11240214D01*
X12676786Y-11225929D01*
X12662500Y-11211643D01*
X12648214Y-11183072D01*
X12633928Y-11125929D01*
X12633928Y-11054500D01*
X12648214Y-10997357D01*
X12662500Y-10968786D01*
X12676786Y-10954500D01*
X12705357Y-10940214D01*
X12991071Y-10940214D02*
X13019643Y-10940214D01*
X13048214Y-10954500D01*
X13062500Y-10968786D01*
X13076786Y-10997357D01*
X13091071Y-11054500D01*
X13091071Y-11125929D01*
X13076786Y-11183072D01*
X13062500Y-11211643D01*
X13048214Y-11225929D01*
X13019643Y-11240214D01*
X12991071Y-11240214D01*
X12962500Y-11225929D01*
X12948214Y-11211643D01*
X12933928Y-11183072D01*
X12919643Y-11125929D01*
X12919643Y-11054500D01*
X12933928Y-10997357D01*
X12948214Y-10968786D01*
X12962500Y-10954500D01*
X12991071Y-10940214D01*
X13219643Y-11240214D02*
X13219643Y-11040214D01*
X13219643Y-11068786D02*
X13233928Y-11054500D01*
X13262500Y-11040214D01*
X13305357Y-11040214D01*
X13333928Y-11054500D01*
X13348214Y-11083072D01*
X13348214Y-11240214D01*
X13348214Y-11083072D02*
X13362500Y-11054500D01*
X13391071Y-11040214D01*
X13433928Y-11040214D01*
X13462500Y-11054500D01*
X13476786Y-11083072D01*
X13476786Y-11240214D01*
X13619643Y-11240214D02*
X13619643Y-11040214D01*
X13619643Y-11068786D02*
X13633928Y-11054500D01*
X13662500Y-11040214D01*
X13705357Y-11040214D01*
X13733928Y-11054500D01*
X13748214Y-11083072D01*
X13748214Y-11240214D01*
X13748214Y-11083072D02*
X13762500Y-11054500D01*
X13791071Y-11040214D01*
X13833928Y-11040214D01*
X13862500Y-11054500D01*
X13876786Y-11083072D01*
X13876786Y-11240214D01*
X14462500Y-10925929D02*
X14205357Y-11311643D01*
X14848214Y-10940214D02*
X14876786Y-10940214D01*
X14905357Y-10954500D01*
X14919643Y-10968786D01*
X14933928Y-10997357D01*
X14948214Y-11054500D01*
X14948214Y-11125929D01*
X14933928Y-11183072D01*
X14919643Y-11211643D01*
X14905357Y-11225929D01*
X14876786Y-11240214D01*
X14848214Y-11240214D01*
X14819643Y-11225929D01*
X14805357Y-11211643D01*
X14791071Y-11183072D01*
X14776786Y-11125929D01*
X14776786Y-11054500D01*
X14791071Y-10997357D01*
X14805357Y-10968786D01*
X14819643Y-10954500D01*
X14848214Y-10940214D01*
X15076786Y-11211643D02*
X15091071Y-11225929D01*
X15076786Y-11240214D01*
X15062500Y-11225929D01*
X15076786Y-11211643D01*
X15076786Y-11240214D01*
X15276786Y-10940214D02*
X15305357Y-10940214D01*
X15333928Y-10954500D01*
X15348214Y-10968786D01*
X15362500Y-10997357D01*
X15376786Y-11054500D01*
X15376786Y-11125929D01*
X15362500Y-11183072D01*
X15348214Y-11211643D01*
X15333928Y-11225929D01*
X15305357Y-11240214D01*
X15276786Y-11240214D01*
X15248214Y-11225929D01*
X15233928Y-11211643D01*
X15219643Y-11183072D01*
X15205357Y-11125929D01*
X15205357Y-11054500D01*
X15219643Y-10997357D01*
X15233928Y-10968786D01*
X15248214Y-10954500D01*
X15276786Y-10940214D01*
X15548214Y-11068786D02*
X15519643Y-11054500D01*
X15505357Y-11040214D01*
X15491071Y-11011643D01*
X15491071Y-10997357D01*
X15505357Y-10968786D01*
X15519643Y-10954500D01*
X15548214Y-10940214D01*
X15605357Y-10940214D01*
X15633928Y-10954500D01*
X15648214Y-10968786D01*
X15662500Y-10997357D01*
X15662500Y-11011643D01*
X15648214Y-11040214D01*
X15633928Y-11054500D01*
X15605357Y-11068786D01*
X15548214Y-11068786D01*
X15519643Y-11083072D01*
X15505357Y-11097357D01*
X15491071Y-11125929D01*
X15491071Y-11183072D01*
X15505357Y-11211643D01*
X15519643Y-11225929D01*
X15548214Y-11240214D01*
X15605357Y-11240214D01*
X15633928Y-11225929D01*
X15648214Y-11211643D01*
X15662500Y-11183072D01*
X15662500Y-11125929D01*
X15648214Y-11097357D01*
X15633928Y-11083072D01*
X15605357Y-11068786D01*
X15919643Y-10940214D02*
X15862500Y-10940214D01*
X15833928Y-10954500D01*
X15819643Y-10968786D01*
X15791071Y-11011643D01*
X15776786Y-11068786D01*
X15776786Y-11183072D01*
X15791071Y-11211643D01*
X15805357Y-11225929D01*
X15833928Y-11240214D01*
X15891071Y-11240214D01*
X15919643Y-11225929D01*
X15933928Y-11211643D01*
X15948214Y-11183072D01*
X15948214Y-11111643D01*
X15933928Y-11083072D01*
X15919643Y-11068786D01*
X15891071Y-11054500D01*
X15833928Y-11054500D01*
X15805357Y-11068786D01*
X15791071Y-11083072D01*
X15776786Y-11111643D01*
X16205357Y-10940214D02*
X16148214Y-10940214D01*
X16119643Y-10954500D01*
X16105357Y-10968786D01*
X16076786Y-11011643D01*
X16062500Y-11068786D01*
X16062500Y-11183072D01*
X16076786Y-11211643D01*
X16091071Y-11225929D01*
X16119643Y-11240214D01*
X16176786Y-11240214D01*
X16205357Y-11225929D01*
X16219643Y-11211643D01*
X16233928Y-11183072D01*
X16233928Y-11111643D01*
X16219643Y-11083072D01*
X16205357Y-11068786D01*
X16176786Y-11054500D01*
X16119643Y-11054500D01*
X16091071Y-11068786D01*
X16076786Y-11083072D01*
X16062500Y-11111643D01*
X16348214Y-10940214D02*
X16348214Y-10997357D01*
X16462500Y-10940214D02*
X16462500Y-10997357D01*
X16905357Y-11354500D02*
X16891071Y-11340214D01*
X16862500Y-11297357D01*
X16848214Y-11268786D01*
X16833928Y-11225929D01*
X16819643Y-11154500D01*
X16819643Y-11097357D01*
X16833928Y-11025929D01*
X16848214Y-10983072D01*
X16862500Y-10954500D01*
X16891071Y-10911643D01*
X16905357Y-10897357D01*
X17005357Y-10968786D02*
X17019643Y-10954500D01*
X17048214Y-10940214D01*
X17119643Y-10940214D01*
X17148214Y-10954500D01*
X17162500Y-10968786D01*
X17176786Y-10997357D01*
X17176786Y-11025929D01*
X17162500Y-11068786D01*
X16991071Y-11240214D01*
X17176786Y-11240214D01*
X17533928Y-11240214D02*
X17533928Y-10940214D01*
X17662500Y-11240214D02*
X17662500Y-11083072D01*
X17648214Y-11054500D01*
X17619643Y-11040214D01*
X17576786Y-11040214D01*
X17548214Y-11054500D01*
X17533928Y-11068786D01*
X17848214Y-11240214D02*
X17819643Y-11225929D01*
X17805357Y-11211643D01*
X17791071Y-11183072D01*
X17791071Y-11097357D01*
X17805357Y-11068786D01*
X17819643Y-11054500D01*
X17848214Y-11040214D01*
X17891071Y-11040214D01*
X17919643Y-11054500D01*
X17933928Y-11068786D01*
X17948214Y-11097357D01*
X17948214Y-11183072D01*
X17933928Y-11211643D01*
X17919643Y-11225929D01*
X17891071Y-11240214D01*
X17848214Y-11240214D01*
X18119643Y-11240214D02*
X18091071Y-11225929D01*
X18076786Y-11197357D01*
X18076786Y-10940214D01*
X18348214Y-11225929D02*
X18319643Y-11240214D01*
X18262500Y-11240214D01*
X18233928Y-11225929D01*
X18219643Y-11197357D01*
X18219643Y-11083072D01*
X18233928Y-11054500D01*
X18262500Y-11040214D01*
X18319643Y-11040214D01*
X18348214Y-11054500D01*
X18362500Y-11083072D01*
X18362500Y-11111643D01*
X18219643Y-11140214D01*
X18476786Y-11225929D02*
X18505357Y-11240214D01*
X18562500Y-11240214D01*
X18591071Y-11225929D01*
X18605357Y-11197357D01*
X18605357Y-11183072D01*
X18591071Y-11154500D01*
X18562500Y-11140214D01*
X18519643Y-11140214D01*
X18491071Y-11125929D01*
X18476786Y-11097357D01*
X18476786Y-11083072D01*
X18491071Y-11054500D01*
X18519643Y-11040214D01*
X18562500Y-11040214D01*
X18591071Y-11054500D01*
X18705357Y-11354500D02*
X18719643Y-11340214D01*
X18748214Y-11297357D01*
X18762500Y-11268786D01*
X18776786Y-11225929D01*
X18791071Y-11154500D01*
X18791071Y-11097357D01*
X18776786Y-11025929D01*
X18762500Y-10983072D01*
X18748214Y-10954500D01*
X18719643Y-10911643D01*
X18705357Y-10897357D01*
X11600638Y-11613638D02*
X11600638Y-11387362D01*
X11374362Y-11387362D01*
X11374362Y-11613638D01*
X11600638Y-11613638D01*
X11905357Y-11336214D02*
X12091071Y-11336214D01*
X11991071Y-11450500D01*
X12033928Y-11450500D01*
X12062500Y-11464786D01*
X12076786Y-11479071D01*
X12091071Y-11507643D01*
X12091071Y-11579071D01*
X12076786Y-11607643D01*
X12062500Y-11621929D01*
X12033928Y-11636214D01*
X11948214Y-11636214D01*
X11919643Y-11621929D01*
X11905357Y-11607643D01*
X12219643Y-11607643D02*
X12233928Y-11621929D01*
X12219643Y-11636214D01*
X12205357Y-11621929D01*
X12219643Y-11607643D01*
X12219643Y-11636214D01*
X12348214Y-11364786D02*
X12362500Y-11350500D01*
X12391071Y-11336214D01*
X12462500Y-11336214D01*
X12491071Y-11350500D01*
X12505357Y-11364786D01*
X12519643Y-11393357D01*
X12519643Y-11421929D01*
X12505357Y-11464786D01*
X12333928Y-11636214D01*
X12519643Y-11636214D01*
X12705357Y-11336214D02*
X12733928Y-11336214D01*
X12762500Y-11350500D01*
X12776786Y-11364786D01*
X12791071Y-11393357D01*
X12805357Y-11450500D01*
X12805357Y-11521929D01*
X12791071Y-11579071D01*
X12776786Y-11607643D01*
X12762500Y-11621929D01*
X12733928Y-11636214D01*
X12705357Y-11636214D01*
X12676786Y-11621929D01*
X12662500Y-11607643D01*
X12648214Y-11579071D01*
X12633928Y-11521929D01*
X12633928Y-11450500D01*
X12648214Y-11393357D01*
X12662500Y-11364786D01*
X12676786Y-11350500D01*
X12705357Y-11336214D01*
X12991071Y-11336214D02*
X13019643Y-11336214D01*
X13048214Y-11350500D01*
X13062500Y-11364786D01*
X13076786Y-11393357D01*
X13091071Y-11450500D01*
X13091071Y-11521929D01*
X13076786Y-11579071D01*
X13062500Y-11607643D01*
X13048214Y-11621929D01*
X13019643Y-11636214D01*
X12991071Y-11636214D01*
X12962500Y-11621929D01*
X12948214Y-11607643D01*
X12933928Y-11579071D01*
X12919643Y-11521929D01*
X12919643Y-11450500D01*
X12933928Y-11393357D01*
X12948214Y-11364786D01*
X12962500Y-11350500D01*
X12991071Y-11336214D01*
X13219643Y-11636214D02*
X13219643Y-11436214D01*
X13219643Y-11464786D02*
X13233928Y-11450500D01*
X13262500Y-11436214D01*
X13305357Y-11436214D01*
X13333928Y-11450500D01*
X13348214Y-11479071D01*
X13348214Y-11636214D01*
X13348214Y-11479071D02*
X13362500Y-11450500D01*
X13391071Y-11436214D01*
X13433928Y-11436214D01*
X13462500Y-11450500D01*
X13476786Y-11479071D01*
X13476786Y-11636214D01*
X13619643Y-11636214D02*
X13619643Y-11436214D01*
X13619643Y-11464786D02*
X13633928Y-11450500D01*
X13662500Y-11436214D01*
X13705357Y-11436214D01*
X13733928Y-11450500D01*
X13748214Y-11479071D01*
X13748214Y-11636214D01*
X13748214Y-11479071D02*
X13762500Y-11450500D01*
X13791071Y-11436214D01*
X13833928Y-11436214D01*
X13862500Y-11450500D01*
X13876786Y-11479071D01*
X13876786Y-11636214D01*
X14462500Y-11321929D02*
X14205357Y-11707643D01*
X14848214Y-11336214D02*
X14876786Y-11336214D01*
X14905357Y-11350500D01*
X14919643Y-11364786D01*
X14933928Y-11393357D01*
X14948214Y-11450500D01*
X14948214Y-11521929D01*
X14933928Y-11579071D01*
X14919643Y-11607643D01*
X14905357Y-11621929D01*
X14876786Y-11636214D01*
X14848214Y-11636214D01*
X14819643Y-11621929D01*
X14805357Y-11607643D01*
X14791071Y-11579071D01*
X14776786Y-11521929D01*
X14776786Y-11450500D01*
X14791071Y-11393357D01*
X14805357Y-11364786D01*
X14819643Y-11350500D01*
X14848214Y-11336214D01*
X15076786Y-11607643D02*
X15091071Y-11621929D01*
X15076786Y-11636214D01*
X15062500Y-11621929D01*
X15076786Y-11607643D01*
X15076786Y-11636214D01*
X15376786Y-11636214D02*
X15205357Y-11636214D01*
X15291071Y-11636214D02*
X15291071Y-11336214D01*
X15262500Y-11379071D01*
X15233928Y-11407643D01*
X15205357Y-11421929D01*
X15491071Y-11364786D02*
X15505357Y-11350500D01*
X15533928Y-11336214D01*
X15605357Y-11336214D01*
X15633928Y-11350500D01*
X15648214Y-11364786D01*
X15662500Y-11393357D01*
X15662500Y-11421929D01*
X15648214Y-11464786D01*
X15476786Y-11636214D01*
X15662500Y-11636214D01*
X15919643Y-11336214D02*
X15862500Y-11336214D01*
X15833928Y-11350500D01*
X15819643Y-11364786D01*
X15791071Y-11407643D01*
X15776786Y-11464786D01*
X15776786Y-11579071D01*
X15791071Y-11607643D01*
X15805357Y-11621929D01*
X15833928Y-11636214D01*
X15891071Y-11636214D01*
X15919643Y-11621929D01*
X15933928Y-11607643D01*
X15948214Y-11579071D01*
X15948214Y-11507643D01*
X15933928Y-11479071D01*
X15919643Y-11464786D01*
X15891071Y-11450500D01*
X15833928Y-11450500D01*
X15805357Y-11464786D01*
X15791071Y-11479071D01*
X15776786Y-11507643D01*
X16133928Y-11336214D02*
X16162500Y-11336214D01*
X16191071Y-11350500D01*
X16205357Y-11364786D01*
X16219643Y-11393357D01*
X16233928Y-11450500D01*
X16233928Y-11521929D01*
X16219643Y-11579071D01*
X16205357Y-11607643D01*
X16191071Y-11621929D01*
X16162500Y-11636214D01*
X16133928Y-11636214D01*
X16105357Y-11621929D01*
X16091071Y-11607643D01*
X16076786Y-11579071D01*
X16062500Y-11521929D01*
X16062500Y-11450500D01*
X16076786Y-11393357D01*
X16091071Y-11364786D01*
X16105357Y-11350500D01*
X16133928Y-11336214D01*
X16348214Y-11336214D02*
X16348214Y-11393357D01*
X16462500Y-11336214D02*
X16462500Y-11393357D01*
X16905357Y-11750500D02*
X16891071Y-11736214D01*
X16862500Y-11693357D01*
X16848214Y-11664786D01*
X16833928Y-11621929D01*
X16819643Y-11550500D01*
X16819643Y-11493357D01*
X16833928Y-11421929D01*
X16848214Y-11379071D01*
X16862500Y-11350500D01*
X16891071Y-11307643D01*
X16905357Y-11293357D01*
X17148214Y-11436214D02*
X17148214Y-11636214D01*
X17076786Y-11321929D02*
X17005357Y-11536214D01*
X17191071Y-11536214D01*
X17533928Y-11636214D02*
X17533928Y-11336214D01*
X17662500Y-11636214D02*
X17662500Y-11479071D01*
X17648214Y-11450500D01*
X17619643Y-11436214D01*
X17576786Y-11436214D01*
X17548214Y-11450500D01*
X17533928Y-11464786D01*
X17848214Y-11636214D02*
X17819643Y-11621929D01*
X17805357Y-11607643D01*
X17791071Y-11579071D01*
X17791071Y-11493357D01*
X17805357Y-11464786D01*
X17819643Y-11450500D01*
X17848214Y-11436214D01*
X17891071Y-11436214D01*
X17919643Y-11450500D01*
X17933928Y-11464786D01*
X17948214Y-11493357D01*
X17948214Y-11579071D01*
X17933928Y-11607643D01*
X17919643Y-11621929D01*
X17891071Y-11636214D01*
X17848214Y-11636214D01*
X18119643Y-11636214D02*
X18091071Y-11621929D01*
X18076786Y-11593357D01*
X18076786Y-11336214D01*
X18348214Y-11621929D02*
X18319643Y-11636214D01*
X18262500Y-11636214D01*
X18233928Y-11621929D01*
X18219643Y-11593357D01*
X18219643Y-11479071D01*
X18233928Y-11450500D01*
X18262500Y-11436214D01*
X18319643Y-11436214D01*
X18348214Y-11450500D01*
X18362500Y-11479071D01*
X18362500Y-11507643D01*
X18219643Y-11536214D01*
X18476786Y-11621929D02*
X18505357Y-11636214D01*
X18562500Y-11636214D01*
X18591071Y-11621929D01*
X18605357Y-11593357D01*
X18605357Y-11579071D01*
X18591071Y-11550500D01*
X18562500Y-11536214D01*
X18519643Y-11536214D01*
X18491071Y-11521929D01*
X18476786Y-11493357D01*
X18476786Y-11479071D01*
X18491071Y-11450500D01*
X18519643Y-11436214D01*
X18562500Y-11436214D01*
X18591071Y-11450500D01*
X18705357Y-11750500D02*
X18719643Y-11736214D01*
X18748214Y-11693357D01*
X18762500Y-11664786D01*
X18776786Y-11621929D01*
X18791071Y-11550500D01*
X18791071Y-11493357D01*
X18776786Y-11421929D01*
X18762500Y-11379071D01*
X18748214Y-11350500D01*
X18719643Y-11307643D01*
X18705357Y-11293357D01*
M02*
