%FSLAX45Y45*%
G04 Gerber Fmt 4.5, Leading zero omitted, Abs format (unit mm)*
G04 Created by KiCad (PCBNEW (5.1.12)-1) date 2022-09-28 13:00:42*
%MOMM*%
%LPD*%
G01*
G04 APERTURE LIST*
%TA.AperFunction,Profile*%
%ADD10C,0.150000*%
%TD*%
%ADD11C,0.200000*%
%ADD12C,0.300000*%
G04 APERTURE END LIST*
D10*
X26400000Y-13640000D02*
X21600000Y-13640000D01*
X26400000Y-3640000D02*
X26400000Y-13640000D01*
X21600000Y-3640000D02*
X26400000Y-3640000D01*
X21600000Y-13640000D02*
X21600000Y-3640000D01*
D11*
X21670000Y-12810000D02*
X21690000Y-12830000D01*
X21690000Y-12810000D02*
X21670000Y-12830000D01*
X21700000Y-10570000D02*
X21720000Y-10590000D01*
X21720000Y-10570000D02*
X21700000Y-10590000D01*
X21700000Y-11170000D02*
X21720000Y-11190000D01*
X21720000Y-11170000D02*
X21700000Y-11190000D01*
X21720000Y-10490000D02*
X21740000Y-10510000D01*
X21740000Y-10490000D02*
X21720000Y-10510000D01*
X21720000Y-12290000D02*
X21740000Y-12310000D01*
X21740000Y-12290000D02*
X21720000Y-12310000D01*
X21737500Y-11307500D02*
X21757500Y-11327500D01*
X21757500Y-11307500D02*
X21737500Y-11327500D01*
X21940000Y-12290000D02*
X21960000Y-12310000D01*
X21960000Y-12290000D02*
X21940000Y-12310000D01*
X21950000Y-10460000D02*
X21970000Y-10480000D01*
X21970000Y-10460000D02*
X21950000Y-10480000D01*
X21967500Y-13082500D02*
X21987500Y-13102500D01*
X21987500Y-13082500D02*
X21967500Y-13102500D01*
X22000000Y-10380000D02*
X22020000Y-10400000D01*
X22020000Y-10380000D02*
X22000000Y-10400000D01*
X22080000Y-11620000D02*
X22100000Y-11640000D01*
X22100000Y-11620000D02*
X22080000Y-11640000D01*
X22230000Y-13400000D02*
X22250000Y-13420000D01*
X22250000Y-13400000D02*
X22230000Y-13420000D01*
X22310000Y-11240000D02*
X22330000Y-11260000D01*
X22330000Y-11240000D02*
X22310000Y-11260000D01*
X22370000Y-12810000D02*
X22390000Y-12830000D01*
X22390000Y-12810000D02*
X22370000Y-12830000D01*
X22430000Y-11290000D02*
X22450000Y-11310000D01*
X22450000Y-11290000D02*
X22430000Y-11310000D01*
X22510000Y-11080000D02*
X22530000Y-11100000D01*
X22530000Y-11080000D02*
X22510000Y-11100000D01*
X22600000Y-5540000D02*
X22620000Y-5560000D01*
X22620000Y-5540000D02*
X22600000Y-5560000D01*
X22640000Y-11290000D02*
X22660000Y-11310000D01*
X22660000Y-11290000D02*
X22640000Y-11310000D01*
X22740000Y-11220000D02*
X22760000Y-11240000D01*
X22760000Y-11220000D02*
X22740000Y-11240000D01*
X22770000Y-13260000D02*
X22790000Y-13280000D01*
X22790000Y-13260000D02*
X22770000Y-13280000D01*
X22810000Y-5480000D02*
X22830000Y-5500000D01*
X22830000Y-5480000D02*
X22810000Y-5500000D01*
X22885000Y-12775000D02*
X22905000Y-12795000D01*
X22905000Y-12775000D02*
X22885000Y-12795000D01*
X22940000Y-12434350D02*
X22960000Y-12454350D01*
X22960000Y-12434350D02*
X22940000Y-12454350D01*
X22975000Y-11955000D02*
X22995000Y-11975000D01*
X22995000Y-11955000D02*
X22975000Y-11975000D01*
X22990000Y-5490000D02*
X23010000Y-5510000D01*
X23010000Y-5490000D02*
X22990000Y-5510000D01*
X22990000Y-11290000D02*
X23010000Y-11310000D01*
X23010000Y-11290000D02*
X22990000Y-11310000D01*
X23010000Y-11497499D02*
X23030000Y-11517499D01*
X23030000Y-11497499D02*
X23010000Y-11517499D01*
X23050000Y-12090000D02*
X23070000Y-12110000D01*
X23070000Y-12090000D02*
X23050000Y-12110000D01*
X23070000Y-12740000D02*
X23090000Y-12760000D01*
X23090000Y-12740000D02*
X23070000Y-12760000D01*
X23080000Y-11310000D02*
X23100000Y-11330000D01*
X23100000Y-11310000D02*
X23080000Y-11330000D01*
X23090000Y-11650000D02*
X23110000Y-11670000D01*
X23110000Y-11650000D02*
X23090000Y-11670000D01*
X23180000Y-11330000D02*
X23200000Y-11350000D01*
X23200000Y-11330000D02*
X23180000Y-11350000D01*
X23250000Y-12890000D02*
X23270000Y-12910000D01*
X23270000Y-12890000D02*
X23250000Y-12910000D01*
X23280000Y-12320000D02*
X23300000Y-12340000D01*
X23300000Y-12320000D02*
X23280000Y-12340000D01*
X23290000Y-5480000D02*
X23310000Y-5500000D01*
X23310000Y-5480000D02*
X23290000Y-5500000D01*
X23320000Y-11420000D02*
X23340000Y-11440000D01*
X23340000Y-11420000D02*
X23320000Y-11440000D01*
X23386500Y-4986500D02*
X23406500Y-5006500D01*
X23406500Y-4986500D02*
X23386500Y-5006500D01*
X23400000Y-12470000D02*
X23420000Y-12490000D01*
X23420000Y-12470000D02*
X23400000Y-12490000D01*
X23435650Y-10720000D02*
X23455650Y-10740000D01*
X23455650Y-10720000D02*
X23435650Y-10740000D01*
X23465000Y-6065000D02*
X23485000Y-6085000D01*
X23485000Y-6065000D02*
X23465000Y-6085000D01*
X23511655Y-11871655D02*
X23531655Y-11891655D01*
X23531655Y-11871655D02*
X23511655Y-11891655D01*
X23520000Y-11960000D02*
X23540000Y-11980000D01*
X23540000Y-11960000D02*
X23520000Y-11980000D01*
X23545000Y-12985000D02*
X23565000Y-13005000D01*
X23565000Y-12985000D02*
X23545000Y-13005000D01*
X23550000Y-10750000D02*
X23570000Y-10770000D01*
X23570000Y-10750000D02*
X23550000Y-10770000D01*
X23570000Y-6069999D02*
X23590000Y-6089999D01*
X23590000Y-6069999D02*
X23570000Y-6089999D01*
X23580000Y-11110000D02*
X23600000Y-11130000D01*
X23600000Y-11110000D02*
X23580000Y-11130000D01*
X23590000Y-12680000D02*
X23610000Y-12700000D01*
X23610000Y-12680000D02*
X23590000Y-12700000D01*
X23600000Y-4960000D02*
X23620000Y-4980000D01*
X23620000Y-4960000D02*
X23600000Y-4980000D01*
X23650000Y-11760000D02*
X23670000Y-11780000D01*
X23670000Y-11760000D02*
X23650000Y-11780000D01*
X23660000Y-11130000D02*
X23680000Y-11150000D01*
X23680000Y-11130000D02*
X23660000Y-11150000D01*
X23680000Y-6610000D02*
X23700000Y-6630000D01*
X23700000Y-6610000D02*
X23680000Y-6630000D01*
X23740000Y-10690000D02*
X23760000Y-10710000D01*
X23760000Y-10690000D02*
X23740000Y-10710000D01*
X23745000Y-5335000D02*
X23765000Y-5355000D01*
X23765000Y-5335000D02*
X23745000Y-5355000D01*
X23790000Y-11820000D02*
X23810000Y-11840000D01*
X23810000Y-11820000D02*
X23790000Y-11840000D01*
X23830000Y-10690000D02*
X23850000Y-10710000D01*
X23850000Y-10690000D02*
X23830000Y-10710000D01*
X23840000Y-6510000D02*
X23860000Y-6530000D01*
X23860000Y-6510000D02*
X23840000Y-6530000D01*
X23860000Y-12140000D02*
X23880000Y-12160000D01*
X23880000Y-12140000D02*
X23860000Y-12160000D01*
X23920000Y-12650000D02*
X23940000Y-12670000D01*
X23940000Y-12650000D02*
X23920000Y-12670000D01*
X23940000Y-6530000D02*
X23960000Y-6550000D01*
X23960000Y-6530000D02*
X23940000Y-6550000D01*
X23950000Y-6450000D02*
X23970000Y-6470000D01*
X23970000Y-6450000D02*
X23950000Y-6470000D01*
X23960000Y-11120000D02*
X23980000Y-11140000D01*
X23980000Y-11120000D02*
X23960000Y-11140000D01*
X23960000Y-11890000D02*
X23980000Y-11910000D01*
X23980000Y-11890000D02*
X23960000Y-11910000D01*
X23960001Y-6630000D02*
X23980001Y-6650000D01*
X23980001Y-6630000D02*
X23960001Y-6650000D01*
X23980000Y-12430000D02*
X24000000Y-12450000D01*
X24000000Y-12430000D02*
X23980000Y-12450000D01*
X24025000Y-12985000D02*
X24045000Y-13005000D01*
X24045000Y-12985000D02*
X24025000Y-13005000D01*
X24030000Y-6590000D02*
X24050000Y-6610000D01*
X24050000Y-6590000D02*
X24030000Y-6610000D01*
X24030000Y-11280000D02*
X24050000Y-11300000D01*
X24050000Y-11280000D02*
X24030000Y-11300000D01*
X24060000Y-11370000D02*
X24080000Y-11390000D01*
X24080000Y-11370000D02*
X24060000Y-11390000D01*
X24060000Y-11450000D02*
X24080000Y-11470000D01*
X24080000Y-11450000D02*
X24060000Y-11470000D01*
X24060000Y-11520000D02*
X24080000Y-11540000D01*
X24080000Y-11520000D02*
X24060000Y-11540000D01*
X24070000Y-12330000D02*
X24090000Y-12350000D01*
X24090000Y-12330000D02*
X24070000Y-12350000D01*
X24080000Y-11960000D02*
X24100000Y-11980000D01*
X24100000Y-11960000D02*
X24080000Y-11980000D01*
X24100000Y-6550000D02*
X24120000Y-6570000D01*
X24120000Y-6550000D02*
X24100000Y-6570000D01*
X24140000Y-12050000D02*
X24160000Y-12070000D01*
X24160000Y-12050000D02*
X24140000Y-12070000D01*
X24180000Y-11590000D02*
X24200000Y-11610000D01*
X24200000Y-11590000D02*
X24180000Y-11610000D01*
X24181451Y-6519130D02*
X24201451Y-6539130D01*
X24201451Y-6519130D02*
X24181451Y-6539130D01*
X24200000Y-12010000D02*
X24220000Y-12030000D01*
X24220000Y-12010000D02*
X24200000Y-12030000D01*
X24220000Y-11680000D02*
X24240000Y-11700000D01*
X24240000Y-11680000D02*
X24220000Y-11700000D01*
X24237499Y-6470000D02*
X24257499Y-6490000D01*
X24257499Y-6470000D02*
X24237499Y-6490000D01*
X24252501Y-11910000D02*
X24272501Y-11930000D01*
X24272501Y-11910000D02*
X24252501Y-11930000D01*
X24260000Y-6390000D02*
X24280000Y-6410000D01*
X24280000Y-6390000D02*
X24260000Y-6410000D01*
X24280000Y-12610000D02*
X24300000Y-12630000D01*
X24300000Y-12610000D02*
X24280000Y-12630000D01*
X24320000Y-6320000D02*
X24340000Y-6340000D01*
X24340000Y-6320000D02*
X24320000Y-6340000D01*
X24380000Y-6270000D02*
X24400000Y-6290000D01*
X24400000Y-6270000D02*
X24380000Y-6290000D01*
X24440000Y-6230000D02*
X24460000Y-6250000D01*
X24460000Y-6230000D02*
X24440000Y-6250000D01*
X24510000Y-11920000D02*
X24530000Y-11940000D01*
X24530000Y-11920000D02*
X24510000Y-11940000D01*
X24520000Y-5620000D02*
X24540000Y-5640000D01*
X24540000Y-5620000D02*
X24520000Y-5640000D01*
X24530000Y-10798750D02*
X24550000Y-10818750D01*
X24550000Y-10798750D02*
X24530000Y-10818750D01*
X24538750Y-10981250D02*
X24558750Y-11001250D01*
X24558750Y-10981250D02*
X24538750Y-11001250D01*
X24590000Y-11430000D02*
X24610000Y-11450000D01*
X24610000Y-11430000D02*
X24590000Y-11450000D01*
X24600000Y-11860000D02*
X24620000Y-11880000D01*
X24620000Y-11860000D02*
X24600000Y-11880000D01*
X24630000Y-11110000D02*
X24650000Y-11130000D01*
X24650000Y-11110000D02*
X24630000Y-11130000D01*
X24630000Y-11240000D02*
X24650000Y-11260000D01*
X24650000Y-11240000D02*
X24630000Y-11260000D01*
X24650000Y-11480000D02*
X24670000Y-11500000D01*
X24670000Y-11480000D02*
X24650000Y-11500000D01*
X24670000Y-13190000D02*
X24690000Y-13210000D01*
X24690000Y-13190000D02*
X24670000Y-13210000D01*
X24870000Y-12470000D02*
X24890000Y-12490000D01*
X24890000Y-12470000D02*
X24870000Y-12490000D01*
X24915000Y-11565000D02*
X24935000Y-11585000D01*
X24935000Y-11565000D02*
X24915000Y-11585000D01*
X24965000Y-10735000D02*
X24985000Y-10755000D01*
X24985000Y-10735000D02*
X24965000Y-10755000D01*
X24976000Y-12686000D02*
X24996000Y-12706000D01*
X24996000Y-12686000D02*
X24976000Y-12706000D01*
X24985000Y-11830000D02*
X25005000Y-11850000D01*
X25005000Y-11830000D02*
X24985000Y-11850000D01*
X25080000Y-11310000D02*
X25100000Y-11330000D01*
X25100000Y-11310000D02*
X25080000Y-11330000D01*
X25090000Y-10890000D02*
X25110000Y-10910000D01*
X25110000Y-10890000D02*
X25090000Y-10910000D01*
X25105000Y-11565000D02*
X25125000Y-11585000D01*
X25125000Y-11565000D02*
X25105000Y-11585000D01*
X25230000Y-12780000D02*
X25250000Y-12800000D01*
X25250000Y-12780000D02*
X25230000Y-12800000D01*
X25230000Y-13220000D02*
X25250000Y-13240000D01*
X25250000Y-13220000D02*
X25230000Y-13240000D01*
X25280000Y-12380000D02*
X25300000Y-12400000D01*
X25300000Y-12380000D02*
X25280000Y-12400000D01*
X25300000Y-11950000D02*
X25320000Y-11970000D01*
X25320000Y-11950000D02*
X25300000Y-11970000D01*
X25357000Y-12687000D02*
X25377000Y-12707000D01*
X25377000Y-12687000D02*
X25357000Y-12707000D01*
X25415000Y-11800000D02*
X25435000Y-11820000D01*
X25435000Y-11800000D02*
X25415000Y-11820000D01*
X25418750Y-12528750D02*
X25438750Y-12548750D01*
X25438750Y-12528750D02*
X25418750Y-12548750D01*
X25484000Y-12684000D02*
X25504000Y-12704000D01*
X25504000Y-12684000D02*
X25484000Y-12704000D01*
X25510000Y-10890000D02*
X25530000Y-10910000D01*
X25530000Y-10890000D02*
X25510000Y-10910000D01*
X25510000Y-11310000D02*
X25530000Y-11330000D01*
X25530000Y-11310000D02*
X25510000Y-11330000D01*
X25530000Y-11100000D02*
X25550000Y-11120000D01*
X25550000Y-11100000D02*
X25530000Y-11120000D01*
X25601250Y-12538750D02*
X25621250Y-12558750D01*
X25621250Y-12538750D02*
X25601250Y-12558750D01*
X25605000Y-11820000D02*
X25625000Y-11840000D01*
X25625000Y-11820000D02*
X25605000Y-11840000D01*
X25720000Y-11480000D02*
X25740000Y-11500000D01*
X25740000Y-11480000D02*
X25720000Y-11500000D01*
X25730000Y-10880000D02*
X25750000Y-10900000D01*
X25750000Y-10880000D02*
X25730000Y-10900000D01*
X25940000Y-10880000D02*
X25960000Y-10900000D01*
X25960000Y-10880000D02*
X25940000Y-10900000D01*
X25940000Y-11500000D02*
X25960000Y-11520000D01*
X25960000Y-11500000D02*
X25940000Y-11520000D01*
X26150000Y-10880000D02*
X26170000Y-10900000D01*
X26170000Y-10880000D02*
X26150000Y-10900000D01*
X26160000Y-11500000D02*
X26180000Y-11520000D01*
X26180000Y-11500000D02*
X26160000Y-11520000D01*
X22080000Y-13270000D02*
G75*
G03*
X22080000Y-13270000I-20000J0D01*
G01*
X22250000Y-12230000D02*
G75*
G03*
X22250000Y-12230000I-20000J0D01*
G01*
X22250000Y-12560000D02*
G75*
G03*
X22250000Y-12560000I-20000J0D01*
G01*
X22550000Y-12230000D02*
G75*
G03*
X22550000Y-12230000I-20000J0D01*
G01*
X22550000Y-12560000D02*
G75*
G03*
X22550000Y-12560000I-20000J0D01*
G01*
X26340000Y-11380000D02*
G75*
G03*
X26340000Y-11380000I-20000J0D01*
G01*
X23439000Y-13355000D02*
X23439000Y-13465000D01*
X23384000Y-13410000D02*
X23494000Y-13410000D01*
X23693000Y-13355000D02*
X23693000Y-13465000D01*
X23638000Y-13410000D02*
X23748000Y-13410000D01*
X23947000Y-13355000D02*
X23947000Y-13465000D01*
X23892000Y-13410000D02*
X24002000Y-13410000D01*
X24201000Y-13355000D02*
X24201000Y-13465000D01*
X24146000Y-13410000D02*
X24256000Y-13410000D01*
X24498201Y-10418201D02*
X24498201Y-9781799D01*
X23861799Y-9781799D01*
X23861799Y-10418201D01*
X24498201Y-10418201D01*
X23180000Y-10540000D02*
X25180000Y-10540000D01*
X23180000Y-9660000D02*
X25180000Y-9660000D01*
X25180000Y-10540000D02*
G75*
G03*
X25180000Y-9660000I0J440000D01*
G01*
X23180000Y-9660000D02*
G75*
G03*
X23180000Y-10540000I0J-440000D01*
G01*
D12*
X21878928Y-14113214D02*
X21878928Y-13813214D01*
X21950357Y-13813214D01*
X21993214Y-13827500D01*
X22021786Y-13856071D01*
X22036071Y-13884643D01*
X22050357Y-13941786D01*
X22050357Y-13984643D01*
X22036071Y-14041786D01*
X22021786Y-14070357D01*
X21993214Y-14098929D01*
X21950357Y-14113214D01*
X21878928Y-14113214D01*
X22178928Y-14113214D02*
X22178928Y-13913214D01*
X22178928Y-13970357D02*
X22193214Y-13941786D01*
X22207500Y-13927500D01*
X22236071Y-13913214D01*
X22264643Y-13913214D01*
X22364643Y-14113214D02*
X22364643Y-13913214D01*
X22364643Y-13813214D02*
X22350357Y-13827500D01*
X22364643Y-13841786D01*
X22378928Y-13827500D01*
X22364643Y-13813214D01*
X22364643Y-13841786D01*
X22550357Y-14113214D02*
X22521786Y-14098929D01*
X22507500Y-14070357D01*
X22507500Y-13813214D01*
X22707500Y-14113214D02*
X22678928Y-14098929D01*
X22664643Y-14070357D01*
X22664643Y-13813214D01*
X23050357Y-14113214D02*
X23050357Y-13813214D01*
X23150357Y-14027500D01*
X23250357Y-13813214D01*
X23250357Y-14113214D01*
X23521786Y-14113214D02*
X23521786Y-13956071D01*
X23507500Y-13927500D01*
X23478928Y-13913214D01*
X23421786Y-13913214D01*
X23393214Y-13927500D01*
X23521786Y-14098929D02*
X23493214Y-14113214D01*
X23421786Y-14113214D01*
X23393214Y-14098929D01*
X23378928Y-14070357D01*
X23378928Y-14041786D01*
X23393214Y-14013214D01*
X23421786Y-13998929D01*
X23493214Y-13998929D01*
X23521786Y-13984643D01*
X23664643Y-13913214D02*
X23664643Y-14213214D01*
X23664643Y-13927500D02*
X23693214Y-13913214D01*
X23750357Y-13913214D01*
X23778928Y-13927500D01*
X23793214Y-13941786D01*
X23807500Y-13970357D01*
X23807500Y-14056071D01*
X23793214Y-14084643D01*
X23778928Y-14098929D01*
X23750357Y-14113214D01*
X23693214Y-14113214D01*
X23664643Y-14098929D01*
X23936071Y-14084643D02*
X23950357Y-14098929D01*
X23936071Y-14113214D01*
X23921786Y-14098929D01*
X23936071Y-14084643D01*
X23936071Y-14113214D01*
X23936071Y-13927500D02*
X23950357Y-13941786D01*
X23936071Y-13956071D01*
X23921786Y-13941786D01*
X23936071Y-13927500D01*
X23936071Y-13956071D01*
X21572500Y-14597500D02*
X21592500Y-14617500D01*
X21592500Y-14597500D02*
X21572500Y-14617500D01*
X21936071Y-14443214D02*
X21964643Y-14443214D01*
X21993214Y-14457500D01*
X22007500Y-14471786D01*
X22021786Y-14500357D01*
X22036071Y-14557500D01*
X22036071Y-14628929D01*
X22021786Y-14686071D01*
X22007500Y-14714643D01*
X21993214Y-14728929D01*
X21964643Y-14743214D01*
X21936071Y-14743214D01*
X21907500Y-14728929D01*
X21893214Y-14714643D01*
X21878928Y-14686071D01*
X21864643Y-14628929D01*
X21864643Y-14557500D01*
X21878928Y-14500357D01*
X21893214Y-14471786D01*
X21907500Y-14457500D01*
X21936071Y-14443214D01*
X22164643Y-14714643D02*
X22178928Y-14728929D01*
X22164643Y-14743214D01*
X22150357Y-14728929D01*
X22164643Y-14714643D01*
X22164643Y-14743214D01*
X22293214Y-14471786D02*
X22307500Y-14457500D01*
X22336071Y-14443214D01*
X22407500Y-14443214D01*
X22436071Y-14457500D01*
X22450357Y-14471786D01*
X22464643Y-14500357D01*
X22464643Y-14528929D01*
X22450357Y-14571786D01*
X22278928Y-14743214D01*
X22464643Y-14743214D01*
X22650357Y-14443214D02*
X22678928Y-14443214D01*
X22707500Y-14457500D01*
X22721786Y-14471786D01*
X22736071Y-14500357D01*
X22750357Y-14557500D01*
X22750357Y-14628929D01*
X22736071Y-14686071D01*
X22721786Y-14714643D01*
X22707500Y-14728929D01*
X22678928Y-14743214D01*
X22650357Y-14743214D01*
X22621786Y-14728929D01*
X22607500Y-14714643D01*
X22593214Y-14686071D01*
X22578928Y-14628929D01*
X22578928Y-14557500D01*
X22593214Y-14500357D01*
X22607500Y-14471786D01*
X22621786Y-14457500D01*
X22650357Y-14443214D01*
X22936071Y-14443214D02*
X22964643Y-14443214D01*
X22993214Y-14457500D01*
X23007500Y-14471786D01*
X23021786Y-14500357D01*
X23036071Y-14557500D01*
X23036071Y-14628929D01*
X23021786Y-14686071D01*
X23007500Y-14714643D01*
X22993214Y-14728929D01*
X22964643Y-14743214D01*
X22936071Y-14743214D01*
X22907500Y-14728929D01*
X22893214Y-14714643D01*
X22878928Y-14686071D01*
X22864643Y-14628929D01*
X22864643Y-14557500D01*
X22878928Y-14500357D01*
X22893214Y-14471786D01*
X22907500Y-14457500D01*
X22936071Y-14443214D01*
X23164643Y-14743214D02*
X23164643Y-14543214D01*
X23164643Y-14571786D02*
X23178928Y-14557500D01*
X23207500Y-14543214D01*
X23250357Y-14543214D01*
X23278928Y-14557500D01*
X23293214Y-14586071D01*
X23293214Y-14743214D01*
X23293214Y-14586071D02*
X23307500Y-14557500D01*
X23336071Y-14543214D01*
X23378928Y-14543214D01*
X23407500Y-14557500D01*
X23421786Y-14586071D01*
X23421786Y-14743214D01*
X23564643Y-14743214D02*
X23564643Y-14543214D01*
X23564643Y-14571786D02*
X23578928Y-14557500D01*
X23607500Y-14543214D01*
X23650357Y-14543214D01*
X23678928Y-14557500D01*
X23693214Y-14586071D01*
X23693214Y-14743214D01*
X23693214Y-14586071D02*
X23707500Y-14557500D01*
X23736071Y-14543214D01*
X23778928Y-14543214D01*
X23807500Y-14557500D01*
X23821786Y-14586071D01*
X23821786Y-14743214D01*
X24407500Y-14428929D02*
X24150357Y-14814643D01*
X24793214Y-14443214D02*
X24821786Y-14443214D01*
X24850357Y-14457500D01*
X24864643Y-14471786D01*
X24878928Y-14500357D01*
X24893214Y-14557500D01*
X24893214Y-14628929D01*
X24878928Y-14686071D01*
X24864643Y-14714643D01*
X24850357Y-14728929D01*
X24821786Y-14743214D01*
X24793214Y-14743214D01*
X24764643Y-14728929D01*
X24750357Y-14714643D01*
X24736071Y-14686071D01*
X24721786Y-14628929D01*
X24721786Y-14557500D01*
X24736071Y-14500357D01*
X24750357Y-14471786D01*
X24764643Y-14457500D01*
X24793214Y-14443214D01*
X25021786Y-14714643D02*
X25036071Y-14728929D01*
X25021786Y-14743214D01*
X25007500Y-14728929D01*
X25021786Y-14714643D01*
X25021786Y-14743214D01*
X25221786Y-14443214D02*
X25250357Y-14443214D01*
X25278928Y-14457500D01*
X25293214Y-14471786D01*
X25307500Y-14500357D01*
X25321786Y-14557500D01*
X25321786Y-14628929D01*
X25307500Y-14686071D01*
X25293214Y-14714643D01*
X25278928Y-14728929D01*
X25250357Y-14743214D01*
X25221786Y-14743214D01*
X25193214Y-14728929D01*
X25178928Y-14714643D01*
X25164643Y-14686071D01*
X25150357Y-14628929D01*
X25150357Y-14557500D01*
X25164643Y-14500357D01*
X25178928Y-14471786D01*
X25193214Y-14457500D01*
X25221786Y-14443214D01*
X25507500Y-14443214D02*
X25536071Y-14443214D01*
X25564643Y-14457500D01*
X25578928Y-14471786D01*
X25593214Y-14500357D01*
X25607500Y-14557500D01*
X25607500Y-14628929D01*
X25593214Y-14686071D01*
X25578928Y-14714643D01*
X25564643Y-14728929D01*
X25536071Y-14743214D01*
X25507500Y-14743214D01*
X25478928Y-14728929D01*
X25464643Y-14714643D01*
X25450357Y-14686071D01*
X25436071Y-14628929D01*
X25436071Y-14557500D01*
X25450357Y-14500357D01*
X25464643Y-14471786D01*
X25478928Y-14457500D01*
X25507500Y-14443214D01*
X25707500Y-14443214D02*
X25907500Y-14443214D01*
X25778928Y-14743214D01*
X26036071Y-14743214D02*
X26093214Y-14743214D01*
X26121786Y-14728929D01*
X26136071Y-14714643D01*
X26164643Y-14671786D01*
X26178928Y-14614643D01*
X26178928Y-14500357D01*
X26164643Y-14471786D01*
X26150357Y-14457500D01*
X26121786Y-14443214D01*
X26064643Y-14443214D01*
X26036071Y-14457500D01*
X26021786Y-14471786D01*
X26007500Y-14500357D01*
X26007500Y-14571786D01*
X26021786Y-14600357D01*
X26036071Y-14614643D01*
X26064643Y-14628929D01*
X26121786Y-14628929D01*
X26150357Y-14614643D01*
X26164643Y-14600357D01*
X26178928Y-14571786D01*
X26293214Y-14443214D02*
X26293214Y-14500357D01*
X26407500Y-14443214D02*
X26407500Y-14500357D01*
X26850357Y-14857500D02*
X26836071Y-14843214D01*
X26807500Y-14800357D01*
X26793214Y-14771786D01*
X26778928Y-14728929D01*
X26764643Y-14657500D01*
X26764643Y-14600357D01*
X26778928Y-14528929D01*
X26793214Y-14486071D01*
X26807500Y-14457500D01*
X26836071Y-14414643D01*
X26850357Y-14400357D01*
X27121786Y-14743214D02*
X26950357Y-14743214D01*
X27036071Y-14743214D02*
X27036071Y-14443214D01*
X27007500Y-14486071D01*
X26978928Y-14514643D01*
X26950357Y-14528929D01*
X27236071Y-14471786D02*
X27250357Y-14457500D01*
X27278928Y-14443214D01*
X27350357Y-14443214D01*
X27378928Y-14457500D01*
X27393214Y-14471786D01*
X27407500Y-14500357D01*
X27407500Y-14528929D01*
X27393214Y-14571786D01*
X27221786Y-14743214D01*
X27407500Y-14743214D01*
X27521786Y-14471786D02*
X27536071Y-14457500D01*
X27564643Y-14443214D01*
X27636071Y-14443214D01*
X27664643Y-14457500D01*
X27678928Y-14471786D01*
X27693214Y-14500357D01*
X27693214Y-14528929D01*
X27678928Y-14571786D01*
X27507500Y-14743214D01*
X27693214Y-14743214D01*
X28050357Y-14743214D02*
X28050357Y-14443214D01*
X28178928Y-14743214D02*
X28178928Y-14586071D01*
X28164643Y-14557500D01*
X28136071Y-14543214D01*
X28093214Y-14543214D01*
X28064643Y-14557500D01*
X28050357Y-14571786D01*
X28364643Y-14743214D02*
X28336071Y-14728929D01*
X28321786Y-14714643D01*
X28307500Y-14686071D01*
X28307500Y-14600357D01*
X28321786Y-14571786D01*
X28336071Y-14557500D01*
X28364643Y-14543214D01*
X28407500Y-14543214D01*
X28436071Y-14557500D01*
X28450357Y-14571786D01*
X28464643Y-14600357D01*
X28464643Y-14686071D01*
X28450357Y-14714643D01*
X28436071Y-14728929D01*
X28407500Y-14743214D01*
X28364643Y-14743214D01*
X28636071Y-14743214D02*
X28607500Y-14728929D01*
X28593214Y-14700357D01*
X28593214Y-14443214D01*
X28864643Y-14728929D02*
X28836071Y-14743214D01*
X28778928Y-14743214D01*
X28750357Y-14728929D01*
X28736071Y-14700357D01*
X28736071Y-14586071D01*
X28750357Y-14557500D01*
X28778928Y-14543214D01*
X28836071Y-14543214D01*
X28864643Y-14557500D01*
X28878928Y-14586071D01*
X28878928Y-14614643D01*
X28736071Y-14643214D01*
X28993214Y-14728929D02*
X29021786Y-14743214D01*
X29078928Y-14743214D01*
X29107500Y-14728929D01*
X29121786Y-14700357D01*
X29121786Y-14686071D01*
X29107500Y-14657500D01*
X29078928Y-14643214D01*
X29036071Y-14643214D01*
X29007500Y-14628929D01*
X28993214Y-14600357D01*
X28993214Y-14586071D01*
X29007500Y-14557500D01*
X29036071Y-14543214D01*
X29078928Y-14543214D01*
X29107500Y-14557500D01*
X29221786Y-14857500D02*
X29236071Y-14843214D01*
X29264643Y-14800357D01*
X29278928Y-14771786D01*
X29293214Y-14728929D01*
X29307500Y-14657500D01*
X29307500Y-14600357D01*
X29293214Y-14528929D01*
X29278928Y-14486071D01*
X29264643Y-14457500D01*
X29236071Y-14414643D01*
X29221786Y-14400357D01*
X21592500Y-15003500D02*
G75*
G03*
X21592500Y-15003500I-20000J0D01*
G01*
X21936071Y-14839214D02*
X21964643Y-14839214D01*
X21993214Y-14853500D01*
X22007500Y-14867786D01*
X22021786Y-14896357D01*
X22036071Y-14953500D01*
X22036071Y-15024929D01*
X22021786Y-15082071D01*
X22007500Y-15110643D01*
X21993214Y-15124929D01*
X21964643Y-15139214D01*
X21936071Y-15139214D01*
X21907500Y-15124929D01*
X21893214Y-15110643D01*
X21878928Y-15082071D01*
X21864643Y-15024929D01*
X21864643Y-14953500D01*
X21878928Y-14896357D01*
X21893214Y-14867786D01*
X21907500Y-14853500D01*
X21936071Y-14839214D01*
X22164643Y-15110643D02*
X22178928Y-15124929D01*
X22164643Y-15139214D01*
X22150357Y-15124929D01*
X22164643Y-15110643D01*
X22164643Y-15139214D01*
X22436071Y-14939214D02*
X22436071Y-15139214D01*
X22364643Y-14824929D02*
X22293214Y-15039214D01*
X22478928Y-15039214D01*
X22650357Y-14839214D02*
X22678928Y-14839214D01*
X22707500Y-14853500D01*
X22721786Y-14867786D01*
X22736071Y-14896357D01*
X22750357Y-14953500D01*
X22750357Y-15024929D01*
X22736071Y-15082071D01*
X22721786Y-15110643D01*
X22707500Y-15124929D01*
X22678928Y-15139214D01*
X22650357Y-15139214D01*
X22621786Y-15124929D01*
X22607500Y-15110643D01*
X22593214Y-15082071D01*
X22578928Y-15024929D01*
X22578928Y-14953500D01*
X22593214Y-14896357D01*
X22607500Y-14867786D01*
X22621786Y-14853500D01*
X22650357Y-14839214D01*
X22936071Y-14839214D02*
X22964643Y-14839214D01*
X22993214Y-14853500D01*
X23007500Y-14867786D01*
X23021786Y-14896357D01*
X23036071Y-14953500D01*
X23036071Y-15024929D01*
X23021786Y-15082071D01*
X23007500Y-15110643D01*
X22993214Y-15124929D01*
X22964643Y-15139214D01*
X22936071Y-15139214D01*
X22907500Y-15124929D01*
X22893214Y-15110643D01*
X22878928Y-15082071D01*
X22864643Y-15024929D01*
X22864643Y-14953500D01*
X22878928Y-14896357D01*
X22893214Y-14867786D01*
X22907500Y-14853500D01*
X22936071Y-14839214D01*
X23164643Y-15139214D02*
X23164643Y-14939214D01*
X23164643Y-14967786D02*
X23178928Y-14953500D01*
X23207500Y-14939214D01*
X23250357Y-14939214D01*
X23278928Y-14953500D01*
X23293214Y-14982071D01*
X23293214Y-15139214D01*
X23293214Y-14982071D02*
X23307500Y-14953500D01*
X23336071Y-14939214D01*
X23378928Y-14939214D01*
X23407500Y-14953500D01*
X23421786Y-14982071D01*
X23421786Y-15139214D01*
X23564643Y-15139214D02*
X23564643Y-14939214D01*
X23564643Y-14967786D02*
X23578928Y-14953500D01*
X23607500Y-14939214D01*
X23650357Y-14939214D01*
X23678928Y-14953500D01*
X23693214Y-14982071D01*
X23693214Y-15139214D01*
X23693214Y-14982071D02*
X23707500Y-14953500D01*
X23736071Y-14939214D01*
X23778928Y-14939214D01*
X23807500Y-14953500D01*
X23821786Y-14982071D01*
X23821786Y-15139214D01*
X24407500Y-14824929D02*
X24150357Y-15210643D01*
X24793214Y-14839214D02*
X24821786Y-14839214D01*
X24850357Y-14853500D01*
X24864643Y-14867786D01*
X24878928Y-14896357D01*
X24893214Y-14953500D01*
X24893214Y-15024929D01*
X24878928Y-15082071D01*
X24864643Y-15110643D01*
X24850357Y-15124929D01*
X24821786Y-15139214D01*
X24793214Y-15139214D01*
X24764643Y-15124929D01*
X24750357Y-15110643D01*
X24736071Y-15082071D01*
X24721786Y-15024929D01*
X24721786Y-14953500D01*
X24736071Y-14896357D01*
X24750357Y-14867786D01*
X24764643Y-14853500D01*
X24793214Y-14839214D01*
X25021786Y-15110643D02*
X25036071Y-15124929D01*
X25021786Y-15139214D01*
X25007500Y-15124929D01*
X25021786Y-15110643D01*
X25021786Y-15139214D01*
X25221786Y-14839214D02*
X25250357Y-14839214D01*
X25278928Y-14853500D01*
X25293214Y-14867786D01*
X25307500Y-14896357D01*
X25321786Y-14953500D01*
X25321786Y-15024929D01*
X25307500Y-15082071D01*
X25293214Y-15110643D01*
X25278928Y-15124929D01*
X25250357Y-15139214D01*
X25221786Y-15139214D01*
X25193214Y-15124929D01*
X25178928Y-15110643D01*
X25164643Y-15082071D01*
X25150357Y-15024929D01*
X25150357Y-14953500D01*
X25164643Y-14896357D01*
X25178928Y-14867786D01*
X25193214Y-14853500D01*
X25221786Y-14839214D01*
X25607500Y-15139214D02*
X25436071Y-15139214D01*
X25521786Y-15139214D02*
X25521786Y-14839214D01*
X25493214Y-14882071D01*
X25464643Y-14910643D01*
X25436071Y-14924929D01*
X25878928Y-14839214D02*
X25736071Y-14839214D01*
X25721786Y-14982071D01*
X25736071Y-14967786D01*
X25764643Y-14953500D01*
X25836071Y-14953500D01*
X25864643Y-14967786D01*
X25878928Y-14982071D01*
X25893214Y-15010643D01*
X25893214Y-15082071D01*
X25878928Y-15110643D01*
X25864643Y-15124929D01*
X25836071Y-15139214D01*
X25764643Y-15139214D01*
X25736071Y-15124929D01*
X25721786Y-15110643D01*
X25993214Y-14839214D02*
X26193214Y-14839214D01*
X26064643Y-15139214D01*
X26293214Y-14839214D02*
X26293214Y-14896357D01*
X26407500Y-14839214D02*
X26407500Y-14896357D01*
X26850357Y-15253500D02*
X26836071Y-15239214D01*
X26807500Y-15196357D01*
X26793214Y-15167786D01*
X26778928Y-15124929D01*
X26764643Y-15053500D01*
X26764643Y-14996357D01*
X26778928Y-14924929D01*
X26793214Y-14882071D01*
X26807500Y-14853500D01*
X26836071Y-14810643D01*
X26850357Y-14796357D01*
X27093214Y-14839214D02*
X27036071Y-14839214D01*
X27007500Y-14853500D01*
X26993214Y-14867786D01*
X26964643Y-14910643D01*
X26950357Y-14967786D01*
X26950357Y-15082071D01*
X26964643Y-15110643D01*
X26978928Y-15124929D01*
X27007500Y-15139214D01*
X27064643Y-15139214D01*
X27093214Y-15124929D01*
X27107500Y-15110643D01*
X27121786Y-15082071D01*
X27121786Y-15010643D01*
X27107500Y-14982071D01*
X27093214Y-14967786D01*
X27064643Y-14953500D01*
X27007500Y-14953500D01*
X26978928Y-14967786D01*
X26964643Y-14982071D01*
X26950357Y-15010643D01*
X27478928Y-15139214D02*
X27478928Y-14839214D01*
X27607500Y-15139214D02*
X27607500Y-14982071D01*
X27593214Y-14953500D01*
X27564643Y-14939214D01*
X27521786Y-14939214D01*
X27493214Y-14953500D01*
X27478928Y-14967786D01*
X27793214Y-15139214D02*
X27764643Y-15124929D01*
X27750357Y-15110643D01*
X27736071Y-15082071D01*
X27736071Y-14996357D01*
X27750357Y-14967786D01*
X27764643Y-14953500D01*
X27793214Y-14939214D01*
X27836071Y-14939214D01*
X27864643Y-14953500D01*
X27878928Y-14967786D01*
X27893214Y-14996357D01*
X27893214Y-15082071D01*
X27878928Y-15110643D01*
X27864643Y-15124929D01*
X27836071Y-15139214D01*
X27793214Y-15139214D01*
X28064643Y-15139214D02*
X28036071Y-15124929D01*
X28021786Y-15096357D01*
X28021786Y-14839214D01*
X28293214Y-15124929D02*
X28264643Y-15139214D01*
X28207500Y-15139214D01*
X28178928Y-15124929D01*
X28164643Y-15096357D01*
X28164643Y-14982071D01*
X28178928Y-14953500D01*
X28207500Y-14939214D01*
X28264643Y-14939214D01*
X28293214Y-14953500D01*
X28307500Y-14982071D01*
X28307500Y-15010643D01*
X28164643Y-15039214D01*
X28421786Y-15124929D02*
X28450357Y-15139214D01*
X28507500Y-15139214D01*
X28536071Y-15124929D01*
X28550357Y-15096357D01*
X28550357Y-15082071D01*
X28536071Y-15053500D01*
X28507500Y-15039214D01*
X28464643Y-15039214D01*
X28436071Y-15024929D01*
X28421786Y-14996357D01*
X28421786Y-14982071D01*
X28436071Y-14953500D01*
X28464643Y-14939214D01*
X28507500Y-14939214D01*
X28536071Y-14953500D01*
X28650357Y-15253500D02*
X28664643Y-15239214D01*
X28693214Y-15196357D01*
X28707500Y-15167786D01*
X28721786Y-15124929D01*
X28736071Y-15053500D01*
X28736071Y-14996357D01*
X28721786Y-14924929D01*
X28707500Y-14882071D01*
X28693214Y-14853500D01*
X28664643Y-14810643D01*
X28650357Y-14796357D01*
X21537500Y-15344500D02*
X21537500Y-15454500D01*
X21482500Y-15399500D02*
X21592500Y-15399500D01*
X22036071Y-15535214D02*
X21864643Y-15535214D01*
X21950357Y-15535214D02*
X21950357Y-15235214D01*
X21921786Y-15278071D01*
X21893214Y-15306643D01*
X21864643Y-15320929D01*
X22164643Y-15506643D02*
X22178928Y-15520929D01*
X22164643Y-15535214D01*
X22150357Y-15520929D01*
X22164643Y-15506643D01*
X22164643Y-15535214D01*
X22464643Y-15535214D02*
X22293214Y-15535214D01*
X22378928Y-15535214D02*
X22378928Y-15235214D01*
X22350357Y-15278071D01*
X22321786Y-15306643D01*
X22293214Y-15320929D01*
X22650357Y-15235214D02*
X22678928Y-15235214D01*
X22707500Y-15249500D01*
X22721786Y-15263786D01*
X22736071Y-15292357D01*
X22750357Y-15349500D01*
X22750357Y-15420929D01*
X22736071Y-15478071D01*
X22721786Y-15506643D01*
X22707500Y-15520929D01*
X22678928Y-15535214D01*
X22650357Y-15535214D01*
X22621786Y-15520929D01*
X22607500Y-15506643D01*
X22593214Y-15478071D01*
X22578928Y-15420929D01*
X22578928Y-15349500D01*
X22593214Y-15292357D01*
X22607500Y-15263786D01*
X22621786Y-15249500D01*
X22650357Y-15235214D01*
X22936071Y-15235214D02*
X22964643Y-15235214D01*
X22993214Y-15249500D01*
X23007500Y-15263786D01*
X23021786Y-15292357D01*
X23036071Y-15349500D01*
X23036071Y-15420929D01*
X23021786Y-15478071D01*
X23007500Y-15506643D01*
X22993214Y-15520929D01*
X22964643Y-15535214D01*
X22936071Y-15535214D01*
X22907500Y-15520929D01*
X22893214Y-15506643D01*
X22878928Y-15478071D01*
X22864643Y-15420929D01*
X22864643Y-15349500D01*
X22878928Y-15292357D01*
X22893214Y-15263786D01*
X22907500Y-15249500D01*
X22936071Y-15235214D01*
X23164643Y-15535214D02*
X23164643Y-15335214D01*
X23164643Y-15363786D02*
X23178928Y-15349500D01*
X23207500Y-15335214D01*
X23250357Y-15335214D01*
X23278928Y-15349500D01*
X23293214Y-15378071D01*
X23293214Y-15535214D01*
X23293214Y-15378071D02*
X23307500Y-15349500D01*
X23336071Y-15335214D01*
X23378928Y-15335214D01*
X23407500Y-15349500D01*
X23421786Y-15378071D01*
X23421786Y-15535214D01*
X23564643Y-15535214D02*
X23564643Y-15335214D01*
X23564643Y-15363786D02*
X23578928Y-15349500D01*
X23607500Y-15335214D01*
X23650357Y-15335214D01*
X23678928Y-15349500D01*
X23693214Y-15378071D01*
X23693214Y-15535214D01*
X23693214Y-15378071D02*
X23707500Y-15349500D01*
X23736071Y-15335214D01*
X23778928Y-15335214D01*
X23807500Y-15349500D01*
X23821786Y-15378071D01*
X23821786Y-15535214D01*
X24407500Y-15220929D02*
X24150357Y-15606643D01*
X24793214Y-15235214D02*
X24821786Y-15235214D01*
X24850357Y-15249500D01*
X24864643Y-15263786D01*
X24878928Y-15292357D01*
X24893214Y-15349500D01*
X24893214Y-15420929D01*
X24878928Y-15478071D01*
X24864643Y-15506643D01*
X24850357Y-15520929D01*
X24821786Y-15535214D01*
X24793214Y-15535214D01*
X24764643Y-15520929D01*
X24750357Y-15506643D01*
X24736071Y-15478071D01*
X24721786Y-15420929D01*
X24721786Y-15349500D01*
X24736071Y-15292357D01*
X24750357Y-15263786D01*
X24764643Y-15249500D01*
X24793214Y-15235214D01*
X25021786Y-15506643D02*
X25036071Y-15520929D01*
X25021786Y-15535214D01*
X25007500Y-15520929D01*
X25021786Y-15506643D01*
X25021786Y-15535214D01*
X25221786Y-15235214D02*
X25250357Y-15235214D01*
X25278928Y-15249500D01*
X25293214Y-15263786D01*
X25307500Y-15292357D01*
X25321786Y-15349500D01*
X25321786Y-15420929D01*
X25307500Y-15478071D01*
X25293214Y-15506643D01*
X25278928Y-15520929D01*
X25250357Y-15535214D01*
X25221786Y-15535214D01*
X25193214Y-15520929D01*
X25178928Y-15506643D01*
X25164643Y-15478071D01*
X25150357Y-15420929D01*
X25150357Y-15349500D01*
X25164643Y-15292357D01*
X25178928Y-15263786D01*
X25193214Y-15249500D01*
X25221786Y-15235214D01*
X25578928Y-15335214D02*
X25578928Y-15535214D01*
X25507500Y-15220929D02*
X25436071Y-15435214D01*
X25621786Y-15435214D01*
X25707500Y-15235214D02*
X25893214Y-15235214D01*
X25793214Y-15349500D01*
X25836071Y-15349500D01*
X25864643Y-15363786D01*
X25878928Y-15378071D01*
X25893214Y-15406643D01*
X25893214Y-15478071D01*
X25878928Y-15506643D01*
X25864643Y-15520929D01*
X25836071Y-15535214D01*
X25750357Y-15535214D01*
X25721786Y-15520929D01*
X25707500Y-15506643D01*
X25993214Y-15235214D02*
X26178928Y-15235214D01*
X26078928Y-15349500D01*
X26121786Y-15349500D01*
X26150357Y-15363786D01*
X26164643Y-15378071D01*
X26178928Y-15406643D01*
X26178928Y-15478071D01*
X26164643Y-15506643D01*
X26150357Y-15520929D01*
X26121786Y-15535214D01*
X26036071Y-15535214D01*
X26007500Y-15520929D01*
X25993214Y-15506643D01*
X26293214Y-15235214D02*
X26293214Y-15292357D01*
X26407500Y-15235214D02*
X26407500Y-15292357D01*
X26850357Y-15649500D02*
X26836071Y-15635214D01*
X26807500Y-15592357D01*
X26793214Y-15563786D01*
X26778928Y-15520929D01*
X26764643Y-15449500D01*
X26764643Y-15392357D01*
X26778928Y-15320929D01*
X26793214Y-15278071D01*
X26807500Y-15249500D01*
X26836071Y-15206643D01*
X26850357Y-15192357D01*
X27093214Y-15335214D02*
X27093214Y-15535214D01*
X27021786Y-15220929D02*
X26950357Y-15435214D01*
X27136071Y-15435214D01*
X27478928Y-15535214D02*
X27478928Y-15235214D01*
X27607500Y-15535214D02*
X27607500Y-15378071D01*
X27593214Y-15349500D01*
X27564643Y-15335214D01*
X27521786Y-15335214D01*
X27493214Y-15349500D01*
X27478928Y-15363786D01*
X27793214Y-15535214D02*
X27764643Y-15520929D01*
X27750357Y-15506643D01*
X27736071Y-15478071D01*
X27736071Y-15392357D01*
X27750357Y-15363786D01*
X27764643Y-15349500D01*
X27793214Y-15335214D01*
X27836071Y-15335214D01*
X27864643Y-15349500D01*
X27878928Y-15363786D01*
X27893214Y-15392357D01*
X27893214Y-15478071D01*
X27878928Y-15506643D01*
X27864643Y-15520929D01*
X27836071Y-15535214D01*
X27793214Y-15535214D01*
X28064643Y-15535214D02*
X28036071Y-15520929D01*
X28021786Y-15492357D01*
X28021786Y-15235214D01*
X28293214Y-15520929D02*
X28264643Y-15535214D01*
X28207500Y-15535214D01*
X28178928Y-15520929D01*
X28164643Y-15492357D01*
X28164643Y-15378071D01*
X28178928Y-15349500D01*
X28207500Y-15335214D01*
X28264643Y-15335214D01*
X28293214Y-15349500D01*
X28307500Y-15378071D01*
X28307500Y-15406643D01*
X28164643Y-15435214D01*
X28421786Y-15520929D02*
X28450357Y-15535214D01*
X28507500Y-15535214D01*
X28536071Y-15520929D01*
X28550357Y-15492357D01*
X28550357Y-15478071D01*
X28536071Y-15449500D01*
X28507500Y-15435214D01*
X28464643Y-15435214D01*
X28436071Y-15420929D01*
X28421786Y-15392357D01*
X28421786Y-15378071D01*
X28436071Y-15349500D01*
X28464643Y-15335214D01*
X28507500Y-15335214D01*
X28536071Y-15349500D01*
X28650357Y-15649500D02*
X28664643Y-15635214D01*
X28693214Y-15592357D01*
X28707500Y-15563786D01*
X28721786Y-15520929D01*
X28736071Y-15449500D01*
X28736071Y-15392357D01*
X28721786Y-15320929D01*
X28707500Y-15278071D01*
X28693214Y-15249500D01*
X28664643Y-15206643D01*
X28650357Y-15192357D01*
X21460701Y-16113701D02*
X21460701Y-15477299D01*
X20824299Y-15477299D01*
X20824299Y-16113701D01*
X21460701Y-16113701D01*
X21893214Y-15931214D02*
X21950357Y-15931214D01*
X21978928Y-15916929D01*
X21993214Y-15902643D01*
X22021786Y-15859786D01*
X22036071Y-15802643D01*
X22036071Y-15688357D01*
X22021786Y-15659786D01*
X22007500Y-15645500D01*
X21978928Y-15631214D01*
X21921786Y-15631214D01*
X21893214Y-15645500D01*
X21878928Y-15659786D01*
X21864643Y-15688357D01*
X21864643Y-15759786D01*
X21878928Y-15788357D01*
X21893214Y-15802643D01*
X21921786Y-15816929D01*
X21978928Y-15816929D01*
X22007500Y-15802643D01*
X22021786Y-15788357D01*
X22036071Y-15759786D01*
X22164643Y-15902643D02*
X22178928Y-15916929D01*
X22164643Y-15931214D01*
X22150357Y-15916929D01*
X22164643Y-15902643D01*
X22164643Y-15931214D01*
X22364643Y-15631214D02*
X22393214Y-15631214D01*
X22421786Y-15645500D01*
X22436071Y-15659786D01*
X22450357Y-15688357D01*
X22464643Y-15745500D01*
X22464643Y-15816929D01*
X22450357Y-15874071D01*
X22436071Y-15902643D01*
X22421786Y-15916929D01*
X22393214Y-15931214D01*
X22364643Y-15931214D01*
X22336071Y-15916929D01*
X22321786Y-15902643D01*
X22307500Y-15874071D01*
X22293214Y-15816929D01*
X22293214Y-15745500D01*
X22307500Y-15688357D01*
X22321786Y-15659786D01*
X22336071Y-15645500D01*
X22364643Y-15631214D01*
X22650357Y-15631214D02*
X22678928Y-15631214D01*
X22707500Y-15645500D01*
X22721786Y-15659786D01*
X22736071Y-15688357D01*
X22750357Y-15745500D01*
X22750357Y-15816929D01*
X22736071Y-15874071D01*
X22721786Y-15902643D01*
X22707500Y-15916929D01*
X22678928Y-15931214D01*
X22650357Y-15931214D01*
X22621786Y-15916929D01*
X22607500Y-15902643D01*
X22593214Y-15874071D01*
X22578928Y-15816929D01*
X22578928Y-15745500D01*
X22593214Y-15688357D01*
X22607500Y-15659786D01*
X22621786Y-15645500D01*
X22650357Y-15631214D01*
X22936071Y-15631214D02*
X22964643Y-15631214D01*
X22993214Y-15645500D01*
X23007500Y-15659786D01*
X23021786Y-15688357D01*
X23036071Y-15745500D01*
X23036071Y-15816929D01*
X23021786Y-15874071D01*
X23007500Y-15902643D01*
X22993214Y-15916929D01*
X22964643Y-15931214D01*
X22936071Y-15931214D01*
X22907500Y-15916929D01*
X22893214Y-15902643D01*
X22878928Y-15874071D01*
X22864643Y-15816929D01*
X22864643Y-15745500D01*
X22878928Y-15688357D01*
X22893214Y-15659786D01*
X22907500Y-15645500D01*
X22936071Y-15631214D01*
X23164643Y-15931214D02*
X23164643Y-15731214D01*
X23164643Y-15759786D02*
X23178928Y-15745500D01*
X23207500Y-15731214D01*
X23250357Y-15731214D01*
X23278928Y-15745500D01*
X23293214Y-15774071D01*
X23293214Y-15931214D01*
X23293214Y-15774071D02*
X23307500Y-15745500D01*
X23336071Y-15731214D01*
X23378928Y-15731214D01*
X23407500Y-15745500D01*
X23421786Y-15774071D01*
X23421786Y-15931214D01*
X23564643Y-15931214D02*
X23564643Y-15731214D01*
X23564643Y-15759786D02*
X23578928Y-15745500D01*
X23607500Y-15731214D01*
X23650357Y-15731214D01*
X23678928Y-15745500D01*
X23693214Y-15774071D01*
X23693214Y-15931214D01*
X23693214Y-15774071D02*
X23707500Y-15745500D01*
X23736071Y-15731214D01*
X23778928Y-15731214D01*
X23807500Y-15745500D01*
X23821786Y-15774071D01*
X23821786Y-15931214D01*
X24407500Y-15616929D02*
X24150357Y-16002643D01*
X24793214Y-15631214D02*
X24821786Y-15631214D01*
X24850357Y-15645500D01*
X24864643Y-15659786D01*
X24878928Y-15688357D01*
X24893214Y-15745500D01*
X24893214Y-15816929D01*
X24878928Y-15874071D01*
X24864643Y-15902643D01*
X24850357Y-15916929D01*
X24821786Y-15931214D01*
X24793214Y-15931214D01*
X24764643Y-15916929D01*
X24750357Y-15902643D01*
X24736071Y-15874071D01*
X24721786Y-15816929D01*
X24721786Y-15745500D01*
X24736071Y-15688357D01*
X24750357Y-15659786D01*
X24764643Y-15645500D01*
X24793214Y-15631214D01*
X25021786Y-15902643D02*
X25036071Y-15916929D01*
X25021786Y-15931214D01*
X25007500Y-15916929D01*
X25021786Y-15902643D01*
X25021786Y-15931214D01*
X25136071Y-15631214D02*
X25321786Y-15631214D01*
X25221786Y-15745500D01*
X25264643Y-15745500D01*
X25293214Y-15759786D01*
X25307500Y-15774071D01*
X25321786Y-15802643D01*
X25321786Y-15874071D01*
X25307500Y-15902643D01*
X25293214Y-15916929D01*
X25264643Y-15931214D01*
X25178928Y-15931214D01*
X25150357Y-15916929D01*
X25136071Y-15902643D01*
X25593214Y-15631214D02*
X25450357Y-15631214D01*
X25436071Y-15774071D01*
X25450357Y-15759786D01*
X25478928Y-15745500D01*
X25550357Y-15745500D01*
X25578928Y-15759786D01*
X25593214Y-15774071D01*
X25607500Y-15802643D01*
X25607500Y-15874071D01*
X25593214Y-15902643D01*
X25578928Y-15916929D01*
X25550357Y-15931214D01*
X25478928Y-15931214D01*
X25450357Y-15916929D01*
X25436071Y-15902643D01*
X25864643Y-15731214D02*
X25864643Y-15931214D01*
X25793214Y-15616929D02*
X25721786Y-15831214D01*
X25907500Y-15831214D01*
X25993214Y-15631214D02*
X26178928Y-15631214D01*
X26078928Y-15745500D01*
X26121786Y-15745500D01*
X26150357Y-15759786D01*
X26164643Y-15774071D01*
X26178928Y-15802643D01*
X26178928Y-15874071D01*
X26164643Y-15902643D01*
X26150357Y-15916929D01*
X26121786Y-15931214D01*
X26036071Y-15931214D01*
X26007500Y-15916929D01*
X25993214Y-15902643D01*
X26293214Y-15631214D02*
X26293214Y-15688357D01*
X26407500Y-15631214D02*
X26407500Y-15688357D01*
X26850357Y-16045500D02*
X26836071Y-16031214D01*
X26807500Y-15988357D01*
X26793214Y-15959786D01*
X26778928Y-15916929D01*
X26764643Y-15845500D01*
X26764643Y-15788357D01*
X26778928Y-15716929D01*
X26793214Y-15674071D01*
X26807500Y-15645500D01*
X26836071Y-15602643D01*
X26850357Y-15588357D01*
X27121786Y-15931214D02*
X26950357Y-15931214D01*
X27036071Y-15931214D02*
X27036071Y-15631214D01*
X27007500Y-15674071D01*
X26978928Y-15702643D01*
X26950357Y-15716929D01*
X27464643Y-15916929D02*
X27493214Y-15931214D01*
X27550357Y-15931214D01*
X27578928Y-15916929D01*
X27593214Y-15888357D01*
X27593214Y-15874071D01*
X27578928Y-15845500D01*
X27550357Y-15831214D01*
X27507500Y-15831214D01*
X27478928Y-15816929D01*
X27464643Y-15788357D01*
X27464643Y-15774071D01*
X27478928Y-15745500D01*
X27507500Y-15731214D01*
X27550357Y-15731214D01*
X27578928Y-15745500D01*
X27764643Y-15931214D02*
X27736071Y-15916929D01*
X27721786Y-15888357D01*
X27721786Y-15631214D01*
X27921786Y-15931214D02*
X27893214Y-15916929D01*
X27878928Y-15902643D01*
X27864643Y-15874071D01*
X27864643Y-15788357D01*
X27878928Y-15759786D01*
X27893214Y-15745500D01*
X27921786Y-15731214D01*
X27964643Y-15731214D01*
X27993214Y-15745500D01*
X28007500Y-15759786D01*
X28021786Y-15788357D01*
X28021786Y-15874071D01*
X28007500Y-15902643D01*
X27993214Y-15916929D01*
X27964643Y-15931214D01*
X27921786Y-15931214D01*
X28107500Y-15731214D02*
X28221786Y-15731214D01*
X28150357Y-15631214D02*
X28150357Y-15888357D01*
X28164643Y-15916929D01*
X28193214Y-15931214D01*
X28221786Y-15931214D01*
X28293214Y-16045500D02*
X28307500Y-16031214D01*
X28336071Y-15988357D01*
X28350357Y-15959786D01*
X28364643Y-15916929D01*
X28378928Y-15845500D01*
X28378928Y-15788357D01*
X28364643Y-15716929D01*
X28350357Y-15674071D01*
X28336071Y-15645500D01*
X28307500Y-15602643D01*
X28293214Y-15588357D01*
M02*
