G04 #@! TF.GenerationSoftware,KiCad,Pcbnew,(5.1.12)-1*
G04 #@! TF.CreationDate,2022-09-28T12:59:48-05:00*
G04 #@! TF.ProjectId,Controller_Borad,436f6e74-726f-46c6-9c65-725f426f7261,rev?*
G04 #@! TF.SameCoordinates,Original*
G04 #@! TF.FileFunction,Copper,L3,Inr*
G04 #@! TF.FilePolarity,Positive*
%FSLAX46Y46*%
G04 Gerber Fmt 4.6, Leading zero omitted, Abs format (unit mm)*
G04 Created by KiCad (PCBNEW (5.1.12)-1) date 2022-09-28 12:59:48*
%MOMM*%
%LPD*%
G01*
G04 APERTURE LIST*
G04 #@! TA.AperFunction,ComponentPad*
%ADD10O,30.000000X10.000000*%
G04 #@! TD*
G04 #@! TA.AperFunction,ComponentPad*
%ADD11C,1.700000*%
G04 #@! TD*
G04 #@! TA.AperFunction,ViaPad*
%ADD12C,0.800000*%
G04 #@! TD*
G04 #@! TA.AperFunction,ViaPad*
%ADD13C,0.450000*%
G04 #@! TD*
G04 #@! TA.AperFunction,Conductor*
%ADD14C,0.254000*%
G04 #@! TD*
G04 #@! TA.AperFunction,Conductor*
%ADD15C,0.100000*%
G04 #@! TD*
G04 APERTURE END LIST*
D10*
X241800000Y-101000000D03*
D11*
X234390000Y-134100000D03*
X236930000Y-134100000D03*
X242010000Y-134100000D03*
X239470000Y-134100000D03*
D12*
X225300000Y-122300000D03*
X225300000Y-125600000D03*
X222300000Y-125600000D03*
X222300000Y-122300000D03*
D13*
X255200000Y-109000000D03*
X228200000Y-54900000D03*
X234750000Y-60750000D03*
X235800000Y-60799990D03*
X236100000Y-49700000D03*
X233965000Y-49965000D03*
X249860000Y-126960000D03*
X254940000Y-126940000D03*
D12*
X263200000Y-113800000D03*
D13*
X246100000Y-118700000D03*
X249750000Y-107450000D03*
X219775000Y-130925000D03*
X222400000Y-134100000D03*
X228950000Y-127850000D03*
X232600000Y-129000000D03*
X235550000Y-129950000D03*
X240350000Y-129950000D03*
X229500000Y-124443502D03*
X239900000Y-124400000D03*
X238700000Y-121500000D03*
X231000000Y-116600000D03*
X217100000Y-105800000D03*
X217475000Y-113175000D03*
X223200000Y-112500000D03*
X235600000Y-107600000D03*
X237500000Y-107000000D03*
X238400000Y-107000000D03*
X235900000Y-111200000D03*
X240400000Y-112900000D03*
X251150000Y-115750000D03*
X253100000Y-119600000D03*
X256150000Y-118300000D03*
X230800000Y-127500000D03*
X245300000Y-56300000D03*
D12*
X220600000Y-132700000D03*
D13*
X249250000Y-115750000D03*
X256112500Y-125487500D03*
X252900000Y-123900000D03*
X250900002Y-113200000D03*
X245400000Y-108087500D03*
X230000000Y-55000000D03*
X233000000Y-54900000D03*
X237550000Y-53450000D03*
X253670000Y-126970000D03*
X216800000Y-128200000D03*
X239300000Y-126600000D03*
X236000000Y-126900000D03*
X234100000Y-124800000D03*
X229850000Y-119650000D03*
X227500000Y-112300000D03*
X226500000Y-113000000D03*
X224400000Y-113000000D03*
X217300000Y-105000000D03*
X217100000Y-111800000D03*
X225200000Y-110900000D03*
X234456498Y-107300000D03*
X236700000Y-111400000D03*
X255200000Y-113200000D03*
X223800000Y-128200000D03*
X219500000Y-123000000D03*
X217300000Y-123000000D03*
X245200000Y-119300000D03*
X252400000Y-127900000D03*
X246800000Y-132000000D03*
X252400000Y-132300000D03*
X226100000Y-55500000D03*
X235300000Y-119700000D03*
X220900000Y-116300000D03*
X235216555Y-118816555D03*
X236900000Y-66200000D03*
X239700010Y-66400000D03*
X231900000Y-113400000D03*
X230000000Y-113000000D03*
X238500000Y-65200000D03*
X230900000Y-113200000D03*
X239500000Y-65400000D03*
X230200000Y-115074991D03*
X239600000Y-64600000D03*
X242625010Y-119200000D03*
X244500000Y-62400000D03*
X242100000Y-120200000D03*
X243900000Y-62800000D03*
X241500000Y-120600000D03*
X243300000Y-63300000D03*
X240900000Y-119700000D03*
X242700000Y-64000000D03*
X239700000Y-119000000D03*
X242474990Y-64800000D03*
X241914506Y-65291297D03*
X238000000Y-118300000D03*
X241100000Y-65600000D03*
X233300000Y-114300000D03*
X240400000Y-66000000D03*
X236600000Y-117700000D03*
X242300000Y-116900000D03*
X261700000Y-115100000D03*
X241900000Y-116000000D03*
X259500000Y-115100000D03*
X257300000Y-114900000D03*
X220100000Y-103900000D03*
X219600000Y-104700000D03*
X246400000Y-112500000D03*
X248800000Y-124800000D03*
X245487500Y-109912500D03*
X254287500Y-125387500D03*
X255400000Y-111100000D03*
X230600000Y-121000000D03*
X232900000Y-123300000D03*
X240700000Y-115300000D03*
X246400000Y-111200000D03*
X246000000Y-114400000D03*
X249950000Y-118400000D03*
X239700000Y-111300000D03*
X240700000Y-114600000D03*
X246600000Y-114900000D03*
X254249996Y-118100000D03*
X251000000Y-109000000D03*
X240700000Y-113800000D03*
X227800000Y-132700000D03*
X240800000Y-123400000D03*
X242900000Y-126200000D03*
X257400000Y-108900000D03*
X259500000Y-108900000D03*
X261600000Y-108900000D03*
D14*
X263290001Y-112765000D02*
X263098061Y-112765000D01*
X262898102Y-112804774D01*
X262709744Y-112882795D01*
X262540226Y-112996063D01*
X262396063Y-113140226D01*
X262282795Y-113309744D01*
X262204774Y-113498102D01*
X262165000Y-113698061D01*
X262165000Y-113901939D01*
X262204774Y-114101898D01*
X262282795Y-114290256D01*
X262396063Y-114459774D01*
X262540226Y-114603937D01*
X262709744Y-114717205D01*
X262898102Y-114795226D01*
X263098061Y-114835000D01*
X263290001Y-114835000D01*
X263290001Y-117636340D01*
X263105998Y-117452337D01*
X262821831Y-117262463D01*
X262506081Y-117131675D01*
X262170883Y-117065000D01*
X261829117Y-117065000D01*
X261493919Y-117131675D01*
X261178169Y-117262463D01*
X260894002Y-117452337D01*
X260652337Y-117694002D01*
X260462463Y-117978169D01*
X260331675Y-118293919D01*
X260265000Y-118629117D01*
X260265000Y-118970883D01*
X260331675Y-119306081D01*
X260462463Y-119621831D01*
X260652337Y-119905998D01*
X260894002Y-120147663D01*
X261178169Y-120337537D01*
X261493919Y-120468325D01*
X261829117Y-120535000D01*
X262170883Y-120535000D01*
X262506081Y-120468325D01*
X262821831Y-120337537D01*
X263105998Y-120147663D01*
X263290001Y-119963660D01*
X263290001Y-133257365D01*
X263247663Y-133194002D01*
X263005998Y-132952337D01*
X262721831Y-132762463D01*
X262406081Y-132631675D01*
X262070883Y-132565000D01*
X261729117Y-132565000D01*
X261393919Y-132631675D01*
X261078169Y-132762463D01*
X260794002Y-132952337D01*
X260552337Y-133194002D01*
X260362463Y-133478169D01*
X260231675Y-133793919D01*
X260165000Y-134129117D01*
X260165000Y-134470883D01*
X260231675Y-134806081D01*
X260362463Y-135121831D01*
X260552337Y-135405998D01*
X260794002Y-135647663D01*
X260857364Y-135690000D01*
X219142636Y-135690000D01*
X219205998Y-135647663D01*
X219447663Y-135405998D01*
X219637537Y-135121831D01*
X219768325Y-134806081D01*
X219835000Y-134470883D01*
X219835000Y-134129117D01*
X219812360Y-134015297D01*
X221540000Y-134015297D01*
X221540000Y-134184703D01*
X221573049Y-134350853D01*
X221637878Y-134507363D01*
X221731995Y-134648218D01*
X221851782Y-134768005D01*
X221992637Y-134862122D01*
X222149147Y-134926951D01*
X222315297Y-134960000D01*
X222484703Y-134960000D01*
X222650853Y-134926951D01*
X222807363Y-134862122D01*
X222948218Y-134768005D01*
X223068005Y-134648218D01*
X223162122Y-134507363D01*
X223226951Y-134350853D01*
X223260000Y-134184703D01*
X223260000Y-134015297D01*
X223247756Y-133953740D01*
X232905000Y-133953740D01*
X232905000Y-134246260D01*
X232962068Y-134533158D01*
X233074010Y-134803411D01*
X233236525Y-135046632D01*
X233443368Y-135253475D01*
X233686589Y-135415990D01*
X233956842Y-135527932D01*
X234243740Y-135585000D01*
X234536260Y-135585000D01*
X234823158Y-135527932D01*
X235093411Y-135415990D01*
X235336632Y-135253475D01*
X235543475Y-135046632D01*
X235660000Y-134872240D01*
X235776525Y-135046632D01*
X235983368Y-135253475D01*
X236226589Y-135415990D01*
X236496842Y-135527932D01*
X236783740Y-135585000D01*
X237076260Y-135585000D01*
X237363158Y-135527932D01*
X237633411Y-135415990D01*
X237876632Y-135253475D01*
X238083475Y-135046632D01*
X238200000Y-134872240D01*
X238316525Y-135046632D01*
X238523368Y-135253475D01*
X238766589Y-135415990D01*
X239036842Y-135527932D01*
X239323740Y-135585000D01*
X239616260Y-135585000D01*
X239903158Y-135527932D01*
X240173411Y-135415990D01*
X240416632Y-135253475D01*
X240623475Y-135046632D01*
X240740000Y-134872240D01*
X240856525Y-135046632D01*
X241063368Y-135253475D01*
X241306589Y-135415990D01*
X241576842Y-135527932D01*
X241863740Y-135585000D01*
X242156260Y-135585000D01*
X242443158Y-135527932D01*
X242713411Y-135415990D01*
X242956632Y-135253475D01*
X243163475Y-135046632D01*
X243325990Y-134803411D01*
X243437932Y-134533158D01*
X243495000Y-134246260D01*
X243495000Y-133953740D01*
X243437932Y-133666842D01*
X243325990Y-133396589D01*
X243163475Y-133153368D01*
X242956632Y-132946525D01*
X242713411Y-132784010D01*
X242443158Y-132672068D01*
X242156260Y-132615000D01*
X241863740Y-132615000D01*
X241576842Y-132672068D01*
X241306589Y-132784010D01*
X241063368Y-132946525D01*
X240856525Y-133153368D01*
X240740000Y-133327760D01*
X240623475Y-133153368D01*
X240416632Y-132946525D01*
X240173411Y-132784010D01*
X239903158Y-132672068D01*
X239616260Y-132615000D01*
X239323740Y-132615000D01*
X239036842Y-132672068D01*
X238766589Y-132784010D01*
X238523368Y-132946525D01*
X238316525Y-133153368D01*
X238200000Y-133327760D01*
X238083475Y-133153368D01*
X237876632Y-132946525D01*
X237633411Y-132784010D01*
X237363158Y-132672068D01*
X237076260Y-132615000D01*
X236783740Y-132615000D01*
X236496842Y-132672068D01*
X236226589Y-132784010D01*
X235983368Y-132946525D01*
X235776525Y-133153368D01*
X235660000Y-133327760D01*
X235543475Y-133153368D01*
X235336632Y-132946525D01*
X235093411Y-132784010D01*
X234823158Y-132672068D01*
X234536260Y-132615000D01*
X234243740Y-132615000D01*
X233956842Y-132672068D01*
X233686589Y-132784010D01*
X233443368Y-132946525D01*
X233236525Y-133153368D01*
X233074010Y-133396589D01*
X232962068Y-133666842D01*
X232905000Y-133953740D01*
X223247756Y-133953740D01*
X223226951Y-133849147D01*
X223162122Y-133692637D01*
X223068005Y-133551782D01*
X222948218Y-133431995D01*
X222807363Y-133337878D01*
X222650853Y-133273049D01*
X222484703Y-133240000D01*
X222315297Y-133240000D01*
X222149147Y-133273049D01*
X221992637Y-133337878D01*
X221851782Y-133431995D01*
X221731995Y-133551782D01*
X221637878Y-133692637D01*
X221573049Y-133849147D01*
X221540000Y-134015297D01*
X219812360Y-134015297D01*
X219768325Y-133793919D01*
X219637537Y-133478169D01*
X219447663Y-133194002D01*
X219205998Y-132952337D01*
X218921831Y-132762463D01*
X218606081Y-132631675D01*
X218523744Y-132615297D01*
X226940000Y-132615297D01*
X226940000Y-132784703D01*
X226973049Y-132950853D01*
X227037878Y-133107363D01*
X227131995Y-133248218D01*
X227251782Y-133368005D01*
X227392637Y-133462122D01*
X227549147Y-133526951D01*
X227715297Y-133560000D01*
X227884703Y-133560000D01*
X228050853Y-133526951D01*
X228207363Y-133462122D01*
X228348218Y-133368005D01*
X228468005Y-133248218D01*
X228562122Y-133107363D01*
X228626951Y-132950853D01*
X228660000Y-132784703D01*
X228660000Y-132615297D01*
X228626951Y-132449147D01*
X228562122Y-132292637D01*
X228468005Y-132151782D01*
X228348218Y-132031995D01*
X228207363Y-131937878D01*
X228152849Y-131915297D01*
X245940000Y-131915297D01*
X245940000Y-132084703D01*
X245973049Y-132250853D01*
X246037878Y-132407363D01*
X246131995Y-132548218D01*
X246251782Y-132668005D01*
X246392637Y-132762122D01*
X246549147Y-132826951D01*
X246715297Y-132860000D01*
X246884703Y-132860000D01*
X247050853Y-132826951D01*
X247207363Y-132762122D01*
X247348218Y-132668005D01*
X247468005Y-132548218D01*
X247562122Y-132407363D01*
X247626951Y-132250853D01*
X247634023Y-132215297D01*
X251540000Y-132215297D01*
X251540000Y-132384703D01*
X251573049Y-132550853D01*
X251637878Y-132707363D01*
X251731995Y-132848218D01*
X251851782Y-132968005D01*
X251992637Y-133062122D01*
X252149147Y-133126951D01*
X252315297Y-133160000D01*
X252484703Y-133160000D01*
X252650853Y-133126951D01*
X252807363Y-133062122D01*
X252948218Y-132968005D01*
X253068005Y-132848218D01*
X253162122Y-132707363D01*
X253226951Y-132550853D01*
X253260000Y-132384703D01*
X253260000Y-132215297D01*
X253226951Y-132049147D01*
X253162122Y-131892637D01*
X253068005Y-131751782D01*
X252948218Y-131631995D01*
X252807363Y-131537878D01*
X252650853Y-131473049D01*
X252484703Y-131440000D01*
X252315297Y-131440000D01*
X252149147Y-131473049D01*
X251992637Y-131537878D01*
X251851782Y-131631995D01*
X251731995Y-131751782D01*
X251637878Y-131892637D01*
X251573049Y-132049147D01*
X251540000Y-132215297D01*
X247634023Y-132215297D01*
X247660000Y-132084703D01*
X247660000Y-131915297D01*
X247626951Y-131749147D01*
X247562122Y-131592637D01*
X247468005Y-131451782D01*
X247348218Y-131331995D01*
X247207363Y-131237878D01*
X247050853Y-131173049D01*
X246884703Y-131140000D01*
X246715297Y-131140000D01*
X246549147Y-131173049D01*
X246392637Y-131237878D01*
X246251782Y-131331995D01*
X246131995Y-131451782D01*
X246037878Y-131592637D01*
X245973049Y-131749147D01*
X245940000Y-131915297D01*
X228152849Y-131915297D01*
X228050853Y-131873049D01*
X227884703Y-131840000D01*
X227715297Y-131840000D01*
X227549147Y-131873049D01*
X227392637Y-131937878D01*
X227251782Y-132031995D01*
X227131995Y-132151782D01*
X227037878Y-132292637D01*
X226973049Y-132449147D01*
X226940000Y-132615297D01*
X218523744Y-132615297D01*
X218270883Y-132565000D01*
X217929117Y-132565000D01*
X217593919Y-132631675D01*
X217278169Y-132762463D01*
X216994002Y-132952337D01*
X216752337Y-133194002D01*
X216710000Y-133257364D01*
X216710000Y-130840297D01*
X218915000Y-130840297D01*
X218915000Y-131009703D01*
X218948049Y-131175853D01*
X219012878Y-131332363D01*
X219106995Y-131473218D01*
X219226782Y-131593005D01*
X219367637Y-131687122D01*
X219524147Y-131751951D01*
X219690297Y-131785000D01*
X219859703Y-131785000D01*
X220025853Y-131751951D01*
X220182363Y-131687122D01*
X220323218Y-131593005D01*
X220443005Y-131473218D01*
X220537122Y-131332363D01*
X220601951Y-131175853D01*
X220635000Y-131009703D01*
X220635000Y-130840297D01*
X220601951Y-130674147D01*
X220537122Y-130517637D01*
X220443005Y-130376782D01*
X220323218Y-130256995D01*
X220182363Y-130162878D01*
X220025853Y-130098049D01*
X219859703Y-130065000D01*
X219690297Y-130065000D01*
X219524147Y-130098049D01*
X219367637Y-130162878D01*
X219226782Y-130256995D01*
X219106995Y-130376782D01*
X219012878Y-130517637D01*
X218948049Y-130674147D01*
X218915000Y-130840297D01*
X216710000Y-130840297D01*
X216710000Y-129865297D01*
X234690000Y-129865297D01*
X234690000Y-130034703D01*
X234723049Y-130200853D01*
X234787878Y-130357363D01*
X234881995Y-130498218D01*
X235001782Y-130618005D01*
X235142637Y-130712122D01*
X235299147Y-130776951D01*
X235465297Y-130810000D01*
X235634703Y-130810000D01*
X235800853Y-130776951D01*
X235957363Y-130712122D01*
X236098218Y-130618005D01*
X236218005Y-130498218D01*
X236312122Y-130357363D01*
X236376951Y-130200853D01*
X236410000Y-130034703D01*
X236410000Y-129865297D01*
X239490000Y-129865297D01*
X239490000Y-130034703D01*
X239523049Y-130200853D01*
X239587878Y-130357363D01*
X239681995Y-130498218D01*
X239801782Y-130618005D01*
X239942637Y-130712122D01*
X240099147Y-130776951D01*
X240265297Y-130810000D01*
X240434703Y-130810000D01*
X240600853Y-130776951D01*
X240757363Y-130712122D01*
X240898218Y-130618005D01*
X241018005Y-130498218D01*
X241112122Y-130357363D01*
X241176951Y-130200853D01*
X241210000Y-130034703D01*
X241210000Y-129865297D01*
X241176951Y-129699147D01*
X241112122Y-129542637D01*
X241018005Y-129401782D01*
X240898218Y-129281995D01*
X240757363Y-129187878D01*
X240600853Y-129123049D01*
X240434703Y-129090000D01*
X240265297Y-129090000D01*
X240099147Y-129123049D01*
X239942637Y-129187878D01*
X239801782Y-129281995D01*
X239681995Y-129401782D01*
X239587878Y-129542637D01*
X239523049Y-129699147D01*
X239490000Y-129865297D01*
X236410000Y-129865297D01*
X236376951Y-129699147D01*
X236312122Y-129542637D01*
X236218005Y-129401782D01*
X236098218Y-129281995D01*
X235957363Y-129187878D01*
X235800853Y-129123049D01*
X235634703Y-129090000D01*
X235465297Y-129090000D01*
X235299147Y-129123049D01*
X235142637Y-129187878D01*
X235001782Y-129281995D01*
X234881995Y-129401782D01*
X234787878Y-129542637D01*
X234723049Y-129699147D01*
X234690000Y-129865297D01*
X216710000Y-129865297D01*
X216710000Y-128115297D01*
X222940000Y-128115297D01*
X222940000Y-128284703D01*
X222973049Y-128450853D01*
X223037878Y-128607363D01*
X223131995Y-128748218D01*
X223251782Y-128868005D01*
X223392637Y-128962122D01*
X223549147Y-129026951D01*
X223715297Y-129060000D01*
X223884703Y-129060000D01*
X224050853Y-129026951D01*
X224207363Y-128962122D01*
X224277441Y-128915297D01*
X231740000Y-128915297D01*
X231740000Y-129084703D01*
X231773049Y-129250853D01*
X231837878Y-129407363D01*
X231931995Y-129548218D01*
X232051782Y-129668005D01*
X232192637Y-129762122D01*
X232349147Y-129826951D01*
X232515297Y-129860000D01*
X232684703Y-129860000D01*
X232850853Y-129826951D01*
X233007363Y-129762122D01*
X233148218Y-129668005D01*
X233268005Y-129548218D01*
X233362122Y-129407363D01*
X233426951Y-129250853D01*
X233460000Y-129084703D01*
X233460000Y-128915297D01*
X233426951Y-128749147D01*
X233362122Y-128592637D01*
X233268005Y-128451782D01*
X233148218Y-128331995D01*
X233007363Y-128237878D01*
X232850853Y-128173049D01*
X232684703Y-128140000D01*
X232515297Y-128140000D01*
X232349147Y-128173049D01*
X232192637Y-128237878D01*
X232051782Y-128331995D01*
X231931995Y-128451782D01*
X231837878Y-128592637D01*
X231773049Y-128749147D01*
X231740000Y-128915297D01*
X224277441Y-128915297D01*
X224348218Y-128868005D01*
X224468005Y-128748218D01*
X224562122Y-128607363D01*
X224626951Y-128450853D01*
X224660000Y-128284703D01*
X224660000Y-128115297D01*
X224626951Y-127949147D01*
X224562122Y-127792637D01*
X224543854Y-127765297D01*
X228090000Y-127765297D01*
X228090000Y-127934703D01*
X228123049Y-128100853D01*
X228187878Y-128257363D01*
X228281995Y-128398218D01*
X228401782Y-128518005D01*
X228542637Y-128612122D01*
X228699147Y-128676951D01*
X228865297Y-128710000D01*
X229034703Y-128710000D01*
X229200853Y-128676951D01*
X229357363Y-128612122D01*
X229498218Y-128518005D01*
X229618005Y-128398218D01*
X229712122Y-128257363D01*
X229776951Y-128100853D01*
X229810000Y-127934703D01*
X229810000Y-127765297D01*
X229776951Y-127599147D01*
X229712122Y-127442637D01*
X229693854Y-127415297D01*
X229940000Y-127415297D01*
X229940000Y-127584703D01*
X229973049Y-127750853D01*
X230037878Y-127907363D01*
X230131995Y-128048218D01*
X230251782Y-128168005D01*
X230392637Y-128262122D01*
X230549147Y-128326951D01*
X230715297Y-128360000D01*
X230884703Y-128360000D01*
X231050853Y-128326951D01*
X231207363Y-128262122D01*
X231348218Y-128168005D01*
X231468005Y-128048218D01*
X231562122Y-127907363D01*
X231626951Y-127750853D01*
X231660000Y-127584703D01*
X231660000Y-127415297D01*
X231626951Y-127249147D01*
X231562122Y-127092637D01*
X231468005Y-126951782D01*
X231348218Y-126831995D01*
X231207363Y-126737878D01*
X231050853Y-126673049D01*
X230884703Y-126640000D01*
X230715297Y-126640000D01*
X230549147Y-126673049D01*
X230392637Y-126737878D01*
X230251782Y-126831995D01*
X230131995Y-126951782D01*
X230037878Y-127092637D01*
X229973049Y-127249147D01*
X229940000Y-127415297D01*
X229693854Y-127415297D01*
X229618005Y-127301782D01*
X229498218Y-127181995D01*
X229357363Y-127087878D01*
X229200853Y-127023049D01*
X229034703Y-126990000D01*
X228865297Y-126990000D01*
X228699147Y-127023049D01*
X228542637Y-127087878D01*
X228401782Y-127181995D01*
X228281995Y-127301782D01*
X228187878Y-127442637D01*
X228123049Y-127599147D01*
X228090000Y-127765297D01*
X224543854Y-127765297D01*
X224468005Y-127651782D01*
X224348218Y-127531995D01*
X224207363Y-127437878D01*
X224050853Y-127373049D01*
X223884703Y-127340000D01*
X223715297Y-127340000D01*
X223549147Y-127373049D01*
X223392637Y-127437878D01*
X223251782Y-127531995D01*
X223131995Y-127651782D01*
X223037878Y-127792637D01*
X222973049Y-127949147D01*
X222940000Y-128115297D01*
X216710000Y-128115297D01*
X216710000Y-125498061D01*
X221265000Y-125498061D01*
X221265000Y-125701939D01*
X221304774Y-125901898D01*
X221382795Y-126090256D01*
X221496063Y-126259774D01*
X221640226Y-126403937D01*
X221809744Y-126517205D01*
X221998102Y-126595226D01*
X222198061Y-126635000D01*
X222401939Y-126635000D01*
X222601898Y-126595226D01*
X222790256Y-126517205D01*
X222959774Y-126403937D01*
X223103937Y-126259774D01*
X223217205Y-126090256D01*
X223295226Y-125901898D01*
X223335000Y-125701939D01*
X223335000Y-125498061D01*
X224265000Y-125498061D01*
X224265000Y-125701939D01*
X224304774Y-125901898D01*
X224382795Y-126090256D01*
X224496063Y-126259774D01*
X224640226Y-126403937D01*
X224809744Y-126517205D01*
X224998102Y-126595226D01*
X225198061Y-126635000D01*
X225401939Y-126635000D01*
X225601898Y-126595226D01*
X225790256Y-126517205D01*
X225959774Y-126403937D01*
X226103937Y-126259774D01*
X226200473Y-126115297D01*
X242040000Y-126115297D01*
X242040000Y-126284703D01*
X242073049Y-126450853D01*
X242137878Y-126607363D01*
X242231995Y-126748218D01*
X242351782Y-126868005D01*
X242492637Y-126962122D01*
X242649147Y-127026951D01*
X242815297Y-127060000D01*
X242984703Y-127060000D01*
X243150853Y-127026951D01*
X243307363Y-126962122D01*
X243437304Y-126875297D01*
X249000000Y-126875297D01*
X249000000Y-127044703D01*
X249033049Y-127210853D01*
X249097878Y-127367363D01*
X249191995Y-127508218D01*
X249311782Y-127628005D01*
X249452637Y-127722122D01*
X249609147Y-127786951D01*
X249775297Y-127820000D01*
X249944703Y-127820000D01*
X249968346Y-127815297D01*
X251540000Y-127815297D01*
X251540000Y-127984703D01*
X251573049Y-128150853D01*
X251637878Y-128307363D01*
X251731995Y-128448218D01*
X251851782Y-128568005D01*
X251992637Y-128662122D01*
X252149147Y-128726951D01*
X252315297Y-128760000D01*
X252484703Y-128760000D01*
X252650853Y-128726951D01*
X252807363Y-128662122D01*
X252948218Y-128568005D01*
X253068005Y-128448218D01*
X253162122Y-128307363D01*
X253226951Y-128150853D01*
X253260000Y-127984703D01*
X253260000Y-127815297D01*
X253226951Y-127649147D01*
X253162122Y-127492637D01*
X253068005Y-127351782D01*
X252948218Y-127231995D01*
X252807363Y-127137878D01*
X252650853Y-127073049D01*
X252484703Y-127040000D01*
X252315297Y-127040000D01*
X252149147Y-127073049D01*
X251992637Y-127137878D01*
X251851782Y-127231995D01*
X251731995Y-127351782D01*
X251637878Y-127492637D01*
X251573049Y-127649147D01*
X251540000Y-127815297D01*
X249968346Y-127815297D01*
X250110853Y-127786951D01*
X250267363Y-127722122D01*
X250408218Y-127628005D01*
X250528005Y-127508218D01*
X250622122Y-127367363D01*
X250686951Y-127210853D01*
X250720000Y-127044703D01*
X250720000Y-126875297D01*
X250686951Y-126709147D01*
X250622122Y-126552637D01*
X250528005Y-126411782D01*
X250408218Y-126291995D01*
X250267363Y-126197878D01*
X250110853Y-126133049D01*
X249944703Y-126100000D01*
X249775297Y-126100000D01*
X249609147Y-126133049D01*
X249452637Y-126197878D01*
X249311782Y-126291995D01*
X249191995Y-126411782D01*
X249097878Y-126552637D01*
X249033049Y-126709147D01*
X249000000Y-126875297D01*
X243437304Y-126875297D01*
X243448218Y-126868005D01*
X243568005Y-126748218D01*
X243662122Y-126607363D01*
X243726951Y-126450853D01*
X243760000Y-126284703D01*
X243760000Y-126115297D01*
X243726951Y-125949147D01*
X243662122Y-125792637D01*
X243568005Y-125651782D01*
X243448218Y-125531995D01*
X243307363Y-125437878D01*
X243150853Y-125373049D01*
X242984703Y-125340000D01*
X242815297Y-125340000D01*
X242649147Y-125373049D01*
X242492637Y-125437878D01*
X242351782Y-125531995D01*
X242231995Y-125651782D01*
X242137878Y-125792637D01*
X242073049Y-125949147D01*
X242040000Y-126115297D01*
X226200473Y-126115297D01*
X226217205Y-126090256D01*
X226295226Y-125901898D01*
X226335000Y-125701939D01*
X226335000Y-125498061D01*
X226295226Y-125298102D01*
X226217205Y-125109744D01*
X226103937Y-124940226D01*
X225959774Y-124796063D01*
X225790256Y-124682795D01*
X225601898Y-124604774D01*
X225401939Y-124565000D01*
X225198061Y-124565000D01*
X224998102Y-124604774D01*
X224809744Y-124682795D01*
X224640226Y-124796063D01*
X224496063Y-124940226D01*
X224382795Y-125109744D01*
X224304774Y-125298102D01*
X224265000Y-125498061D01*
X223335000Y-125498061D01*
X223295226Y-125298102D01*
X223217205Y-125109744D01*
X223103937Y-124940226D01*
X222959774Y-124796063D01*
X222790256Y-124682795D01*
X222601898Y-124604774D01*
X222401939Y-124565000D01*
X222198061Y-124565000D01*
X221998102Y-124604774D01*
X221809744Y-124682795D01*
X221640226Y-124796063D01*
X221496063Y-124940226D01*
X221382795Y-125109744D01*
X221304774Y-125298102D01*
X221265000Y-125498061D01*
X216710000Y-125498061D01*
X216710000Y-124358799D01*
X228640000Y-124358799D01*
X228640000Y-124528205D01*
X228673049Y-124694355D01*
X228737878Y-124850865D01*
X228831995Y-124991720D01*
X228951782Y-125111507D01*
X229092637Y-125205624D01*
X229249147Y-125270453D01*
X229415297Y-125303502D01*
X229584703Y-125303502D01*
X229750853Y-125270453D01*
X229907363Y-125205624D01*
X230048218Y-125111507D01*
X230168005Y-124991720D01*
X230262122Y-124850865D01*
X230326951Y-124694355D01*
X230360000Y-124528205D01*
X230360000Y-124358799D01*
X230351347Y-124315297D01*
X239040000Y-124315297D01*
X239040000Y-124484703D01*
X239073049Y-124650853D01*
X239137878Y-124807363D01*
X239231995Y-124948218D01*
X239351782Y-125068005D01*
X239492637Y-125162122D01*
X239649147Y-125226951D01*
X239815297Y-125260000D01*
X239984703Y-125260000D01*
X240150853Y-125226951D01*
X240307363Y-125162122D01*
X240448218Y-125068005D01*
X240568005Y-124948218D01*
X240662122Y-124807363D01*
X240700257Y-124715297D01*
X247940000Y-124715297D01*
X247940000Y-124884703D01*
X247973049Y-125050853D01*
X248037878Y-125207363D01*
X248131995Y-125348218D01*
X248251782Y-125468005D01*
X248392637Y-125562122D01*
X248549147Y-125626951D01*
X248715297Y-125660000D01*
X248884703Y-125660000D01*
X249050853Y-125626951D01*
X249207363Y-125562122D01*
X249348218Y-125468005D01*
X249468005Y-125348218D01*
X249498354Y-125302797D01*
X253427500Y-125302797D01*
X253427500Y-125472203D01*
X253460549Y-125638353D01*
X253525378Y-125794863D01*
X253619495Y-125935718D01*
X253739282Y-126055505D01*
X253880137Y-126149622D01*
X254036647Y-126214451D01*
X254202797Y-126247500D01*
X254372203Y-126247500D01*
X254452279Y-126231572D01*
X254391782Y-126271995D01*
X254271995Y-126391782D01*
X254177878Y-126532637D01*
X254113049Y-126689147D01*
X254080000Y-126855297D01*
X254080000Y-127024703D01*
X254113049Y-127190853D01*
X254177878Y-127347363D01*
X254271995Y-127488218D01*
X254391782Y-127608005D01*
X254532637Y-127702122D01*
X254689147Y-127766951D01*
X254855297Y-127800000D01*
X255024703Y-127800000D01*
X255190853Y-127766951D01*
X255347363Y-127702122D01*
X255488218Y-127608005D01*
X255608005Y-127488218D01*
X255702122Y-127347363D01*
X255766951Y-127190853D01*
X255800000Y-127024703D01*
X255800000Y-126855297D01*
X255766951Y-126689147D01*
X255702122Y-126532637D01*
X255608005Y-126391782D01*
X255488218Y-126271995D01*
X255347363Y-126177878D01*
X255190853Y-126113049D01*
X255024703Y-126080000D01*
X254855297Y-126080000D01*
X254775221Y-126095928D01*
X254835718Y-126055505D01*
X254955505Y-125935718D01*
X255049622Y-125794863D01*
X255114451Y-125638353D01*
X255147500Y-125472203D01*
X255147500Y-125302797D01*
X255114451Y-125136647D01*
X255049622Y-124980137D01*
X254955505Y-124839282D01*
X254835718Y-124719495D01*
X254694863Y-124625378D01*
X254538353Y-124560549D01*
X254372203Y-124527500D01*
X254202797Y-124527500D01*
X254036647Y-124560549D01*
X253880137Y-124625378D01*
X253739282Y-124719495D01*
X253619495Y-124839282D01*
X253525378Y-124980137D01*
X253460549Y-125136647D01*
X253427500Y-125302797D01*
X249498354Y-125302797D01*
X249562122Y-125207363D01*
X249626951Y-125050853D01*
X249660000Y-124884703D01*
X249660000Y-124715297D01*
X249626951Y-124549147D01*
X249562122Y-124392637D01*
X249468005Y-124251782D01*
X249348218Y-124131995D01*
X249207363Y-124037878D01*
X249050853Y-123973049D01*
X248884703Y-123940000D01*
X248715297Y-123940000D01*
X248549147Y-123973049D01*
X248392637Y-124037878D01*
X248251782Y-124131995D01*
X248131995Y-124251782D01*
X248037878Y-124392637D01*
X247973049Y-124549147D01*
X247940000Y-124715297D01*
X240700257Y-124715297D01*
X240726951Y-124650853D01*
X240760000Y-124484703D01*
X240760000Y-124315297D01*
X240749001Y-124260000D01*
X240884703Y-124260000D01*
X241050853Y-124226951D01*
X241207363Y-124162122D01*
X241348218Y-124068005D01*
X241468005Y-123948218D01*
X241562122Y-123807363D01*
X241626951Y-123650853D01*
X241660000Y-123484703D01*
X241660000Y-123315297D01*
X241626951Y-123149147D01*
X241562122Y-122992637D01*
X241468005Y-122851782D01*
X241348218Y-122731995D01*
X241207363Y-122637878D01*
X241050853Y-122573049D01*
X240884703Y-122540000D01*
X240715297Y-122540000D01*
X240549147Y-122573049D01*
X240392637Y-122637878D01*
X240251782Y-122731995D01*
X240131995Y-122851782D01*
X240037878Y-122992637D01*
X239973049Y-123149147D01*
X239940000Y-123315297D01*
X239940000Y-123484703D01*
X239950999Y-123540000D01*
X239815297Y-123540000D01*
X239649147Y-123573049D01*
X239492637Y-123637878D01*
X239351782Y-123731995D01*
X239231995Y-123851782D01*
X239137878Y-123992637D01*
X239073049Y-124149147D01*
X239040000Y-124315297D01*
X230351347Y-124315297D01*
X230326951Y-124192649D01*
X230262122Y-124036139D01*
X230168005Y-123895284D01*
X230048218Y-123775497D01*
X229907363Y-123681380D01*
X229750853Y-123616551D01*
X229584703Y-123583502D01*
X229415297Y-123583502D01*
X229249147Y-123616551D01*
X229092637Y-123681380D01*
X228951782Y-123775497D01*
X228831995Y-123895284D01*
X228737878Y-124036139D01*
X228673049Y-124192649D01*
X228640000Y-124358799D01*
X216710000Y-124358799D01*
X216710000Y-123626223D01*
X216751782Y-123668005D01*
X216892637Y-123762122D01*
X217049147Y-123826951D01*
X217215297Y-123860000D01*
X217384703Y-123860000D01*
X217550853Y-123826951D01*
X217707363Y-123762122D01*
X217848218Y-123668005D01*
X217968005Y-123548218D01*
X218062122Y-123407363D01*
X218126951Y-123250853D01*
X218160000Y-123084703D01*
X218160000Y-122915297D01*
X218640000Y-122915297D01*
X218640000Y-123084703D01*
X218673049Y-123250853D01*
X218737878Y-123407363D01*
X218831995Y-123548218D01*
X218951782Y-123668005D01*
X219092637Y-123762122D01*
X219249147Y-123826951D01*
X219415297Y-123860000D01*
X219584703Y-123860000D01*
X219750853Y-123826951D01*
X219907363Y-123762122D01*
X220048218Y-123668005D01*
X220168005Y-123548218D01*
X220262122Y-123407363D01*
X220326951Y-123250853D01*
X220360000Y-123084703D01*
X220360000Y-122915297D01*
X220326951Y-122749147D01*
X220262122Y-122592637D01*
X220168005Y-122451782D01*
X220048218Y-122331995D01*
X219907363Y-122237878D01*
X219811237Y-122198061D01*
X221265000Y-122198061D01*
X221265000Y-122401939D01*
X221304774Y-122601898D01*
X221382795Y-122790256D01*
X221496063Y-122959774D01*
X221640226Y-123103937D01*
X221809744Y-123217205D01*
X221998102Y-123295226D01*
X222198061Y-123335000D01*
X222401939Y-123335000D01*
X222601898Y-123295226D01*
X222790256Y-123217205D01*
X222959774Y-123103937D01*
X223103937Y-122959774D01*
X223217205Y-122790256D01*
X223295226Y-122601898D01*
X223335000Y-122401939D01*
X223335000Y-122198061D01*
X224265000Y-122198061D01*
X224265000Y-122401939D01*
X224304774Y-122601898D01*
X224382795Y-122790256D01*
X224496063Y-122959774D01*
X224640226Y-123103937D01*
X224809744Y-123217205D01*
X224998102Y-123295226D01*
X225198061Y-123335000D01*
X225401939Y-123335000D01*
X225601898Y-123295226D01*
X225790256Y-123217205D01*
X225793111Y-123215297D01*
X232040000Y-123215297D01*
X232040000Y-123384703D01*
X232073049Y-123550853D01*
X232137878Y-123707363D01*
X232231995Y-123848218D01*
X232351782Y-123968005D01*
X232492637Y-124062122D01*
X232649147Y-124126951D01*
X232815297Y-124160000D01*
X232984703Y-124160000D01*
X233150853Y-124126951D01*
X233307363Y-124062122D01*
X233448218Y-123968005D01*
X233568005Y-123848218D01*
X233662122Y-123707363D01*
X233726951Y-123550853D01*
X233760000Y-123384703D01*
X233760000Y-123215297D01*
X233726951Y-123049147D01*
X233662122Y-122892637D01*
X233568005Y-122751782D01*
X233448218Y-122631995D01*
X233307363Y-122537878D01*
X233150853Y-122473049D01*
X232984703Y-122440000D01*
X232815297Y-122440000D01*
X232649147Y-122473049D01*
X232492637Y-122537878D01*
X232351782Y-122631995D01*
X232231995Y-122751782D01*
X232137878Y-122892637D01*
X232073049Y-123049147D01*
X232040000Y-123215297D01*
X225793111Y-123215297D01*
X225959774Y-123103937D01*
X226103937Y-122959774D01*
X226217205Y-122790256D01*
X226295226Y-122601898D01*
X226335000Y-122401939D01*
X226335000Y-122198061D01*
X226295226Y-121998102D01*
X226217205Y-121809744D01*
X226103937Y-121640226D01*
X225959774Y-121496063D01*
X225790256Y-121382795D01*
X225601898Y-121304774D01*
X225401939Y-121265000D01*
X225198061Y-121265000D01*
X224998102Y-121304774D01*
X224809744Y-121382795D01*
X224640226Y-121496063D01*
X224496063Y-121640226D01*
X224382795Y-121809744D01*
X224304774Y-121998102D01*
X224265000Y-122198061D01*
X223335000Y-122198061D01*
X223295226Y-121998102D01*
X223217205Y-121809744D01*
X223103937Y-121640226D01*
X222959774Y-121496063D01*
X222790256Y-121382795D01*
X222601898Y-121304774D01*
X222401939Y-121265000D01*
X222198061Y-121265000D01*
X221998102Y-121304774D01*
X221809744Y-121382795D01*
X221640226Y-121496063D01*
X221496063Y-121640226D01*
X221382795Y-121809744D01*
X221304774Y-121998102D01*
X221265000Y-122198061D01*
X219811237Y-122198061D01*
X219750853Y-122173049D01*
X219584703Y-122140000D01*
X219415297Y-122140000D01*
X219249147Y-122173049D01*
X219092637Y-122237878D01*
X218951782Y-122331995D01*
X218831995Y-122451782D01*
X218737878Y-122592637D01*
X218673049Y-122749147D01*
X218640000Y-122915297D01*
X218160000Y-122915297D01*
X218126951Y-122749147D01*
X218062122Y-122592637D01*
X217968005Y-122451782D01*
X217848218Y-122331995D01*
X217707363Y-122237878D01*
X217550853Y-122173049D01*
X217384703Y-122140000D01*
X217215297Y-122140000D01*
X217049147Y-122173049D01*
X216892637Y-122237878D01*
X216751782Y-122331995D01*
X216710000Y-122373777D01*
X216710000Y-120915297D01*
X229740000Y-120915297D01*
X229740000Y-121084703D01*
X229773049Y-121250853D01*
X229837878Y-121407363D01*
X229931995Y-121548218D01*
X230051782Y-121668005D01*
X230192637Y-121762122D01*
X230349147Y-121826951D01*
X230515297Y-121860000D01*
X230684703Y-121860000D01*
X230850853Y-121826951D01*
X231007363Y-121762122D01*
X231148218Y-121668005D01*
X231268005Y-121548218D01*
X231356820Y-121415297D01*
X237840000Y-121415297D01*
X237840000Y-121584703D01*
X237873049Y-121750853D01*
X237937878Y-121907363D01*
X238031995Y-122048218D01*
X238151782Y-122168005D01*
X238292637Y-122262122D01*
X238449147Y-122326951D01*
X238615297Y-122360000D01*
X238784703Y-122360000D01*
X238950853Y-122326951D01*
X239107363Y-122262122D01*
X239248218Y-122168005D01*
X239368005Y-122048218D01*
X239462122Y-121907363D01*
X239526951Y-121750853D01*
X239560000Y-121584703D01*
X239560000Y-121415297D01*
X239526951Y-121249147D01*
X239462122Y-121092637D01*
X239368005Y-120951782D01*
X239248218Y-120831995D01*
X239107363Y-120737878D01*
X238950853Y-120673049D01*
X238784703Y-120640000D01*
X238615297Y-120640000D01*
X238449147Y-120673049D01*
X238292637Y-120737878D01*
X238151782Y-120831995D01*
X238031995Y-120951782D01*
X237937878Y-121092637D01*
X237873049Y-121249147D01*
X237840000Y-121415297D01*
X231356820Y-121415297D01*
X231362122Y-121407363D01*
X231426951Y-121250853D01*
X231460000Y-121084703D01*
X231460000Y-120915297D01*
X231426951Y-120749147D01*
X231362122Y-120592637D01*
X231268005Y-120451782D01*
X231148218Y-120331995D01*
X231007363Y-120237878D01*
X230850853Y-120173049D01*
X230684703Y-120140000D01*
X230515297Y-120140000D01*
X230349147Y-120173049D01*
X230192637Y-120237878D01*
X230051782Y-120331995D01*
X229931995Y-120451782D01*
X229837878Y-120592637D01*
X229773049Y-120749147D01*
X229740000Y-120915297D01*
X216710000Y-120915297D01*
X216710000Y-119963661D01*
X216894002Y-120147663D01*
X217178169Y-120337537D01*
X217493919Y-120468325D01*
X217829117Y-120535000D01*
X218170883Y-120535000D01*
X218506081Y-120468325D01*
X218821831Y-120337537D01*
X219105998Y-120147663D01*
X219347663Y-119905998D01*
X219537537Y-119621831D01*
X219668325Y-119306081D01*
X219735000Y-118970883D01*
X219735000Y-118731852D01*
X234356555Y-118731852D01*
X234356555Y-118901258D01*
X234389604Y-119067408D01*
X234454433Y-119223918D01*
X234523517Y-119327308D01*
X234473049Y-119449147D01*
X234440000Y-119615297D01*
X234440000Y-119784703D01*
X234473049Y-119950853D01*
X234537878Y-120107363D01*
X234631995Y-120248218D01*
X234751782Y-120368005D01*
X234892637Y-120462122D01*
X235049147Y-120526951D01*
X235215297Y-120560000D01*
X235384703Y-120560000D01*
X235550853Y-120526951D01*
X235707363Y-120462122D01*
X235848218Y-120368005D01*
X235968005Y-120248218D01*
X236062122Y-120107363D01*
X236126951Y-119950853D01*
X236160000Y-119784703D01*
X236160000Y-119615297D01*
X236126951Y-119449147D01*
X236062122Y-119292637D01*
X235993038Y-119189247D01*
X236043506Y-119067408D01*
X236076555Y-118901258D01*
X236076555Y-118731852D01*
X236043506Y-118565702D01*
X235978677Y-118409192D01*
X235884560Y-118268337D01*
X235764773Y-118148550D01*
X235623918Y-118054433D01*
X235467408Y-117989604D01*
X235301258Y-117956555D01*
X235131852Y-117956555D01*
X234965702Y-117989604D01*
X234809192Y-118054433D01*
X234668337Y-118148550D01*
X234548550Y-118268337D01*
X234454433Y-118409192D01*
X234389604Y-118565702D01*
X234356555Y-118731852D01*
X219735000Y-118731852D01*
X219735000Y-118629117D01*
X219668325Y-118293919D01*
X219537537Y-117978169D01*
X219347663Y-117694002D01*
X219268958Y-117615297D01*
X235740000Y-117615297D01*
X235740000Y-117784703D01*
X235773049Y-117950853D01*
X235837878Y-118107363D01*
X235931995Y-118248218D01*
X236051782Y-118368005D01*
X236192637Y-118462122D01*
X236349147Y-118526951D01*
X236515297Y-118560000D01*
X236684703Y-118560000D01*
X236850853Y-118526951D01*
X237007363Y-118462122D01*
X237140000Y-118373496D01*
X237140000Y-118384703D01*
X237173049Y-118550853D01*
X237237878Y-118707363D01*
X237331995Y-118848218D01*
X237451782Y-118968005D01*
X237592637Y-119062122D01*
X237749147Y-119126951D01*
X237915297Y-119160000D01*
X238084703Y-119160000D01*
X238250853Y-119126951D01*
X238407363Y-119062122D01*
X238548218Y-118968005D01*
X238600926Y-118915297D01*
X238840000Y-118915297D01*
X238840000Y-119084703D01*
X238873049Y-119250853D01*
X238937878Y-119407363D01*
X239031995Y-119548218D01*
X239151782Y-119668005D01*
X239292637Y-119762122D01*
X239449147Y-119826951D01*
X239615297Y-119860000D01*
X239784703Y-119860000D01*
X239950853Y-119826951D01*
X240040978Y-119789620D01*
X240073049Y-119950853D01*
X240137878Y-120107363D01*
X240231995Y-120248218D01*
X240351782Y-120368005D01*
X240492637Y-120462122D01*
X240640000Y-120523162D01*
X240640000Y-120684703D01*
X240673049Y-120850853D01*
X240737878Y-121007363D01*
X240831995Y-121148218D01*
X240951782Y-121268005D01*
X241092637Y-121362122D01*
X241249147Y-121426951D01*
X241415297Y-121460000D01*
X241584703Y-121460000D01*
X241750853Y-121426951D01*
X241907363Y-121362122D01*
X242048218Y-121268005D01*
X242168005Y-121148218D01*
X242233427Y-121050308D01*
X242350853Y-121026951D01*
X242507363Y-120962122D01*
X242648218Y-120868005D01*
X242768005Y-120748218D01*
X242862122Y-120607363D01*
X242926951Y-120450853D01*
X242960000Y-120284703D01*
X242960000Y-120115297D01*
X242937360Y-120001478D01*
X243032373Y-119962122D01*
X243173228Y-119868005D01*
X243293015Y-119748218D01*
X243387132Y-119607363D01*
X243451961Y-119450853D01*
X243485010Y-119284703D01*
X243485010Y-119215297D01*
X244340000Y-119215297D01*
X244340000Y-119384703D01*
X244373049Y-119550853D01*
X244437878Y-119707363D01*
X244531995Y-119848218D01*
X244651782Y-119968005D01*
X244792637Y-120062122D01*
X244949147Y-120126951D01*
X245115297Y-120160000D01*
X245284703Y-120160000D01*
X245450853Y-120126951D01*
X245607363Y-120062122D01*
X245748218Y-119968005D01*
X245868005Y-119848218D01*
X245962122Y-119707363D01*
X246023162Y-119560000D01*
X246184703Y-119560000D01*
X246350853Y-119526951D01*
X246378988Y-119515297D01*
X252240000Y-119515297D01*
X252240000Y-119684703D01*
X252273049Y-119850853D01*
X252337878Y-120007363D01*
X252431995Y-120148218D01*
X252551782Y-120268005D01*
X252692637Y-120362122D01*
X252849147Y-120426951D01*
X253015297Y-120460000D01*
X253184703Y-120460000D01*
X253350853Y-120426951D01*
X253507363Y-120362122D01*
X253648218Y-120268005D01*
X253768005Y-120148218D01*
X253862122Y-120007363D01*
X253926951Y-119850853D01*
X253960000Y-119684703D01*
X253960000Y-119515297D01*
X253926951Y-119349147D01*
X253862122Y-119192637D01*
X253768005Y-119051782D01*
X253648218Y-118931995D01*
X253507363Y-118837878D01*
X253350853Y-118773049D01*
X253184703Y-118740000D01*
X253015297Y-118740000D01*
X252849147Y-118773049D01*
X252692637Y-118837878D01*
X252551782Y-118931995D01*
X252431995Y-119051782D01*
X252337878Y-119192637D01*
X252273049Y-119349147D01*
X252240000Y-119515297D01*
X246378988Y-119515297D01*
X246507363Y-119462122D01*
X246648218Y-119368005D01*
X246768005Y-119248218D01*
X246862122Y-119107363D01*
X246926951Y-118950853D01*
X246960000Y-118784703D01*
X246960000Y-118615297D01*
X246926951Y-118449147D01*
X246871509Y-118315297D01*
X249090000Y-118315297D01*
X249090000Y-118484703D01*
X249123049Y-118650853D01*
X249187878Y-118807363D01*
X249281995Y-118948218D01*
X249401782Y-119068005D01*
X249542637Y-119162122D01*
X249699147Y-119226951D01*
X249865297Y-119260000D01*
X250034703Y-119260000D01*
X250200853Y-119226951D01*
X250357363Y-119162122D01*
X250498218Y-119068005D01*
X250618005Y-118948218D01*
X250712122Y-118807363D01*
X250776951Y-118650853D01*
X250810000Y-118484703D01*
X250810000Y-118315297D01*
X250776951Y-118149147D01*
X250721509Y-118015297D01*
X253389996Y-118015297D01*
X253389996Y-118184703D01*
X253423045Y-118350853D01*
X253487874Y-118507363D01*
X253581991Y-118648218D01*
X253701778Y-118768005D01*
X253842633Y-118862122D01*
X253999143Y-118926951D01*
X254165293Y-118960000D01*
X254334699Y-118960000D01*
X254500849Y-118926951D01*
X254657359Y-118862122D01*
X254798214Y-118768005D01*
X254918001Y-118648218D01*
X255012118Y-118507363D01*
X255076947Y-118350853D01*
X255103910Y-118215297D01*
X255290000Y-118215297D01*
X255290000Y-118384703D01*
X255323049Y-118550853D01*
X255387878Y-118707363D01*
X255481995Y-118848218D01*
X255601782Y-118968005D01*
X255742637Y-119062122D01*
X255899147Y-119126951D01*
X256065297Y-119160000D01*
X256234703Y-119160000D01*
X256400853Y-119126951D01*
X256557363Y-119062122D01*
X256698218Y-118968005D01*
X256818005Y-118848218D01*
X256912122Y-118707363D01*
X256976951Y-118550853D01*
X257010000Y-118384703D01*
X257010000Y-118215297D01*
X256976951Y-118049147D01*
X256912122Y-117892637D01*
X256818005Y-117751782D01*
X256698218Y-117631995D01*
X256557363Y-117537878D01*
X256400853Y-117473049D01*
X256234703Y-117440000D01*
X256065297Y-117440000D01*
X255899147Y-117473049D01*
X255742637Y-117537878D01*
X255601782Y-117631995D01*
X255481995Y-117751782D01*
X255387878Y-117892637D01*
X255323049Y-118049147D01*
X255290000Y-118215297D01*
X255103910Y-118215297D01*
X255109996Y-118184703D01*
X255109996Y-118015297D01*
X255076947Y-117849147D01*
X255012118Y-117692637D01*
X254918001Y-117551782D01*
X254798214Y-117431995D01*
X254657359Y-117337878D01*
X254500849Y-117273049D01*
X254334699Y-117240000D01*
X254165293Y-117240000D01*
X253999143Y-117273049D01*
X253842633Y-117337878D01*
X253701778Y-117431995D01*
X253581991Y-117551782D01*
X253487874Y-117692637D01*
X253423045Y-117849147D01*
X253389996Y-118015297D01*
X250721509Y-118015297D01*
X250712122Y-117992637D01*
X250618005Y-117851782D01*
X250498218Y-117731995D01*
X250357363Y-117637878D01*
X250200853Y-117573049D01*
X250034703Y-117540000D01*
X249865297Y-117540000D01*
X249699147Y-117573049D01*
X249542637Y-117637878D01*
X249401782Y-117731995D01*
X249281995Y-117851782D01*
X249187878Y-117992637D01*
X249123049Y-118149147D01*
X249090000Y-118315297D01*
X246871509Y-118315297D01*
X246862122Y-118292637D01*
X246768005Y-118151782D01*
X246648218Y-118031995D01*
X246507363Y-117937878D01*
X246350853Y-117873049D01*
X246184703Y-117840000D01*
X246015297Y-117840000D01*
X245849147Y-117873049D01*
X245692637Y-117937878D01*
X245551782Y-118031995D01*
X245431995Y-118151782D01*
X245337878Y-118292637D01*
X245276838Y-118440000D01*
X245115297Y-118440000D01*
X244949147Y-118473049D01*
X244792637Y-118537878D01*
X244651782Y-118631995D01*
X244531995Y-118751782D01*
X244437878Y-118892637D01*
X244373049Y-119049147D01*
X244340000Y-119215297D01*
X243485010Y-119215297D01*
X243485010Y-119115297D01*
X243451961Y-118949147D01*
X243387132Y-118792637D01*
X243293015Y-118651782D01*
X243173228Y-118531995D01*
X243032373Y-118437878D01*
X242875863Y-118373049D01*
X242709713Y-118340000D01*
X242540307Y-118340000D01*
X242374157Y-118373049D01*
X242217647Y-118437878D01*
X242076792Y-118531995D01*
X241957005Y-118651782D01*
X241862888Y-118792637D01*
X241798059Y-118949147D01*
X241765010Y-119115297D01*
X241765010Y-119284703D01*
X241787650Y-119398522D01*
X241717942Y-119427396D01*
X241662122Y-119292637D01*
X241568005Y-119151782D01*
X241448218Y-119031995D01*
X241307363Y-118937878D01*
X241150853Y-118873049D01*
X240984703Y-118840000D01*
X240815297Y-118840000D01*
X240649147Y-118873049D01*
X240559022Y-118910380D01*
X240526951Y-118749147D01*
X240462122Y-118592637D01*
X240368005Y-118451782D01*
X240248218Y-118331995D01*
X240107363Y-118237878D01*
X239950853Y-118173049D01*
X239784703Y-118140000D01*
X239615297Y-118140000D01*
X239449147Y-118173049D01*
X239292637Y-118237878D01*
X239151782Y-118331995D01*
X239031995Y-118451782D01*
X238937878Y-118592637D01*
X238873049Y-118749147D01*
X238840000Y-118915297D01*
X238600926Y-118915297D01*
X238668005Y-118848218D01*
X238762122Y-118707363D01*
X238826951Y-118550853D01*
X238860000Y-118384703D01*
X238860000Y-118215297D01*
X238826951Y-118049147D01*
X238762122Y-117892637D01*
X238668005Y-117751782D01*
X238548218Y-117631995D01*
X238407363Y-117537878D01*
X238250853Y-117473049D01*
X238084703Y-117440000D01*
X237915297Y-117440000D01*
X237749147Y-117473049D01*
X237592637Y-117537878D01*
X237460000Y-117626504D01*
X237460000Y-117615297D01*
X237426951Y-117449147D01*
X237362122Y-117292637D01*
X237268005Y-117151782D01*
X237148218Y-117031995D01*
X237007363Y-116937878D01*
X236850853Y-116873049D01*
X236684703Y-116840000D01*
X236515297Y-116840000D01*
X236349147Y-116873049D01*
X236192637Y-116937878D01*
X236051782Y-117031995D01*
X235931995Y-117151782D01*
X235837878Y-117292637D01*
X235773049Y-117449147D01*
X235740000Y-117615297D01*
X219268958Y-117615297D01*
X219105998Y-117452337D01*
X218821831Y-117262463D01*
X218506081Y-117131675D01*
X218170883Y-117065000D01*
X217829117Y-117065000D01*
X217493919Y-117131675D01*
X217178169Y-117262463D01*
X216894002Y-117452337D01*
X216710000Y-117636339D01*
X216710000Y-116215297D01*
X220040000Y-116215297D01*
X220040000Y-116384703D01*
X220073049Y-116550853D01*
X220137878Y-116707363D01*
X220231995Y-116848218D01*
X220351782Y-116968005D01*
X220492637Y-117062122D01*
X220649147Y-117126951D01*
X220815297Y-117160000D01*
X220984703Y-117160000D01*
X221150853Y-117126951D01*
X221307363Y-117062122D01*
X221448218Y-116968005D01*
X221568005Y-116848218D01*
X221662122Y-116707363D01*
X221726951Y-116550853D01*
X221760000Y-116384703D01*
X221760000Y-116215297D01*
X221726951Y-116049147D01*
X221662122Y-115892637D01*
X221568005Y-115751782D01*
X221448218Y-115631995D01*
X221307363Y-115537878D01*
X221150853Y-115473049D01*
X220984703Y-115440000D01*
X220815297Y-115440000D01*
X220649147Y-115473049D01*
X220492637Y-115537878D01*
X220351782Y-115631995D01*
X220231995Y-115751782D01*
X220137878Y-115892637D01*
X220073049Y-116049147D01*
X220040000Y-116215297D01*
X216710000Y-116215297D01*
X216710000Y-114990288D01*
X229340000Y-114990288D01*
X229340000Y-115159694D01*
X229373049Y-115325844D01*
X229437878Y-115482354D01*
X229531995Y-115623209D01*
X229651782Y-115742996D01*
X229792637Y-115837113D01*
X229949147Y-115901942D01*
X230115297Y-115934991D01*
X230284703Y-115934991D01*
X230450853Y-115901942D01*
X230571631Y-115851914D01*
X230451782Y-115931995D01*
X230331995Y-116051782D01*
X230237878Y-116192637D01*
X230173049Y-116349147D01*
X230140000Y-116515297D01*
X230140000Y-116684703D01*
X230173049Y-116850853D01*
X230237878Y-117007363D01*
X230331995Y-117148218D01*
X230451782Y-117268005D01*
X230592637Y-117362122D01*
X230749147Y-117426951D01*
X230915297Y-117460000D01*
X231084703Y-117460000D01*
X231250853Y-117426951D01*
X231407363Y-117362122D01*
X231548218Y-117268005D01*
X231668005Y-117148218D01*
X231762122Y-117007363D01*
X231826951Y-116850853D01*
X231860000Y-116684703D01*
X231860000Y-116515297D01*
X231826951Y-116349147D01*
X231762122Y-116192637D01*
X231668005Y-116051782D01*
X231548218Y-115931995D01*
X231407363Y-115837878D01*
X231250853Y-115773049D01*
X231084703Y-115740000D01*
X230915297Y-115740000D01*
X230749147Y-115773049D01*
X230628369Y-115823077D01*
X230748218Y-115742996D01*
X230868005Y-115623209D01*
X230962122Y-115482354D01*
X231026951Y-115325844D01*
X231060000Y-115159694D01*
X231060000Y-114990288D01*
X231026951Y-114824138D01*
X230962122Y-114667628D01*
X230868005Y-114526773D01*
X230748218Y-114406986D01*
X230607363Y-114312869D01*
X230450853Y-114248040D01*
X230284703Y-114214991D01*
X230115297Y-114214991D01*
X229949147Y-114248040D01*
X229792637Y-114312869D01*
X229651782Y-114406986D01*
X229531995Y-114526773D01*
X229437878Y-114667628D01*
X229373049Y-114824138D01*
X229340000Y-114990288D01*
X216710000Y-114990288D01*
X216710000Y-113575415D01*
X216712878Y-113582363D01*
X216806995Y-113723218D01*
X216926782Y-113843005D01*
X217067637Y-113937122D01*
X217224147Y-114001951D01*
X217390297Y-114035000D01*
X217559703Y-114035000D01*
X217725853Y-114001951D01*
X217882363Y-113937122D01*
X218023218Y-113843005D01*
X218143005Y-113723218D01*
X218237122Y-113582363D01*
X218301951Y-113425853D01*
X218335000Y-113259703D01*
X218335000Y-113090297D01*
X218301951Y-112924147D01*
X218237122Y-112767637D01*
X218143005Y-112626782D01*
X218023218Y-112506995D01*
X217885984Y-112415297D01*
X222340000Y-112415297D01*
X222340000Y-112584703D01*
X222373049Y-112750853D01*
X222437878Y-112907363D01*
X222531995Y-113048218D01*
X222651782Y-113168005D01*
X222792637Y-113262122D01*
X222949147Y-113326951D01*
X223115297Y-113360000D01*
X223284703Y-113360000D01*
X223450853Y-113326951D01*
X223607363Y-113262122D01*
X223748218Y-113168005D01*
X223868005Y-113048218D01*
X223956820Y-112915297D01*
X229140000Y-112915297D01*
X229140000Y-113084703D01*
X229173049Y-113250853D01*
X229237878Y-113407363D01*
X229331995Y-113548218D01*
X229451782Y-113668005D01*
X229592637Y-113762122D01*
X229749147Y-113826951D01*
X229915297Y-113860000D01*
X230084703Y-113860000D01*
X230250853Y-113826951D01*
X230293191Y-113809414D01*
X230351782Y-113868005D01*
X230492637Y-113962122D01*
X230649147Y-114026951D01*
X230815297Y-114060000D01*
X230984703Y-114060000D01*
X231150853Y-114026951D01*
X231263901Y-113980124D01*
X231351782Y-114068005D01*
X231492637Y-114162122D01*
X231649147Y-114226951D01*
X231815297Y-114260000D01*
X231984703Y-114260000D01*
X232150853Y-114226951D01*
X232307363Y-114162122D01*
X232448218Y-114068005D01*
X232477273Y-114038950D01*
X232473049Y-114049147D01*
X232440000Y-114215297D01*
X232440000Y-114384703D01*
X232473049Y-114550853D01*
X232537878Y-114707363D01*
X232631995Y-114848218D01*
X232751782Y-114968005D01*
X232892637Y-115062122D01*
X233049147Y-115126951D01*
X233215297Y-115160000D01*
X233384703Y-115160000D01*
X233550853Y-115126951D01*
X233707363Y-115062122D01*
X233848218Y-114968005D01*
X233968005Y-114848218D01*
X234062122Y-114707363D01*
X234126951Y-114550853D01*
X234160000Y-114384703D01*
X234160000Y-114215297D01*
X234126951Y-114049147D01*
X234062122Y-113892637D01*
X233968005Y-113751782D01*
X233848218Y-113631995D01*
X233707363Y-113537878D01*
X233550853Y-113473049D01*
X233384703Y-113440000D01*
X233215297Y-113440000D01*
X233049147Y-113473049D01*
X232892637Y-113537878D01*
X232751782Y-113631995D01*
X232722727Y-113661050D01*
X232726951Y-113650853D01*
X232760000Y-113484703D01*
X232760000Y-113315297D01*
X232726951Y-113149147D01*
X232662122Y-112992637D01*
X232568005Y-112851782D01*
X232531520Y-112815297D01*
X239540000Y-112815297D01*
X239540000Y-112984703D01*
X239573049Y-113150853D01*
X239637878Y-113307363D01*
X239731995Y-113448218D01*
X239851782Y-113568005D01*
X239867243Y-113578336D01*
X239840000Y-113715297D01*
X239840000Y-113884703D01*
X239873049Y-114050853D01*
X239934828Y-114200000D01*
X239873049Y-114349147D01*
X239840000Y-114515297D01*
X239840000Y-114684703D01*
X239873049Y-114850853D01*
X239914117Y-114950000D01*
X239873049Y-115049147D01*
X239840000Y-115215297D01*
X239840000Y-115384703D01*
X239873049Y-115550853D01*
X239937878Y-115707363D01*
X240031995Y-115848218D01*
X240151782Y-115968005D01*
X240292637Y-116062122D01*
X240449147Y-116126951D01*
X240615297Y-116160000D01*
X240784703Y-116160000D01*
X240950853Y-116126951D01*
X241040978Y-116089620D01*
X241073049Y-116250853D01*
X241137878Y-116407363D01*
X241231995Y-116548218D01*
X241351782Y-116668005D01*
X241455511Y-116737315D01*
X241440000Y-116815297D01*
X241440000Y-116984703D01*
X241473049Y-117150853D01*
X241537878Y-117307363D01*
X241631995Y-117448218D01*
X241751782Y-117568005D01*
X241892637Y-117662122D01*
X242049147Y-117726951D01*
X242215297Y-117760000D01*
X242384703Y-117760000D01*
X242550853Y-117726951D01*
X242707363Y-117662122D01*
X242848218Y-117568005D01*
X242968005Y-117448218D01*
X243062122Y-117307363D01*
X243126951Y-117150853D01*
X243160000Y-116984703D01*
X243160000Y-116815297D01*
X243126951Y-116649147D01*
X243062122Y-116492637D01*
X242968005Y-116351782D01*
X242848218Y-116231995D01*
X242744489Y-116162685D01*
X242760000Y-116084703D01*
X242760000Y-115915297D01*
X242726951Y-115749147D01*
X242662122Y-115592637D01*
X242568005Y-115451782D01*
X242448218Y-115331995D01*
X242307363Y-115237878D01*
X242150853Y-115173049D01*
X241984703Y-115140000D01*
X241815297Y-115140000D01*
X241649147Y-115173049D01*
X241559022Y-115210380D01*
X241526951Y-115049147D01*
X241485883Y-114950000D01*
X241526951Y-114850853D01*
X241560000Y-114684703D01*
X241560000Y-114515297D01*
X241526951Y-114349147D01*
X241512930Y-114315297D01*
X245140000Y-114315297D01*
X245140000Y-114484703D01*
X245173049Y-114650853D01*
X245237878Y-114807363D01*
X245331995Y-114948218D01*
X245451782Y-115068005D01*
X245592637Y-115162122D01*
X245749147Y-115226951D01*
X245809546Y-115238965D01*
X245837878Y-115307363D01*
X245931995Y-115448218D01*
X246051782Y-115568005D01*
X246192637Y-115662122D01*
X246349147Y-115726951D01*
X246515297Y-115760000D01*
X246684703Y-115760000D01*
X246850853Y-115726951D01*
X246999697Y-115665297D01*
X250290000Y-115665297D01*
X250290000Y-115834703D01*
X250323049Y-116000853D01*
X250387878Y-116157363D01*
X250481995Y-116298218D01*
X250601782Y-116418005D01*
X250742637Y-116512122D01*
X250899147Y-116576951D01*
X251065297Y-116610000D01*
X251234703Y-116610000D01*
X251400853Y-116576951D01*
X251557363Y-116512122D01*
X251698218Y-116418005D01*
X251818005Y-116298218D01*
X251912122Y-116157363D01*
X251976951Y-116000853D01*
X252010000Y-115834703D01*
X252010000Y-115665297D01*
X251976951Y-115499147D01*
X251912122Y-115342637D01*
X251818005Y-115201782D01*
X251698218Y-115081995D01*
X251557363Y-114987878D01*
X251400853Y-114923049D01*
X251234703Y-114890000D01*
X251065297Y-114890000D01*
X250899147Y-114923049D01*
X250742637Y-114987878D01*
X250601782Y-115081995D01*
X250481995Y-115201782D01*
X250387878Y-115342637D01*
X250323049Y-115499147D01*
X250290000Y-115665297D01*
X246999697Y-115665297D01*
X247007363Y-115662122D01*
X247148218Y-115568005D01*
X247268005Y-115448218D01*
X247362122Y-115307363D01*
X247426951Y-115150853D01*
X247460000Y-114984703D01*
X247460000Y-114815297D01*
X256440000Y-114815297D01*
X256440000Y-114984703D01*
X256473049Y-115150853D01*
X256537878Y-115307363D01*
X256631995Y-115448218D01*
X256751782Y-115568005D01*
X256892637Y-115662122D01*
X257049147Y-115726951D01*
X257215297Y-115760000D01*
X257384703Y-115760000D01*
X257550853Y-115726951D01*
X257707363Y-115662122D01*
X257848218Y-115568005D01*
X257968005Y-115448218D01*
X258062122Y-115307363D01*
X258126951Y-115150853D01*
X258153914Y-115015297D01*
X258640000Y-115015297D01*
X258640000Y-115184703D01*
X258673049Y-115350853D01*
X258737878Y-115507363D01*
X258831995Y-115648218D01*
X258951782Y-115768005D01*
X259092637Y-115862122D01*
X259249147Y-115926951D01*
X259415297Y-115960000D01*
X259584703Y-115960000D01*
X259750853Y-115926951D01*
X259907363Y-115862122D01*
X260048218Y-115768005D01*
X260168005Y-115648218D01*
X260262122Y-115507363D01*
X260326951Y-115350853D01*
X260360000Y-115184703D01*
X260360000Y-115015297D01*
X260840000Y-115015297D01*
X260840000Y-115184703D01*
X260873049Y-115350853D01*
X260937878Y-115507363D01*
X261031995Y-115648218D01*
X261151782Y-115768005D01*
X261292637Y-115862122D01*
X261449147Y-115926951D01*
X261615297Y-115960000D01*
X261784703Y-115960000D01*
X261950853Y-115926951D01*
X262107363Y-115862122D01*
X262248218Y-115768005D01*
X262368005Y-115648218D01*
X262462122Y-115507363D01*
X262526951Y-115350853D01*
X262560000Y-115184703D01*
X262560000Y-115015297D01*
X262526951Y-114849147D01*
X262462122Y-114692637D01*
X262368005Y-114551782D01*
X262248218Y-114431995D01*
X262107363Y-114337878D01*
X261950853Y-114273049D01*
X261784703Y-114240000D01*
X261615297Y-114240000D01*
X261449147Y-114273049D01*
X261292637Y-114337878D01*
X261151782Y-114431995D01*
X261031995Y-114551782D01*
X260937878Y-114692637D01*
X260873049Y-114849147D01*
X260840000Y-115015297D01*
X260360000Y-115015297D01*
X260326951Y-114849147D01*
X260262122Y-114692637D01*
X260168005Y-114551782D01*
X260048218Y-114431995D01*
X259907363Y-114337878D01*
X259750853Y-114273049D01*
X259584703Y-114240000D01*
X259415297Y-114240000D01*
X259249147Y-114273049D01*
X259092637Y-114337878D01*
X258951782Y-114431995D01*
X258831995Y-114551782D01*
X258737878Y-114692637D01*
X258673049Y-114849147D01*
X258640000Y-115015297D01*
X258153914Y-115015297D01*
X258160000Y-114984703D01*
X258160000Y-114815297D01*
X258126951Y-114649147D01*
X258062122Y-114492637D01*
X257968005Y-114351782D01*
X257848218Y-114231995D01*
X257707363Y-114137878D01*
X257550853Y-114073049D01*
X257384703Y-114040000D01*
X257215297Y-114040000D01*
X257049147Y-114073049D01*
X256892637Y-114137878D01*
X256751782Y-114231995D01*
X256631995Y-114351782D01*
X256537878Y-114492637D01*
X256473049Y-114649147D01*
X256440000Y-114815297D01*
X247460000Y-114815297D01*
X247426951Y-114649147D01*
X247362122Y-114492637D01*
X247268005Y-114351782D01*
X247148218Y-114231995D01*
X247007363Y-114137878D01*
X246850853Y-114073049D01*
X246790454Y-114061035D01*
X246762122Y-113992637D01*
X246668005Y-113851782D01*
X246548218Y-113731995D01*
X246407363Y-113637878D01*
X246250853Y-113573049D01*
X246084703Y-113540000D01*
X245915297Y-113540000D01*
X245749147Y-113573049D01*
X245592637Y-113637878D01*
X245451782Y-113731995D01*
X245331995Y-113851782D01*
X245237878Y-113992637D01*
X245173049Y-114149147D01*
X245140000Y-114315297D01*
X241512930Y-114315297D01*
X241465172Y-114200000D01*
X241526951Y-114050853D01*
X241560000Y-113884703D01*
X241560000Y-113715297D01*
X241526951Y-113549147D01*
X241462122Y-113392637D01*
X241368005Y-113251782D01*
X241248218Y-113131995D01*
X241232757Y-113121664D01*
X241260000Y-112984703D01*
X241260000Y-112815297D01*
X241226951Y-112649147D01*
X241162122Y-112492637D01*
X241068005Y-112351782D01*
X240948218Y-112231995D01*
X240807363Y-112137878D01*
X240650853Y-112073049D01*
X240484703Y-112040000D01*
X240315297Y-112040000D01*
X240149147Y-112073049D01*
X239992637Y-112137878D01*
X239851782Y-112231995D01*
X239731995Y-112351782D01*
X239637878Y-112492637D01*
X239573049Y-112649147D01*
X239540000Y-112815297D01*
X232531520Y-112815297D01*
X232448218Y-112731995D01*
X232307363Y-112637878D01*
X232150853Y-112573049D01*
X231984703Y-112540000D01*
X231815297Y-112540000D01*
X231649147Y-112573049D01*
X231536099Y-112619876D01*
X231448218Y-112531995D01*
X231307363Y-112437878D01*
X231150853Y-112373049D01*
X230984703Y-112340000D01*
X230815297Y-112340000D01*
X230649147Y-112373049D01*
X230606809Y-112390586D01*
X230548218Y-112331995D01*
X230407363Y-112237878D01*
X230250853Y-112173049D01*
X230084703Y-112140000D01*
X229915297Y-112140000D01*
X229749147Y-112173049D01*
X229592637Y-112237878D01*
X229451782Y-112331995D01*
X229331995Y-112451782D01*
X229237878Y-112592637D01*
X229173049Y-112749147D01*
X229140000Y-112915297D01*
X223956820Y-112915297D01*
X223962122Y-112907363D01*
X224026951Y-112750853D01*
X224060000Y-112584703D01*
X224060000Y-112415297D01*
X224026951Y-112249147D01*
X223962122Y-112092637D01*
X223868005Y-111951782D01*
X223748218Y-111831995D01*
X223607363Y-111737878D01*
X223450853Y-111673049D01*
X223284703Y-111640000D01*
X223115297Y-111640000D01*
X222949147Y-111673049D01*
X222792637Y-111737878D01*
X222651782Y-111831995D01*
X222531995Y-111951782D01*
X222437878Y-112092637D01*
X222373049Y-112249147D01*
X222340000Y-112415297D01*
X217885984Y-112415297D01*
X217882363Y-112412878D01*
X217725853Y-112348049D01*
X217559703Y-112315000D01*
X217390297Y-112315000D01*
X217224147Y-112348049D01*
X217067637Y-112412878D01*
X216926782Y-112506995D01*
X216806995Y-112626782D01*
X216712878Y-112767637D01*
X216710000Y-112774585D01*
X216710000Y-111115297D01*
X235040000Y-111115297D01*
X235040000Y-111284703D01*
X235073049Y-111450853D01*
X235137878Y-111607363D01*
X235231995Y-111748218D01*
X235351782Y-111868005D01*
X235492637Y-111962122D01*
X235649147Y-112026951D01*
X235815297Y-112060000D01*
X235984703Y-112060000D01*
X236150853Y-112026951D01*
X236307363Y-111962122D01*
X236448218Y-111868005D01*
X236568005Y-111748218D01*
X236662122Y-111607363D01*
X236726951Y-111450853D01*
X236760000Y-111284703D01*
X236760000Y-111215297D01*
X238840000Y-111215297D01*
X238840000Y-111384703D01*
X238873049Y-111550853D01*
X238937878Y-111707363D01*
X239031995Y-111848218D01*
X239151782Y-111968005D01*
X239292637Y-112062122D01*
X239449147Y-112126951D01*
X239615297Y-112160000D01*
X239784703Y-112160000D01*
X239950853Y-112126951D01*
X240107363Y-112062122D01*
X240248218Y-111968005D01*
X240368005Y-111848218D01*
X240462122Y-111707363D01*
X240526951Y-111550853D01*
X240560000Y-111384703D01*
X240560000Y-111215297D01*
X240526951Y-111049147D01*
X240462122Y-110892637D01*
X240368005Y-110751782D01*
X240248218Y-110631995D01*
X240107363Y-110537878D01*
X239950853Y-110473049D01*
X239784703Y-110440000D01*
X239615297Y-110440000D01*
X239449147Y-110473049D01*
X239292637Y-110537878D01*
X239151782Y-110631995D01*
X239031995Y-110751782D01*
X238937878Y-110892637D01*
X238873049Y-111049147D01*
X238840000Y-111215297D01*
X236760000Y-111215297D01*
X236760000Y-111115297D01*
X236726951Y-110949147D01*
X236662122Y-110792637D01*
X236568005Y-110651782D01*
X236448218Y-110531995D01*
X236307363Y-110437878D01*
X236150853Y-110373049D01*
X235984703Y-110340000D01*
X235815297Y-110340000D01*
X235649147Y-110373049D01*
X235492637Y-110437878D01*
X235351782Y-110531995D01*
X235231995Y-110651782D01*
X235137878Y-110792637D01*
X235073049Y-110949147D01*
X235040000Y-111115297D01*
X216710000Y-111115297D01*
X216710000Y-109827797D01*
X244627500Y-109827797D01*
X244627500Y-109997203D01*
X244660549Y-110163353D01*
X244725378Y-110319863D01*
X244819495Y-110460718D01*
X244939282Y-110580505D01*
X245080137Y-110674622D01*
X245236647Y-110739451D01*
X245402797Y-110772500D01*
X245572203Y-110772500D01*
X245663462Y-110754348D01*
X245637878Y-110792637D01*
X245573049Y-110949147D01*
X245540000Y-111115297D01*
X245540000Y-111284703D01*
X245573049Y-111450853D01*
X245637878Y-111607363D01*
X245731995Y-111748218D01*
X245833777Y-111850000D01*
X245731995Y-111951782D01*
X245637878Y-112092637D01*
X245573049Y-112249147D01*
X245540000Y-112415297D01*
X245540000Y-112584703D01*
X245573049Y-112750853D01*
X245637878Y-112907363D01*
X245731995Y-113048218D01*
X245851782Y-113168005D01*
X245992637Y-113262122D01*
X246149147Y-113326951D01*
X246315297Y-113360000D01*
X246484703Y-113360000D01*
X246650853Y-113326951D01*
X246807363Y-113262122D01*
X246948218Y-113168005D01*
X247068005Y-113048218D01*
X247162122Y-112907363D01*
X247226951Y-112750853D01*
X247260000Y-112584703D01*
X247260000Y-112415297D01*
X247226951Y-112249147D01*
X247162122Y-112092637D01*
X247068005Y-111951782D01*
X246966223Y-111850000D01*
X247068005Y-111748218D01*
X247162122Y-111607363D01*
X247226951Y-111450853D01*
X247260000Y-111284703D01*
X247260000Y-111115297D01*
X247240109Y-111015297D01*
X254540000Y-111015297D01*
X254540000Y-111184703D01*
X254573049Y-111350853D01*
X254637878Y-111507363D01*
X254731995Y-111648218D01*
X254851782Y-111768005D01*
X254992637Y-111862122D01*
X255149147Y-111926951D01*
X255315297Y-111960000D01*
X255484703Y-111960000D01*
X255650853Y-111926951D01*
X255807363Y-111862122D01*
X255948218Y-111768005D01*
X256068005Y-111648218D01*
X256162122Y-111507363D01*
X256226951Y-111350853D01*
X256260000Y-111184703D01*
X256260000Y-111015297D01*
X256226951Y-110849147D01*
X256162122Y-110692637D01*
X256068005Y-110551782D01*
X255948218Y-110431995D01*
X255807363Y-110337878D01*
X255650853Y-110273049D01*
X255484703Y-110240000D01*
X255315297Y-110240000D01*
X255149147Y-110273049D01*
X254992637Y-110337878D01*
X254851782Y-110431995D01*
X254731995Y-110551782D01*
X254637878Y-110692637D01*
X254573049Y-110849147D01*
X254540000Y-111015297D01*
X247240109Y-111015297D01*
X247226951Y-110949147D01*
X247162122Y-110792637D01*
X247068005Y-110651782D01*
X246948218Y-110531995D01*
X246807363Y-110437878D01*
X246650853Y-110373049D01*
X246484703Y-110340000D01*
X246315297Y-110340000D01*
X246224038Y-110358152D01*
X246249622Y-110319863D01*
X246314451Y-110163353D01*
X246347500Y-109997203D01*
X246347500Y-109827797D01*
X246314451Y-109661647D01*
X246249622Y-109505137D01*
X246155505Y-109364282D01*
X246035718Y-109244495D01*
X245894863Y-109150378D01*
X245738353Y-109085549D01*
X245572203Y-109052500D01*
X245402797Y-109052500D01*
X245236647Y-109085549D01*
X245080137Y-109150378D01*
X244939282Y-109244495D01*
X244819495Y-109364282D01*
X244725378Y-109505137D01*
X244660549Y-109661647D01*
X244627500Y-109827797D01*
X216710000Y-109827797D01*
X216710000Y-108915297D01*
X250140000Y-108915297D01*
X250140000Y-109084703D01*
X250173049Y-109250853D01*
X250237878Y-109407363D01*
X250331995Y-109548218D01*
X250451782Y-109668005D01*
X250592637Y-109762122D01*
X250749147Y-109826951D01*
X250915297Y-109860000D01*
X251084703Y-109860000D01*
X251250853Y-109826951D01*
X251407363Y-109762122D01*
X251548218Y-109668005D01*
X251668005Y-109548218D01*
X251762122Y-109407363D01*
X251826951Y-109250853D01*
X251860000Y-109084703D01*
X251860000Y-108915297D01*
X254340000Y-108915297D01*
X254340000Y-109084703D01*
X254373049Y-109250853D01*
X254437878Y-109407363D01*
X254531995Y-109548218D01*
X254651782Y-109668005D01*
X254792637Y-109762122D01*
X254949147Y-109826951D01*
X255115297Y-109860000D01*
X255284703Y-109860000D01*
X255450853Y-109826951D01*
X255607363Y-109762122D01*
X255748218Y-109668005D01*
X255868005Y-109548218D01*
X255962122Y-109407363D01*
X256026951Y-109250853D01*
X256060000Y-109084703D01*
X256060000Y-108915297D01*
X256040109Y-108815297D01*
X256540000Y-108815297D01*
X256540000Y-108984703D01*
X256573049Y-109150853D01*
X256637878Y-109307363D01*
X256731995Y-109448218D01*
X256851782Y-109568005D01*
X256992637Y-109662122D01*
X257149147Y-109726951D01*
X257315297Y-109760000D01*
X257484703Y-109760000D01*
X257650853Y-109726951D01*
X257807363Y-109662122D01*
X257948218Y-109568005D01*
X258068005Y-109448218D01*
X258162122Y-109307363D01*
X258226951Y-109150853D01*
X258260000Y-108984703D01*
X258260000Y-108815297D01*
X258640000Y-108815297D01*
X258640000Y-108984703D01*
X258673049Y-109150853D01*
X258737878Y-109307363D01*
X258831995Y-109448218D01*
X258951782Y-109568005D01*
X259092637Y-109662122D01*
X259249147Y-109726951D01*
X259415297Y-109760000D01*
X259584703Y-109760000D01*
X259750853Y-109726951D01*
X259907363Y-109662122D01*
X260048218Y-109568005D01*
X260168005Y-109448218D01*
X260262122Y-109307363D01*
X260326951Y-109150853D01*
X260360000Y-108984703D01*
X260360000Y-108815297D01*
X260740000Y-108815297D01*
X260740000Y-108984703D01*
X260773049Y-109150853D01*
X260837878Y-109307363D01*
X260931995Y-109448218D01*
X261051782Y-109568005D01*
X261192637Y-109662122D01*
X261349147Y-109726951D01*
X261515297Y-109760000D01*
X261684703Y-109760000D01*
X261850853Y-109726951D01*
X262007363Y-109662122D01*
X262148218Y-109568005D01*
X262268005Y-109448218D01*
X262362122Y-109307363D01*
X262426951Y-109150853D01*
X262460000Y-108984703D01*
X262460000Y-108815297D01*
X262426951Y-108649147D01*
X262362122Y-108492637D01*
X262268005Y-108351782D01*
X262148218Y-108231995D01*
X262007363Y-108137878D01*
X261850853Y-108073049D01*
X261684703Y-108040000D01*
X261515297Y-108040000D01*
X261349147Y-108073049D01*
X261192637Y-108137878D01*
X261051782Y-108231995D01*
X260931995Y-108351782D01*
X260837878Y-108492637D01*
X260773049Y-108649147D01*
X260740000Y-108815297D01*
X260360000Y-108815297D01*
X260326951Y-108649147D01*
X260262122Y-108492637D01*
X260168005Y-108351782D01*
X260048218Y-108231995D01*
X259907363Y-108137878D01*
X259750853Y-108073049D01*
X259584703Y-108040000D01*
X259415297Y-108040000D01*
X259249147Y-108073049D01*
X259092637Y-108137878D01*
X258951782Y-108231995D01*
X258831995Y-108351782D01*
X258737878Y-108492637D01*
X258673049Y-108649147D01*
X258640000Y-108815297D01*
X258260000Y-108815297D01*
X258226951Y-108649147D01*
X258162122Y-108492637D01*
X258068005Y-108351782D01*
X257948218Y-108231995D01*
X257807363Y-108137878D01*
X257650853Y-108073049D01*
X257484703Y-108040000D01*
X257315297Y-108040000D01*
X257149147Y-108073049D01*
X256992637Y-108137878D01*
X256851782Y-108231995D01*
X256731995Y-108351782D01*
X256637878Y-108492637D01*
X256573049Y-108649147D01*
X256540000Y-108815297D01*
X256040109Y-108815297D01*
X256026951Y-108749147D01*
X255962122Y-108592637D01*
X255868005Y-108451782D01*
X255748218Y-108331995D01*
X255607363Y-108237878D01*
X255450853Y-108173049D01*
X255284703Y-108140000D01*
X255115297Y-108140000D01*
X254949147Y-108173049D01*
X254792637Y-108237878D01*
X254651782Y-108331995D01*
X254531995Y-108451782D01*
X254437878Y-108592637D01*
X254373049Y-108749147D01*
X254340000Y-108915297D01*
X251860000Y-108915297D01*
X251826951Y-108749147D01*
X251762122Y-108592637D01*
X251668005Y-108451782D01*
X251548218Y-108331995D01*
X251407363Y-108237878D01*
X251250853Y-108173049D01*
X251084703Y-108140000D01*
X250915297Y-108140000D01*
X250749147Y-108173049D01*
X250592637Y-108237878D01*
X250451782Y-108331995D01*
X250331995Y-108451782D01*
X250237878Y-108592637D01*
X250173049Y-108749147D01*
X250140000Y-108915297D01*
X216710000Y-108915297D01*
X216710000Y-107515297D01*
X234740000Y-107515297D01*
X234740000Y-107684703D01*
X234773049Y-107850853D01*
X234837878Y-108007363D01*
X234931995Y-108148218D01*
X235051782Y-108268005D01*
X235192637Y-108362122D01*
X235349147Y-108426951D01*
X235515297Y-108460000D01*
X235684703Y-108460000D01*
X235850853Y-108426951D01*
X236007363Y-108362122D01*
X236148218Y-108268005D01*
X236268005Y-108148218D01*
X236362122Y-108007363D01*
X236426951Y-107850853D01*
X236460000Y-107684703D01*
X236460000Y-107515297D01*
X236426951Y-107349147D01*
X236362122Y-107192637D01*
X236268005Y-107051782D01*
X236148218Y-106931995D01*
X236007363Y-106837878D01*
X235850853Y-106773049D01*
X235684703Y-106740000D01*
X235515297Y-106740000D01*
X235349147Y-106773049D01*
X235192637Y-106837878D01*
X235051782Y-106931995D01*
X234931995Y-107051782D01*
X234837878Y-107192637D01*
X234773049Y-107349147D01*
X234740000Y-107515297D01*
X216710000Y-107515297D01*
X216710000Y-106569314D01*
X216849147Y-106626951D01*
X217015297Y-106660000D01*
X217184703Y-106660000D01*
X217350853Y-106626951D01*
X217507363Y-106562122D01*
X217648218Y-106468005D01*
X217768005Y-106348218D01*
X217862122Y-106207363D01*
X217926951Y-106050853D01*
X217960000Y-105884703D01*
X217960000Y-105715297D01*
X217926951Y-105549147D01*
X217862122Y-105392637D01*
X217768005Y-105251782D01*
X217648218Y-105131995D01*
X217507363Y-105037878D01*
X217350853Y-104973049D01*
X217184703Y-104940000D01*
X217015297Y-104940000D01*
X216849147Y-104973049D01*
X216710000Y-105030686D01*
X216710000Y-104615297D01*
X218740000Y-104615297D01*
X218740000Y-104784703D01*
X218773049Y-104950853D01*
X218837878Y-105107363D01*
X218931995Y-105248218D01*
X219051782Y-105368005D01*
X219192637Y-105462122D01*
X219349147Y-105526951D01*
X219515297Y-105560000D01*
X219684703Y-105560000D01*
X219850853Y-105526951D01*
X220007363Y-105462122D01*
X220148218Y-105368005D01*
X220268005Y-105248218D01*
X220362122Y-105107363D01*
X220426951Y-104950853D01*
X220460000Y-104784703D01*
X220460000Y-104681741D01*
X220507363Y-104662122D01*
X220648218Y-104568005D01*
X220768005Y-104448218D01*
X220862122Y-104307363D01*
X220926951Y-104150853D01*
X220960000Y-103984703D01*
X220960000Y-103815297D01*
X220926951Y-103649147D01*
X220862122Y-103492637D01*
X220768005Y-103351782D01*
X220648218Y-103231995D01*
X220507363Y-103137878D01*
X220350853Y-103073049D01*
X220184703Y-103040000D01*
X220015297Y-103040000D01*
X219849147Y-103073049D01*
X219692637Y-103137878D01*
X219551782Y-103231995D01*
X219431995Y-103351782D01*
X219337878Y-103492637D01*
X219273049Y-103649147D01*
X219240000Y-103815297D01*
X219240000Y-103918259D01*
X219192637Y-103937878D01*
X219051782Y-104031995D01*
X218931995Y-104151782D01*
X218837878Y-104292637D01*
X218773049Y-104449147D01*
X218740000Y-104615297D01*
X216710000Y-104615297D01*
X216710000Y-101000000D01*
X226137735Y-101000000D01*
X226246534Y-102104653D01*
X226568749Y-103166855D01*
X227091999Y-104145786D01*
X227796174Y-105003826D01*
X228654214Y-105708001D01*
X229633145Y-106231251D01*
X230695347Y-106553466D01*
X231523174Y-106635000D01*
X236720331Y-106635000D01*
X236673049Y-106749147D01*
X236640000Y-106915297D01*
X236640000Y-107084703D01*
X236673049Y-107250853D01*
X236737878Y-107407363D01*
X236831995Y-107548218D01*
X236951782Y-107668005D01*
X237092637Y-107762122D01*
X237249147Y-107826951D01*
X237415297Y-107860000D01*
X237584703Y-107860000D01*
X237750853Y-107826951D01*
X237907363Y-107762122D01*
X237950000Y-107733633D01*
X237992637Y-107762122D01*
X238149147Y-107826951D01*
X238315297Y-107860000D01*
X238484703Y-107860000D01*
X238650853Y-107826951D01*
X238807363Y-107762122D01*
X238948218Y-107668005D01*
X239068005Y-107548218D01*
X239162122Y-107407363D01*
X239226951Y-107250853D01*
X239260000Y-107084703D01*
X239260000Y-106915297D01*
X239226951Y-106749147D01*
X239179669Y-106635000D01*
X249470295Y-106635000D01*
X249342637Y-106687878D01*
X249201782Y-106781995D01*
X249081995Y-106901782D01*
X248987878Y-107042637D01*
X248923049Y-107199147D01*
X248890000Y-107365297D01*
X248890000Y-107534703D01*
X248923049Y-107700853D01*
X248987878Y-107857363D01*
X249081995Y-107998218D01*
X249201782Y-108118005D01*
X249342637Y-108212122D01*
X249499147Y-108276951D01*
X249665297Y-108310000D01*
X249834703Y-108310000D01*
X250000853Y-108276951D01*
X250157363Y-108212122D01*
X250298218Y-108118005D01*
X250418005Y-107998218D01*
X250512122Y-107857363D01*
X250576951Y-107700853D01*
X250610000Y-107534703D01*
X250610000Y-107365297D01*
X250576951Y-107199147D01*
X250512122Y-107042637D01*
X250418005Y-106901782D01*
X250298218Y-106781995D01*
X250157363Y-106687878D01*
X250029705Y-106635000D01*
X252076826Y-106635000D01*
X252904653Y-106553466D01*
X253966855Y-106231251D01*
X254945786Y-105708001D01*
X255803826Y-105003826D01*
X256508001Y-104145786D01*
X257031251Y-103166855D01*
X257353466Y-102104653D01*
X257462265Y-101000000D01*
X257353466Y-99895347D01*
X257031251Y-98833145D01*
X256508001Y-97854214D01*
X255803826Y-96996174D01*
X254945786Y-96291999D01*
X253966855Y-95768749D01*
X252904653Y-95446534D01*
X252076826Y-95365000D01*
X231523174Y-95365000D01*
X230695347Y-95446534D01*
X229633145Y-95768749D01*
X228654214Y-96291999D01*
X227796174Y-96996174D01*
X227091999Y-97854214D01*
X226568749Y-98833145D01*
X226246534Y-99895347D01*
X226137735Y-101000000D01*
X216710000Y-101000000D01*
X216710000Y-66115297D01*
X236040000Y-66115297D01*
X236040000Y-66284703D01*
X236073049Y-66450853D01*
X236137878Y-66607363D01*
X236231995Y-66748218D01*
X236351782Y-66868005D01*
X236492637Y-66962122D01*
X236649147Y-67026951D01*
X236815297Y-67060000D01*
X236984703Y-67060000D01*
X237150853Y-67026951D01*
X237307363Y-66962122D01*
X237448218Y-66868005D01*
X237568005Y-66748218D01*
X237662122Y-66607363D01*
X237726951Y-66450853D01*
X237760000Y-66284703D01*
X237760000Y-66115297D01*
X237726951Y-65949147D01*
X237662122Y-65792637D01*
X237568005Y-65651782D01*
X237448218Y-65531995D01*
X237307363Y-65437878D01*
X237150853Y-65373049D01*
X236984703Y-65340000D01*
X236815297Y-65340000D01*
X236649147Y-65373049D01*
X236492637Y-65437878D01*
X236351782Y-65531995D01*
X236231995Y-65651782D01*
X236137878Y-65792637D01*
X236073049Y-65949147D01*
X236040000Y-66115297D01*
X216710000Y-66115297D01*
X216710000Y-65115297D01*
X237640000Y-65115297D01*
X237640000Y-65284703D01*
X237673049Y-65450853D01*
X237737878Y-65607363D01*
X237831995Y-65748218D01*
X237951782Y-65868005D01*
X238092637Y-65962122D01*
X238249147Y-66026951D01*
X238415297Y-66060000D01*
X238584703Y-66060000D01*
X238750853Y-66026951D01*
X238863901Y-65980124D01*
X238919883Y-66036106D01*
X238873059Y-66149147D01*
X238840010Y-66315297D01*
X238840010Y-66484703D01*
X238873059Y-66650853D01*
X238937888Y-66807363D01*
X239032005Y-66948218D01*
X239151792Y-67068005D01*
X239292647Y-67162122D01*
X239449157Y-67226951D01*
X239615307Y-67260000D01*
X239784713Y-67260000D01*
X239950863Y-67226951D01*
X240107373Y-67162122D01*
X240248228Y-67068005D01*
X240368015Y-66948218D01*
X240426961Y-66860000D01*
X240484703Y-66860000D01*
X240650853Y-66826951D01*
X240807363Y-66762122D01*
X240948218Y-66668005D01*
X241068005Y-66548218D01*
X241126951Y-66460000D01*
X241184703Y-66460000D01*
X241350853Y-66426951D01*
X241507363Y-66362122D01*
X241648218Y-66268005D01*
X241768005Y-66148218D01*
X241773439Y-66140086D01*
X241829803Y-66151297D01*
X241999209Y-66151297D01*
X242165359Y-66118248D01*
X242321869Y-66053419D01*
X242462724Y-65959302D01*
X242582511Y-65839515D01*
X242676628Y-65698660D01*
X242704579Y-65631181D01*
X242725843Y-65626951D01*
X242882353Y-65562122D01*
X243023208Y-65468005D01*
X243142995Y-65348218D01*
X243237112Y-65207363D01*
X243301941Y-65050853D01*
X243334990Y-64884703D01*
X243334990Y-64715297D01*
X243312748Y-64603475D01*
X243368005Y-64548218D01*
X243462122Y-64407363D01*
X243526951Y-64250853D01*
X243551663Y-64126615D01*
X243707363Y-64062122D01*
X243848218Y-63968005D01*
X243968005Y-63848218D01*
X244062122Y-63707363D01*
X244090454Y-63638965D01*
X244150853Y-63626951D01*
X244307363Y-63562122D01*
X244448218Y-63468005D01*
X244568005Y-63348218D01*
X244633427Y-63250308D01*
X244750853Y-63226951D01*
X244907363Y-63162122D01*
X245048218Y-63068005D01*
X245168005Y-62948218D01*
X245262122Y-62807363D01*
X245326951Y-62650853D01*
X245360000Y-62484703D01*
X245360000Y-62315297D01*
X245326951Y-62149147D01*
X245262122Y-61992637D01*
X245168005Y-61851782D01*
X245048218Y-61731995D01*
X244907363Y-61637878D01*
X244750853Y-61573049D01*
X244584703Y-61540000D01*
X244415297Y-61540000D01*
X244249147Y-61573049D01*
X244092637Y-61637878D01*
X243951782Y-61731995D01*
X243831995Y-61851782D01*
X243766573Y-61949692D01*
X243649147Y-61973049D01*
X243492637Y-62037878D01*
X243351782Y-62131995D01*
X243231995Y-62251782D01*
X243137878Y-62392637D01*
X243109546Y-62461035D01*
X243049147Y-62473049D01*
X242892637Y-62537878D01*
X242751782Y-62631995D01*
X242631995Y-62751782D01*
X242537878Y-62892637D01*
X242473049Y-63049147D01*
X242448337Y-63173385D01*
X242292637Y-63237878D01*
X242151782Y-63331995D01*
X242031995Y-63451782D01*
X241937878Y-63592637D01*
X241873049Y-63749147D01*
X241840000Y-63915297D01*
X241840000Y-64084703D01*
X241862242Y-64196525D01*
X241806985Y-64251782D01*
X241712868Y-64392637D01*
X241684917Y-64460116D01*
X241663653Y-64464346D01*
X241507143Y-64529175D01*
X241366288Y-64623292D01*
X241246501Y-64743079D01*
X241241067Y-64751211D01*
X241184703Y-64740000D01*
X241015297Y-64740000D01*
X240849147Y-64773049D01*
X240692637Y-64837878D01*
X240551782Y-64931995D01*
X240431995Y-65051782D01*
X240373049Y-65140000D01*
X240323162Y-65140000D01*
X240304156Y-65094115D01*
X240362122Y-65007363D01*
X240426951Y-64850853D01*
X240460000Y-64684703D01*
X240460000Y-64515297D01*
X240426951Y-64349147D01*
X240362122Y-64192637D01*
X240268005Y-64051782D01*
X240148218Y-63931995D01*
X240007363Y-63837878D01*
X239850853Y-63773049D01*
X239684703Y-63740000D01*
X239515297Y-63740000D01*
X239349147Y-63773049D01*
X239192637Y-63837878D01*
X239051782Y-63931995D01*
X238931995Y-64051782D01*
X238837878Y-64192637D01*
X238773049Y-64349147D01*
X238766967Y-64379724D01*
X238750853Y-64373049D01*
X238584703Y-64340000D01*
X238415297Y-64340000D01*
X238249147Y-64373049D01*
X238092637Y-64437878D01*
X237951782Y-64531995D01*
X237831995Y-64651782D01*
X237737878Y-64792637D01*
X237673049Y-64949147D01*
X237640000Y-65115297D01*
X216710000Y-65115297D01*
X216710000Y-60665297D01*
X233890000Y-60665297D01*
X233890000Y-60834703D01*
X233923049Y-61000853D01*
X233987878Y-61157363D01*
X234081995Y-61298218D01*
X234201782Y-61418005D01*
X234342637Y-61512122D01*
X234499147Y-61576951D01*
X234665297Y-61610000D01*
X234834703Y-61610000D01*
X235000853Y-61576951D01*
X235157363Y-61512122D01*
X235240415Y-61456628D01*
X235251782Y-61467995D01*
X235392637Y-61562112D01*
X235549147Y-61626941D01*
X235715297Y-61659990D01*
X235884703Y-61659990D01*
X236050853Y-61626941D01*
X236207363Y-61562112D01*
X236348218Y-61467995D01*
X236468005Y-61348208D01*
X236562122Y-61207353D01*
X236626951Y-61050843D01*
X236660000Y-60884693D01*
X236660000Y-60715287D01*
X236626951Y-60549137D01*
X236562122Y-60392627D01*
X236468005Y-60251772D01*
X236348218Y-60131985D01*
X236207363Y-60037868D01*
X236050853Y-59973039D01*
X235884703Y-59939990D01*
X235715297Y-59939990D01*
X235549147Y-59973039D01*
X235392637Y-60037868D01*
X235309585Y-60093362D01*
X235298218Y-60081995D01*
X235157363Y-59987878D01*
X235000853Y-59923049D01*
X234834703Y-59890000D01*
X234665297Y-59890000D01*
X234499147Y-59923049D01*
X234342637Y-59987878D01*
X234201782Y-60081995D01*
X234081995Y-60201782D01*
X233987878Y-60342637D01*
X233923049Y-60499147D01*
X233890000Y-60665297D01*
X216710000Y-60665297D01*
X216710000Y-55415297D01*
X225240000Y-55415297D01*
X225240000Y-55584703D01*
X225273049Y-55750853D01*
X225337878Y-55907363D01*
X225431995Y-56048218D01*
X225551782Y-56168005D01*
X225692637Y-56262122D01*
X225849147Y-56326951D01*
X226015297Y-56360000D01*
X226184703Y-56360000D01*
X226350853Y-56326951D01*
X226507363Y-56262122D01*
X226577441Y-56215297D01*
X244440000Y-56215297D01*
X244440000Y-56384703D01*
X244473049Y-56550853D01*
X244537878Y-56707363D01*
X244631995Y-56848218D01*
X244751782Y-56968005D01*
X244892637Y-57062122D01*
X245049147Y-57126951D01*
X245215297Y-57160000D01*
X245384703Y-57160000D01*
X245550853Y-57126951D01*
X245707363Y-57062122D01*
X245848218Y-56968005D01*
X245968005Y-56848218D01*
X246062122Y-56707363D01*
X246126951Y-56550853D01*
X246160000Y-56384703D01*
X246160000Y-56215297D01*
X246126951Y-56049147D01*
X246062122Y-55892637D01*
X245968005Y-55751782D01*
X245848218Y-55631995D01*
X245707363Y-55537878D01*
X245550853Y-55473049D01*
X245384703Y-55440000D01*
X245215297Y-55440000D01*
X245049147Y-55473049D01*
X244892637Y-55537878D01*
X244751782Y-55631995D01*
X244631995Y-55751782D01*
X244537878Y-55892637D01*
X244473049Y-56049147D01*
X244440000Y-56215297D01*
X226577441Y-56215297D01*
X226648218Y-56168005D01*
X226768005Y-56048218D01*
X226862122Y-55907363D01*
X226926951Y-55750853D01*
X226960000Y-55584703D01*
X226960000Y-55415297D01*
X226926951Y-55249147D01*
X226862122Y-55092637D01*
X226768005Y-54951782D01*
X226648218Y-54831995D01*
X226623228Y-54815297D01*
X227340000Y-54815297D01*
X227340000Y-54984703D01*
X227373049Y-55150853D01*
X227437878Y-55307363D01*
X227531995Y-55448218D01*
X227651782Y-55568005D01*
X227792637Y-55662122D01*
X227949147Y-55726951D01*
X228115297Y-55760000D01*
X228284703Y-55760000D01*
X228450853Y-55726951D01*
X228607363Y-55662122D01*
X228748218Y-55568005D01*
X228868005Y-55448218D01*
X228962122Y-55307363D01*
X229026951Y-55150853D01*
X229060000Y-54984703D01*
X229060000Y-54815297D01*
X229026951Y-54649147D01*
X228962122Y-54492637D01*
X228868005Y-54351782D01*
X228748218Y-54231995D01*
X228607363Y-54137878D01*
X228450853Y-54073049D01*
X228284703Y-54040000D01*
X228115297Y-54040000D01*
X227949147Y-54073049D01*
X227792637Y-54137878D01*
X227651782Y-54231995D01*
X227531995Y-54351782D01*
X227437878Y-54492637D01*
X227373049Y-54649147D01*
X227340000Y-54815297D01*
X226623228Y-54815297D01*
X226507363Y-54737878D01*
X226350853Y-54673049D01*
X226184703Y-54640000D01*
X226015297Y-54640000D01*
X225849147Y-54673049D01*
X225692637Y-54737878D01*
X225551782Y-54831995D01*
X225431995Y-54951782D01*
X225337878Y-55092637D01*
X225273049Y-55249147D01*
X225240000Y-55415297D01*
X216710000Y-55415297D01*
X216710000Y-49880297D01*
X233105000Y-49880297D01*
X233105000Y-50049703D01*
X233138049Y-50215853D01*
X233202878Y-50372363D01*
X233296995Y-50513218D01*
X233416782Y-50633005D01*
X233557637Y-50727122D01*
X233714147Y-50791951D01*
X233880297Y-50825000D01*
X234049703Y-50825000D01*
X234215853Y-50791951D01*
X234372363Y-50727122D01*
X234513218Y-50633005D01*
X234633005Y-50513218D01*
X234727122Y-50372363D01*
X234791951Y-50215853D01*
X234825000Y-50049703D01*
X234825000Y-49880297D01*
X234791951Y-49714147D01*
X234751006Y-49615297D01*
X235240000Y-49615297D01*
X235240000Y-49784703D01*
X235273049Y-49950853D01*
X235337878Y-50107363D01*
X235431995Y-50248218D01*
X235551782Y-50368005D01*
X235692637Y-50462122D01*
X235849147Y-50526951D01*
X236015297Y-50560000D01*
X236184703Y-50560000D01*
X236350853Y-50526951D01*
X236507363Y-50462122D01*
X236648218Y-50368005D01*
X236768005Y-50248218D01*
X236862122Y-50107363D01*
X236926951Y-49950853D01*
X236960000Y-49784703D01*
X236960000Y-49615297D01*
X236926951Y-49449147D01*
X236862122Y-49292637D01*
X236768005Y-49151782D01*
X236648218Y-49031995D01*
X236507363Y-48937878D01*
X236350853Y-48873049D01*
X236184703Y-48840000D01*
X236015297Y-48840000D01*
X235849147Y-48873049D01*
X235692637Y-48937878D01*
X235551782Y-49031995D01*
X235431995Y-49151782D01*
X235337878Y-49292637D01*
X235273049Y-49449147D01*
X235240000Y-49615297D01*
X234751006Y-49615297D01*
X234727122Y-49557637D01*
X234633005Y-49416782D01*
X234513218Y-49296995D01*
X234372363Y-49202878D01*
X234215853Y-49138049D01*
X234049703Y-49105000D01*
X233880297Y-49105000D01*
X233714147Y-49138049D01*
X233557637Y-49202878D01*
X233416782Y-49296995D01*
X233296995Y-49416782D01*
X233202878Y-49557637D01*
X233138049Y-49714147D01*
X233105000Y-49880297D01*
X216710000Y-49880297D01*
X216710000Y-37110000D01*
X263290000Y-37110000D01*
X263290001Y-112765000D01*
G04 #@! TA.AperFunction,Conductor*
D15*
G36*
X263290001Y-112765000D02*
G01*
X263098061Y-112765000D01*
X262898102Y-112804774D01*
X262709744Y-112882795D01*
X262540226Y-112996063D01*
X262396063Y-113140226D01*
X262282795Y-113309744D01*
X262204774Y-113498102D01*
X262165000Y-113698061D01*
X262165000Y-113901939D01*
X262204774Y-114101898D01*
X262282795Y-114290256D01*
X262396063Y-114459774D01*
X262540226Y-114603937D01*
X262709744Y-114717205D01*
X262898102Y-114795226D01*
X263098061Y-114835000D01*
X263290001Y-114835000D01*
X263290001Y-117636340D01*
X263105998Y-117452337D01*
X262821831Y-117262463D01*
X262506081Y-117131675D01*
X262170883Y-117065000D01*
X261829117Y-117065000D01*
X261493919Y-117131675D01*
X261178169Y-117262463D01*
X260894002Y-117452337D01*
X260652337Y-117694002D01*
X260462463Y-117978169D01*
X260331675Y-118293919D01*
X260265000Y-118629117D01*
X260265000Y-118970883D01*
X260331675Y-119306081D01*
X260462463Y-119621831D01*
X260652337Y-119905998D01*
X260894002Y-120147663D01*
X261178169Y-120337537D01*
X261493919Y-120468325D01*
X261829117Y-120535000D01*
X262170883Y-120535000D01*
X262506081Y-120468325D01*
X262821831Y-120337537D01*
X263105998Y-120147663D01*
X263290001Y-119963660D01*
X263290001Y-133257365D01*
X263247663Y-133194002D01*
X263005998Y-132952337D01*
X262721831Y-132762463D01*
X262406081Y-132631675D01*
X262070883Y-132565000D01*
X261729117Y-132565000D01*
X261393919Y-132631675D01*
X261078169Y-132762463D01*
X260794002Y-132952337D01*
X260552337Y-133194002D01*
X260362463Y-133478169D01*
X260231675Y-133793919D01*
X260165000Y-134129117D01*
X260165000Y-134470883D01*
X260231675Y-134806081D01*
X260362463Y-135121831D01*
X260552337Y-135405998D01*
X260794002Y-135647663D01*
X260857364Y-135690000D01*
X219142636Y-135690000D01*
X219205998Y-135647663D01*
X219447663Y-135405998D01*
X219637537Y-135121831D01*
X219768325Y-134806081D01*
X219835000Y-134470883D01*
X219835000Y-134129117D01*
X219812360Y-134015297D01*
X221540000Y-134015297D01*
X221540000Y-134184703D01*
X221573049Y-134350853D01*
X221637878Y-134507363D01*
X221731995Y-134648218D01*
X221851782Y-134768005D01*
X221992637Y-134862122D01*
X222149147Y-134926951D01*
X222315297Y-134960000D01*
X222484703Y-134960000D01*
X222650853Y-134926951D01*
X222807363Y-134862122D01*
X222948218Y-134768005D01*
X223068005Y-134648218D01*
X223162122Y-134507363D01*
X223226951Y-134350853D01*
X223260000Y-134184703D01*
X223260000Y-134015297D01*
X223247756Y-133953740D01*
X232905000Y-133953740D01*
X232905000Y-134246260D01*
X232962068Y-134533158D01*
X233074010Y-134803411D01*
X233236525Y-135046632D01*
X233443368Y-135253475D01*
X233686589Y-135415990D01*
X233956842Y-135527932D01*
X234243740Y-135585000D01*
X234536260Y-135585000D01*
X234823158Y-135527932D01*
X235093411Y-135415990D01*
X235336632Y-135253475D01*
X235543475Y-135046632D01*
X235660000Y-134872240D01*
X235776525Y-135046632D01*
X235983368Y-135253475D01*
X236226589Y-135415990D01*
X236496842Y-135527932D01*
X236783740Y-135585000D01*
X237076260Y-135585000D01*
X237363158Y-135527932D01*
X237633411Y-135415990D01*
X237876632Y-135253475D01*
X238083475Y-135046632D01*
X238200000Y-134872240D01*
X238316525Y-135046632D01*
X238523368Y-135253475D01*
X238766589Y-135415990D01*
X239036842Y-135527932D01*
X239323740Y-135585000D01*
X239616260Y-135585000D01*
X239903158Y-135527932D01*
X240173411Y-135415990D01*
X240416632Y-135253475D01*
X240623475Y-135046632D01*
X240740000Y-134872240D01*
X240856525Y-135046632D01*
X241063368Y-135253475D01*
X241306589Y-135415990D01*
X241576842Y-135527932D01*
X241863740Y-135585000D01*
X242156260Y-135585000D01*
X242443158Y-135527932D01*
X242713411Y-135415990D01*
X242956632Y-135253475D01*
X243163475Y-135046632D01*
X243325990Y-134803411D01*
X243437932Y-134533158D01*
X243495000Y-134246260D01*
X243495000Y-133953740D01*
X243437932Y-133666842D01*
X243325990Y-133396589D01*
X243163475Y-133153368D01*
X242956632Y-132946525D01*
X242713411Y-132784010D01*
X242443158Y-132672068D01*
X242156260Y-132615000D01*
X241863740Y-132615000D01*
X241576842Y-132672068D01*
X241306589Y-132784010D01*
X241063368Y-132946525D01*
X240856525Y-133153368D01*
X240740000Y-133327760D01*
X240623475Y-133153368D01*
X240416632Y-132946525D01*
X240173411Y-132784010D01*
X239903158Y-132672068D01*
X239616260Y-132615000D01*
X239323740Y-132615000D01*
X239036842Y-132672068D01*
X238766589Y-132784010D01*
X238523368Y-132946525D01*
X238316525Y-133153368D01*
X238200000Y-133327760D01*
X238083475Y-133153368D01*
X237876632Y-132946525D01*
X237633411Y-132784010D01*
X237363158Y-132672068D01*
X237076260Y-132615000D01*
X236783740Y-132615000D01*
X236496842Y-132672068D01*
X236226589Y-132784010D01*
X235983368Y-132946525D01*
X235776525Y-133153368D01*
X235660000Y-133327760D01*
X235543475Y-133153368D01*
X235336632Y-132946525D01*
X235093411Y-132784010D01*
X234823158Y-132672068D01*
X234536260Y-132615000D01*
X234243740Y-132615000D01*
X233956842Y-132672068D01*
X233686589Y-132784010D01*
X233443368Y-132946525D01*
X233236525Y-133153368D01*
X233074010Y-133396589D01*
X232962068Y-133666842D01*
X232905000Y-133953740D01*
X223247756Y-133953740D01*
X223226951Y-133849147D01*
X223162122Y-133692637D01*
X223068005Y-133551782D01*
X222948218Y-133431995D01*
X222807363Y-133337878D01*
X222650853Y-133273049D01*
X222484703Y-133240000D01*
X222315297Y-133240000D01*
X222149147Y-133273049D01*
X221992637Y-133337878D01*
X221851782Y-133431995D01*
X221731995Y-133551782D01*
X221637878Y-133692637D01*
X221573049Y-133849147D01*
X221540000Y-134015297D01*
X219812360Y-134015297D01*
X219768325Y-133793919D01*
X219637537Y-133478169D01*
X219447663Y-133194002D01*
X219205998Y-132952337D01*
X218921831Y-132762463D01*
X218606081Y-132631675D01*
X218523744Y-132615297D01*
X226940000Y-132615297D01*
X226940000Y-132784703D01*
X226973049Y-132950853D01*
X227037878Y-133107363D01*
X227131995Y-133248218D01*
X227251782Y-133368005D01*
X227392637Y-133462122D01*
X227549147Y-133526951D01*
X227715297Y-133560000D01*
X227884703Y-133560000D01*
X228050853Y-133526951D01*
X228207363Y-133462122D01*
X228348218Y-133368005D01*
X228468005Y-133248218D01*
X228562122Y-133107363D01*
X228626951Y-132950853D01*
X228660000Y-132784703D01*
X228660000Y-132615297D01*
X228626951Y-132449147D01*
X228562122Y-132292637D01*
X228468005Y-132151782D01*
X228348218Y-132031995D01*
X228207363Y-131937878D01*
X228152849Y-131915297D01*
X245940000Y-131915297D01*
X245940000Y-132084703D01*
X245973049Y-132250853D01*
X246037878Y-132407363D01*
X246131995Y-132548218D01*
X246251782Y-132668005D01*
X246392637Y-132762122D01*
X246549147Y-132826951D01*
X246715297Y-132860000D01*
X246884703Y-132860000D01*
X247050853Y-132826951D01*
X247207363Y-132762122D01*
X247348218Y-132668005D01*
X247468005Y-132548218D01*
X247562122Y-132407363D01*
X247626951Y-132250853D01*
X247634023Y-132215297D01*
X251540000Y-132215297D01*
X251540000Y-132384703D01*
X251573049Y-132550853D01*
X251637878Y-132707363D01*
X251731995Y-132848218D01*
X251851782Y-132968005D01*
X251992637Y-133062122D01*
X252149147Y-133126951D01*
X252315297Y-133160000D01*
X252484703Y-133160000D01*
X252650853Y-133126951D01*
X252807363Y-133062122D01*
X252948218Y-132968005D01*
X253068005Y-132848218D01*
X253162122Y-132707363D01*
X253226951Y-132550853D01*
X253260000Y-132384703D01*
X253260000Y-132215297D01*
X253226951Y-132049147D01*
X253162122Y-131892637D01*
X253068005Y-131751782D01*
X252948218Y-131631995D01*
X252807363Y-131537878D01*
X252650853Y-131473049D01*
X252484703Y-131440000D01*
X252315297Y-131440000D01*
X252149147Y-131473049D01*
X251992637Y-131537878D01*
X251851782Y-131631995D01*
X251731995Y-131751782D01*
X251637878Y-131892637D01*
X251573049Y-132049147D01*
X251540000Y-132215297D01*
X247634023Y-132215297D01*
X247660000Y-132084703D01*
X247660000Y-131915297D01*
X247626951Y-131749147D01*
X247562122Y-131592637D01*
X247468005Y-131451782D01*
X247348218Y-131331995D01*
X247207363Y-131237878D01*
X247050853Y-131173049D01*
X246884703Y-131140000D01*
X246715297Y-131140000D01*
X246549147Y-131173049D01*
X246392637Y-131237878D01*
X246251782Y-131331995D01*
X246131995Y-131451782D01*
X246037878Y-131592637D01*
X245973049Y-131749147D01*
X245940000Y-131915297D01*
X228152849Y-131915297D01*
X228050853Y-131873049D01*
X227884703Y-131840000D01*
X227715297Y-131840000D01*
X227549147Y-131873049D01*
X227392637Y-131937878D01*
X227251782Y-132031995D01*
X227131995Y-132151782D01*
X227037878Y-132292637D01*
X226973049Y-132449147D01*
X226940000Y-132615297D01*
X218523744Y-132615297D01*
X218270883Y-132565000D01*
X217929117Y-132565000D01*
X217593919Y-132631675D01*
X217278169Y-132762463D01*
X216994002Y-132952337D01*
X216752337Y-133194002D01*
X216710000Y-133257364D01*
X216710000Y-130840297D01*
X218915000Y-130840297D01*
X218915000Y-131009703D01*
X218948049Y-131175853D01*
X219012878Y-131332363D01*
X219106995Y-131473218D01*
X219226782Y-131593005D01*
X219367637Y-131687122D01*
X219524147Y-131751951D01*
X219690297Y-131785000D01*
X219859703Y-131785000D01*
X220025853Y-131751951D01*
X220182363Y-131687122D01*
X220323218Y-131593005D01*
X220443005Y-131473218D01*
X220537122Y-131332363D01*
X220601951Y-131175853D01*
X220635000Y-131009703D01*
X220635000Y-130840297D01*
X220601951Y-130674147D01*
X220537122Y-130517637D01*
X220443005Y-130376782D01*
X220323218Y-130256995D01*
X220182363Y-130162878D01*
X220025853Y-130098049D01*
X219859703Y-130065000D01*
X219690297Y-130065000D01*
X219524147Y-130098049D01*
X219367637Y-130162878D01*
X219226782Y-130256995D01*
X219106995Y-130376782D01*
X219012878Y-130517637D01*
X218948049Y-130674147D01*
X218915000Y-130840297D01*
X216710000Y-130840297D01*
X216710000Y-129865297D01*
X234690000Y-129865297D01*
X234690000Y-130034703D01*
X234723049Y-130200853D01*
X234787878Y-130357363D01*
X234881995Y-130498218D01*
X235001782Y-130618005D01*
X235142637Y-130712122D01*
X235299147Y-130776951D01*
X235465297Y-130810000D01*
X235634703Y-130810000D01*
X235800853Y-130776951D01*
X235957363Y-130712122D01*
X236098218Y-130618005D01*
X236218005Y-130498218D01*
X236312122Y-130357363D01*
X236376951Y-130200853D01*
X236410000Y-130034703D01*
X236410000Y-129865297D01*
X239490000Y-129865297D01*
X239490000Y-130034703D01*
X239523049Y-130200853D01*
X239587878Y-130357363D01*
X239681995Y-130498218D01*
X239801782Y-130618005D01*
X239942637Y-130712122D01*
X240099147Y-130776951D01*
X240265297Y-130810000D01*
X240434703Y-130810000D01*
X240600853Y-130776951D01*
X240757363Y-130712122D01*
X240898218Y-130618005D01*
X241018005Y-130498218D01*
X241112122Y-130357363D01*
X241176951Y-130200853D01*
X241210000Y-130034703D01*
X241210000Y-129865297D01*
X241176951Y-129699147D01*
X241112122Y-129542637D01*
X241018005Y-129401782D01*
X240898218Y-129281995D01*
X240757363Y-129187878D01*
X240600853Y-129123049D01*
X240434703Y-129090000D01*
X240265297Y-129090000D01*
X240099147Y-129123049D01*
X239942637Y-129187878D01*
X239801782Y-129281995D01*
X239681995Y-129401782D01*
X239587878Y-129542637D01*
X239523049Y-129699147D01*
X239490000Y-129865297D01*
X236410000Y-129865297D01*
X236376951Y-129699147D01*
X236312122Y-129542637D01*
X236218005Y-129401782D01*
X236098218Y-129281995D01*
X235957363Y-129187878D01*
X235800853Y-129123049D01*
X235634703Y-129090000D01*
X235465297Y-129090000D01*
X235299147Y-129123049D01*
X235142637Y-129187878D01*
X235001782Y-129281995D01*
X234881995Y-129401782D01*
X234787878Y-129542637D01*
X234723049Y-129699147D01*
X234690000Y-129865297D01*
X216710000Y-129865297D01*
X216710000Y-128115297D01*
X222940000Y-128115297D01*
X222940000Y-128284703D01*
X222973049Y-128450853D01*
X223037878Y-128607363D01*
X223131995Y-128748218D01*
X223251782Y-128868005D01*
X223392637Y-128962122D01*
X223549147Y-129026951D01*
X223715297Y-129060000D01*
X223884703Y-129060000D01*
X224050853Y-129026951D01*
X224207363Y-128962122D01*
X224277441Y-128915297D01*
X231740000Y-128915297D01*
X231740000Y-129084703D01*
X231773049Y-129250853D01*
X231837878Y-129407363D01*
X231931995Y-129548218D01*
X232051782Y-129668005D01*
X232192637Y-129762122D01*
X232349147Y-129826951D01*
X232515297Y-129860000D01*
X232684703Y-129860000D01*
X232850853Y-129826951D01*
X233007363Y-129762122D01*
X233148218Y-129668005D01*
X233268005Y-129548218D01*
X233362122Y-129407363D01*
X233426951Y-129250853D01*
X233460000Y-129084703D01*
X233460000Y-128915297D01*
X233426951Y-128749147D01*
X233362122Y-128592637D01*
X233268005Y-128451782D01*
X233148218Y-128331995D01*
X233007363Y-128237878D01*
X232850853Y-128173049D01*
X232684703Y-128140000D01*
X232515297Y-128140000D01*
X232349147Y-128173049D01*
X232192637Y-128237878D01*
X232051782Y-128331995D01*
X231931995Y-128451782D01*
X231837878Y-128592637D01*
X231773049Y-128749147D01*
X231740000Y-128915297D01*
X224277441Y-128915297D01*
X224348218Y-128868005D01*
X224468005Y-128748218D01*
X224562122Y-128607363D01*
X224626951Y-128450853D01*
X224660000Y-128284703D01*
X224660000Y-128115297D01*
X224626951Y-127949147D01*
X224562122Y-127792637D01*
X224543854Y-127765297D01*
X228090000Y-127765297D01*
X228090000Y-127934703D01*
X228123049Y-128100853D01*
X228187878Y-128257363D01*
X228281995Y-128398218D01*
X228401782Y-128518005D01*
X228542637Y-128612122D01*
X228699147Y-128676951D01*
X228865297Y-128710000D01*
X229034703Y-128710000D01*
X229200853Y-128676951D01*
X229357363Y-128612122D01*
X229498218Y-128518005D01*
X229618005Y-128398218D01*
X229712122Y-128257363D01*
X229776951Y-128100853D01*
X229810000Y-127934703D01*
X229810000Y-127765297D01*
X229776951Y-127599147D01*
X229712122Y-127442637D01*
X229693854Y-127415297D01*
X229940000Y-127415297D01*
X229940000Y-127584703D01*
X229973049Y-127750853D01*
X230037878Y-127907363D01*
X230131995Y-128048218D01*
X230251782Y-128168005D01*
X230392637Y-128262122D01*
X230549147Y-128326951D01*
X230715297Y-128360000D01*
X230884703Y-128360000D01*
X231050853Y-128326951D01*
X231207363Y-128262122D01*
X231348218Y-128168005D01*
X231468005Y-128048218D01*
X231562122Y-127907363D01*
X231626951Y-127750853D01*
X231660000Y-127584703D01*
X231660000Y-127415297D01*
X231626951Y-127249147D01*
X231562122Y-127092637D01*
X231468005Y-126951782D01*
X231348218Y-126831995D01*
X231207363Y-126737878D01*
X231050853Y-126673049D01*
X230884703Y-126640000D01*
X230715297Y-126640000D01*
X230549147Y-126673049D01*
X230392637Y-126737878D01*
X230251782Y-126831995D01*
X230131995Y-126951782D01*
X230037878Y-127092637D01*
X229973049Y-127249147D01*
X229940000Y-127415297D01*
X229693854Y-127415297D01*
X229618005Y-127301782D01*
X229498218Y-127181995D01*
X229357363Y-127087878D01*
X229200853Y-127023049D01*
X229034703Y-126990000D01*
X228865297Y-126990000D01*
X228699147Y-127023049D01*
X228542637Y-127087878D01*
X228401782Y-127181995D01*
X228281995Y-127301782D01*
X228187878Y-127442637D01*
X228123049Y-127599147D01*
X228090000Y-127765297D01*
X224543854Y-127765297D01*
X224468005Y-127651782D01*
X224348218Y-127531995D01*
X224207363Y-127437878D01*
X224050853Y-127373049D01*
X223884703Y-127340000D01*
X223715297Y-127340000D01*
X223549147Y-127373049D01*
X223392637Y-127437878D01*
X223251782Y-127531995D01*
X223131995Y-127651782D01*
X223037878Y-127792637D01*
X222973049Y-127949147D01*
X222940000Y-128115297D01*
X216710000Y-128115297D01*
X216710000Y-125498061D01*
X221265000Y-125498061D01*
X221265000Y-125701939D01*
X221304774Y-125901898D01*
X221382795Y-126090256D01*
X221496063Y-126259774D01*
X221640226Y-126403937D01*
X221809744Y-126517205D01*
X221998102Y-126595226D01*
X222198061Y-126635000D01*
X222401939Y-126635000D01*
X222601898Y-126595226D01*
X222790256Y-126517205D01*
X222959774Y-126403937D01*
X223103937Y-126259774D01*
X223217205Y-126090256D01*
X223295226Y-125901898D01*
X223335000Y-125701939D01*
X223335000Y-125498061D01*
X224265000Y-125498061D01*
X224265000Y-125701939D01*
X224304774Y-125901898D01*
X224382795Y-126090256D01*
X224496063Y-126259774D01*
X224640226Y-126403937D01*
X224809744Y-126517205D01*
X224998102Y-126595226D01*
X225198061Y-126635000D01*
X225401939Y-126635000D01*
X225601898Y-126595226D01*
X225790256Y-126517205D01*
X225959774Y-126403937D01*
X226103937Y-126259774D01*
X226200473Y-126115297D01*
X242040000Y-126115297D01*
X242040000Y-126284703D01*
X242073049Y-126450853D01*
X242137878Y-126607363D01*
X242231995Y-126748218D01*
X242351782Y-126868005D01*
X242492637Y-126962122D01*
X242649147Y-127026951D01*
X242815297Y-127060000D01*
X242984703Y-127060000D01*
X243150853Y-127026951D01*
X243307363Y-126962122D01*
X243437304Y-126875297D01*
X249000000Y-126875297D01*
X249000000Y-127044703D01*
X249033049Y-127210853D01*
X249097878Y-127367363D01*
X249191995Y-127508218D01*
X249311782Y-127628005D01*
X249452637Y-127722122D01*
X249609147Y-127786951D01*
X249775297Y-127820000D01*
X249944703Y-127820000D01*
X249968346Y-127815297D01*
X251540000Y-127815297D01*
X251540000Y-127984703D01*
X251573049Y-128150853D01*
X251637878Y-128307363D01*
X251731995Y-128448218D01*
X251851782Y-128568005D01*
X251992637Y-128662122D01*
X252149147Y-128726951D01*
X252315297Y-128760000D01*
X252484703Y-128760000D01*
X252650853Y-128726951D01*
X252807363Y-128662122D01*
X252948218Y-128568005D01*
X253068005Y-128448218D01*
X253162122Y-128307363D01*
X253226951Y-128150853D01*
X253260000Y-127984703D01*
X253260000Y-127815297D01*
X253226951Y-127649147D01*
X253162122Y-127492637D01*
X253068005Y-127351782D01*
X252948218Y-127231995D01*
X252807363Y-127137878D01*
X252650853Y-127073049D01*
X252484703Y-127040000D01*
X252315297Y-127040000D01*
X252149147Y-127073049D01*
X251992637Y-127137878D01*
X251851782Y-127231995D01*
X251731995Y-127351782D01*
X251637878Y-127492637D01*
X251573049Y-127649147D01*
X251540000Y-127815297D01*
X249968346Y-127815297D01*
X250110853Y-127786951D01*
X250267363Y-127722122D01*
X250408218Y-127628005D01*
X250528005Y-127508218D01*
X250622122Y-127367363D01*
X250686951Y-127210853D01*
X250720000Y-127044703D01*
X250720000Y-126875297D01*
X250686951Y-126709147D01*
X250622122Y-126552637D01*
X250528005Y-126411782D01*
X250408218Y-126291995D01*
X250267363Y-126197878D01*
X250110853Y-126133049D01*
X249944703Y-126100000D01*
X249775297Y-126100000D01*
X249609147Y-126133049D01*
X249452637Y-126197878D01*
X249311782Y-126291995D01*
X249191995Y-126411782D01*
X249097878Y-126552637D01*
X249033049Y-126709147D01*
X249000000Y-126875297D01*
X243437304Y-126875297D01*
X243448218Y-126868005D01*
X243568005Y-126748218D01*
X243662122Y-126607363D01*
X243726951Y-126450853D01*
X243760000Y-126284703D01*
X243760000Y-126115297D01*
X243726951Y-125949147D01*
X243662122Y-125792637D01*
X243568005Y-125651782D01*
X243448218Y-125531995D01*
X243307363Y-125437878D01*
X243150853Y-125373049D01*
X242984703Y-125340000D01*
X242815297Y-125340000D01*
X242649147Y-125373049D01*
X242492637Y-125437878D01*
X242351782Y-125531995D01*
X242231995Y-125651782D01*
X242137878Y-125792637D01*
X242073049Y-125949147D01*
X242040000Y-126115297D01*
X226200473Y-126115297D01*
X226217205Y-126090256D01*
X226295226Y-125901898D01*
X226335000Y-125701939D01*
X226335000Y-125498061D01*
X226295226Y-125298102D01*
X226217205Y-125109744D01*
X226103937Y-124940226D01*
X225959774Y-124796063D01*
X225790256Y-124682795D01*
X225601898Y-124604774D01*
X225401939Y-124565000D01*
X225198061Y-124565000D01*
X224998102Y-124604774D01*
X224809744Y-124682795D01*
X224640226Y-124796063D01*
X224496063Y-124940226D01*
X224382795Y-125109744D01*
X224304774Y-125298102D01*
X224265000Y-125498061D01*
X223335000Y-125498061D01*
X223295226Y-125298102D01*
X223217205Y-125109744D01*
X223103937Y-124940226D01*
X222959774Y-124796063D01*
X222790256Y-124682795D01*
X222601898Y-124604774D01*
X222401939Y-124565000D01*
X222198061Y-124565000D01*
X221998102Y-124604774D01*
X221809744Y-124682795D01*
X221640226Y-124796063D01*
X221496063Y-124940226D01*
X221382795Y-125109744D01*
X221304774Y-125298102D01*
X221265000Y-125498061D01*
X216710000Y-125498061D01*
X216710000Y-124358799D01*
X228640000Y-124358799D01*
X228640000Y-124528205D01*
X228673049Y-124694355D01*
X228737878Y-124850865D01*
X228831995Y-124991720D01*
X228951782Y-125111507D01*
X229092637Y-125205624D01*
X229249147Y-125270453D01*
X229415297Y-125303502D01*
X229584703Y-125303502D01*
X229750853Y-125270453D01*
X229907363Y-125205624D01*
X230048218Y-125111507D01*
X230168005Y-124991720D01*
X230262122Y-124850865D01*
X230326951Y-124694355D01*
X230360000Y-124528205D01*
X230360000Y-124358799D01*
X230351347Y-124315297D01*
X239040000Y-124315297D01*
X239040000Y-124484703D01*
X239073049Y-124650853D01*
X239137878Y-124807363D01*
X239231995Y-124948218D01*
X239351782Y-125068005D01*
X239492637Y-125162122D01*
X239649147Y-125226951D01*
X239815297Y-125260000D01*
X239984703Y-125260000D01*
X240150853Y-125226951D01*
X240307363Y-125162122D01*
X240448218Y-125068005D01*
X240568005Y-124948218D01*
X240662122Y-124807363D01*
X240700257Y-124715297D01*
X247940000Y-124715297D01*
X247940000Y-124884703D01*
X247973049Y-125050853D01*
X248037878Y-125207363D01*
X248131995Y-125348218D01*
X248251782Y-125468005D01*
X248392637Y-125562122D01*
X248549147Y-125626951D01*
X248715297Y-125660000D01*
X248884703Y-125660000D01*
X249050853Y-125626951D01*
X249207363Y-125562122D01*
X249348218Y-125468005D01*
X249468005Y-125348218D01*
X249498354Y-125302797D01*
X253427500Y-125302797D01*
X253427500Y-125472203D01*
X253460549Y-125638353D01*
X253525378Y-125794863D01*
X253619495Y-125935718D01*
X253739282Y-126055505D01*
X253880137Y-126149622D01*
X254036647Y-126214451D01*
X254202797Y-126247500D01*
X254372203Y-126247500D01*
X254452279Y-126231572D01*
X254391782Y-126271995D01*
X254271995Y-126391782D01*
X254177878Y-126532637D01*
X254113049Y-126689147D01*
X254080000Y-126855297D01*
X254080000Y-127024703D01*
X254113049Y-127190853D01*
X254177878Y-127347363D01*
X254271995Y-127488218D01*
X254391782Y-127608005D01*
X254532637Y-127702122D01*
X254689147Y-127766951D01*
X254855297Y-127800000D01*
X255024703Y-127800000D01*
X255190853Y-127766951D01*
X255347363Y-127702122D01*
X255488218Y-127608005D01*
X255608005Y-127488218D01*
X255702122Y-127347363D01*
X255766951Y-127190853D01*
X255800000Y-127024703D01*
X255800000Y-126855297D01*
X255766951Y-126689147D01*
X255702122Y-126532637D01*
X255608005Y-126391782D01*
X255488218Y-126271995D01*
X255347363Y-126177878D01*
X255190853Y-126113049D01*
X255024703Y-126080000D01*
X254855297Y-126080000D01*
X254775221Y-126095928D01*
X254835718Y-126055505D01*
X254955505Y-125935718D01*
X255049622Y-125794863D01*
X255114451Y-125638353D01*
X255147500Y-125472203D01*
X255147500Y-125302797D01*
X255114451Y-125136647D01*
X255049622Y-124980137D01*
X254955505Y-124839282D01*
X254835718Y-124719495D01*
X254694863Y-124625378D01*
X254538353Y-124560549D01*
X254372203Y-124527500D01*
X254202797Y-124527500D01*
X254036647Y-124560549D01*
X253880137Y-124625378D01*
X253739282Y-124719495D01*
X253619495Y-124839282D01*
X253525378Y-124980137D01*
X253460549Y-125136647D01*
X253427500Y-125302797D01*
X249498354Y-125302797D01*
X249562122Y-125207363D01*
X249626951Y-125050853D01*
X249660000Y-124884703D01*
X249660000Y-124715297D01*
X249626951Y-124549147D01*
X249562122Y-124392637D01*
X249468005Y-124251782D01*
X249348218Y-124131995D01*
X249207363Y-124037878D01*
X249050853Y-123973049D01*
X248884703Y-123940000D01*
X248715297Y-123940000D01*
X248549147Y-123973049D01*
X248392637Y-124037878D01*
X248251782Y-124131995D01*
X248131995Y-124251782D01*
X248037878Y-124392637D01*
X247973049Y-124549147D01*
X247940000Y-124715297D01*
X240700257Y-124715297D01*
X240726951Y-124650853D01*
X240760000Y-124484703D01*
X240760000Y-124315297D01*
X240749001Y-124260000D01*
X240884703Y-124260000D01*
X241050853Y-124226951D01*
X241207363Y-124162122D01*
X241348218Y-124068005D01*
X241468005Y-123948218D01*
X241562122Y-123807363D01*
X241626951Y-123650853D01*
X241660000Y-123484703D01*
X241660000Y-123315297D01*
X241626951Y-123149147D01*
X241562122Y-122992637D01*
X241468005Y-122851782D01*
X241348218Y-122731995D01*
X241207363Y-122637878D01*
X241050853Y-122573049D01*
X240884703Y-122540000D01*
X240715297Y-122540000D01*
X240549147Y-122573049D01*
X240392637Y-122637878D01*
X240251782Y-122731995D01*
X240131995Y-122851782D01*
X240037878Y-122992637D01*
X239973049Y-123149147D01*
X239940000Y-123315297D01*
X239940000Y-123484703D01*
X239950999Y-123540000D01*
X239815297Y-123540000D01*
X239649147Y-123573049D01*
X239492637Y-123637878D01*
X239351782Y-123731995D01*
X239231995Y-123851782D01*
X239137878Y-123992637D01*
X239073049Y-124149147D01*
X239040000Y-124315297D01*
X230351347Y-124315297D01*
X230326951Y-124192649D01*
X230262122Y-124036139D01*
X230168005Y-123895284D01*
X230048218Y-123775497D01*
X229907363Y-123681380D01*
X229750853Y-123616551D01*
X229584703Y-123583502D01*
X229415297Y-123583502D01*
X229249147Y-123616551D01*
X229092637Y-123681380D01*
X228951782Y-123775497D01*
X228831995Y-123895284D01*
X228737878Y-124036139D01*
X228673049Y-124192649D01*
X228640000Y-124358799D01*
X216710000Y-124358799D01*
X216710000Y-123626223D01*
X216751782Y-123668005D01*
X216892637Y-123762122D01*
X217049147Y-123826951D01*
X217215297Y-123860000D01*
X217384703Y-123860000D01*
X217550853Y-123826951D01*
X217707363Y-123762122D01*
X217848218Y-123668005D01*
X217968005Y-123548218D01*
X218062122Y-123407363D01*
X218126951Y-123250853D01*
X218160000Y-123084703D01*
X218160000Y-122915297D01*
X218640000Y-122915297D01*
X218640000Y-123084703D01*
X218673049Y-123250853D01*
X218737878Y-123407363D01*
X218831995Y-123548218D01*
X218951782Y-123668005D01*
X219092637Y-123762122D01*
X219249147Y-123826951D01*
X219415297Y-123860000D01*
X219584703Y-123860000D01*
X219750853Y-123826951D01*
X219907363Y-123762122D01*
X220048218Y-123668005D01*
X220168005Y-123548218D01*
X220262122Y-123407363D01*
X220326951Y-123250853D01*
X220360000Y-123084703D01*
X220360000Y-122915297D01*
X220326951Y-122749147D01*
X220262122Y-122592637D01*
X220168005Y-122451782D01*
X220048218Y-122331995D01*
X219907363Y-122237878D01*
X219811237Y-122198061D01*
X221265000Y-122198061D01*
X221265000Y-122401939D01*
X221304774Y-122601898D01*
X221382795Y-122790256D01*
X221496063Y-122959774D01*
X221640226Y-123103937D01*
X221809744Y-123217205D01*
X221998102Y-123295226D01*
X222198061Y-123335000D01*
X222401939Y-123335000D01*
X222601898Y-123295226D01*
X222790256Y-123217205D01*
X222959774Y-123103937D01*
X223103937Y-122959774D01*
X223217205Y-122790256D01*
X223295226Y-122601898D01*
X223335000Y-122401939D01*
X223335000Y-122198061D01*
X224265000Y-122198061D01*
X224265000Y-122401939D01*
X224304774Y-122601898D01*
X224382795Y-122790256D01*
X224496063Y-122959774D01*
X224640226Y-123103937D01*
X224809744Y-123217205D01*
X224998102Y-123295226D01*
X225198061Y-123335000D01*
X225401939Y-123335000D01*
X225601898Y-123295226D01*
X225790256Y-123217205D01*
X225793111Y-123215297D01*
X232040000Y-123215297D01*
X232040000Y-123384703D01*
X232073049Y-123550853D01*
X232137878Y-123707363D01*
X232231995Y-123848218D01*
X232351782Y-123968005D01*
X232492637Y-124062122D01*
X232649147Y-124126951D01*
X232815297Y-124160000D01*
X232984703Y-124160000D01*
X233150853Y-124126951D01*
X233307363Y-124062122D01*
X233448218Y-123968005D01*
X233568005Y-123848218D01*
X233662122Y-123707363D01*
X233726951Y-123550853D01*
X233760000Y-123384703D01*
X233760000Y-123215297D01*
X233726951Y-123049147D01*
X233662122Y-122892637D01*
X233568005Y-122751782D01*
X233448218Y-122631995D01*
X233307363Y-122537878D01*
X233150853Y-122473049D01*
X232984703Y-122440000D01*
X232815297Y-122440000D01*
X232649147Y-122473049D01*
X232492637Y-122537878D01*
X232351782Y-122631995D01*
X232231995Y-122751782D01*
X232137878Y-122892637D01*
X232073049Y-123049147D01*
X232040000Y-123215297D01*
X225793111Y-123215297D01*
X225959774Y-123103937D01*
X226103937Y-122959774D01*
X226217205Y-122790256D01*
X226295226Y-122601898D01*
X226335000Y-122401939D01*
X226335000Y-122198061D01*
X226295226Y-121998102D01*
X226217205Y-121809744D01*
X226103937Y-121640226D01*
X225959774Y-121496063D01*
X225790256Y-121382795D01*
X225601898Y-121304774D01*
X225401939Y-121265000D01*
X225198061Y-121265000D01*
X224998102Y-121304774D01*
X224809744Y-121382795D01*
X224640226Y-121496063D01*
X224496063Y-121640226D01*
X224382795Y-121809744D01*
X224304774Y-121998102D01*
X224265000Y-122198061D01*
X223335000Y-122198061D01*
X223295226Y-121998102D01*
X223217205Y-121809744D01*
X223103937Y-121640226D01*
X222959774Y-121496063D01*
X222790256Y-121382795D01*
X222601898Y-121304774D01*
X222401939Y-121265000D01*
X222198061Y-121265000D01*
X221998102Y-121304774D01*
X221809744Y-121382795D01*
X221640226Y-121496063D01*
X221496063Y-121640226D01*
X221382795Y-121809744D01*
X221304774Y-121998102D01*
X221265000Y-122198061D01*
X219811237Y-122198061D01*
X219750853Y-122173049D01*
X219584703Y-122140000D01*
X219415297Y-122140000D01*
X219249147Y-122173049D01*
X219092637Y-122237878D01*
X218951782Y-122331995D01*
X218831995Y-122451782D01*
X218737878Y-122592637D01*
X218673049Y-122749147D01*
X218640000Y-122915297D01*
X218160000Y-122915297D01*
X218126951Y-122749147D01*
X218062122Y-122592637D01*
X217968005Y-122451782D01*
X217848218Y-122331995D01*
X217707363Y-122237878D01*
X217550853Y-122173049D01*
X217384703Y-122140000D01*
X217215297Y-122140000D01*
X217049147Y-122173049D01*
X216892637Y-122237878D01*
X216751782Y-122331995D01*
X216710000Y-122373777D01*
X216710000Y-120915297D01*
X229740000Y-120915297D01*
X229740000Y-121084703D01*
X229773049Y-121250853D01*
X229837878Y-121407363D01*
X229931995Y-121548218D01*
X230051782Y-121668005D01*
X230192637Y-121762122D01*
X230349147Y-121826951D01*
X230515297Y-121860000D01*
X230684703Y-121860000D01*
X230850853Y-121826951D01*
X231007363Y-121762122D01*
X231148218Y-121668005D01*
X231268005Y-121548218D01*
X231356820Y-121415297D01*
X237840000Y-121415297D01*
X237840000Y-121584703D01*
X237873049Y-121750853D01*
X237937878Y-121907363D01*
X238031995Y-122048218D01*
X238151782Y-122168005D01*
X238292637Y-122262122D01*
X238449147Y-122326951D01*
X238615297Y-122360000D01*
X238784703Y-122360000D01*
X238950853Y-122326951D01*
X239107363Y-122262122D01*
X239248218Y-122168005D01*
X239368005Y-122048218D01*
X239462122Y-121907363D01*
X239526951Y-121750853D01*
X239560000Y-121584703D01*
X239560000Y-121415297D01*
X239526951Y-121249147D01*
X239462122Y-121092637D01*
X239368005Y-120951782D01*
X239248218Y-120831995D01*
X239107363Y-120737878D01*
X238950853Y-120673049D01*
X238784703Y-120640000D01*
X238615297Y-120640000D01*
X238449147Y-120673049D01*
X238292637Y-120737878D01*
X238151782Y-120831995D01*
X238031995Y-120951782D01*
X237937878Y-121092637D01*
X237873049Y-121249147D01*
X237840000Y-121415297D01*
X231356820Y-121415297D01*
X231362122Y-121407363D01*
X231426951Y-121250853D01*
X231460000Y-121084703D01*
X231460000Y-120915297D01*
X231426951Y-120749147D01*
X231362122Y-120592637D01*
X231268005Y-120451782D01*
X231148218Y-120331995D01*
X231007363Y-120237878D01*
X230850853Y-120173049D01*
X230684703Y-120140000D01*
X230515297Y-120140000D01*
X230349147Y-120173049D01*
X230192637Y-120237878D01*
X230051782Y-120331995D01*
X229931995Y-120451782D01*
X229837878Y-120592637D01*
X229773049Y-120749147D01*
X229740000Y-120915297D01*
X216710000Y-120915297D01*
X216710000Y-119963661D01*
X216894002Y-120147663D01*
X217178169Y-120337537D01*
X217493919Y-120468325D01*
X217829117Y-120535000D01*
X218170883Y-120535000D01*
X218506081Y-120468325D01*
X218821831Y-120337537D01*
X219105998Y-120147663D01*
X219347663Y-119905998D01*
X219537537Y-119621831D01*
X219668325Y-119306081D01*
X219735000Y-118970883D01*
X219735000Y-118731852D01*
X234356555Y-118731852D01*
X234356555Y-118901258D01*
X234389604Y-119067408D01*
X234454433Y-119223918D01*
X234523517Y-119327308D01*
X234473049Y-119449147D01*
X234440000Y-119615297D01*
X234440000Y-119784703D01*
X234473049Y-119950853D01*
X234537878Y-120107363D01*
X234631995Y-120248218D01*
X234751782Y-120368005D01*
X234892637Y-120462122D01*
X235049147Y-120526951D01*
X235215297Y-120560000D01*
X235384703Y-120560000D01*
X235550853Y-120526951D01*
X235707363Y-120462122D01*
X235848218Y-120368005D01*
X235968005Y-120248218D01*
X236062122Y-120107363D01*
X236126951Y-119950853D01*
X236160000Y-119784703D01*
X236160000Y-119615297D01*
X236126951Y-119449147D01*
X236062122Y-119292637D01*
X235993038Y-119189247D01*
X236043506Y-119067408D01*
X236076555Y-118901258D01*
X236076555Y-118731852D01*
X236043506Y-118565702D01*
X235978677Y-118409192D01*
X235884560Y-118268337D01*
X235764773Y-118148550D01*
X235623918Y-118054433D01*
X235467408Y-117989604D01*
X235301258Y-117956555D01*
X235131852Y-117956555D01*
X234965702Y-117989604D01*
X234809192Y-118054433D01*
X234668337Y-118148550D01*
X234548550Y-118268337D01*
X234454433Y-118409192D01*
X234389604Y-118565702D01*
X234356555Y-118731852D01*
X219735000Y-118731852D01*
X219735000Y-118629117D01*
X219668325Y-118293919D01*
X219537537Y-117978169D01*
X219347663Y-117694002D01*
X219268958Y-117615297D01*
X235740000Y-117615297D01*
X235740000Y-117784703D01*
X235773049Y-117950853D01*
X235837878Y-118107363D01*
X235931995Y-118248218D01*
X236051782Y-118368005D01*
X236192637Y-118462122D01*
X236349147Y-118526951D01*
X236515297Y-118560000D01*
X236684703Y-118560000D01*
X236850853Y-118526951D01*
X237007363Y-118462122D01*
X237140000Y-118373496D01*
X237140000Y-118384703D01*
X237173049Y-118550853D01*
X237237878Y-118707363D01*
X237331995Y-118848218D01*
X237451782Y-118968005D01*
X237592637Y-119062122D01*
X237749147Y-119126951D01*
X237915297Y-119160000D01*
X238084703Y-119160000D01*
X238250853Y-119126951D01*
X238407363Y-119062122D01*
X238548218Y-118968005D01*
X238600926Y-118915297D01*
X238840000Y-118915297D01*
X238840000Y-119084703D01*
X238873049Y-119250853D01*
X238937878Y-119407363D01*
X239031995Y-119548218D01*
X239151782Y-119668005D01*
X239292637Y-119762122D01*
X239449147Y-119826951D01*
X239615297Y-119860000D01*
X239784703Y-119860000D01*
X239950853Y-119826951D01*
X240040978Y-119789620D01*
X240073049Y-119950853D01*
X240137878Y-120107363D01*
X240231995Y-120248218D01*
X240351782Y-120368005D01*
X240492637Y-120462122D01*
X240640000Y-120523162D01*
X240640000Y-120684703D01*
X240673049Y-120850853D01*
X240737878Y-121007363D01*
X240831995Y-121148218D01*
X240951782Y-121268005D01*
X241092637Y-121362122D01*
X241249147Y-121426951D01*
X241415297Y-121460000D01*
X241584703Y-121460000D01*
X241750853Y-121426951D01*
X241907363Y-121362122D01*
X242048218Y-121268005D01*
X242168005Y-121148218D01*
X242233427Y-121050308D01*
X242350853Y-121026951D01*
X242507363Y-120962122D01*
X242648218Y-120868005D01*
X242768005Y-120748218D01*
X242862122Y-120607363D01*
X242926951Y-120450853D01*
X242960000Y-120284703D01*
X242960000Y-120115297D01*
X242937360Y-120001478D01*
X243032373Y-119962122D01*
X243173228Y-119868005D01*
X243293015Y-119748218D01*
X243387132Y-119607363D01*
X243451961Y-119450853D01*
X243485010Y-119284703D01*
X243485010Y-119215297D01*
X244340000Y-119215297D01*
X244340000Y-119384703D01*
X244373049Y-119550853D01*
X244437878Y-119707363D01*
X244531995Y-119848218D01*
X244651782Y-119968005D01*
X244792637Y-120062122D01*
X244949147Y-120126951D01*
X245115297Y-120160000D01*
X245284703Y-120160000D01*
X245450853Y-120126951D01*
X245607363Y-120062122D01*
X245748218Y-119968005D01*
X245868005Y-119848218D01*
X245962122Y-119707363D01*
X246023162Y-119560000D01*
X246184703Y-119560000D01*
X246350853Y-119526951D01*
X246378988Y-119515297D01*
X252240000Y-119515297D01*
X252240000Y-119684703D01*
X252273049Y-119850853D01*
X252337878Y-120007363D01*
X252431995Y-120148218D01*
X252551782Y-120268005D01*
X252692637Y-120362122D01*
X252849147Y-120426951D01*
X253015297Y-120460000D01*
X253184703Y-120460000D01*
X253350853Y-120426951D01*
X253507363Y-120362122D01*
X253648218Y-120268005D01*
X253768005Y-120148218D01*
X253862122Y-120007363D01*
X253926951Y-119850853D01*
X253960000Y-119684703D01*
X253960000Y-119515297D01*
X253926951Y-119349147D01*
X253862122Y-119192637D01*
X253768005Y-119051782D01*
X253648218Y-118931995D01*
X253507363Y-118837878D01*
X253350853Y-118773049D01*
X253184703Y-118740000D01*
X253015297Y-118740000D01*
X252849147Y-118773049D01*
X252692637Y-118837878D01*
X252551782Y-118931995D01*
X252431995Y-119051782D01*
X252337878Y-119192637D01*
X252273049Y-119349147D01*
X252240000Y-119515297D01*
X246378988Y-119515297D01*
X246507363Y-119462122D01*
X246648218Y-119368005D01*
X246768005Y-119248218D01*
X246862122Y-119107363D01*
X246926951Y-118950853D01*
X246960000Y-118784703D01*
X246960000Y-118615297D01*
X246926951Y-118449147D01*
X246871509Y-118315297D01*
X249090000Y-118315297D01*
X249090000Y-118484703D01*
X249123049Y-118650853D01*
X249187878Y-118807363D01*
X249281995Y-118948218D01*
X249401782Y-119068005D01*
X249542637Y-119162122D01*
X249699147Y-119226951D01*
X249865297Y-119260000D01*
X250034703Y-119260000D01*
X250200853Y-119226951D01*
X250357363Y-119162122D01*
X250498218Y-119068005D01*
X250618005Y-118948218D01*
X250712122Y-118807363D01*
X250776951Y-118650853D01*
X250810000Y-118484703D01*
X250810000Y-118315297D01*
X250776951Y-118149147D01*
X250721509Y-118015297D01*
X253389996Y-118015297D01*
X253389996Y-118184703D01*
X253423045Y-118350853D01*
X253487874Y-118507363D01*
X253581991Y-118648218D01*
X253701778Y-118768005D01*
X253842633Y-118862122D01*
X253999143Y-118926951D01*
X254165293Y-118960000D01*
X254334699Y-118960000D01*
X254500849Y-118926951D01*
X254657359Y-118862122D01*
X254798214Y-118768005D01*
X254918001Y-118648218D01*
X255012118Y-118507363D01*
X255076947Y-118350853D01*
X255103910Y-118215297D01*
X255290000Y-118215297D01*
X255290000Y-118384703D01*
X255323049Y-118550853D01*
X255387878Y-118707363D01*
X255481995Y-118848218D01*
X255601782Y-118968005D01*
X255742637Y-119062122D01*
X255899147Y-119126951D01*
X256065297Y-119160000D01*
X256234703Y-119160000D01*
X256400853Y-119126951D01*
X256557363Y-119062122D01*
X256698218Y-118968005D01*
X256818005Y-118848218D01*
X256912122Y-118707363D01*
X256976951Y-118550853D01*
X257010000Y-118384703D01*
X257010000Y-118215297D01*
X256976951Y-118049147D01*
X256912122Y-117892637D01*
X256818005Y-117751782D01*
X256698218Y-117631995D01*
X256557363Y-117537878D01*
X256400853Y-117473049D01*
X256234703Y-117440000D01*
X256065297Y-117440000D01*
X255899147Y-117473049D01*
X255742637Y-117537878D01*
X255601782Y-117631995D01*
X255481995Y-117751782D01*
X255387878Y-117892637D01*
X255323049Y-118049147D01*
X255290000Y-118215297D01*
X255103910Y-118215297D01*
X255109996Y-118184703D01*
X255109996Y-118015297D01*
X255076947Y-117849147D01*
X255012118Y-117692637D01*
X254918001Y-117551782D01*
X254798214Y-117431995D01*
X254657359Y-117337878D01*
X254500849Y-117273049D01*
X254334699Y-117240000D01*
X254165293Y-117240000D01*
X253999143Y-117273049D01*
X253842633Y-117337878D01*
X253701778Y-117431995D01*
X253581991Y-117551782D01*
X253487874Y-117692637D01*
X253423045Y-117849147D01*
X253389996Y-118015297D01*
X250721509Y-118015297D01*
X250712122Y-117992637D01*
X250618005Y-117851782D01*
X250498218Y-117731995D01*
X250357363Y-117637878D01*
X250200853Y-117573049D01*
X250034703Y-117540000D01*
X249865297Y-117540000D01*
X249699147Y-117573049D01*
X249542637Y-117637878D01*
X249401782Y-117731995D01*
X249281995Y-117851782D01*
X249187878Y-117992637D01*
X249123049Y-118149147D01*
X249090000Y-118315297D01*
X246871509Y-118315297D01*
X246862122Y-118292637D01*
X246768005Y-118151782D01*
X246648218Y-118031995D01*
X246507363Y-117937878D01*
X246350853Y-117873049D01*
X246184703Y-117840000D01*
X246015297Y-117840000D01*
X245849147Y-117873049D01*
X245692637Y-117937878D01*
X245551782Y-118031995D01*
X245431995Y-118151782D01*
X245337878Y-118292637D01*
X245276838Y-118440000D01*
X245115297Y-118440000D01*
X244949147Y-118473049D01*
X244792637Y-118537878D01*
X244651782Y-118631995D01*
X244531995Y-118751782D01*
X244437878Y-118892637D01*
X244373049Y-119049147D01*
X244340000Y-119215297D01*
X243485010Y-119215297D01*
X243485010Y-119115297D01*
X243451961Y-118949147D01*
X243387132Y-118792637D01*
X243293015Y-118651782D01*
X243173228Y-118531995D01*
X243032373Y-118437878D01*
X242875863Y-118373049D01*
X242709713Y-118340000D01*
X242540307Y-118340000D01*
X242374157Y-118373049D01*
X242217647Y-118437878D01*
X242076792Y-118531995D01*
X241957005Y-118651782D01*
X241862888Y-118792637D01*
X241798059Y-118949147D01*
X241765010Y-119115297D01*
X241765010Y-119284703D01*
X241787650Y-119398522D01*
X241717942Y-119427396D01*
X241662122Y-119292637D01*
X241568005Y-119151782D01*
X241448218Y-119031995D01*
X241307363Y-118937878D01*
X241150853Y-118873049D01*
X240984703Y-118840000D01*
X240815297Y-118840000D01*
X240649147Y-118873049D01*
X240559022Y-118910380D01*
X240526951Y-118749147D01*
X240462122Y-118592637D01*
X240368005Y-118451782D01*
X240248218Y-118331995D01*
X240107363Y-118237878D01*
X239950853Y-118173049D01*
X239784703Y-118140000D01*
X239615297Y-118140000D01*
X239449147Y-118173049D01*
X239292637Y-118237878D01*
X239151782Y-118331995D01*
X239031995Y-118451782D01*
X238937878Y-118592637D01*
X238873049Y-118749147D01*
X238840000Y-118915297D01*
X238600926Y-118915297D01*
X238668005Y-118848218D01*
X238762122Y-118707363D01*
X238826951Y-118550853D01*
X238860000Y-118384703D01*
X238860000Y-118215297D01*
X238826951Y-118049147D01*
X238762122Y-117892637D01*
X238668005Y-117751782D01*
X238548218Y-117631995D01*
X238407363Y-117537878D01*
X238250853Y-117473049D01*
X238084703Y-117440000D01*
X237915297Y-117440000D01*
X237749147Y-117473049D01*
X237592637Y-117537878D01*
X237460000Y-117626504D01*
X237460000Y-117615297D01*
X237426951Y-117449147D01*
X237362122Y-117292637D01*
X237268005Y-117151782D01*
X237148218Y-117031995D01*
X237007363Y-116937878D01*
X236850853Y-116873049D01*
X236684703Y-116840000D01*
X236515297Y-116840000D01*
X236349147Y-116873049D01*
X236192637Y-116937878D01*
X236051782Y-117031995D01*
X235931995Y-117151782D01*
X235837878Y-117292637D01*
X235773049Y-117449147D01*
X235740000Y-117615297D01*
X219268958Y-117615297D01*
X219105998Y-117452337D01*
X218821831Y-117262463D01*
X218506081Y-117131675D01*
X218170883Y-117065000D01*
X217829117Y-117065000D01*
X217493919Y-117131675D01*
X217178169Y-117262463D01*
X216894002Y-117452337D01*
X216710000Y-117636339D01*
X216710000Y-116215297D01*
X220040000Y-116215297D01*
X220040000Y-116384703D01*
X220073049Y-116550853D01*
X220137878Y-116707363D01*
X220231995Y-116848218D01*
X220351782Y-116968005D01*
X220492637Y-117062122D01*
X220649147Y-117126951D01*
X220815297Y-117160000D01*
X220984703Y-117160000D01*
X221150853Y-117126951D01*
X221307363Y-117062122D01*
X221448218Y-116968005D01*
X221568005Y-116848218D01*
X221662122Y-116707363D01*
X221726951Y-116550853D01*
X221760000Y-116384703D01*
X221760000Y-116215297D01*
X221726951Y-116049147D01*
X221662122Y-115892637D01*
X221568005Y-115751782D01*
X221448218Y-115631995D01*
X221307363Y-115537878D01*
X221150853Y-115473049D01*
X220984703Y-115440000D01*
X220815297Y-115440000D01*
X220649147Y-115473049D01*
X220492637Y-115537878D01*
X220351782Y-115631995D01*
X220231995Y-115751782D01*
X220137878Y-115892637D01*
X220073049Y-116049147D01*
X220040000Y-116215297D01*
X216710000Y-116215297D01*
X216710000Y-114990288D01*
X229340000Y-114990288D01*
X229340000Y-115159694D01*
X229373049Y-115325844D01*
X229437878Y-115482354D01*
X229531995Y-115623209D01*
X229651782Y-115742996D01*
X229792637Y-115837113D01*
X229949147Y-115901942D01*
X230115297Y-115934991D01*
X230284703Y-115934991D01*
X230450853Y-115901942D01*
X230571631Y-115851914D01*
X230451782Y-115931995D01*
X230331995Y-116051782D01*
X230237878Y-116192637D01*
X230173049Y-116349147D01*
X230140000Y-116515297D01*
X230140000Y-116684703D01*
X230173049Y-116850853D01*
X230237878Y-117007363D01*
X230331995Y-117148218D01*
X230451782Y-117268005D01*
X230592637Y-117362122D01*
X230749147Y-117426951D01*
X230915297Y-117460000D01*
X231084703Y-117460000D01*
X231250853Y-117426951D01*
X231407363Y-117362122D01*
X231548218Y-117268005D01*
X231668005Y-117148218D01*
X231762122Y-117007363D01*
X231826951Y-116850853D01*
X231860000Y-116684703D01*
X231860000Y-116515297D01*
X231826951Y-116349147D01*
X231762122Y-116192637D01*
X231668005Y-116051782D01*
X231548218Y-115931995D01*
X231407363Y-115837878D01*
X231250853Y-115773049D01*
X231084703Y-115740000D01*
X230915297Y-115740000D01*
X230749147Y-115773049D01*
X230628369Y-115823077D01*
X230748218Y-115742996D01*
X230868005Y-115623209D01*
X230962122Y-115482354D01*
X231026951Y-115325844D01*
X231060000Y-115159694D01*
X231060000Y-114990288D01*
X231026951Y-114824138D01*
X230962122Y-114667628D01*
X230868005Y-114526773D01*
X230748218Y-114406986D01*
X230607363Y-114312869D01*
X230450853Y-114248040D01*
X230284703Y-114214991D01*
X230115297Y-114214991D01*
X229949147Y-114248040D01*
X229792637Y-114312869D01*
X229651782Y-114406986D01*
X229531995Y-114526773D01*
X229437878Y-114667628D01*
X229373049Y-114824138D01*
X229340000Y-114990288D01*
X216710000Y-114990288D01*
X216710000Y-113575415D01*
X216712878Y-113582363D01*
X216806995Y-113723218D01*
X216926782Y-113843005D01*
X217067637Y-113937122D01*
X217224147Y-114001951D01*
X217390297Y-114035000D01*
X217559703Y-114035000D01*
X217725853Y-114001951D01*
X217882363Y-113937122D01*
X218023218Y-113843005D01*
X218143005Y-113723218D01*
X218237122Y-113582363D01*
X218301951Y-113425853D01*
X218335000Y-113259703D01*
X218335000Y-113090297D01*
X218301951Y-112924147D01*
X218237122Y-112767637D01*
X218143005Y-112626782D01*
X218023218Y-112506995D01*
X217885984Y-112415297D01*
X222340000Y-112415297D01*
X222340000Y-112584703D01*
X222373049Y-112750853D01*
X222437878Y-112907363D01*
X222531995Y-113048218D01*
X222651782Y-113168005D01*
X222792637Y-113262122D01*
X222949147Y-113326951D01*
X223115297Y-113360000D01*
X223284703Y-113360000D01*
X223450853Y-113326951D01*
X223607363Y-113262122D01*
X223748218Y-113168005D01*
X223868005Y-113048218D01*
X223956820Y-112915297D01*
X229140000Y-112915297D01*
X229140000Y-113084703D01*
X229173049Y-113250853D01*
X229237878Y-113407363D01*
X229331995Y-113548218D01*
X229451782Y-113668005D01*
X229592637Y-113762122D01*
X229749147Y-113826951D01*
X229915297Y-113860000D01*
X230084703Y-113860000D01*
X230250853Y-113826951D01*
X230293191Y-113809414D01*
X230351782Y-113868005D01*
X230492637Y-113962122D01*
X230649147Y-114026951D01*
X230815297Y-114060000D01*
X230984703Y-114060000D01*
X231150853Y-114026951D01*
X231263901Y-113980124D01*
X231351782Y-114068005D01*
X231492637Y-114162122D01*
X231649147Y-114226951D01*
X231815297Y-114260000D01*
X231984703Y-114260000D01*
X232150853Y-114226951D01*
X232307363Y-114162122D01*
X232448218Y-114068005D01*
X232477273Y-114038950D01*
X232473049Y-114049147D01*
X232440000Y-114215297D01*
X232440000Y-114384703D01*
X232473049Y-114550853D01*
X232537878Y-114707363D01*
X232631995Y-114848218D01*
X232751782Y-114968005D01*
X232892637Y-115062122D01*
X233049147Y-115126951D01*
X233215297Y-115160000D01*
X233384703Y-115160000D01*
X233550853Y-115126951D01*
X233707363Y-115062122D01*
X233848218Y-114968005D01*
X233968005Y-114848218D01*
X234062122Y-114707363D01*
X234126951Y-114550853D01*
X234160000Y-114384703D01*
X234160000Y-114215297D01*
X234126951Y-114049147D01*
X234062122Y-113892637D01*
X233968005Y-113751782D01*
X233848218Y-113631995D01*
X233707363Y-113537878D01*
X233550853Y-113473049D01*
X233384703Y-113440000D01*
X233215297Y-113440000D01*
X233049147Y-113473049D01*
X232892637Y-113537878D01*
X232751782Y-113631995D01*
X232722727Y-113661050D01*
X232726951Y-113650853D01*
X232760000Y-113484703D01*
X232760000Y-113315297D01*
X232726951Y-113149147D01*
X232662122Y-112992637D01*
X232568005Y-112851782D01*
X232531520Y-112815297D01*
X239540000Y-112815297D01*
X239540000Y-112984703D01*
X239573049Y-113150853D01*
X239637878Y-113307363D01*
X239731995Y-113448218D01*
X239851782Y-113568005D01*
X239867243Y-113578336D01*
X239840000Y-113715297D01*
X239840000Y-113884703D01*
X239873049Y-114050853D01*
X239934828Y-114200000D01*
X239873049Y-114349147D01*
X239840000Y-114515297D01*
X239840000Y-114684703D01*
X239873049Y-114850853D01*
X239914117Y-114950000D01*
X239873049Y-115049147D01*
X239840000Y-115215297D01*
X239840000Y-115384703D01*
X239873049Y-115550853D01*
X239937878Y-115707363D01*
X240031995Y-115848218D01*
X240151782Y-115968005D01*
X240292637Y-116062122D01*
X240449147Y-116126951D01*
X240615297Y-116160000D01*
X240784703Y-116160000D01*
X240950853Y-116126951D01*
X241040978Y-116089620D01*
X241073049Y-116250853D01*
X241137878Y-116407363D01*
X241231995Y-116548218D01*
X241351782Y-116668005D01*
X241455511Y-116737315D01*
X241440000Y-116815297D01*
X241440000Y-116984703D01*
X241473049Y-117150853D01*
X241537878Y-117307363D01*
X241631995Y-117448218D01*
X241751782Y-117568005D01*
X241892637Y-117662122D01*
X242049147Y-117726951D01*
X242215297Y-117760000D01*
X242384703Y-117760000D01*
X242550853Y-117726951D01*
X242707363Y-117662122D01*
X242848218Y-117568005D01*
X242968005Y-117448218D01*
X243062122Y-117307363D01*
X243126951Y-117150853D01*
X243160000Y-116984703D01*
X243160000Y-116815297D01*
X243126951Y-116649147D01*
X243062122Y-116492637D01*
X242968005Y-116351782D01*
X242848218Y-116231995D01*
X242744489Y-116162685D01*
X242760000Y-116084703D01*
X242760000Y-115915297D01*
X242726951Y-115749147D01*
X242662122Y-115592637D01*
X242568005Y-115451782D01*
X242448218Y-115331995D01*
X242307363Y-115237878D01*
X242150853Y-115173049D01*
X241984703Y-115140000D01*
X241815297Y-115140000D01*
X241649147Y-115173049D01*
X241559022Y-115210380D01*
X241526951Y-115049147D01*
X241485883Y-114950000D01*
X241526951Y-114850853D01*
X241560000Y-114684703D01*
X241560000Y-114515297D01*
X241526951Y-114349147D01*
X241512930Y-114315297D01*
X245140000Y-114315297D01*
X245140000Y-114484703D01*
X245173049Y-114650853D01*
X245237878Y-114807363D01*
X245331995Y-114948218D01*
X245451782Y-115068005D01*
X245592637Y-115162122D01*
X245749147Y-115226951D01*
X245809546Y-115238965D01*
X245837878Y-115307363D01*
X245931995Y-115448218D01*
X246051782Y-115568005D01*
X246192637Y-115662122D01*
X246349147Y-115726951D01*
X246515297Y-115760000D01*
X246684703Y-115760000D01*
X246850853Y-115726951D01*
X246999697Y-115665297D01*
X250290000Y-115665297D01*
X250290000Y-115834703D01*
X250323049Y-116000853D01*
X250387878Y-116157363D01*
X250481995Y-116298218D01*
X250601782Y-116418005D01*
X250742637Y-116512122D01*
X250899147Y-116576951D01*
X251065297Y-116610000D01*
X251234703Y-116610000D01*
X251400853Y-116576951D01*
X251557363Y-116512122D01*
X251698218Y-116418005D01*
X251818005Y-116298218D01*
X251912122Y-116157363D01*
X251976951Y-116000853D01*
X252010000Y-115834703D01*
X252010000Y-115665297D01*
X251976951Y-115499147D01*
X251912122Y-115342637D01*
X251818005Y-115201782D01*
X251698218Y-115081995D01*
X251557363Y-114987878D01*
X251400853Y-114923049D01*
X251234703Y-114890000D01*
X251065297Y-114890000D01*
X250899147Y-114923049D01*
X250742637Y-114987878D01*
X250601782Y-115081995D01*
X250481995Y-115201782D01*
X250387878Y-115342637D01*
X250323049Y-115499147D01*
X250290000Y-115665297D01*
X246999697Y-115665297D01*
X247007363Y-115662122D01*
X247148218Y-115568005D01*
X247268005Y-115448218D01*
X247362122Y-115307363D01*
X247426951Y-115150853D01*
X247460000Y-114984703D01*
X247460000Y-114815297D01*
X256440000Y-114815297D01*
X256440000Y-114984703D01*
X256473049Y-115150853D01*
X256537878Y-115307363D01*
X256631995Y-115448218D01*
X256751782Y-115568005D01*
X256892637Y-115662122D01*
X257049147Y-115726951D01*
X257215297Y-115760000D01*
X257384703Y-115760000D01*
X257550853Y-115726951D01*
X257707363Y-115662122D01*
X257848218Y-115568005D01*
X257968005Y-115448218D01*
X258062122Y-115307363D01*
X258126951Y-115150853D01*
X258153914Y-115015297D01*
X258640000Y-115015297D01*
X258640000Y-115184703D01*
X258673049Y-115350853D01*
X258737878Y-115507363D01*
X258831995Y-115648218D01*
X258951782Y-115768005D01*
X259092637Y-115862122D01*
X259249147Y-115926951D01*
X259415297Y-115960000D01*
X259584703Y-115960000D01*
X259750853Y-115926951D01*
X259907363Y-115862122D01*
X260048218Y-115768005D01*
X260168005Y-115648218D01*
X260262122Y-115507363D01*
X260326951Y-115350853D01*
X260360000Y-115184703D01*
X260360000Y-115015297D01*
X260840000Y-115015297D01*
X260840000Y-115184703D01*
X260873049Y-115350853D01*
X260937878Y-115507363D01*
X261031995Y-115648218D01*
X261151782Y-115768005D01*
X261292637Y-115862122D01*
X261449147Y-115926951D01*
X261615297Y-115960000D01*
X261784703Y-115960000D01*
X261950853Y-115926951D01*
X262107363Y-115862122D01*
X262248218Y-115768005D01*
X262368005Y-115648218D01*
X262462122Y-115507363D01*
X262526951Y-115350853D01*
X262560000Y-115184703D01*
X262560000Y-115015297D01*
X262526951Y-114849147D01*
X262462122Y-114692637D01*
X262368005Y-114551782D01*
X262248218Y-114431995D01*
X262107363Y-114337878D01*
X261950853Y-114273049D01*
X261784703Y-114240000D01*
X261615297Y-114240000D01*
X261449147Y-114273049D01*
X261292637Y-114337878D01*
X261151782Y-114431995D01*
X261031995Y-114551782D01*
X260937878Y-114692637D01*
X260873049Y-114849147D01*
X260840000Y-115015297D01*
X260360000Y-115015297D01*
X260326951Y-114849147D01*
X260262122Y-114692637D01*
X260168005Y-114551782D01*
X260048218Y-114431995D01*
X259907363Y-114337878D01*
X259750853Y-114273049D01*
X259584703Y-114240000D01*
X259415297Y-114240000D01*
X259249147Y-114273049D01*
X259092637Y-114337878D01*
X258951782Y-114431995D01*
X258831995Y-114551782D01*
X258737878Y-114692637D01*
X258673049Y-114849147D01*
X258640000Y-115015297D01*
X258153914Y-115015297D01*
X258160000Y-114984703D01*
X258160000Y-114815297D01*
X258126951Y-114649147D01*
X258062122Y-114492637D01*
X257968005Y-114351782D01*
X257848218Y-114231995D01*
X257707363Y-114137878D01*
X257550853Y-114073049D01*
X257384703Y-114040000D01*
X257215297Y-114040000D01*
X257049147Y-114073049D01*
X256892637Y-114137878D01*
X256751782Y-114231995D01*
X256631995Y-114351782D01*
X256537878Y-114492637D01*
X256473049Y-114649147D01*
X256440000Y-114815297D01*
X247460000Y-114815297D01*
X247426951Y-114649147D01*
X247362122Y-114492637D01*
X247268005Y-114351782D01*
X247148218Y-114231995D01*
X247007363Y-114137878D01*
X246850853Y-114073049D01*
X246790454Y-114061035D01*
X246762122Y-113992637D01*
X246668005Y-113851782D01*
X246548218Y-113731995D01*
X246407363Y-113637878D01*
X246250853Y-113573049D01*
X246084703Y-113540000D01*
X245915297Y-113540000D01*
X245749147Y-113573049D01*
X245592637Y-113637878D01*
X245451782Y-113731995D01*
X245331995Y-113851782D01*
X245237878Y-113992637D01*
X245173049Y-114149147D01*
X245140000Y-114315297D01*
X241512930Y-114315297D01*
X241465172Y-114200000D01*
X241526951Y-114050853D01*
X241560000Y-113884703D01*
X241560000Y-113715297D01*
X241526951Y-113549147D01*
X241462122Y-113392637D01*
X241368005Y-113251782D01*
X241248218Y-113131995D01*
X241232757Y-113121664D01*
X241260000Y-112984703D01*
X241260000Y-112815297D01*
X241226951Y-112649147D01*
X241162122Y-112492637D01*
X241068005Y-112351782D01*
X240948218Y-112231995D01*
X240807363Y-112137878D01*
X240650853Y-112073049D01*
X240484703Y-112040000D01*
X240315297Y-112040000D01*
X240149147Y-112073049D01*
X239992637Y-112137878D01*
X239851782Y-112231995D01*
X239731995Y-112351782D01*
X239637878Y-112492637D01*
X239573049Y-112649147D01*
X239540000Y-112815297D01*
X232531520Y-112815297D01*
X232448218Y-112731995D01*
X232307363Y-112637878D01*
X232150853Y-112573049D01*
X231984703Y-112540000D01*
X231815297Y-112540000D01*
X231649147Y-112573049D01*
X231536099Y-112619876D01*
X231448218Y-112531995D01*
X231307363Y-112437878D01*
X231150853Y-112373049D01*
X230984703Y-112340000D01*
X230815297Y-112340000D01*
X230649147Y-112373049D01*
X230606809Y-112390586D01*
X230548218Y-112331995D01*
X230407363Y-112237878D01*
X230250853Y-112173049D01*
X230084703Y-112140000D01*
X229915297Y-112140000D01*
X229749147Y-112173049D01*
X229592637Y-112237878D01*
X229451782Y-112331995D01*
X229331995Y-112451782D01*
X229237878Y-112592637D01*
X229173049Y-112749147D01*
X229140000Y-112915297D01*
X223956820Y-112915297D01*
X223962122Y-112907363D01*
X224026951Y-112750853D01*
X224060000Y-112584703D01*
X224060000Y-112415297D01*
X224026951Y-112249147D01*
X223962122Y-112092637D01*
X223868005Y-111951782D01*
X223748218Y-111831995D01*
X223607363Y-111737878D01*
X223450853Y-111673049D01*
X223284703Y-111640000D01*
X223115297Y-111640000D01*
X222949147Y-111673049D01*
X222792637Y-111737878D01*
X222651782Y-111831995D01*
X222531995Y-111951782D01*
X222437878Y-112092637D01*
X222373049Y-112249147D01*
X222340000Y-112415297D01*
X217885984Y-112415297D01*
X217882363Y-112412878D01*
X217725853Y-112348049D01*
X217559703Y-112315000D01*
X217390297Y-112315000D01*
X217224147Y-112348049D01*
X217067637Y-112412878D01*
X216926782Y-112506995D01*
X216806995Y-112626782D01*
X216712878Y-112767637D01*
X216710000Y-112774585D01*
X216710000Y-111115297D01*
X235040000Y-111115297D01*
X235040000Y-111284703D01*
X235073049Y-111450853D01*
X235137878Y-111607363D01*
X235231995Y-111748218D01*
X235351782Y-111868005D01*
X235492637Y-111962122D01*
X235649147Y-112026951D01*
X235815297Y-112060000D01*
X235984703Y-112060000D01*
X236150853Y-112026951D01*
X236307363Y-111962122D01*
X236448218Y-111868005D01*
X236568005Y-111748218D01*
X236662122Y-111607363D01*
X236726951Y-111450853D01*
X236760000Y-111284703D01*
X236760000Y-111215297D01*
X238840000Y-111215297D01*
X238840000Y-111384703D01*
X238873049Y-111550853D01*
X238937878Y-111707363D01*
X239031995Y-111848218D01*
X239151782Y-111968005D01*
X239292637Y-112062122D01*
X239449147Y-112126951D01*
X239615297Y-112160000D01*
X239784703Y-112160000D01*
X239950853Y-112126951D01*
X240107363Y-112062122D01*
X240248218Y-111968005D01*
X240368005Y-111848218D01*
X240462122Y-111707363D01*
X240526951Y-111550853D01*
X240560000Y-111384703D01*
X240560000Y-111215297D01*
X240526951Y-111049147D01*
X240462122Y-110892637D01*
X240368005Y-110751782D01*
X240248218Y-110631995D01*
X240107363Y-110537878D01*
X239950853Y-110473049D01*
X239784703Y-110440000D01*
X239615297Y-110440000D01*
X239449147Y-110473049D01*
X239292637Y-110537878D01*
X239151782Y-110631995D01*
X239031995Y-110751782D01*
X238937878Y-110892637D01*
X238873049Y-111049147D01*
X238840000Y-111215297D01*
X236760000Y-111215297D01*
X236760000Y-111115297D01*
X236726951Y-110949147D01*
X236662122Y-110792637D01*
X236568005Y-110651782D01*
X236448218Y-110531995D01*
X236307363Y-110437878D01*
X236150853Y-110373049D01*
X235984703Y-110340000D01*
X235815297Y-110340000D01*
X235649147Y-110373049D01*
X235492637Y-110437878D01*
X235351782Y-110531995D01*
X235231995Y-110651782D01*
X235137878Y-110792637D01*
X235073049Y-110949147D01*
X235040000Y-111115297D01*
X216710000Y-111115297D01*
X216710000Y-109827797D01*
X244627500Y-109827797D01*
X244627500Y-109997203D01*
X244660549Y-110163353D01*
X244725378Y-110319863D01*
X244819495Y-110460718D01*
X244939282Y-110580505D01*
X245080137Y-110674622D01*
X245236647Y-110739451D01*
X245402797Y-110772500D01*
X245572203Y-110772500D01*
X245663462Y-110754348D01*
X245637878Y-110792637D01*
X245573049Y-110949147D01*
X245540000Y-111115297D01*
X245540000Y-111284703D01*
X245573049Y-111450853D01*
X245637878Y-111607363D01*
X245731995Y-111748218D01*
X245833777Y-111850000D01*
X245731995Y-111951782D01*
X245637878Y-112092637D01*
X245573049Y-112249147D01*
X245540000Y-112415297D01*
X245540000Y-112584703D01*
X245573049Y-112750853D01*
X245637878Y-112907363D01*
X245731995Y-113048218D01*
X245851782Y-113168005D01*
X245992637Y-113262122D01*
X246149147Y-113326951D01*
X246315297Y-113360000D01*
X246484703Y-113360000D01*
X246650853Y-113326951D01*
X246807363Y-113262122D01*
X246948218Y-113168005D01*
X247068005Y-113048218D01*
X247162122Y-112907363D01*
X247226951Y-112750853D01*
X247260000Y-112584703D01*
X247260000Y-112415297D01*
X247226951Y-112249147D01*
X247162122Y-112092637D01*
X247068005Y-111951782D01*
X246966223Y-111850000D01*
X247068005Y-111748218D01*
X247162122Y-111607363D01*
X247226951Y-111450853D01*
X247260000Y-111284703D01*
X247260000Y-111115297D01*
X247240109Y-111015297D01*
X254540000Y-111015297D01*
X254540000Y-111184703D01*
X254573049Y-111350853D01*
X254637878Y-111507363D01*
X254731995Y-111648218D01*
X254851782Y-111768005D01*
X254992637Y-111862122D01*
X255149147Y-111926951D01*
X255315297Y-111960000D01*
X255484703Y-111960000D01*
X255650853Y-111926951D01*
X255807363Y-111862122D01*
X255948218Y-111768005D01*
X256068005Y-111648218D01*
X256162122Y-111507363D01*
X256226951Y-111350853D01*
X256260000Y-111184703D01*
X256260000Y-111015297D01*
X256226951Y-110849147D01*
X256162122Y-110692637D01*
X256068005Y-110551782D01*
X255948218Y-110431995D01*
X255807363Y-110337878D01*
X255650853Y-110273049D01*
X255484703Y-110240000D01*
X255315297Y-110240000D01*
X255149147Y-110273049D01*
X254992637Y-110337878D01*
X254851782Y-110431995D01*
X254731995Y-110551782D01*
X254637878Y-110692637D01*
X254573049Y-110849147D01*
X254540000Y-111015297D01*
X247240109Y-111015297D01*
X247226951Y-110949147D01*
X247162122Y-110792637D01*
X247068005Y-110651782D01*
X246948218Y-110531995D01*
X246807363Y-110437878D01*
X246650853Y-110373049D01*
X246484703Y-110340000D01*
X246315297Y-110340000D01*
X246224038Y-110358152D01*
X246249622Y-110319863D01*
X246314451Y-110163353D01*
X246347500Y-109997203D01*
X246347500Y-109827797D01*
X246314451Y-109661647D01*
X246249622Y-109505137D01*
X246155505Y-109364282D01*
X246035718Y-109244495D01*
X245894863Y-109150378D01*
X245738353Y-109085549D01*
X245572203Y-109052500D01*
X245402797Y-109052500D01*
X245236647Y-109085549D01*
X245080137Y-109150378D01*
X244939282Y-109244495D01*
X244819495Y-109364282D01*
X244725378Y-109505137D01*
X244660549Y-109661647D01*
X244627500Y-109827797D01*
X216710000Y-109827797D01*
X216710000Y-108915297D01*
X250140000Y-108915297D01*
X250140000Y-109084703D01*
X250173049Y-109250853D01*
X250237878Y-109407363D01*
X250331995Y-109548218D01*
X250451782Y-109668005D01*
X250592637Y-109762122D01*
X250749147Y-109826951D01*
X250915297Y-109860000D01*
X251084703Y-109860000D01*
X251250853Y-109826951D01*
X251407363Y-109762122D01*
X251548218Y-109668005D01*
X251668005Y-109548218D01*
X251762122Y-109407363D01*
X251826951Y-109250853D01*
X251860000Y-109084703D01*
X251860000Y-108915297D01*
X254340000Y-108915297D01*
X254340000Y-109084703D01*
X254373049Y-109250853D01*
X254437878Y-109407363D01*
X254531995Y-109548218D01*
X254651782Y-109668005D01*
X254792637Y-109762122D01*
X254949147Y-109826951D01*
X255115297Y-109860000D01*
X255284703Y-109860000D01*
X255450853Y-109826951D01*
X255607363Y-109762122D01*
X255748218Y-109668005D01*
X255868005Y-109548218D01*
X255962122Y-109407363D01*
X256026951Y-109250853D01*
X256060000Y-109084703D01*
X256060000Y-108915297D01*
X256040109Y-108815297D01*
X256540000Y-108815297D01*
X256540000Y-108984703D01*
X256573049Y-109150853D01*
X256637878Y-109307363D01*
X256731995Y-109448218D01*
X256851782Y-109568005D01*
X256992637Y-109662122D01*
X257149147Y-109726951D01*
X257315297Y-109760000D01*
X257484703Y-109760000D01*
X257650853Y-109726951D01*
X257807363Y-109662122D01*
X257948218Y-109568005D01*
X258068005Y-109448218D01*
X258162122Y-109307363D01*
X258226951Y-109150853D01*
X258260000Y-108984703D01*
X258260000Y-108815297D01*
X258640000Y-108815297D01*
X258640000Y-108984703D01*
X258673049Y-109150853D01*
X258737878Y-109307363D01*
X258831995Y-109448218D01*
X258951782Y-109568005D01*
X259092637Y-109662122D01*
X259249147Y-109726951D01*
X259415297Y-109760000D01*
X259584703Y-109760000D01*
X259750853Y-109726951D01*
X259907363Y-109662122D01*
X260048218Y-109568005D01*
X260168005Y-109448218D01*
X260262122Y-109307363D01*
X260326951Y-109150853D01*
X260360000Y-108984703D01*
X260360000Y-108815297D01*
X260740000Y-108815297D01*
X260740000Y-108984703D01*
X260773049Y-109150853D01*
X260837878Y-109307363D01*
X260931995Y-109448218D01*
X261051782Y-109568005D01*
X261192637Y-109662122D01*
X261349147Y-109726951D01*
X261515297Y-109760000D01*
X261684703Y-109760000D01*
X261850853Y-109726951D01*
X262007363Y-109662122D01*
X262148218Y-109568005D01*
X262268005Y-109448218D01*
X262362122Y-109307363D01*
X262426951Y-109150853D01*
X262460000Y-108984703D01*
X262460000Y-108815297D01*
X262426951Y-108649147D01*
X262362122Y-108492637D01*
X262268005Y-108351782D01*
X262148218Y-108231995D01*
X262007363Y-108137878D01*
X261850853Y-108073049D01*
X261684703Y-108040000D01*
X261515297Y-108040000D01*
X261349147Y-108073049D01*
X261192637Y-108137878D01*
X261051782Y-108231995D01*
X260931995Y-108351782D01*
X260837878Y-108492637D01*
X260773049Y-108649147D01*
X260740000Y-108815297D01*
X260360000Y-108815297D01*
X260326951Y-108649147D01*
X260262122Y-108492637D01*
X260168005Y-108351782D01*
X260048218Y-108231995D01*
X259907363Y-108137878D01*
X259750853Y-108073049D01*
X259584703Y-108040000D01*
X259415297Y-108040000D01*
X259249147Y-108073049D01*
X259092637Y-108137878D01*
X258951782Y-108231995D01*
X258831995Y-108351782D01*
X258737878Y-108492637D01*
X258673049Y-108649147D01*
X258640000Y-108815297D01*
X258260000Y-108815297D01*
X258226951Y-108649147D01*
X258162122Y-108492637D01*
X258068005Y-108351782D01*
X257948218Y-108231995D01*
X257807363Y-108137878D01*
X257650853Y-108073049D01*
X257484703Y-108040000D01*
X257315297Y-108040000D01*
X257149147Y-108073049D01*
X256992637Y-108137878D01*
X256851782Y-108231995D01*
X256731995Y-108351782D01*
X256637878Y-108492637D01*
X256573049Y-108649147D01*
X256540000Y-108815297D01*
X256040109Y-108815297D01*
X256026951Y-108749147D01*
X255962122Y-108592637D01*
X255868005Y-108451782D01*
X255748218Y-108331995D01*
X255607363Y-108237878D01*
X255450853Y-108173049D01*
X255284703Y-108140000D01*
X255115297Y-108140000D01*
X254949147Y-108173049D01*
X254792637Y-108237878D01*
X254651782Y-108331995D01*
X254531995Y-108451782D01*
X254437878Y-108592637D01*
X254373049Y-108749147D01*
X254340000Y-108915297D01*
X251860000Y-108915297D01*
X251826951Y-108749147D01*
X251762122Y-108592637D01*
X251668005Y-108451782D01*
X251548218Y-108331995D01*
X251407363Y-108237878D01*
X251250853Y-108173049D01*
X251084703Y-108140000D01*
X250915297Y-108140000D01*
X250749147Y-108173049D01*
X250592637Y-108237878D01*
X250451782Y-108331995D01*
X250331995Y-108451782D01*
X250237878Y-108592637D01*
X250173049Y-108749147D01*
X250140000Y-108915297D01*
X216710000Y-108915297D01*
X216710000Y-107515297D01*
X234740000Y-107515297D01*
X234740000Y-107684703D01*
X234773049Y-107850853D01*
X234837878Y-108007363D01*
X234931995Y-108148218D01*
X235051782Y-108268005D01*
X235192637Y-108362122D01*
X235349147Y-108426951D01*
X235515297Y-108460000D01*
X235684703Y-108460000D01*
X235850853Y-108426951D01*
X236007363Y-108362122D01*
X236148218Y-108268005D01*
X236268005Y-108148218D01*
X236362122Y-108007363D01*
X236426951Y-107850853D01*
X236460000Y-107684703D01*
X236460000Y-107515297D01*
X236426951Y-107349147D01*
X236362122Y-107192637D01*
X236268005Y-107051782D01*
X236148218Y-106931995D01*
X236007363Y-106837878D01*
X235850853Y-106773049D01*
X235684703Y-106740000D01*
X235515297Y-106740000D01*
X235349147Y-106773049D01*
X235192637Y-106837878D01*
X235051782Y-106931995D01*
X234931995Y-107051782D01*
X234837878Y-107192637D01*
X234773049Y-107349147D01*
X234740000Y-107515297D01*
X216710000Y-107515297D01*
X216710000Y-106569314D01*
X216849147Y-106626951D01*
X217015297Y-106660000D01*
X217184703Y-106660000D01*
X217350853Y-106626951D01*
X217507363Y-106562122D01*
X217648218Y-106468005D01*
X217768005Y-106348218D01*
X217862122Y-106207363D01*
X217926951Y-106050853D01*
X217960000Y-105884703D01*
X217960000Y-105715297D01*
X217926951Y-105549147D01*
X217862122Y-105392637D01*
X217768005Y-105251782D01*
X217648218Y-105131995D01*
X217507363Y-105037878D01*
X217350853Y-104973049D01*
X217184703Y-104940000D01*
X217015297Y-104940000D01*
X216849147Y-104973049D01*
X216710000Y-105030686D01*
X216710000Y-104615297D01*
X218740000Y-104615297D01*
X218740000Y-104784703D01*
X218773049Y-104950853D01*
X218837878Y-105107363D01*
X218931995Y-105248218D01*
X219051782Y-105368005D01*
X219192637Y-105462122D01*
X219349147Y-105526951D01*
X219515297Y-105560000D01*
X219684703Y-105560000D01*
X219850853Y-105526951D01*
X220007363Y-105462122D01*
X220148218Y-105368005D01*
X220268005Y-105248218D01*
X220362122Y-105107363D01*
X220426951Y-104950853D01*
X220460000Y-104784703D01*
X220460000Y-104681741D01*
X220507363Y-104662122D01*
X220648218Y-104568005D01*
X220768005Y-104448218D01*
X220862122Y-104307363D01*
X220926951Y-104150853D01*
X220960000Y-103984703D01*
X220960000Y-103815297D01*
X220926951Y-103649147D01*
X220862122Y-103492637D01*
X220768005Y-103351782D01*
X220648218Y-103231995D01*
X220507363Y-103137878D01*
X220350853Y-103073049D01*
X220184703Y-103040000D01*
X220015297Y-103040000D01*
X219849147Y-103073049D01*
X219692637Y-103137878D01*
X219551782Y-103231995D01*
X219431995Y-103351782D01*
X219337878Y-103492637D01*
X219273049Y-103649147D01*
X219240000Y-103815297D01*
X219240000Y-103918259D01*
X219192637Y-103937878D01*
X219051782Y-104031995D01*
X218931995Y-104151782D01*
X218837878Y-104292637D01*
X218773049Y-104449147D01*
X218740000Y-104615297D01*
X216710000Y-104615297D01*
X216710000Y-101000000D01*
X226137735Y-101000000D01*
X226246534Y-102104653D01*
X226568749Y-103166855D01*
X227091999Y-104145786D01*
X227796174Y-105003826D01*
X228654214Y-105708001D01*
X229633145Y-106231251D01*
X230695347Y-106553466D01*
X231523174Y-106635000D01*
X236720331Y-106635000D01*
X236673049Y-106749147D01*
X236640000Y-106915297D01*
X236640000Y-107084703D01*
X236673049Y-107250853D01*
X236737878Y-107407363D01*
X236831995Y-107548218D01*
X236951782Y-107668005D01*
X237092637Y-107762122D01*
X237249147Y-107826951D01*
X237415297Y-107860000D01*
X237584703Y-107860000D01*
X237750853Y-107826951D01*
X237907363Y-107762122D01*
X237950000Y-107733633D01*
X237992637Y-107762122D01*
X238149147Y-107826951D01*
X238315297Y-107860000D01*
X238484703Y-107860000D01*
X238650853Y-107826951D01*
X238807363Y-107762122D01*
X238948218Y-107668005D01*
X239068005Y-107548218D01*
X239162122Y-107407363D01*
X239226951Y-107250853D01*
X239260000Y-107084703D01*
X239260000Y-106915297D01*
X239226951Y-106749147D01*
X239179669Y-106635000D01*
X249470295Y-106635000D01*
X249342637Y-106687878D01*
X249201782Y-106781995D01*
X249081995Y-106901782D01*
X248987878Y-107042637D01*
X248923049Y-107199147D01*
X248890000Y-107365297D01*
X248890000Y-107534703D01*
X248923049Y-107700853D01*
X248987878Y-107857363D01*
X249081995Y-107998218D01*
X249201782Y-108118005D01*
X249342637Y-108212122D01*
X249499147Y-108276951D01*
X249665297Y-108310000D01*
X249834703Y-108310000D01*
X250000853Y-108276951D01*
X250157363Y-108212122D01*
X250298218Y-108118005D01*
X250418005Y-107998218D01*
X250512122Y-107857363D01*
X250576951Y-107700853D01*
X250610000Y-107534703D01*
X250610000Y-107365297D01*
X250576951Y-107199147D01*
X250512122Y-107042637D01*
X250418005Y-106901782D01*
X250298218Y-106781995D01*
X250157363Y-106687878D01*
X250029705Y-106635000D01*
X252076826Y-106635000D01*
X252904653Y-106553466D01*
X253966855Y-106231251D01*
X254945786Y-105708001D01*
X255803826Y-105003826D01*
X256508001Y-104145786D01*
X257031251Y-103166855D01*
X257353466Y-102104653D01*
X257462265Y-101000000D01*
X257353466Y-99895347D01*
X257031251Y-98833145D01*
X256508001Y-97854214D01*
X255803826Y-96996174D01*
X254945786Y-96291999D01*
X253966855Y-95768749D01*
X252904653Y-95446534D01*
X252076826Y-95365000D01*
X231523174Y-95365000D01*
X230695347Y-95446534D01*
X229633145Y-95768749D01*
X228654214Y-96291999D01*
X227796174Y-96996174D01*
X227091999Y-97854214D01*
X226568749Y-98833145D01*
X226246534Y-99895347D01*
X226137735Y-101000000D01*
X216710000Y-101000000D01*
X216710000Y-66115297D01*
X236040000Y-66115297D01*
X236040000Y-66284703D01*
X236073049Y-66450853D01*
X236137878Y-66607363D01*
X236231995Y-66748218D01*
X236351782Y-66868005D01*
X236492637Y-66962122D01*
X236649147Y-67026951D01*
X236815297Y-67060000D01*
X236984703Y-67060000D01*
X237150853Y-67026951D01*
X237307363Y-66962122D01*
X237448218Y-66868005D01*
X237568005Y-66748218D01*
X237662122Y-66607363D01*
X237726951Y-66450853D01*
X237760000Y-66284703D01*
X237760000Y-66115297D01*
X237726951Y-65949147D01*
X237662122Y-65792637D01*
X237568005Y-65651782D01*
X237448218Y-65531995D01*
X237307363Y-65437878D01*
X237150853Y-65373049D01*
X236984703Y-65340000D01*
X236815297Y-65340000D01*
X236649147Y-65373049D01*
X236492637Y-65437878D01*
X236351782Y-65531995D01*
X236231995Y-65651782D01*
X236137878Y-65792637D01*
X236073049Y-65949147D01*
X236040000Y-66115297D01*
X216710000Y-66115297D01*
X216710000Y-65115297D01*
X237640000Y-65115297D01*
X237640000Y-65284703D01*
X237673049Y-65450853D01*
X237737878Y-65607363D01*
X237831995Y-65748218D01*
X237951782Y-65868005D01*
X238092637Y-65962122D01*
X238249147Y-66026951D01*
X238415297Y-66060000D01*
X238584703Y-66060000D01*
X238750853Y-66026951D01*
X238863901Y-65980124D01*
X238919883Y-66036106D01*
X238873059Y-66149147D01*
X238840010Y-66315297D01*
X238840010Y-66484703D01*
X238873059Y-66650853D01*
X238937888Y-66807363D01*
X239032005Y-66948218D01*
X239151792Y-67068005D01*
X239292647Y-67162122D01*
X239449157Y-67226951D01*
X239615307Y-67260000D01*
X239784713Y-67260000D01*
X239950863Y-67226951D01*
X240107373Y-67162122D01*
X240248228Y-67068005D01*
X240368015Y-66948218D01*
X240426961Y-66860000D01*
X240484703Y-66860000D01*
X240650853Y-66826951D01*
X240807363Y-66762122D01*
X240948218Y-66668005D01*
X241068005Y-66548218D01*
X241126951Y-66460000D01*
X241184703Y-66460000D01*
X241350853Y-66426951D01*
X241507363Y-66362122D01*
X241648218Y-66268005D01*
X241768005Y-66148218D01*
X241773439Y-66140086D01*
X241829803Y-66151297D01*
X241999209Y-66151297D01*
X242165359Y-66118248D01*
X242321869Y-66053419D01*
X242462724Y-65959302D01*
X242582511Y-65839515D01*
X242676628Y-65698660D01*
X242704579Y-65631181D01*
X242725843Y-65626951D01*
X242882353Y-65562122D01*
X243023208Y-65468005D01*
X243142995Y-65348218D01*
X243237112Y-65207363D01*
X243301941Y-65050853D01*
X243334990Y-64884703D01*
X243334990Y-64715297D01*
X243312748Y-64603475D01*
X243368005Y-64548218D01*
X243462122Y-64407363D01*
X243526951Y-64250853D01*
X243551663Y-64126615D01*
X243707363Y-64062122D01*
X243848218Y-63968005D01*
X243968005Y-63848218D01*
X244062122Y-63707363D01*
X244090454Y-63638965D01*
X244150853Y-63626951D01*
X244307363Y-63562122D01*
X244448218Y-63468005D01*
X244568005Y-63348218D01*
X244633427Y-63250308D01*
X244750853Y-63226951D01*
X244907363Y-63162122D01*
X245048218Y-63068005D01*
X245168005Y-62948218D01*
X245262122Y-62807363D01*
X245326951Y-62650853D01*
X245360000Y-62484703D01*
X245360000Y-62315297D01*
X245326951Y-62149147D01*
X245262122Y-61992637D01*
X245168005Y-61851782D01*
X245048218Y-61731995D01*
X244907363Y-61637878D01*
X244750853Y-61573049D01*
X244584703Y-61540000D01*
X244415297Y-61540000D01*
X244249147Y-61573049D01*
X244092637Y-61637878D01*
X243951782Y-61731995D01*
X243831995Y-61851782D01*
X243766573Y-61949692D01*
X243649147Y-61973049D01*
X243492637Y-62037878D01*
X243351782Y-62131995D01*
X243231995Y-62251782D01*
X243137878Y-62392637D01*
X243109546Y-62461035D01*
X243049147Y-62473049D01*
X242892637Y-62537878D01*
X242751782Y-62631995D01*
X242631995Y-62751782D01*
X242537878Y-62892637D01*
X242473049Y-63049147D01*
X242448337Y-63173385D01*
X242292637Y-63237878D01*
X242151782Y-63331995D01*
X242031995Y-63451782D01*
X241937878Y-63592637D01*
X241873049Y-63749147D01*
X241840000Y-63915297D01*
X241840000Y-64084703D01*
X241862242Y-64196525D01*
X241806985Y-64251782D01*
X241712868Y-64392637D01*
X241684917Y-64460116D01*
X241663653Y-64464346D01*
X241507143Y-64529175D01*
X241366288Y-64623292D01*
X241246501Y-64743079D01*
X241241067Y-64751211D01*
X241184703Y-64740000D01*
X241015297Y-64740000D01*
X240849147Y-64773049D01*
X240692637Y-64837878D01*
X240551782Y-64931995D01*
X240431995Y-65051782D01*
X240373049Y-65140000D01*
X240323162Y-65140000D01*
X240304156Y-65094115D01*
X240362122Y-65007363D01*
X240426951Y-64850853D01*
X240460000Y-64684703D01*
X240460000Y-64515297D01*
X240426951Y-64349147D01*
X240362122Y-64192637D01*
X240268005Y-64051782D01*
X240148218Y-63931995D01*
X240007363Y-63837878D01*
X239850853Y-63773049D01*
X239684703Y-63740000D01*
X239515297Y-63740000D01*
X239349147Y-63773049D01*
X239192637Y-63837878D01*
X239051782Y-63931995D01*
X238931995Y-64051782D01*
X238837878Y-64192637D01*
X238773049Y-64349147D01*
X238766967Y-64379724D01*
X238750853Y-64373049D01*
X238584703Y-64340000D01*
X238415297Y-64340000D01*
X238249147Y-64373049D01*
X238092637Y-64437878D01*
X237951782Y-64531995D01*
X237831995Y-64651782D01*
X237737878Y-64792637D01*
X237673049Y-64949147D01*
X237640000Y-65115297D01*
X216710000Y-65115297D01*
X216710000Y-60665297D01*
X233890000Y-60665297D01*
X233890000Y-60834703D01*
X233923049Y-61000853D01*
X233987878Y-61157363D01*
X234081995Y-61298218D01*
X234201782Y-61418005D01*
X234342637Y-61512122D01*
X234499147Y-61576951D01*
X234665297Y-61610000D01*
X234834703Y-61610000D01*
X235000853Y-61576951D01*
X235157363Y-61512122D01*
X235240415Y-61456628D01*
X235251782Y-61467995D01*
X235392637Y-61562112D01*
X235549147Y-61626941D01*
X235715297Y-61659990D01*
X235884703Y-61659990D01*
X236050853Y-61626941D01*
X236207363Y-61562112D01*
X236348218Y-61467995D01*
X236468005Y-61348208D01*
X236562122Y-61207353D01*
X236626951Y-61050843D01*
X236660000Y-60884693D01*
X236660000Y-60715287D01*
X236626951Y-60549137D01*
X236562122Y-60392627D01*
X236468005Y-60251772D01*
X236348218Y-60131985D01*
X236207363Y-60037868D01*
X236050853Y-59973039D01*
X235884703Y-59939990D01*
X235715297Y-59939990D01*
X235549147Y-59973039D01*
X235392637Y-60037868D01*
X235309585Y-60093362D01*
X235298218Y-60081995D01*
X235157363Y-59987878D01*
X235000853Y-59923049D01*
X234834703Y-59890000D01*
X234665297Y-59890000D01*
X234499147Y-59923049D01*
X234342637Y-59987878D01*
X234201782Y-60081995D01*
X234081995Y-60201782D01*
X233987878Y-60342637D01*
X233923049Y-60499147D01*
X233890000Y-60665297D01*
X216710000Y-60665297D01*
X216710000Y-55415297D01*
X225240000Y-55415297D01*
X225240000Y-55584703D01*
X225273049Y-55750853D01*
X225337878Y-55907363D01*
X225431995Y-56048218D01*
X225551782Y-56168005D01*
X225692637Y-56262122D01*
X225849147Y-56326951D01*
X226015297Y-56360000D01*
X226184703Y-56360000D01*
X226350853Y-56326951D01*
X226507363Y-56262122D01*
X226577441Y-56215297D01*
X244440000Y-56215297D01*
X244440000Y-56384703D01*
X244473049Y-56550853D01*
X244537878Y-56707363D01*
X244631995Y-56848218D01*
X244751782Y-56968005D01*
X244892637Y-57062122D01*
X245049147Y-57126951D01*
X245215297Y-57160000D01*
X245384703Y-57160000D01*
X245550853Y-57126951D01*
X245707363Y-57062122D01*
X245848218Y-56968005D01*
X245968005Y-56848218D01*
X246062122Y-56707363D01*
X246126951Y-56550853D01*
X246160000Y-56384703D01*
X246160000Y-56215297D01*
X246126951Y-56049147D01*
X246062122Y-55892637D01*
X245968005Y-55751782D01*
X245848218Y-55631995D01*
X245707363Y-55537878D01*
X245550853Y-55473049D01*
X245384703Y-55440000D01*
X245215297Y-55440000D01*
X245049147Y-55473049D01*
X244892637Y-55537878D01*
X244751782Y-55631995D01*
X244631995Y-55751782D01*
X244537878Y-55892637D01*
X244473049Y-56049147D01*
X244440000Y-56215297D01*
X226577441Y-56215297D01*
X226648218Y-56168005D01*
X226768005Y-56048218D01*
X226862122Y-55907363D01*
X226926951Y-55750853D01*
X226960000Y-55584703D01*
X226960000Y-55415297D01*
X226926951Y-55249147D01*
X226862122Y-55092637D01*
X226768005Y-54951782D01*
X226648218Y-54831995D01*
X226623228Y-54815297D01*
X227340000Y-54815297D01*
X227340000Y-54984703D01*
X227373049Y-55150853D01*
X227437878Y-55307363D01*
X227531995Y-55448218D01*
X227651782Y-55568005D01*
X227792637Y-55662122D01*
X227949147Y-55726951D01*
X228115297Y-55760000D01*
X228284703Y-55760000D01*
X228450853Y-55726951D01*
X228607363Y-55662122D01*
X228748218Y-55568005D01*
X228868005Y-55448218D01*
X228962122Y-55307363D01*
X229026951Y-55150853D01*
X229060000Y-54984703D01*
X229060000Y-54815297D01*
X229026951Y-54649147D01*
X228962122Y-54492637D01*
X228868005Y-54351782D01*
X228748218Y-54231995D01*
X228607363Y-54137878D01*
X228450853Y-54073049D01*
X228284703Y-54040000D01*
X228115297Y-54040000D01*
X227949147Y-54073049D01*
X227792637Y-54137878D01*
X227651782Y-54231995D01*
X227531995Y-54351782D01*
X227437878Y-54492637D01*
X227373049Y-54649147D01*
X227340000Y-54815297D01*
X226623228Y-54815297D01*
X226507363Y-54737878D01*
X226350853Y-54673049D01*
X226184703Y-54640000D01*
X226015297Y-54640000D01*
X225849147Y-54673049D01*
X225692637Y-54737878D01*
X225551782Y-54831995D01*
X225431995Y-54951782D01*
X225337878Y-55092637D01*
X225273049Y-55249147D01*
X225240000Y-55415297D01*
X216710000Y-55415297D01*
X216710000Y-49880297D01*
X233105000Y-49880297D01*
X233105000Y-50049703D01*
X233138049Y-50215853D01*
X233202878Y-50372363D01*
X233296995Y-50513218D01*
X233416782Y-50633005D01*
X233557637Y-50727122D01*
X233714147Y-50791951D01*
X233880297Y-50825000D01*
X234049703Y-50825000D01*
X234215853Y-50791951D01*
X234372363Y-50727122D01*
X234513218Y-50633005D01*
X234633005Y-50513218D01*
X234727122Y-50372363D01*
X234791951Y-50215853D01*
X234825000Y-50049703D01*
X234825000Y-49880297D01*
X234791951Y-49714147D01*
X234751006Y-49615297D01*
X235240000Y-49615297D01*
X235240000Y-49784703D01*
X235273049Y-49950853D01*
X235337878Y-50107363D01*
X235431995Y-50248218D01*
X235551782Y-50368005D01*
X235692637Y-50462122D01*
X235849147Y-50526951D01*
X236015297Y-50560000D01*
X236184703Y-50560000D01*
X236350853Y-50526951D01*
X236507363Y-50462122D01*
X236648218Y-50368005D01*
X236768005Y-50248218D01*
X236862122Y-50107363D01*
X236926951Y-49950853D01*
X236960000Y-49784703D01*
X236960000Y-49615297D01*
X236926951Y-49449147D01*
X236862122Y-49292637D01*
X236768005Y-49151782D01*
X236648218Y-49031995D01*
X236507363Y-48937878D01*
X236350853Y-48873049D01*
X236184703Y-48840000D01*
X236015297Y-48840000D01*
X235849147Y-48873049D01*
X235692637Y-48937878D01*
X235551782Y-49031995D01*
X235431995Y-49151782D01*
X235337878Y-49292637D01*
X235273049Y-49449147D01*
X235240000Y-49615297D01*
X234751006Y-49615297D01*
X234727122Y-49557637D01*
X234633005Y-49416782D01*
X234513218Y-49296995D01*
X234372363Y-49202878D01*
X234215853Y-49138049D01*
X234049703Y-49105000D01*
X233880297Y-49105000D01*
X233714147Y-49138049D01*
X233557637Y-49202878D01*
X233416782Y-49296995D01*
X233296995Y-49416782D01*
X233202878Y-49557637D01*
X233138049Y-49714147D01*
X233105000Y-49880297D01*
X216710000Y-49880297D01*
X216710000Y-37110000D01*
X263290000Y-37110000D01*
X263290001Y-112765000D01*
G37*
G04 #@! TD.AperFunction*
M02*
