M48
; DRILL file {KiCad (5.1.12)-1} date 09/28/22 13:00:41
; FORMAT={-:-/ absolute / metric / decimal}
; #@! TF.CreationDate,2022-09-28T13:00:41-05:00
; #@! TF.GenerationSoftware,Kicad,Pcbnew,(5.1.12)-1
; #@! TF.FileFunction,Plated,1,4,PTH
FMAT,2
METRIC
T1C0.200
T2C0.400
T3C1.100
T4C9.000
%
G90
G05
T1
X216.8Y-128.2
X217.1Y-105.8
X217.1Y-111.8
X217.3Y-105.0
X217.3Y-123.0
X217.475Y-113.175
X219.5Y-123.0
X219.6Y-104.7
X219.775Y-130.925
X220.1Y-103.9
X220.9Y-116.3
X222.4Y-134.1
X223.2Y-112.5
X223.8Y-128.2
X224.4Y-113.0
X225.2Y-110.9
X226.1Y-55.5
X226.5Y-113.0
X227.5Y-112.3
X227.8Y-132.7
X228.2Y-54.9
X228.95Y-127.85
X229.5Y-124.444
X229.85Y-119.65
X230.0Y-55.0
X230.0Y-113.0
X230.2Y-115.075
X230.6Y-121.0
X230.8Y-127.5
X230.9Y-113.2
X231.0Y-116.6
X231.9Y-113.4
X232.6Y-129.0
X232.9Y-123.3
X233.0Y-54.9
X233.3Y-114.3
X233.965Y-49.965
X234.1Y-124.8
X234.456Y-107.3
X234.75Y-60.75
X235.217Y-118.817
X235.3Y-119.7
X235.55Y-129.95
X235.6Y-107.6
X235.8Y-60.8
X235.9Y-111.2
X236.0Y-126.9
X236.1Y-49.7
X236.6Y-117.7
X236.7Y-111.4
X236.9Y-66.2
X237.5Y-107.0
X237.55Y-53.45
X238.0Y-118.3
X238.4Y-107.0
X238.5Y-65.2
X238.7Y-121.5
X239.3Y-126.6
X239.5Y-65.4
X239.6Y-64.6
X239.7Y-111.3
X239.7Y-119.0
X239.7Y-66.4
X239.9Y-124.4
X240.35Y-129.95
X240.4Y-66.0
X240.4Y-112.9
X240.7Y-113.8
X240.7Y-114.6
X240.7Y-115.3
X240.8Y-123.4
X240.9Y-119.7
X241.1Y-65.6
X241.5Y-120.6
X241.9Y-116.0
X241.915Y-65.291
X242.1Y-120.2
X242.3Y-116.9
X242.475Y-64.8
X242.625Y-119.2
X242.7Y-64.0
X242.9Y-126.2
X243.3Y-63.3
X243.9Y-62.8
X244.5Y-62.4
X245.2Y-119.3
X245.3Y-56.3
X245.4Y-108.087
X245.487Y-109.912
X246.0Y-114.4
X246.1Y-118.7
X246.4Y-111.2
X246.4Y-112.5
X246.6Y-114.9
X246.8Y-132.0
X248.8Y-124.8
X249.25Y-115.75
X249.75Y-107.45
X249.86Y-126.96
X249.95Y-118.4
X250.9Y-113.2
X251.0Y-109.0
X251.15Y-115.75
X252.4Y-127.9
X252.4Y-132.3
X252.9Y-123.9
X253.1Y-119.6
X253.67Y-126.97
X254.25Y-118.1
X254.287Y-125.387
X254.94Y-126.94
X255.2Y-109.0
X255.2Y-113.2
X255.4Y-111.1
X256.113Y-125.487
X256.15Y-118.3
X257.3Y-114.9
X257.4Y-108.9
X259.5Y-108.9
X259.5Y-115.1
X261.6Y-108.9
X261.7Y-115.1
T2
X220.6Y-132.7
X222.3Y-122.3
X222.3Y-125.6
X225.3Y-122.3
X225.3Y-125.6
X263.2Y-113.8
T3
X234.39Y-134.1
X236.93Y-134.1
X239.47Y-134.1
X242.01Y-134.1
T4
X231.8Y-101.0G85X251.8Y-101.0
G05
T0
M30
