%FSLAX45Y45*%
G04 Gerber Fmt 4.5, Leading zero omitted, Abs format (unit mm)*
G04 Created by KiCad (PCBNEW (5.1.12)-1) date 2022-08-25 20:44:23*
%MOMM*%
%LPD*%
G01*
G04 APERTURE LIST*
%TA.AperFunction,Profile*%
%ADD10C,0.050000*%
%TD*%
%TA.AperFunction,Profile*%
%ADD11C,0.150000*%
%TD*%
%ADD12C,0.200000*%
%ADD13C,0.300000*%
G04 APERTURE END LIST*
D10*
X6885000Y-8580000D02*
X6885000Y-11420000D01*
X7885000Y-8580000D02*
X6885000Y-8580000D01*
X7885000Y-8304000D02*
X7885000Y-8580000D01*
X7885000Y-11696000D02*
X7885000Y-11420000D01*
X7885000Y-11420000D02*
X6885000Y-11420000D01*
X10796000Y-12115000D02*
X10796000Y-13115000D01*
X9204000Y-12115000D02*
X9204000Y-13115000D01*
X9204000Y-13115000D02*
X10796000Y-13115000D01*
X11696000Y-12115000D02*
X10796000Y-12115000D01*
X8304000Y-12115000D02*
X9204000Y-12115000D01*
X7885000Y-11696000D02*
X8304000Y-12115000D01*
X11696000Y-12115000D02*
X12115000Y-11696000D01*
X11696000Y-7885000D02*
X12115000Y-8304000D01*
X7885000Y-8304000D02*
X8304000Y-7885000D01*
X12115000Y-10000000D02*
X12115000Y-11696000D01*
X12115000Y-10000000D02*
X12115000Y-8304000D01*
X10000000Y-7885000D02*
X8304000Y-7885000D01*
X10000000Y-7885000D02*
X11696000Y-7885000D01*
D11*
X11750000Y-8450000D02*
G75*
G03*
X11750000Y-8450000I-200000J0D01*
G01*
X8650000Y-8450000D02*
G75*
G03*
X8650000Y-8450000I-200000J0D01*
G01*
X8650000Y-11550000D02*
G75*
G03*
X8650000Y-11550000I-200000J0D01*
G01*
X11750000Y-11550000D02*
G75*
G03*
X11750000Y-11550000I-200000J0D01*
G01*
X10300000Y-10000000D02*
G75*
G03*
X10300000Y-10000000I-300000J0D01*
G01*
D12*
D13*
X7168928Y-13583214D02*
X7168928Y-13283214D01*
X7240357Y-13283214D01*
X7283214Y-13297500D01*
X7311786Y-13326071D01*
X7326071Y-13354643D01*
X7340357Y-13411786D01*
X7340357Y-13454643D01*
X7326071Y-13511786D01*
X7311786Y-13540357D01*
X7283214Y-13568929D01*
X7240357Y-13583214D01*
X7168928Y-13583214D01*
X7468928Y-13583214D02*
X7468928Y-13383214D01*
X7468928Y-13440357D02*
X7483214Y-13411786D01*
X7497500Y-13397500D01*
X7526071Y-13383214D01*
X7554643Y-13383214D01*
X7654643Y-13583214D02*
X7654643Y-13383214D01*
X7654643Y-13283214D02*
X7640357Y-13297500D01*
X7654643Y-13311786D01*
X7668928Y-13297500D01*
X7654643Y-13283214D01*
X7654643Y-13311786D01*
X7840357Y-13583214D02*
X7811786Y-13568929D01*
X7797500Y-13540357D01*
X7797500Y-13283214D01*
X7997500Y-13583214D02*
X7968928Y-13568929D01*
X7954643Y-13540357D01*
X7954643Y-13283214D01*
X8340357Y-13583214D02*
X8340357Y-13283214D01*
X8440357Y-13497500D01*
X8540357Y-13283214D01*
X8540357Y-13583214D01*
X8811786Y-13583214D02*
X8811786Y-13426071D01*
X8797500Y-13397500D01*
X8768928Y-13383214D01*
X8711786Y-13383214D01*
X8683214Y-13397500D01*
X8811786Y-13568929D02*
X8783214Y-13583214D01*
X8711786Y-13583214D01*
X8683214Y-13568929D01*
X8668928Y-13540357D01*
X8668928Y-13511786D01*
X8683214Y-13483214D01*
X8711786Y-13468929D01*
X8783214Y-13468929D01*
X8811786Y-13454643D01*
X8954643Y-13383214D02*
X8954643Y-13683214D01*
X8954643Y-13397500D02*
X8983214Y-13383214D01*
X9040357Y-13383214D01*
X9068928Y-13397500D01*
X9083214Y-13411786D01*
X9097500Y-13440357D01*
X9097500Y-13526071D01*
X9083214Y-13554643D01*
X9068928Y-13568929D01*
X9040357Y-13583214D01*
X8983214Y-13583214D01*
X8954643Y-13568929D01*
X9226071Y-13554643D02*
X9240357Y-13568929D01*
X9226071Y-13583214D01*
X9211786Y-13568929D01*
X9226071Y-13554643D01*
X9226071Y-13583214D01*
X9226071Y-13397500D02*
X9240357Y-13411786D01*
X9226071Y-13426071D01*
X9211786Y-13411786D01*
X9226071Y-13397500D01*
X9226071Y-13426071D01*
M02*
