G04 #@! TF.GenerationSoftware,KiCad,Pcbnew,(5.1.12)-1*
G04 #@! TF.CreationDate,2022-08-25T21:37:31-05:00*
G04 #@! TF.ProjectId,Stepper_Motor_Controller,53746570-7065-4725-9f4d-6f746f725f43,rev?*
G04 #@! TF.SameCoordinates,Original*
G04 #@! TF.FileFunction,Profile,NP*
%FSLAX46Y46*%
G04 Gerber Fmt 4.6, Leading zero omitted, Abs format (unit mm)*
G04 Created by KiCad (PCBNEW (5.1.12)-1) date 2022-08-25 21:37:31*
%MOMM*%
%LPD*%
G01*
G04 APERTURE LIST*
G04 #@! TA.AperFunction,Profile*
%ADD10C,0.050000*%
G04 #@! TD*
G04 #@! TA.AperFunction,Profile*
%ADD11C,0.150000*%
G04 #@! TD*
G04 APERTURE END LIST*
D10*
X68850000Y-85800000D02*
X68850000Y-114200000D01*
X78850000Y-85800000D02*
X68850000Y-85800000D01*
X78850000Y-83040000D02*
X78850000Y-85800000D01*
X78850000Y-116960000D02*
X78850000Y-114200000D01*
X78850000Y-114200000D02*
X68850000Y-114200000D01*
X107960000Y-121150000D02*
X107960000Y-131150000D01*
X92040000Y-121150000D02*
X92040000Y-131150000D01*
X92040000Y-131150000D02*
X107960000Y-131150000D01*
X116960000Y-121150000D02*
X107960000Y-121150000D01*
X83040000Y-121150000D02*
X92040000Y-121150000D01*
X78850000Y-116960000D02*
X83040000Y-121150000D01*
X116960000Y-121150000D02*
X121150000Y-116960000D01*
X116960000Y-78850000D02*
X121150000Y-83040000D01*
X78850000Y-83040000D02*
X83040000Y-78850000D01*
X121150000Y-100000000D02*
X121150000Y-116960000D01*
X121150000Y-100000000D02*
X121150000Y-83040000D01*
X100000000Y-78850000D02*
X83040000Y-78850000D01*
X100000000Y-78850000D02*
X116960000Y-78850000D01*
D11*
X117500000Y-84500000D02*
G75*
G03*
X117500000Y-84500000I-2000000J0D01*
G01*
X86500000Y-84500000D02*
G75*
G03*
X86500000Y-84500000I-2000000J0D01*
G01*
X86500000Y-115500000D02*
G75*
G03*
X86500000Y-115500000I-2000000J0D01*
G01*
X117500000Y-115500000D02*
G75*
G03*
X117500000Y-115500000I-2000000J0D01*
G01*
X103000000Y-100000000D02*
G75*
G03*
X103000000Y-100000000I-3000000J0D01*
G01*
M02*
