%FSLAX45Y45*%
G04 Gerber Fmt 4.5, Leading zero omitted, Abs format (unit mm)*
G04 Created by KiCad (PCBNEW (5.1.12)-1) date 2022-08-25 20:44:23*
%MOMM*%
%LPD*%
G01*
G04 APERTURE LIST*
%TA.AperFunction,Profile*%
%ADD10C,0.050000*%
%TD*%
%TA.AperFunction,Profile*%
%ADD11C,0.150000*%
%TD*%
%ADD12C,0.200000*%
%ADD13C,0.300000*%
G04 APERTURE END LIST*
D10*
X6885000Y-8580000D02*
X6885000Y-11420000D01*
X7885000Y-8580000D02*
X6885000Y-8580000D01*
X7885000Y-8304000D02*
X7885000Y-8580000D01*
X7885000Y-11696000D02*
X7885000Y-11420000D01*
X7885000Y-11420000D02*
X6885000Y-11420000D01*
X10796000Y-12115000D02*
X10796000Y-13115000D01*
X9204000Y-12115000D02*
X9204000Y-13115000D01*
X9204000Y-13115000D02*
X10796000Y-13115000D01*
X11696000Y-12115000D02*
X10796000Y-12115000D01*
X8304000Y-12115000D02*
X9204000Y-12115000D01*
X7885000Y-11696000D02*
X8304000Y-12115000D01*
X11696000Y-12115000D02*
X12115000Y-11696000D01*
X11696000Y-7885000D02*
X12115000Y-8304000D01*
X7885000Y-8304000D02*
X8304000Y-7885000D01*
X12115000Y-10000000D02*
X12115000Y-11696000D01*
X12115000Y-10000000D02*
X12115000Y-8304000D01*
X10000000Y-7885000D02*
X8304000Y-7885000D01*
X10000000Y-7885000D02*
X11696000Y-7885000D01*
D11*
X11750000Y-8450000D02*
G75*
G03*
X11750000Y-8450000I-200000J0D01*
G01*
X8650000Y-8450000D02*
G75*
G03*
X8650000Y-8450000I-200000J0D01*
G01*
X8650000Y-11550000D02*
G75*
G03*
X8650000Y-11550000I-200000J0D01*
G01*
X11750000Y-11550000D02*
G75*
G03*
X11750000Y-11550000I-200000J0D01*
G01*
X10300000Y-10000000D02*
G75*
G03*
X10300000Y-10000000I-300000J0D01*
G01*
D12*
X7850000Y-9010000D02*
X7870000Y-9030000D01*
X7870000Y-9010000D02*
X7850000Y-9030000D01*
X7860000Y-10320000D02*
X7880000Y-10340000D01*
X7880000Y-10320000D02*
X7860000Y-10340000D01*
X7870000Y-9950000D02*
X7890000Y-9970000D01*
X7890000Y-9950000D02*
X7870000Y-9970000D01*
X8020000Y-9150000D02*
X8040000Y-9170000D01*
X8040000Y-9150000D02*
X8020000Y-9170000D01*
X8028750Y-11051250D02*
X8048750Y-11071250D01*
X8048750Y-11051250D02*
X8028750Y-11071250D01*
X8090000Y-9720000D02*
X8110000Y-9740000D01*
X8110000Y-9720000D02*
X8090000Y-9740000D01*
X8110000Y-9630000D02*
X8130000Y-9650000D01*
X8130000Y-9630000D02*
X8110000Y-9650000D01*
X8120000Y-10100000D02*
X8140000Y-10120000D01*
X8140000Y-10100000D02*
X8120000Y-10120000D01*
X8130000Y-8950000D02*
X8150000Y-8970000D01*
X8150000Y-8950000D02*
X8130000Y-8970000D01*
X8520000Y-11030000D02*
X8540000Y-11050000D01*
X8540000Y-11030000D02*
X8520000Y-11050000D01*
X8700000Y-9440000D02*
X8720000Y-9460000D01*
X8720000Y-9440000D02*
X8700000Y-9460000D01*
X8790000Y-9360000D02*
X8810000Y-9380000D01*
X8810000Y-9360000D02*
X8790000Y-9380000D01*
X8910000Y-11660000D02*
X8930000Y-11680000D01*
X8930000Y-11660000D02*
X8910000Y-11680000D01*
X8950000Y-11600000D02*
X8970000Y-11620000D01*
X8970000Y-11600000D02*
X8950000Y-11620000D01*
X9000000Y-11540000D02*
X9020000Y-11560000D01*
X9020000Y-11540000D02*
X9000000Y-11560000D01*
X9020000Y-8360000D02*
X9040000Y-8380000D01*
X9040000Y-8360000D02*
X9020000Y-8380000D01*
X9125000Y-8165000D02*
X9145000Y-8185000D01*
X9145000Y-8165000D02*
X9125000Y-8185000D01*
X9140000Y-9460000D02*
X9160000Y-9480000D01*
X9160000Y-9460000D02*
X9140000Y-9480000D01*
X9180000Y-8320000D02*
X9200000Y-8340000D01*
X9200000Y-8320000D02*
X9180000Y-8340000D01*
X9270000Y-9630000D02*
X9290000Y-9650000D01*
X9290000Y-9630000D02*
X9270000Y-9650000D01*
X9320000Y-8030000D02*
X9340000Y-8050000D01*
X9340000Y-8030000D02*
X9320000Y-8050000D01*
X9340000Y-9250000D02*
X9360000Y-9270000D01*
X9360000Y-9250000D02*
X9340000Y-9270000D01*
X9340000Y-9680000D02*
X9360000Y-9700000D01*
X9360000Y-9680000D02*
X9340000Y-9700000D01*
X9350000Y-9780000D02*
X9370000Y-9800000D01*
X9370000Y-9780000D02*
X9350000Y-9800000D01*
X9360000Y-8700000D02*
X9380000Y-8720000D01*
X9380000Y-8700000D02*
X9360000Y-8720000D01*
X9390000Y-8480000D02*
X9410000Y-8500000D01*
X9410000Y-8480000D02*
X9390000Y-8500000D01*
X9420000Y-9790000D02*
X9440000Y-9810000D01*
X9440000Y-9790000D02*
X9420000Y-9810000D01*
X9430000Y-8820000D02*
X9450000Y-8840000D01*
X9450000Y-8820000D02*
X9430000Y-8840000D01*
X9480000Y-9130000D02*
X9500000Y-9150000D01*
X9500000Y-9130000D02*
X9480000Y-9150000D01*
X9480000Y-9380000D02*
X9500000Y-9400000D01*
X9500000Y-9380000D02*
X9480000Y-9400000D01*
X9500000Y-9810000D02*
X9520000Y-9830000D01*
X9520000Y-9810000D02*
X9500000Y-9830000D01*
X9570000Y-9960000D02*
X9590000Y-9980000D01*
X9590000Y-9960000D02*
X9570000Y-9980000D01*
X9620000Y-9250000D02*
X9640000Y-9270000D01*
X9640000Y-9250000D02*
X9620000Y-9270000D01*
X9632500Y-10942500D02*
X9652500Y-10962500D01*
X9652500Y-10942500D02*
X9632500Y-10962500D01*
X9670000Y-10880000D02*
X9690000Y-10900000D01*
X9690000Y-10880000D02*
X9670000Y-10900000D01*
X9760000Y-10850000D02*
X9780000Y-10870000D01*
X9780000Y-10850000D02*
X9760000Y-10870000D01*
X9770000Y-8040000D02*
X9790000Y-8060000D01*
X9790000Y-8040000D02*
X9770000Y-8060000D01*
X9840000Y-10860000D02*
X9860000Y-10880000D01*
X9860000Y-10860000D02*
X9840000Y-10880000D01*
X9865000Y-8045000D02*
X9885000Y-8065000D01*
X9885000Y-8045000D02*
X9865000Y-8065000D01*
X9865000Y-8480000D02*
X9885000Y-8500000D01*
X9885000Y-8480000D02*
X9865000Y-8500000D01*
X9960000Y-9240000D02*
X9980000Y-9260000D01*
X9980000Y-9240000D02*
X9960000Y-9260000D01*
X9970000Y-9580000D02*
X9990000Y-9600000D01*
X9990000Y-9580000D02*
X9970000Y-9600000D01*
X10020000Y-9400000D02*
X10040000Y-9420000D01*
X10040000Y-9400000D02*
X10020000Y-9420000D01*
X10130000Y-9080000D02*
X10150000Y-9100000D01*
X10150000Y-9080000D02*
X10130000Y-9100000D01*
X10150000Y-10860000D02*
X10170000Y-10880000D01*
X10170000Y-10860000D02*
X10150000Y-10880000D01*
X10190000Y-9250000D02*
X10210000Y-9270000D01*
X10210000Y-9250000D02*
X10190000Y-9270000D01*
X10210000Y-8040000D02*
X10230000Y-8060000D01*
X10230000Y-8040000D02*
X10210000Y-8060000D01*
X10250000Y-10860000D02*
X10270000Y-10880000D01*
X10270000Y-10860000D02*
X10250000Y-10880000D01*
X10282500Y-10940000D02*
X10302500Y-10960000D01*
X10302500Y-10940000D02*
X10282500Y-10960000D01*
X10300000Y-8850000D02*
X10320000Y-8870000D01*
X10320000Y-8850000D02*
X10300000Y-8870000D01*
X10380000Y-9500000D02*
X10400000Y-9520000D01*
X10400000Y-9500000D02*
X10380000Y-9520000D01*
X10387501Y-10942500D02*
X10407501Y-10962500D01*
X10407501Y-10942500D02*
X10387501Y-10962500D01*
X10400000Y-8960000D02*
X10420000Y-8980000D01*
X10420000Y-8960000D02*
X10400000Y-8980000D01*
X10415000Y-11325000D02*
X10435000Y-11345000D01*
X10435000Y-11325000D02*
X10415000Y-11345000D01*
X10650000Y-9590000D02*
X10670000Y-9610000D01*
X10670000Y-9590000D02*
X10650000Y-9610000D01*
X10800000Y-8670000D02*
X10820000Y-8690000D01*
X10820000Y-8670000D02*
X10800000Y-8690000D01*
X10825000Y-8155000D02*
X10845000Y-8175000D01*
X10845000Y-8155000D02*
X10825000Y-8175000D01*
X10825000Y-8345000D02*
X10845000Y-8365000D01*
X10845000Y-8345000D02*
X10825000Y-8365000D01*
X10830000Y-8260000D02*
X10850000Y-8280000D01*
X10850000Y-8260000D02*
X10830000Y-8280000D01*
X11020000Y-9170000D02*
X11040000Y-9190000D01*
X11040000Y-9170000D02*
X11020000Y-9190000D01*
X11050000Y-11000000D02*
X11070000Y-11020000D01*
X11070000Y-11000000D02*
X11050000Y-11020000D01*
X11220000Y-11320000D02*
X11240000Y-11340000D01*
X11240000Y-11320000D02*
X11220000Y-11340000D01*
X11545000Y-9745000D02*
X11565000Y-9765000D01*
X11565000Y-9745000D02*
X11545000Y-9765000D01*
X11735000Y-9745000D02*
X11755000Y-9765000D01*
X11755000Y-9745000D02*
X11735000Y-9765000D01*
X9775000Y-11337500D02*
G75*
G03*
X9775000Y-11337500I-15000J0D01*
G01*
X9775000Y-11562500D02*
G75*
G03*
X9775000Y-11562500I-15000J0D01*
G01*
X9935000Y-11337500D02*
G75*
G03*
X9935000Y-11337500I-15000J0D01*
G01*
X9935000Y-11562500D02*
G75*
G03*
X9935000Y-11562500I-15000J0D01*
G01*
X10095000Y-11337500D02*
G75*
G03*
X10095000Y-11337500I-15000J0D01*
G01*
X10095000Y-11562500D02*
G75*
G03*
X10095000Y-11562500I-15000J0D01*
G01*
X10255000Y-11337500D02*
G75*
G03*
X10255000Y-11337500I-15000J0D01*
G01*
X10255000Y-11562500D02*
G75*
G03*
X10255000Y-11562500I-15000J0D01*
G01*
X8430000Y-12000000D02*
X8430000Y-12040000D01*
X8410000Y-12020000D02*
X8450000Y-12020000D01*
X8570000Y-12000000D02*
X8570000Y-12040000D01*
X8550000Y-12020000D02*
X8590000Y-12020000D01*
X8710000Y-12000000D02*
X8710000Y-12040000D01*
X8690000Y-12020000D02*
X8730000Y-12020000D01*
X8840000Y-11830000D02*
X8840000Y-11870000D01*
X8820000Y-11850000D02*
X8860000Y-11850000D01*
X8900000Y-11100000D02*
X8900000Y-11140000D01*
X8880000Y-11120000D02*
X8920000Y-11120000D01*
X8900000Y-11320000D02*
X8900000Y-11360000D01*
X8880000Y-11340000D02*
X8920000Y-11340000D01*
X9340000Y-12800000D02*
X9340000Y-12840000D01*
X9320000Y-12820000D02*
X9360000Y-12820000D01*
X9340000Y-12950000D02*
X9340000Y-12990000D01*
X9320000Y-12970000D02*
X9360000Y-12970000D01*
X9604000Y-12800000D02*
X9604000Y-12840000D01*
X9584000Y-12820000D02*
X9624000Y-12820000D01*
X9604000Y-12950000D02*
X9604000Y-12990000D01*
X9584000Y-12970000D02*
X9624000Y-12970000D01*
X9620000Y-11330000D02*
X9620000Y-11370000D01*
X9600000Y-11350000D02*
X9640000Y-11350000D01*
X9868000Y-12800000D02*
X9868000Y-12840000D01*
X9848000Y-12820000D02*
X9888000Y-12820000D01*
X9868000Y-12950000D02*
X9868000Y-12990000D01*
X9848000Y-12970000D02*
X9888000Y-12970000D01*
X10132000Y-12800000D02*
X10132000Y-12840000D01*
X10112000Y-12820000D02*
X10152000Y-12820000D01*
X10132000Y-12950000D02*
X10132000Y-12990000D01*
X10112000Y-12970000D02*
X10152000Y-12970000D01*
X10396000Y-12800000D02*
X10396000Y-12840000D01*
X10376000Y-12820000D02*
X10416000Y-12820000D01*
X10396000Y-12950000D02*
X10396000Y-12990000D01*
X10376000Y-12970000D02*
X10416000Y-12970000D01*
X10610000Y-11610000D02*
X10610000Y-11650000D01*
X10590000Y-11630000D02*
X10630000Y-11630000D01*
X10660000Y-12800000D02*
X10660000Y-12840000D01*
X10640000Y-12820000D02*
X10680000Y-12820000D01*
X10660000Y-12950000D02*
X10660000Y-12990000D01*
X10640000Y-12970000D02*
X10680000Y-12970000D01*
X10950000Y-11960000D02*
X10950000Y-12000000D01*
X10930000Y-11980000D02*
X10970000Y-11980000D01*
X11020000Y-11635000D02*
X11020000Y-11675000D01*
X11000000Y-11655000D02*
X11040000Y-11655000D01*
X11040000Y-11870000D02*
X11040000Y-11910000D01*
X11020000Y-11890000D02*
X11060000Y-11890000D01*
X11120000Y-9240000D02*
X11120000Y-9280000D01*
X11100000Y-9260000D02*
X11140000Y-9260000D01*
X11120000Y-9360000D02*
X11120000Y-9400000D01*
X11100000Y-9380000D02*
X11140000Y-9380000D01*
X11120000Y-9480000D02*
X11120000Y-9520000D01*
X11100000Y-9500000D02*
X11140000Y-9500000D01*
X11130000Y-11780000D02*
X11130000Y-11820000D01*
X11110000Y-11800000D02*
X11150000Y-11800000D01*
X11280000Y-9240000D02*
X11280000Y-9280000D01*
X11260000Y-9260000D02*
X11300000Y-9260000D01*
X11280000Y-9360000D02*
X11280000Y-9400000D01*
X11260000Y-9380000D02*
X11300000Y-9380000D01*
X11280000Y-9480000D02*
X11280000Y-9520000D01*
X11260000Y-9500000D02*
X11300000Y-9500000D01*
X11280000Y-9600000D02*
X11280000Y-9640000D01*
X11260000Y-9620000D02*
X11300000Y-9620000D01*
X11510000Y-10650000D02*
X11510000Y-10690000D01*
X11490000Y-10670000D02*
X11530000Y-10670000D01*
X11510000Y-10990000D02*
X11510000Y-11030000D01*
X11490000Y-11010000D02*
X11530000Y-11010000D01*
X11650000Y-10190000D02*
X11650000Y-10230000D01*
X11630000Y-10210000D02*
X11670000Y-10210000D01*
X11790000Y-10650000D02*
X11790000Y-10690000D01*
X11770000Y-10670000D02*
X11810000Y-10670000D01*
X11790000Y-10990000D02*
X11790000Y-11030000D01*
X11770000Y-11010000D02*
X11810000Y-11010000D01*
X8395356Y-9295356D02*
X8395356Y-9224644D01*
X8324644Y-9224644D01*
X8324644Y-9295356D01*
X8395356Y-9295356D01*
X8395356Y-10795356D02*
X8395356Y-10724644D01*
X8324644Y-10724644D01*
X8324644Y-10795356D01*
X8395356Y-10795356D01*
X9735356Y-8735356D02*
X9735356Y-8664644D01*
X9664644Y-8664644D01*
X9664644Y-8735356D01*
X9735356Y-8735356D01*
X10035356Y-8735356D02*
X10035356Y-8664644D01*
X9964644Y-8664644D01*
X9964644Y-8735356D01*
X10035356Y-8735356D01*
X10335356Y-8735356D02*
X10335356Y-8664644D01*
X10264644Y-8664644D01*
X10264644Y-8735356D01*
X10335356Y-8735356D01*
X11535356Y-9080356D02*
X11535356Y-9009644D01*
X11464644Y-9009644D01*
X11464644Y-9080356D01*
X11535356Y-9080356D01*
X11535356Y-9334356D02*
X11535356Y-9263644D01*
X11464644Y-9263644D01*
X11464644Y-9334356D01*
X11535356Y-9334356D01*
X11535356Y-9588356D02*
X11535356Y-9517644D01*
X11464644Y-9517644D01*
X11464644Y-9588356D01*
X11535356Y-9588356D01*
X11789356Y-9080356D02*
X11789356Y-9009644D01*
X11718644Y-9009644D01*
X11718644Y-9080356D01*
X11789356Y-9080356D01*
X11789356Y-9334356D02*
X11789356Y-9263644D01*
X11718644Y-9263644D01*
X11718644Y-9334356D01*
X11789356Y-9334356D01*
X11789356Y-9588356D02*
X11789356Y-9517644D01*
X11718644Y-9517644D01*
X11718644Y-9588356D01*
X11789356Y-9588356D01*
X7450000Y-8967000D02*
X7505000Y-8912000D01*
X7450000Y-8857000D01*
X7395000Y-8912000D01*
X7450000Y-8967000D01*
X7450000Y-9221000D02*
X7505000Y-9166000D01*
X7450000Y-9111000D01*
X7395000Y-9166000D01*
X7450000Y-9221000D01*
X7450000Y-9475000D02*
X7505000Y-9420000D01*
X7450000Y-9365000D01*
X7395000Y-9420000D01*
X7450000Y-9475000D01*
X7450000Y-9729000D02*
X7505000Y-9674000D01*
X7450000Y-9619000D01*
X7395000Y-9674000D01*
X7450000Y-9729000D01*
X7450000Y-10384000D02*
X7505000Y-10329000D01*
X7450000Y-10274000D01*
X7395000Y-10329000D01*
X7450000Y-10384000D01*
X7450000Y-10638000D02*
X7505000Y-10583000D01*
X7450000Y-10528000D01*
X7395000Y-10583000D01*
X7450000Y-10638000D01*
X7450000Y-10892000D02*
X7505000Y-10837000D01*
X7450000Y-10782000D01*
X7395000Y-10837000D01*
X7450000Y-10892000D01*
X7450000Y-11146000D02*
X7505000Y-11091000D01*
X7450000Y-11036000D01*
X7395000Y-11091000D01*
X7450000Y-11146000D01*
X9619000Y-12655000D02*
X9674000Y-12600000D01*
X9619000Y-12545000D01*
X9564000Y-12600000D01*
X9619000Y-12655000D01*
X9873000Y-12655000D02*
X9928000Y-12600000D01*
X9873000Y-12545000D01*
X9818000Y-12600000D01*
X9873000Y-12655000D01*
X10127000Y-12655000D02*
X10182000Y-12600000D01*
X10127000Y-12545000D01*
X10072000Y-12600000D01*
X10127000Y-12655000D01*
X10381000Y-12655000D02*
X10436000Y-12600000D01*
X10381000Y-12545000D01*
X10326000Y-12600000D01*
X10381000Y-12655000D01*
X8903000Y-10515000D02*
X9053000Y-10665000D01*
X9053000Y-10515000D02*
X8903000Y-10665000D01*
X9053000Y-10590000D02*
G75*
G03*
X9053000Y-10590000I-75000J0D01*
G01*
X10947000Y-10515000D02*
X11097000Y-10665000D01*
X11097000Y-10515000D02*
X10947000Y-10665000D01*
X11097000Y-10590000D02*
G75*
G03*
X11097000Y-10590000I-75000J0D01*
G01*
X9045000Y-9895000D02*
X9255000Y-10105000D01*
X9255000Y-9895000D02*
X9045000Y-10105000D01*
X9150000Y-9895000D02*
X9150000Y-10105000D01*
X9045000Y-10000000D02*
X9255000Y-10000000D01*
X10745000Y-9895000D02*
X10955000Y-10105000D01*
X10955000Y-9895000D02*
X10745000Y-10105000D01*
X10850000Y-9895000D02*
X10850000Y-10105000D01*
X10745000Y-10000000D02*
X10955000Y-10000000D01*
D13*
X7168928Y-13583214D02*
X7168928Y-13283214D01*
X7240357Y-13283214D01*
X7283214Y-13297500D01*
X7311786Y-13326071D01*
X7326071Y-13354643D01*
X7340357Y-13411786D01*
X7340357Y-13454643D01*
X7326071Y-13511786D01*
X7311786Y-13540357D01*
X7283214Y-13568929D01*
X7240357Y-13583214D01*
X7168928Y-13583214D01*
X7468928Y-13583214D02*
X7468928Y-13383214D01*
X7468928Y-13440357D02*
X7483214Y-13411786D01*
X7497500Y-13397500D01*
X7526071Y-13383214D01*
X7554643Y-13383214D01*
X7654643Y-13583214D02*
X7654643Y-13383214D01*
X7654643Y-13283214D02*
X7640357Y-13297500D01*
X7654643Y-13311786D01*
X7668928Y-13297500D01*
X7654643Y-13283214D01*
X7654643Y-13311786D01*
X7840357Y-13583214D02*
X7811786Y-13568929D01*
X7797500Y-13540357D01*
X7797500Y-13283214D01*
X7997500Y-13583214D02*
X7968928Y-13568929D01*
X7954643Y-13540357D01*
X7954643Y-13283214D01*
X8340357Y-13583214D02*
X8340357Y-13283214D01*
X8440357Y-13497500D01*
X8540357Y-13283214D01*
X8540357Y-13583214D01*
X8811786Y-13583214D02*
X8811786Y-13426071D01*
X8797500Y-13397500D01*
X8768928Y-13383214D01*
X8711786Y-13383214D01*
X8683214Y-13397500D01*
X8811786Y-13568929D02*
X8783214Y-13583214D01*
X8711786Y-13583214D01*
X8683214Y-13568929D01*
X8668928Y-13540357D01*
X8668928Y-13511786D01*
X8683214Y-13483214D01*
X8711786Y-13468929D01*
X8783214Y-13468929D01*
X8811786Y-13454643D01*
X8954643Y-13383214D02*
X8954643Y-13683214D01*
X8954643Y-13397500D02*
X8983214Y-13383214D01*
X9040357Y-13383214D01*
X9068928Y-13397500D01*
X9083214Y-13411786D01*
X9097500Y-13440357D01*
X9097500Y-13526071D01*
X9083214Y-13554643D01*
X9068928Y-13568929D01*
X9040357Y-13583214D01*
X8983214Y-13583214D01*
X8954643Y-13568929D01*
X9226071Y-13554643D02*
X9240357Y-13568929D01*
X9226071Y-13583214D01*
X9211786Y-13568929D01*
X9226071Y-13554643D01*
X9226071Y-13583214D01*
X9226071Y-13397500D02*
X9240357Y-13411786D01*
X9226071Y-13426071D01*
X9211786Y-13411786D01*
X9226071Y-13397500D01*
X9226071Y-13426071D01*
X6862500Y-14067500D02*
X6882500Y-14087500D01*
X6882500Y-14067500D02*
X6862500Y-14087500D01*
X7226071Y-13913214D02*
X7254643Y-13913214D01*
X7283214Y-13927500D01*
X7297500Y-13941786D01*
X7311786Y-13970357D01*
X7326071Y-14027500D01*
X7326071Y-14098929D01*
X7311786Y-14156071D01*
X7297500Y-14184643D01*
X7283214Y-14198929D01*
X7254643Y-14213214D01*
X7226071Y-14213214D01*
X7197500Y-14198929D01*
X7183214Y-14184643D01*
X7168928Y-14156071D01*
X7154643Y-14098929D01*
X7154643Y-14027500D01*
X7168928Y-13970357D01*
X7183214Y-13941786D01*
X7197500Y-13927500D01*
X7226071Y-13913214D01*
X7454643Y-14184643D02*
X7468928Y-14198929D01*
X7454643Y-14213214D01*
X7440357Y-14198929D01*
X7454643Y-14184643D01*
X7454643Y-14213214D01*
X7583214Y-13941786D02*
X7597500Y-13927500D01*
X7626071Y-13913214D01*
X7697500Y-13913214D01*
X7726071Y-13927500D01*
X7740357Y-13941786D01*
X7754643Y-13970357D01*
X7754643Y-13998929D01*
X7740357Y-14041786D01*
X7568928Y-14213214D01*
X7754643Y-14213214D01*
X7940357Y-13913214D02*
X7968928Y-13913214D01*
X7997500Y-13927500D01*
X8011786Y-13941786D01*
X8026071Y-13970357D01*
X8040357Y-14027500D01*
X8040357Y-14098929D01*
X8026071Y-14156071D01*
X8011786Y-14184643D01*
X7997500Y-14198929D01*
X7968928Y-14213214D01*
X7940357Y-14213214D01*
X7911786Y-14198929D01*
X7897500Y-14184643D01*
X7883214Y-14156071D01*
X7868928Y-14098929D01*
X7868928Y-14027500D01*
X7883214Y-13970357D01*
X7897500Y-13941786D01*
X7911786Y-13927500D01*
X7940357Y-13913214D01*
X8226071Y-13913214D02*
X8254643Y-13913214D01*
X8283214Y-13927500D01*
X8297500Y-13941786D01*
X8311786Y-13970357D01*
X8326071Y-14027500D01*
X8326071Y-14098929D01*
X8311786Y-14156071D01*
X8297500Y-14184643D01*
X8283214Y-14198929D01*
X8254643Y-14213214D01*
X8226071Y-14213214D01*
X8197500Y-14198929D01*
X8183214Y-14184643D01*
X8168928Y-14156071D01*
X8154643Y-14098929D01*
X8154643Y-14027500D01*
X8168928Y-13970357D01*
X8183214Y-13941786D01*
X8197500Y-13927500D01*
X8226071Y-13913214D01*
X8454643Y-14213214D02*
X8454643Y-14013214D01*
X8454643Y-14041786D02*
X8468928Y-14027500D01*
X8497500Y-14013214D01*
X8540357Y-14013214D01*
X8568928Y-14027500D01*
X8583214Y-14056071D01*
X8583214Y-14213214D01*
X8583214Y-14056071D02*
X8597500Y-14027500D01*
X8626071Y-14013214D01*
X8668928Y-14013214D01*
X8697500Y-14027500D01*
X8711786Y-14056071D01*
X8711786Y-14213214D01*
X8854643Y-14213214D02*
X8854643Y-14013214D01*
X8854643Y-14041786D02*
X8868928Y-14027500D01*
X8897500Y-14013214D01*
X8940357Y-14013214D01*
X8968928Y-14027500D01*
X8983214Y-14056071D01*
X8983214Y-14213214D01*
X8983214Y-14056071D02*
X8997500Y-14027500D01*
X9026071Y-14013214D01*
X9068928Y-14013214D01*
X9097500Y-14027500D01*
X9111786Y-14056071D01*
X9111786Y-14213214D01*
X9697500Y-13898929D02*
X9440357Y-14284643D01*
X10083214Y-13913214D02*
X10111786Y-13913214D01*
X10140357Y-13927500D01*
X10154643Y-13941786D01*
X10168928Y-13970357D01*
X10183214Y-14027500D01*
X10183214Y-14098929D01*
X10168928Y-14156071D01*
X10154643Y-14184643D01*
X10140357Y-14198929D01*
X10111786Y-14213214D01*
X10083214Y-14213214D01*
X10054643Y-14198929D01*
X10040357Y-14184643D01*
X10026071Y-14156071D01*
X10011786Y-14098929D01*
X10011786Y-14027500D01*
X10026071Y-13970357D01*
X10040357Y-13941786D01*
X10054643Y-13927500D01*
X10083214Y-13913214D01*
X10311786Y-14184643D02*
X10326071Y-14198929D01*
X10311786Y-14213214D01*
X10297500Y-14198929D01*
X10311786Y-14184643D01*
X10311786Y-14213214D01*
X10511786Y-13913214D02*
X10540357Y-13913214D01*
X10568928Y-13927500D01*
X10583214Y-13941786D01*
X10597500Y-13970357D01*
X10611786Y-14027500D01*
X10611786Y-14098929D01*
X10597500Y-14156071D01*
X10583214Y-14184643D01*
X10568928Y-14198929D01*
X10540357Y-14213214D01*
X10511786Y-14213214D01*
X10483214Y-14198929D01*
X10468928Y-14184643D01*
X10454643Y-14156071D01*
X10440357Y-14098929D01*
X10440357Y-14027500D01*
X10454643Y-13970357D01*
X10468928Y-13941786D01*
X10483214Y-13927500D01*
X10511786Y-13913214D01*
X10797500Y-13913214D02*
X10826071Y-13913214D01*
X10854643Y-13927500D01*
X10868928Y-13941786D01*
X10883214Y-13970357D01*
X10897500Y-14027500D01*
X10897500Y-14098929D01*
X10883214Y-14156071D01*
X10868928Y-14184643D01*
X10854643Y-14198929D01*
X10826071Y-14213214D01*
X10797500Y-14213214D01*
X10768928Y-14198929D01*
X10754643Y-14184643D01*
X10740357Y-14156071D01*
X10726071Y-14098929D01*
X10726071Y-14027500D01*
X10740357Y-13970357D01*
X10754643Y-13941786D01*
X10768928Y-13927500D01*
X10797500Y-13913214D01*
X10997500Y-13913214D02*
X11197500Y-13913214D01*
X11068928Y-14213214D01*
X11326071Y-14213214D02*
X11383214Y-14213214D01*
X11411786Y-14198929D01*
X11426071Y-14184643D01*
X11454643Y-14141786D01*
X11468928Y-14084643D01*
X11468928Y-13970357D01*
X11454643Y-13941786D01*
X11440357Y-13927500D01*
X11411786Y-13913214D01*
X11354643Y-13913214D01*
X11326071Y-13927500D01*
X11311786Y-13941786D01*
X11297500Y-13970357D01*
X11297500Y-14041786D01*
X11311786Y-14070357D01*
X11326071Y-14084643D01*
X11354643Y-14098929D01*
X11411786Y-14098929D01*
X11440357Y-14084643D01*
X11454643Y-14070357D01*
X11468928Y-14041786D01*
X11583214Y-13913214D02*
X11583214Y-13970357D01*
X11697500Y-13913214D02*
X11697500Y-13970357D01*
X12140357Y-14327500D02*
X12126071Y-14313214D01*
X12097500Y-14270357D01*
X12083214Y-14241786D01*
X12068928Y-14198929D01*
X12054643Y-14127500D01*
X12054643Y-14070357D01*
X12068928Y-13998929D01*
X12083214Y-13956071D01*
X12097500Y-13927500D01*
X12126071Y-13884643D01*
X12140357Y-13870357D01*
X12383214Y-13913214D02*
X12326071Y-13913214D01*
X12297500Y-13927500D01*
X12283214Y-13941786D01*
X12254643Y-13984643D01*
X12240357Y-14041786D01*
X12240357Y-14156071D01*
X12254643Y-14184643D01*
X12268928Y-14198929D01*
X12297500Y-14213214D01*
X12354643Y-14213214D01*
X12383214Y-14198929D01*
X12397500Y-14184643D01*
X12411786Y-14156071D01*
X12411786Y-14084643D01*
X12397500Y-14056071D01*
X12383214Y-14041786D01*
X12354643Y-14027500D01*
X12297500Y-14027500D01*
X12268928Y-14041786D01*
X12254643Y-14056071D01*
X12240357Y-14084643D01*
X12668928Y-14013214D02*
X12668928Y-14213214D01*
X12597500Y-13898929D02*
X12526071Y-14113214D01*
X12711786Y-14113214D01*
X13054643Y-14213214D02*
X13054643Y-13913214D01*
X13183214Y-14213214D02*
X13183214Y-14056071D01*
X13168928Y-14027500D01*
X13140357Y-14013214D01*
X13097500Y-14013214D01*
X13068928Y-14027500D01*
X13054643Y-14041786D01*
X13368928Y-14213214D02*
X13340357Y-14198929D01*
X13326071Y-14184643D01*
X13311786Y-14156071D01*
X13311786Y-14070357D01*
X13326071Y-14041786D01*
X13340357Y-14027500D01*
X13368928Y-14013214D01*
X13411786Y-14013214D01*
X13440357Y-14027500D01*
X13454643Y-14041786D01*
X13468928Y-14070357D01*
X13468928Y-14156071D01*
X13454643Y-14184643D01*
X13440357Y-14198929D01*
X13411786Y-14213214D01*
X13368928Y-14213214D01*
X13640357Y-14213214D02*
X13611786Y-14198929D01*
X13597500Y-14170357D01*
X13597500Y-13913214D01*
X13868928Y-14198929D02*
X13840357Y-14213214D01*
X13783214Y-14213214D01*
X13754643Y-14198929D01*
X13740357Y-14170357D01*
X13740357Y-14056071D01*
X13754643Y-14027500D01*
X13783214Y-14013214D01*
X13840357Y-14013214D01*
X13868928Y-14027500D01*
X13883214Y-14056071D01*
X13883214Y-14084643D01*
X13740357Y-14113214D01*
X13997500Y-14198929D02*
X14026071Y-14213214D01*
X14083214Y-14213214D01*
X14111786Y-14198929D01*
X14126071Y-14170357D01*
X14126071Y-14156071D01*
X14111786Y-14127500D01*
X14083214Y-14113214D01*
X14040357Y-14113214D01*
X14011786Y-14098929D01*
X13997500Y-14070357D01*
X13997500Y-14056071D01*
X14011786Y-14027500D01*
X14040357Y-14013214D01*
X14083214Y-14013214D01*
X14111786Y-14027500D01*
X14226071Y-14327500D02*
X14240357Y-14313214D01*
X14268928Y-14270357D01*
X14283214Y-14241786D01*
X14297500Y-14198929D01*
X14311786Y-14127500D01*
X14311786Y-14070357D01*
X14297500Y-13998929D01*
X14283214Y-13956071D01*
X14268928Y-13927500D01*
X14240357Y-13884643D01*
X14226071Y-13870357D01*
X6882500Y-14473500D02*
G75*
G03*
X6882500Y-14473500I-15000J0D01*
G01*
X7226071Y-14309214D02*
X7254643Y-14309214D01*
X7283214Y-14323500D01*
X7297500Y-14337786D01*
X7311786Y-14366357D01*
X7326071Y-14423500D01*
X7326071Y-14494929D01*
X7311786Y-14552071D01*
X7297500Y-14580643D01*
X7283214Y-14594929D01*
X7254643Y-14609214D01*
X7226071Y-14609214D01*
X7197500Y-14594929D01*
X7183214Y-14580643D01*
X7168928Y-14552071D01*
X7154643Y-14494929D01*
X7154643Y-14423500D01*
X7168928Y-14366357D01*
X7183214Y-14337786D01*
X7197500Y-14323500D01*
X7226071Y-14309214D01*
X7454643Y-14580643D02*
X7468928Y-14594929D01*
X7454643Y-14609214D01*
X7440357Y-14594929D01*
X7454643Y-14580643D01*
X7454643Y-14609214D01*
X7568928Y-14309214D02*
X7754643Y-14309214D01*
X7654643Y-14423500D01*
X7697500Y-14423500D01*
X7726071Y-14437786D01*
X7740357Y-14452071D01*
X7754643Y-14480643D01*
X7754643Y-14552071D01*
X7740357Y-14580643D01*
X7726071Y-14594929D01*
X7697500Y-14609214D01*
X7611786Y-14609214D01*
X7583214Y-14594929D01*
X7568928Y-14580643D01*
X7940357Y-14309214D02*
X7968928Y-14309214D01*
X7997500Y-14323500D01*
X8011786Y-14337786D01*
X8026071Y-14366357D01*
X8040357Y-14423500D01*
X8040357Y-14494929D01*
X8026071Y-14552071D01*
X8011786Y-14580643D01*
X7997500Y-14594929D01*
X7968928Y-14609214D01*
X7940357Y-14609214D01*
X7911786Y-14594929D01*
X7897500Y-14580643D01*
X7883214Y-14552071D01*
X7868928Y-14494929D01*
X7868928Y-14423500D01*
X7883214Y-14366357D01*
X7897500Y-14337786D01*
X7911786Y-14323500D01*
X7940357Y-14309214D01*
X8226071Y-14309214D02*
X8254643Y-14309214D01*
X8283214Y-14323500D01*
X8297500Y-14337786D01*
X8311786Y-14366357D01*
X8326071Y-14423500D01*
X8326071Y-14494929D01*
X8311786Y-14552071D01*
X8297500Y-14580643D01*
X8283214Y-14594929D01*
X8254643Y-14609214D01*
X8226071Y-14609214D01*
X8197500Y-14594929D01*
X8183214Y-14580643D01*
X8168928Y-14552071D01*
X8154643Y-14494929D01*
X8154643Y-14423500D01*
X8168928Y-14366357D01*
X8183214Y-14337786D01*
X8197500Y-14323500D01*
X8226071Y-14309214D01*
X8454643Y-14609214D02*
X8454643Y-14409214D01*
X8454643Y-14437786D02*
X8468928Y-14423500D01*
X8497500Y-14409214D01*
X8540357Y-14409214D01*
X8568928Y-14423500D01*
X8583214Y-14452071D01*
X8583214Y-14609214D01*
X8583214Y-14452071D02*
X8597500Y-14423500D01*
X8626071Y-14409214D01*
X8668928Y-14409214D01*
X8697500Y-14423500D01*
X8711786Y-14452071D01*
X8711786Y-14609214D01*
X8854643Y-14609214D02*
X8854643Y-14409214D01*
X8854643Y-14437786D02*
X8868928Y-14423500D01*
X8897500Y-14409214D01*
X8940357Y-14409214D01*
X8968928Y-14423500D01*
X8983214Y-14452071D01*
X8983214Y-14609214D01*
X8983214Y-14452071D02*
X8997500Y-14423500D01*
X9026071Y-14409214D01*
X9068928Y-14409214D01*
X9097500Y-14423500D01*
X9111786Y-14452071D01*
X9111786Y-14609214D01*
X9697500Y-14294929D02*
X9440357Y-14680643D01*
X10083214Y-14309214D02*
X10111786Y-14309214D01*
X10140357Y-14323500D01*
X10154643Y-14337786D01*
X10168928Y-14366357D01*
X10183214Y-14423500D01*
X10183214Y-14494929D01*
X10168928Y-14552071D01*
X10154643Y-14580643D01*
X10140357Y-14594929D01*
X10111786Y-14609214D01*
X10083214Y-14609214D01*
X10054643Y-14594929D01*
X10040357Y-14580643D01*
X10026071Y-14552071D01*
X10011786Y-14494929D01*
X10011786Y-14423500D01*
X10026071Y-14366357D01*
X10040357Y-14337786D01*
X10054643Y-14323500D01*
X10083214Y-14309214D01*
X10311786Y-14580643D02*
X10326071Y-14594929D01*
X10311786Y-14609214D01*
X10297500Y-14594929D01*
X10311786Y-14580643D01*
X10311786Y-14609214D01*
X10511786Y-14309214D02*
X10540357Y-14309214D01*
X10568928Y-14323500D01*
X10583214Y-14337786D01*
X10597500Y-14366357D01*
X10611786Y-14423500D01*
X10611786Y-14494929D01*
X10597500Y-14552071D01*
X10583214Y-14580643D01*
X10568928Y-14594929D01*
X10540357Y-14609214D01*
X10511786Y-14609214D01*
X10483214Y-14594929D01*
X10468928Y-14580643D01*
X10454643Y-14552071D01*
X10440357Y-14494929D01*
X10440357Y-14423500D01*
X10454643Y-14366357D01*
X10468928Y-14337786D01*
X10483214Y-14323500D01*
X10511786Y-14309214D01*
X10897500Y-14609214D02*
X10726071Y-14609214D01*
X10811786Y-14609214D02*
X10811786Y-14309214D01*
X10783214Y-14352071D01*
X10754643Y-14380643D01*
X10726071Y-14394929D01*
X11183214Y-14609214D02*
X11011786Y-14609214D01*
X11097500Y-14609214D02*
X11097500Y-14309214D01*
X11068928Y-14352071D01*
X11040357Y-14380643D01*
X11011786Y-14394929D01*
X11354643Y-14437786D02*
X11326071Y-14423500D01*
X11311786Y-14409214D01*
X11297500Y-14380643D01*
X11297500Y-14366357D01*
X11311786Y-14337786D01*
X11326071Y-14323500D01*
X11354643Y-14309214D01*
X11411786Y-14309214D01*
X11440357Y-14323500D01*
X11454643Y-14337786D01*
X11468928Y-14366357D01*
X11468928Y-14380643D01*
X11454643Y-14409214D01*
X11440357Y-14423500D01*
X11411786Y-14437786D01*
X11354643Y-14437786D01*
X11326071Y-14452071D01*
X11311786Y-14466357D01*
X11297500Y-14494929D01*
X11297500Y-14552071D01*
X11311786Y-14580643D01*
X11326071Y-14594929D01*
X11354643Y-14609214D01*
X11411786Y-14609214D01*
X11440357Y-14594929D01*
X11454643Y-14580643D01*
X11468928Y-14552071D01*
X11468928Y-14494929D01*
X11454643Y-14466357D01*
X11440357Y-14452071D01*
X11411786Y-14437786D01*
X11583214Y-14309214D02*
X11583214Y-14366357D01*
X11697500Y-14309214D02*
X11697500Y-14366357D01*
X12140357Y-14723500D02*
X12126071Y-14709214D01*
X12097500Y-14666357D01*
X12083214Y-14637786D01*
X12068928Y-14594929D01*
X12054643Y-14523500D01*
X12054643Y-14466357D01*
X12068928Y-14394929D01*
X12083214Y-14352071D01*
X12097500Y-14323500D01*
X12126071Y-14280643D01*
X12140357Y-14266357D01*
X12297500Y-14437786D02*
X12268928Y-14423500D01*
X12254643Y-14409214D01*
X12240357Y-14380643D01*
X12240357Y-14366357D01*
X12254643Y-14337786D01*
X12268928Y-14323500D01*
X12297500Y-14309214D01*
X12354643Y-14309214D01*
X12383214Y-14323500D01*
X12397500Y-14337786D01*
X12411786Y-14366357D01*
X12411786Y-14380643D01*
X12397500Y-14409214D01*
X12383214Y-14423500D01*
X12354643Y-14437786D01*
X12297500Y-14437786D01*
X12268928Y-14452071D01*
X12254643Y-14466357D01*
X12240357Y-14494929D01*
X12240357Y-14552071D01*
X12254643Y-14580643D01*
X12268928Y-14594929D01*
X12297500Y-14609214D01*
X12354643Y-14609214D01*
X12383214Y-14594929D01*
X12397500Y-14580643D01*
X12411786Y-14552071D01*
X12411786Y-14494929D01*
X12397500Y-14466357D01*
X12383214Y-14452071D01*
X12354643Y-14437786D01*
X12768928Y-14609214D02*
X12768928Y-14309214D01*
X12897500Y-14609214D02*
X12897500Y-14452071D01*
X12883214Y-14423500D01*
X12854643Y-14409214D01*
X12811786Y-14409214D01*
X12783214Y-14423500D01*
X12768928Y-14437786D01*
X13083214Y-14609214D02*
X13054643Y-14594929D01*
X13040357Y-14580643D01*
X13026071Y-14552071D01*
X13026071Y-14466357D01*
X13040357Y-14437786D01*
X13054643Y-14423500D01*
X13083214Y-14409214D01*
X13126071Y-14409214D01*
X13154643Y-14423500D01*
X13168928Y-14437786D01*
X13183214Y-14466357D01*
X13183214Y-14552071D01*
X13168928Y-14580643D01*
X13154643Y-14594929D01*
X13126071Y-14609214D01*
X13083214Y-14609214D01*
X13354643Y-14609214D02*
X13326071Y-14594929D01*
X13311786Y-14566357D01*
X13311786Y-14309214D01*
X13583214Y-14594929D02*
X13554643Y-14609214D01*
X13497500Y-14609214D01*
X13468928Y-14594929D01*
X13454643Y-14566357D01*
X13454643Y-14452071D01*
X13468928Y-14423500D01*
X13497500Y-14409214D01*
X13554643Y-14409214D01*
X13583214Y-14423500D01*
X13597500Y-14452071D01*
X13597500Y-14480643D01*
X13454643Y-14509214D01*
X13711786Y-14594929D02*
X13740357Y-14609214D01*
X13797500Y-14609214D01*
X13826071Y-14594929D01*
X13840357Y-14566357D01*
X13840357Y-14552071D01*
X13826071Y-14523500D01*
X13797500Y-14509214D01*
X13754643Y-14509214D01*
X13726071Y-14494929D01*
X13711786Y-14466357D01*
X13711786Y-14452071D01*
X13726071Y-14423500D01*
X13754643Y-14409214D01*
X13797500Y-14409214D01*
X13826071Y-14423500D01*
X13940357Y-14723500D02*
X13954643Y-14709214D01*
X13983214Y-14666357D01*
X13997500Y-14637786D01*
X14011786Y-14594929D01*
X14026071Y-14523500D01*
X14026071Y-14466357D01*
X14011786Y-14394929D01*
X13997500Y-14352071D01*
X13983214Y-14323500D01*
X13954643Y-14280643D01*
X13940357Y-14266357D01*
X6862500Y-14849500D02*
X6862500Y-14889500D01*
X6842500Y-14869500D02*
X6882500Y-14869500D01*
X7226071Y-14705214D02*
X7254643Y-14705214D01*
X7283214Y-14719500D01*
X7297500Y-14733786D01*
X7311786Y-14762357D01*
X7326071Y-14819500D01*
X7326071Y-14890929D01*
X7311786Y-14948071D01*
X7297500Y-14976643D01*
X7283214Y-14990929D01*
X7254643Y-15005214D01*
X7226071Y-15005214D01*
X7197500Y-14990929D01*
X7183214Y-14976643D01*
X7168928Y-14948071D01*
X7154643Y-14890929D01*
X7154643Y-14819500D01*
X7168928Y-14762357D01*
X7183214Y-14733786D01*
X7197500Y-14719500D01*
X7226071Y-14705214D01*
X7454643Y-14976643D02*
X7468928Y-14990929D01*
X7454643Y-15005214D01*
X7440357Y-14990929D01*
X7454643Y-14976643D01*
X7454643Y-15005214D01*
X7726071Y-14805214D02*
X7726071Y-15005214D01*
X7654643Y-14690929D02*
X7583214Y-14905214D01*
X7768928Y-14905214D01*
X7940357Y-14705214D02*
X7968928Y-14705214D01*
X7997500Y-14719500D01*
X8011786Y-14733786D01*
X8026071Y-14762357D01*
X8040357Y-14819500D01*
X8040357Y-14890929D01*
X8026071Y-14948071D01*
X8011786Y-14976643D01*
X7997500Y-14990929D01*
X7968928Y-15005214D01*
X7940357Y-15005214D01*
X7911786Y-14990929D01*
X7897500Y-14976643D01*
X7883214Y-14948071D01*
X7868928Y-14890929D01*
X7868928Y-14819500D01*
X7883214Y-14762357D01*
X7897500Y-14733786D01*
X7911786Y-14719500D01*
X7940357Y-14705214D01*
X8226071Y-14705214D02*
X8254643Y-14705214D01*
X8283214Y-14719500D01*
X8297500Y-14733786D01*
X8311786Y-14762357D01*
X8326071Y-14819500D01*
X8326071Y-14890929D01*
X8311786Y-14948071D01*
X8297500Y-14976643D01*
X8283214Y-14990929D01*
X8254643Y-15005214D01*
X8226071Y-15005214D01*
X8197500Y-14990929D01*
X8183214Y-14976643D01*
X8168928Y-14948071D01*
X8154643Y-14890929D01*
X8154643Y-14819500D01*
X8168928Y-14762357D01*
X8183214Y-14733786D01*
X8197500Y-14719500D01*
X8226071Y-14705214D01*
X8454643Y-15005214D02*
X8454643Y-14805214D01*
X8454643Y-14833786D02*
X8468928Y-14819500D01*
X8497500Y-14805214D01*
X8540357Y-14805214D01*
X8568928Y-14819500D01*
X8583214Y-14848071D01*
X8583214Y-15005214D01*
X8583214Y-14848071D02*
X8597500Y-14819500D01*
X8626071Y-14805214D01*
X8668928Y-14805214D01*
X8697500Y-14819500D01*
X8711786Y-14848071D01*
X8711786Y-15005214D01*
X8854643Y-15005214D02*
X8854643Y-14805214D01*
X8854643Y-14833786D02*
X8868928Y-14819500D01*
X8897500Y-14805214D01*
X8940357Y-14805214D01*
X8968928Y-14819500D01*
X8983214Y-14848071D01*
X8983214Y-15005214D01*
X8983214Y-14848071D02*
X8997500Y-14819500D01*
X9026071Y-14805214D01*
X9068928Y-14805214D01*
X9097500Y-14819500D01*
X9111786Y-14848071D01*
X9111786Y-15005214D01*
X9697500Y-14690929D02*
X9440357Y-15076643D01*
X10083214Y-14705214D02*
X10111786Y-14705214D01*
X10140357Y-14719500D01*
X10154643Y-14733786D01*
X10168928Y-14762357D01*
X10183214Y-14819500D01*
X10183214Y-14890929D01*
X10168928Y-14948071D01*
X10154643Y-14976643D01*
X10140357Y-14990929D01*
X10111786Y-15005214D01*
X10083214Y-15005214D01*
X10054643Y-14990929D01*
X10040357Y-14976643D01*
X10026071Y-14948071D01*
X10011786Y-14890929D01*
X10011786Y-14819500D01*
X10026071Y-14762357D01*
X10040357Y-14733786D01*
X10054643Y-14719500D01*
X10083214Y-14705214D01*
X10311786Y-14976643D02*
X10326071Y-14990929D01*
X10311786Y-15005214D01*
X10297500Y-14990929D01*
X10311786Y-14976643D01*
X10311786Y-15005214D01*
X10511786Y-14705214D02*
X10540357Y-14705214D01*
X10568928Y-14719500D01*
X10583214Y-14733786D01*
X10597500Y-14762357D01*
X10611786Y-14819500D01*
X10611786Y-14890929D01*
X10597500Y-14948071D01*
X10583214Y-14976643D01*
X10568928Y-14990929D01*
X10540357Y-15005214D01*
X10511786Y-15005214D01*
X10483214Y-14990929D01*
X10468928Y-14976643D01*
X10454643Y-14948071D01*
X10440357Y-14890929D01*
X10440357Y-14819500D01*
X10454643Y-14762357D01*
X10468928Y-14733786D01*
X10483214Y-14719500D01*
X10511786Y-14705214D01*
X10897500Y-15005214D02*
X10726071Y-15005214D01*
X10811786Y-15005214D02*
X10811786Y-14705214D01*
X10783214Y-14748071D01*
X10754643Y-14776643D01*
X10726071Y-14790929D01*
X11168928Y-14705214D02*
X11026071Y-14705214D01*
X11011786Y-14848071D01*
X11026071Y-14833786D01*
X11054643Y-14819500D01*
X11126071Y-14819500D01*
X11154643Y-14833786D01*
X11168928Y-14848071D01*
X11183214Y-14876643D01*
X11183214Y-14948071D01*
X11168928Y-14976643D01*
X11154643Y-14990929D01*
X11126071Y-15005214D01*
X11054643Y-15005214D01*
X11026071Y-14990929D01*
X11011786Y-14976643D01*
X11283214Y-14705214D02*
X11483214Y-14705214D01*
X11354643Y-15005214D01*
X11583214Y-14705214D02*
X11583214Y-14762357D01*
X11697500Y-14705214D02*
X11697500Y-14762357D01*
X12140357Y-15119500D02*
X12126071Y-15105214D01*
X12097500Y-15062357D01*
X12083214Y-15033786D01*
X12068928Y-14990929D01*
X12054643Y-14919500D01*
X12054643Y-14862357D01*
X12068928Y-14790929D01*
X12083214Y-14748071D01*
X12097500Y-14719500D01*
X12126071Y-14676643D01*
X12140357Y-14662357D01*
X12226071Y-14705214D02*
X12411786Y-14705214D01*
X12311786Y-14819500D01*
X12354643Y-14819500D01*
X12383214Y-14833786D01*
X12397500Y-14848071D01*
X12411786Y-14876643D01*
X12411786Y-14948071D01*
X12397500Y-14976643D01*
X12383214Y-14990929D01*
X12354643Y-15005214D01*
X12268928Y-15005214D01*
X12240357Y-14990929D01*
X12226071Y-14976643D01*
X12668928Y-14705214D02*
X12611786Y-14705214D01*
X12583214Y-14719500D01*
X12568928Y-14733786D01*
X12540357Y-14776643D01*
X12526071Y-14833786D01*
X12526071Y-14948071D01*
X12540357Y-14976643D01*
X12554643Y-14990929D01*
X12583214Y-15005214D01*
X12640357Y-15005214D01*
X12668928Y-14990929D01*
X12683214Y-14976643D01*
X12697500Y-14948071D01*
X12697500Y-14876643D01*
X12683214Y-14848071D01*
X12668928Y-14833786D01*
X12640357Y-14819500D01*
X12583214Y-14819500D01*
X12554643Y-14833786D01*
X12540357Y-14848071D01*
X12526071Y-14876643D01*
X13054643Y-15005214D02*
X13054643Y-14705214D01*
X13183214Y-15005214D02*
X13183214Y-14848071D01*
X13168928Y-14819500D01*
X13140357Y-14805214D01*
X13097500Y-14805214D01*
X13068928Y-14819500D01*
X13054643Y-14833786D01*
X13368928Y-15005214D02*
X13340357Y-14990929D01*
X13326071Y-14976643D01*
X13311786Y-14948071D01*
X13311786Y-14862357D01*
X13326071Y-14833786D01*
X13340357Y-14819500D01*
X13368928Y-14805214D01*
X13411786Y-14805214D01*
X13440357Y-14819500D01*
X13454643Y-14833786D01*
X13468928Y-14862357D01*
X13468928Y-14948071D01*
X13454643Y-14976643D01*
X13440357Y-14990929D01*
X13411786Y-15005214D01*
X13368928Y-15005214D01*
X13640357Y-15005214D02*
X13611786Y-14990929D01*
X13597500Y-14962357D01*
X13597500Y-14705214D01*
X13868928Y-14990929D02*
X13840357Y-15005214D01*
X13783214Y-15005214D01*
X13754643Y-14990929D01*
X13740357Y-14962357D01*
X13740357Y-14848071D01*
X13754643Y-14819500D01*
X13783214Y-14805214D01*
X13840357Y-14805214D01*
X13868928Y-14819500D01*
X13883214Y-14848071D01*
X13883214Y-14876643D01*
X13740357Y-14905214D01*
X13997500Y-14990929D02*
X14026071Y-15005214D01*
X14083214Y-15005214D01*
X14111786Y-14990929D01*
X14126071Y-14962357D01*
X14126071Y-14948071D01*
X14111786Y-14919500D01*
X14083214Y-14905214D01*
X14040357Y-14905214D01*
X14011786Y-14890929D01*
X13997500Y-14862357D01*
X13997500Y-14848071D01*
X14011786Y-14819500D01*
X14040357Y-14805214D01*
X14083214Y-14805214D01*
X14111786Y-14819500D01*
X14226071Y-15119500D02*
X14240357Y-15105214D01*
X14268928Y-15062357D01*
X14283214Y-15033786D01*
X14297500Y-14990929D01*
X14311786Y-14919500D01*
X14311786Y-14862357D01*
X14297500Y-14790929D01*
X14283214Y-14748071D01*
X14268928Y-14719500D01*
X14240357Y-14676643D01*
X14226071Y-14662357D01*
X6867856Y-15300856D02*
X6867856Y-15230144D01*
X6797144Y-15230144D01*
X6797144Y-15300856D01*
X6867856Y-15300856D01*
X7326071Y-15401214D02*
X7154643Y-15401214D01*
X7240357Y-15401214D02*
X7240357Y-15101214D01*
X7211786Y-15144071D01*
X7183214Y-15172643D01*
X7154643Y-15186929D01*
X7454643Y-15372643D02*
X7468928Y-15386929D01*
X7454643Y-15401214D01*
X7440357Y-15386929D01*
X7454643Y-15372643D01*
X7454643Y-15401214D01*
X7654643Y-15101214D02*
X7683214Y-15101214D01*
X7711786Y-15115500D01*
X7726071Y-15129786D01*
X7740357Y-15158357D01*
X7754643Y-15215500D01*
X7754643Y-15286929D01*
X7740357Y-15344071D01*
X7726071Y-15372643D01*
X7711786Y-15386929D01*
X7683214Y-15401214D01*
X7654643Y-15401214D01*
X7626071Y-15386929D01*
X7611786Y-15372643D01*
X7597500Y-15344071D01*
X7583214Y-15286929D01*
X7583214Y-15215500D01*
X7597500Y-15158357D01*
X7611786Y-15129786D01*
X7626071Y-15115500D01*
X7654643Y-15101214D01*
X7940357Y-15101214D02*
X7968928Y-15101214D01*
X7997500Y-15115500D01*
X8011786Y-15129786D01*
X8026071Y-15158357D01*
X8040357Y-15215500D01*
X8040357Y-15286929D01*
X8026071Y-15344071D01*
X8011786Y-15372643D01*
X7997500Y-15386929D01*
X7968928Y-15401214D01*
X7940357Y-15401214D01*
X7911786Y-15386929D01*
X7897500Y-15372643D01*
X7883214Y-15344071D01*
X7868928Y-15286929D01*
X7868928Y-15215500D01*
X7883214Y-15158357D01*
X7897500Y-15129786D01*
X7911786Y-15115500D01*
X7940357Y-15101214D01*
X8226071Y-15101214D02*
X8254643Y-15101214D01*
X8283214Y-15115500D01*
X8297500Y-15129786D01*
X8311786Y-15158357D01*
X8326071Y-15215500D01*
X8326071Y-15286929D01*
X8311786Y-15344071D01*
X8297500Y-15372643D01*
X8283214Y-15386929D01*
X8254643Y-15401214D01*
X8226071Y-15401214D01*
X8197500Y-15386929D01*
X8183214Y-15372643D01*
X8168928Y-15344071D01*
X8154643Y-15286929D01*
X8154643Y-15215500D01*
X8168928Y-15158357D01*
X8183214Y-15129786D01*
X8197500Y-15115500D01*
X8226071Y-15101214D01*
X8454643Y-15401214D02*
X8454643Y-15201214D01*
X8454643Y-15229786D02*
X8468928Y-15215500D01*
X8497500Y-15201214D01*
X8540357Y-15201214D01*
X8568928Y-15215500D01*
X8583214Y-15244071D01*
X8583214Y-15401214D01*
X8583214Y-15244071D02*
X8597500Y-15215500D01*
X8626071Y-15201214D01*
X8668928Y-15201214D01*
X8697500Y-15215500D01*
X8711786Y-15244071D01*
X8711786Y-15401214D01*
X8854643Y-15401214D02*
X8854643Y-15201214D01*
X8854643Y-15229786D02*
X8868928Y-15215500D01*
X8897500Y-15201214D01*
X8940357Y-15201214D01*
X8968928Y-15215500D01*
X8983214Y-15244071D01*
X8983214Y-15401214D01*
X8983214Y-15244071D02*
X8997500Y-15215500D01*
X9026071Y-15201214D01*
X9068928Y-15201214D01*
X9097500Y-15215500D01*
X9111786Y-15244071D01*
X9111786Y-15401214D01*
X9697500Y-15086929D02*
X9440357Y-15472643D01*
X10083214Y-15101214D02*
X10111786Y-15101214D01*
X10140357Y-15115500D01*
X10154643Y-15129786D01*
X10168928Y-15158357D01*
X10183214Y-15215500D01*
X10183214Y-15286929D01*
X10168928Y-15344071D01*
X10154643Y-15372643D01*
X10140357Y-15386929D01*
X10111786Y-15401214D01*
X10083214Y-15401214D01*
X10054643Y-15386929D01*
X10040357Y-15372643D01*
X10026071Y-15344071D01*
X10011786Y-15286929D01*
X10011786Y-15215500D01*
X10026071Y-15158357D01*
X10040357Y-15129786D01*
X10054643Y-15115500D01*
X10083214Y-15101214D01*
X10311786Y-15372643D02*
X10326071Y-15386929D01*
X10311786Y-15401214D01*
X10297500Y-15386929D01*
X10311786Y-15372643D01*
X10311786Y-15401214D01*
X10511786Y-15101214D02*
X10540357Y-15101214D01*
X10568928Y-15115500D01*
X10583214Y-15129786D01*
X10597500Y-15158357D01*
X10611786Y-15215500D01*
X10611786Y-15286929D01*
X10597500Y-15344071D01*
X10583214Y-15372643D01*
X10568928Y-15386929D01*
X10540357Y-15401214D01*
X10511786Y-15401214D01*
X10483214Y-15386929D01*
X10468928Y-15372643D01*
X10454643Y-15344071D01*
X10440357Y-15286929D01*
X10440357Y-15215500D01*
X10454643Y-15158357D01*
X10468928Y-15129786D01*
X10483214Y-15115500D01*
X10511786Y-15101214D01*
X10711786Y-15101214D02*
X10897500Y-15101214D01*
X10797500Y-15215500D01*
X10840357Y-15215500D01*
X10868928Y-15229786D01*
X10883214Y-15244071D01*
X10897500Y-15272643D01*
X10897500Y-15344071D01*
X10883214Y-15372643D01*
X10868928Y-15386929D01*
X10840357Y-15401214D01*
X10754643Y-15401214D01*
X10726071Y-15386929D01*
X10711786Y-15372643D01*
X11040357Y-15401214D02*
X11097500Y-15401214D01*
X11126071Y-15386929D01*
X11140357Y-15372643D01*
X11168928Y-15329786D01*
X11183214Y-15272643D01*
X11183214Y-15158357D01*
X11168928Y-15129786D01*
X11154643Y-15115500D01*
X11126071Y-15101214D01*
X11068928Y-15101214D01*
X11040357Y-15115500D01*
X11026071Y-15129786D01*
X11011786Y-15158357D01*
X11011786Y-15229786D01*
X11026071Y-15258357D01*
X11040357Y-15272643D01*
X11068928Y-15286929D01*
X11126071Y-15286929D01*
X11154643Y-15272643D01*
X11168928Y-15258357D01*
X11183214Y-15229786D01*
X11440357Y-15201214D02*
X11440357Y-15401214D01*
X11368928Y-15086929D02*
X11297500Y-15301214D01*
X11483214Y-15301214D01*
X11583214Y-15101214D02*
X11583214Y-15158357D01*
X11697500Y-15101214D02*
X11697500Y-15158357D01*
X12140357Y-15515500D02*
X12126071Y-15501214D01*
X12097500Y-15458357D01*
X12083214Y-15429786D01*
X12068928Y-15386929D01*
X12054643Y-15315500D01*
X12054643Y-15258357D01*
X12068928Y-15186929D01*
X12083214Y-15144071D01*
X12097500Y-15115500D01*
X12126071Y-15072643D01*
X12140357Y-15058357D01*
X12411786Y-15401214D02*
X12240357Y-15401214D01*
X12326071Y-15401214D02*
X12326071Y-15101214D01*
X12297500Y-15144071D01*
X12268928Y-15172643D01*
X12240357Y-15186929D01*
X12697500Y-15401214D02*
X12526071Y-15401214D01*
X12611786Y-15401214D02*
X12611786Y-15101214D01*
X12583214Y-15144071D01*
X12554643Y-15172643D01*
X12526071Y-15186929D01*
X13054643Y-15401214D02*
X13054643Y-15101214D01*
X13183214Y-15401214D02*
X13183214Y-15244071D01*
X13168928Y-15215500D01*
X13140357Y-15201214D01*
X13097500Y-15201214D01*
X13068928Y-15215500D01*
X13054643Y-15229786D01*
X13368928Y-15401214D02*
X13340357Y-15386929D01*
X13326071Y-15372643D01*
X13311786Y-15344071D01*
X13311786Y-15258357D01*
X13326071Y-15229786D01*
X13340357Y-15215500D01*
X13368928Y-15201214D01*
X13411786Y-15201214D01*
X13440357Y-15215500D01*
X13454643Y-15229786D01*
X13468928Y-15258357D01*
X13468928Y-15344071D01*
X13454643Y-15372643D01*
X13440357Y-15386929D01*
X13411786Y-15401214D01*
X13368928Y-15401214D01*
X13640357Y-15401214D02*
X13611786Y-15386929D01*
X13597500Y-15358357D01*
X13597500Y-15101214D01*
X13868928Y-15386929D02*
X13840357Y-15401214D01*
X13783214Y-15401214D01*
X13754643Y-15386929D01*
X13740357Y-15358357D01*
X13740357Y-15244071D01*
X13754643Y-15215500D01*
X13783214Y-15201214D01*
X13840357Y-15201214D01*
X13868928Y-15215500D01*
X13883214Y-15244071D01*
X13883214Y-15272643D01*
X13740357Y-15301214D01*
X13997500Y-15386929D02*
X14026071Y-15401214D01*
X14083214Y-15401214D01*
X14111786Y-15386929D01*
X14126071Y-15358357D01*
X14126071Y-15344071D01*
X14111786Y-15315500D01*
X14083214Y-15301214D01*
X14040357Y-15301214D01*
X14011786Y-15286929D01*
X13997500Y-15258357D01*
X13997500Y-15244071D01*
X14011786Y-15215500D01*
X14040357Y-15201214D01*
X14083214Y-15201214D01*
X14111786Y-15215500D01*
X14226071Y-15515500D02*
X14240357Y-15501214D01*
X14268928Y-15458357D01*
X14283214Y-15429786D01*
X14297500Y-15386929D01*
X14311786Y-15315500D01*
X14311786Y-15258357D01*
X14297500Y-15186929D01*
X14283214Y-15144071D01*
X14268928Y-15115500D01*
X14240357Y-15072643D01*
X14226071Y-15058357D01*
X6827500Y-15716500D02*
X6882500Y-15661500D01*
X6827500Y-15606500D01*
X6772500Y-15661500D01*
X6827500Y-15716500D01*
X7326071Y-15797214D02*
X7154643Y-15797214D01*
X7240357Y-15797214D02*
X7240357Y-15497214D01*
X7211786Y-15540071D01*
X7183214Y-15568643D01*
X7154643Y-15582929D01*
X7454643Y-15768643D02*
X7468928Y-15782929D01*
X7454643Y-15797214D01*
X7440357Y-15782929D01*
X7454643Y-15768643D01*
X7454643Y-15797214D01*
X7754643Y-15797214D02*
X7583214Y-15797214D01*
X7668928Y-15797214D02*
X7668928Y-15497214D01*
X7640357Y-15540071D01*
X7611786Y-15568643D01*
X7583214Y-15582929D01*
X7940357Y-15497214D02*
X7968928Y-15497214D01*
X7997500Y-15511500D01*
X8011786Y-15525786D01*
X8026071Y-15554357D01*
X8040357Y-15611500D01*
X8040357Y-15682929D01*
X8026071Y-15740071D01*
X8011786Y-15768643D01*
X7997500Y-15782929D01*
X7968928Y-15797214D01*
X7940357Y-15797214D01*
X7911786Y-15782929D01*
X7897500Y-15768643D01*
X7883214Y-15740071D01*
X7868928Y-15682929D01*
X7868928Y-15611500D01*
X7883214Y-15554357D01*
X7897500Y-15525786D01*
X7911786Y-15511500D01*
X7940357Y-15497214D01*
X8226071Y-15497214D02*
X8254643Y-15497214D01*
X8283214Y-15511500D01*
X8297500Y-15525786D01*
X8311786Y-15554357D01*
X8326071Y-15611500D01*
X8326071Y-15682929D01*
X8311786Y-15740071D01*
X8297500Y-15768643D01*
X8283214Y-15782929D01*
X8254643Y-15797214D01*
X8226071Y-15797214D01*
X8197500Y-15782929D01*
X8183214Y-15768643D01*
X8168928Y-15740071D01*
X8154643Y-15682929D01*
X8154643Y-15611500D01*
X8168928Y-15554357D01*
X8183214Y-15525786D01*
X8197500Y-15511500D01*
X8226071Y-15497214D01*
X8454643Y-15797214D02*
X8454643Y-15597214D01*
X8454643Y-15625786D02*
X8468928Y-15611500D01*
X8497500Y-15597214D01*
X8540357Y-15597214D01*
X8568928Y-15611500D01*
X8583214Y-15640071D01*
X8583214Y-15797214D01*
X8583214Y-15640071D02*
X8597500Y-15611500D01*
X8626071Y-15597214D01*
X8668928Y-15597214D01*
X8697500Y-15611500D01*
X8711786Y-15640071D01*
X8711786Y-15797214D01*
X8854643Y-15797214D02*
X8854643Y-15597214D01*
X8854643Y-15625786D02*
X8868928Y-15611500D01*
X8897500Y-15597214D01*
X8940357Y-15597214D01*
X8968928Y-15611500D01*
X8983214Y-15640071D01*
X8983214Y-15797214D01*
X8983214Y-15640071D02*
X8997500Y-15611500D01*
X9026071Y-15597214D01*
X9068928Y-15597214D01*
X9097500Y-15611500D01*
X9111786Y-15640071D01*
X9111786Y-15797214D01*
X9697500Y-15482929D02*
X9440357Y-15868643D01*
X10083214Y-15497214D02*
X10111786Y-15497214D01*
X10140357Y-15511500D01*
X10154643Y-15525786D01*
X10168928Y-15554357D01*
X10183214Y-15611500D01*
X10183214Y-15682929D01*
X10168928Y-15740071D01*
X10154643Y-15768643D01*
X10140357Y-15782929D01*
X10111786Y-15797214D01*
X10083214Y-15797214D01*
X10054643Y-15782929D01*
X10040357Y-15768643D01*
X10026071Y-15740071D01*
X10011786Y-15682929D01*
X10011786Y-15611500D01*
X10026071Y-15554357D01*
X10040357Y-15525786D01*
X10054643Y-15511500D01*
X10083214Y-15497214D01*
X10311786Y-15768643D02*
X10326071Y-15782929D01*
X10311786Y-15797214D01*
X10297500Y-15782929D01*
X10311786Y-15768643D01*
X10311786Y-15797214D01*
X10511786Y-15497214D02*
X10540357Y-15497214D01*
X10568928Y-15511500D01*
X10583214Y-15525786D01*
X10597500Y-15554357D01*
X10611786Y-15611500D01*
X10611786Y-15682929D01*
X10597500Y-15740071D01*
X10583214Y-15768643D01*
X10568928Y-15782929D01*
X10540357Y-15797214D01*
X10511786Y-15797214D01*
X10483214Y-15782929D01*
X10468928Y-15768643D01*
X10454643Y-15740071D01*
X10440357Y-15682929D01*
X10440357Y-15611500D01*
X10454643Y-15554357D01*
X10468928Y-15525786D01*
X10483214Y-15511500D01*
X10511786Y-15497214D01*
X10868928Y-15597214D02*
X10868928Y-15797214D01*
X10797500Y-15482929D02*
X10726071Y-15697214D01*
X10911786Y-15697214D01*
X10997500Y-15497214D02*
X11183214Y-15497214D01*
X11083214Y-15611500D01*
X11126071Y-15611500D01*
X11154643Y-15625786D01*
X11168928Y-15640071D01*
X11183214Y-15668643D01*
X11183214Y-15740071D01*
X11168928Y-15768643D01*
X11154643Y-15782929D01*
X11126071Y-15797214D01*
X11040357Y-15797214D01*
X11011786Y-15782929D01*
X10997500Y-15768643D01*
X11283214Y-15497214D02*
X11468928Y-15497214D01*
X11368928Y-15611500D01*
X11411786Y-15611500D01*
X11440357Y-15625786D01*
X11454643Y-15640071D01*
X11468928Y-15668643D01*
X11468928Y-15740071D01*
X11454643Y-15768643D01*
X11440357Y-15782929D01*
X11411786Y-15797214D01*
X11326071Y-15797214D01*
X11297500Y-15782929D01*
X11283214Y-15768643D01*
X11583214Y-15497214D02*
X11583214Y-15554357D01*
X11697500Y-15497214D02*
X11697500Y-15554357D01*
X12140357Y-15911500D02*
X12126071Y-15897214D01*
X12097500Y-15854357D01*
X12083214Y-15825786D01*
X12068928Y-15782929D01*
X12054643Y-15711500D01*
X12054643Y-15654357D01*
X12068928Y-15582929D01*
X12083214Y-15540071D01*
X12097500Y-15511500D01*
X12126071Y-15468643D01*
X12140357Y-15454357D01*
X12411786Y-15797214D02*
X12240357Y-15797214D01*
X12326071Y-15797214D02*
X12326071Y-15497214D01*
X12297500Y-15540071D01*
X12268928Y-15568643D01*
X12240357Y-15582929D01*
X12526071Y-15525786D02*
X12540357Y-15511500D01*
X12568928Y-15497214D01*
X12640357Y-15497214D01*
X12668928Y-15511500D01*
X12683214Y-15525786D01*
X12697500Y-15554357D01*
X12697500Y-15582929D01*
X12683214Y-15625786D01*
X12511786Y-15797214D01*
X12697500Y-15797214D01*
X13054643Y-15797214D02*
X13054643Y-15497214D01*
X13183214Y-15797214D02*
X13183214Y-15640071D01*
X13168928Y-15611500D01*
X13140357Y-15597214D01*
X13097500Y-15597214D01*
X13068928Y-15611500D01*
X13054643Y-15625786D01*
X13368928Y-15797214D02*
X13340357Y-15782929D01*
X13326071Y-15768643D01*
X13311786Y-15740071D01*
X13311786Y-15654357D01*
X13326071Y-15625786D01*
X13340357Y-15611500D01*
X13368928Y-15597214D01*
X13411786Y-15597214D01*
X13440357Y-15611500D01*
X13454643Y-15625786D01*
X13468928Y-15654357D01*
X13468928Y-15740071D01*
X13454643Y-15768643D01*
X13440357Y-15782929D01*
X13411786Y-15797214D01*
X13368928Y-15797214D01*
X13640357Y-15797214D02*
X13611786Y-15782929D01*
X13597500Y-15754357D01*
X13597500Y-15497214D01*
X13868928Y-15782929D02*
X13840357Y-15797214D01*
X13783214Y-15797214D01*
X13754643Y-15782929D01*
X13740357Y-15754357D01*
X13740357Y-15640071D01*
X13754643Y-15611500D01*
X13783214Y-15597214D01*
X13840357Y-15597214D01*
X13868928Y-15611500D01*
X13883214Y-15640071D01*
X13883214Y-15668643D01*
X13740357Y-15697214D01*
X13997500Y-15782929D02*
X14026071Y-15797214D01*
X14083214Y-15797214D01*
X14111786Y-15782929D01*
X14126071Y-15754357D01*
X14126071Y-15740071D01*
X14111786Y-15711500D01*
X14083214Y-15697214D01*
X14040357Y-15697214D01*
X14011786Y-15682929D01*
X13997500Y-15654357D01*
X13997500Y-15640071D01*
X14011786Y-15611500D01*
X14040357Y-15597214D01*
X14083214Y-15597214D01*
X14111786Y-15611500D01*
X14226071Y-15911500D02*
X14240357Y-15897214D01*
X14268928Y-15854357D01*
X14283214Y-15825786D01*
X14297500Y-15782929D01*
X14311786Y-15711500D01*
X14311786Y-15654357D01*
X14297500Y-15582929D01*
X14283214Y-15540071D01*
X14268928Y-15511500D01*
X14240357Y-15468643D01*
X14226071Y-15454357D01*
X6732500Y-15982500D02*
X6882500Y-16132500D01*
X6882500Y-15982500D02*
X6732500Y-16132500D01*
X6882500Y-16057500D02*
G75*
G03*
X6882500Y-16057500I-75000J0D01*
G01*
X7326071Y-16193214D02*
X7154643Y-16193214D01*
X7240357Y-16193214D02*
X7240357Y-15893214D01*
X7211786Y-15936071D01*
X7183214Y-15964643D01*
X7154643Y-15978929D01*
X7454643Y-16164643D02*
X7468928Y-16178929D01*
X7454643Y-16193214D01*
X7440357Y-16178929D01*
X7454643Y-16164643D01*
X7454643Y-16193214D01*
X7740357Y-15893214D02*
X7597500Y-15893214D01*
X7583214Y-16036071D01*
X7597500Y-16021786D01*
X7626071Y-16007500D01*
X7697500Y-16007500D01*
X7726071Y-16021786D01*
X7740357Y-16036071D01*
X7754643Y-16064643D01*
X7754643Y-16136071D01*
X7740357Y-16164643D01*
X7726071Y-16178929D01*
X7697500Y-16193214D01*
X7626071Y-16193214D01*
X7597500Y-16178929D01*
X7583214Y-16164643D01*
X7940357Y-15893214D02*
X7968928Y-15893214D01*
X7997500Y-15907500D01*
X8011786Y-15921786D01*
X8026071Y-15950357D01*
X8040357Y-16007500D01*
X8040357Y-16078929D01*
X8026071Y-16136071D01*
X8011786Y-16164643D01*
X7997500Y-16178929D01*
X7968928Y-16193214D01*
X7940357Y-16193214D01*
X7911786Y-16178929D01*
X7897500Y-16164643D01*
X7883214Y-16136071D01*
X7868928Y-16078929D01*
X7868928Y-16007500D01*
X7883214Y-15950357D01*
X7897500Y-15921786D01*
X7911786Y-15907500D01*
X7940357Y-15893214D01*
X8226071Y-15893214D02*
X8254643Y-15893214D01*
X8283214Y-15907500D01*
X8297500Y-15921786D01*
X8311786Y-15950357D01*
X8326071Y-16007500D01*
X8326071Y-16078929D01*
X8311786Y-16136071D01*
X8297500Y-16164643D01*
X8283214Y-16178929D01*
X8254643Y-16193214D01*
X8226071Y-16193214D01*
X8197500Y-16178929D01*
X8183214Y-16164643D01*
X8168928Y-16136071D01*
X8154643Y-16078929D01*
X8154643Y-16007500D01*
X8168928Y-15950357D01*
X8183214Y-15921786D01*
X8197500Y-15907500D01*
X8226071Y-15893214D01*
X8454643Y-16193214D02*
X8454643Y-15993214D01*
X8454643Y-16021786D02*
X8468928Y-16007500D01*
X8497500Y-15993214D01*
X8540357Y-15993214D01*
X8568928Y-16007500D01*
X8583214Y-16036071D01*
X8583214Y-16193214D01*
X8583214Y-16036071D02*
X8597500Y-16007500D01*
X8626071Y-15993214D01*
X8668928Y-15993214D01*
X8697500Y-16007500D01*
X8711786Y-16036071D01*
X8711786Y-16193214D01*
X8854643Y-16193214D02*
X8854643Y-15993214D01*
X8854643Y-16021786D02*
X8868928Y-16007500D01*
X8897500Y-15993214D01*
X8940357Y-15993214D01*
X8968928Y-16007500D01*
X8983214Y-16036071D01*
X8983214Y-16193214D01*
X8983214Y-16036071D02*
X8997500Y-16007500D01*
X9026071Y-15993214D01*
X9068928Y-15993214D01*
X9097500Y-16007500D01*
X9111786Y-16036071D01*
X9111786Y-16193214D01*
X9697500Y-15878929D02*
X9440357Y-16264643D01*
X10083214Y-15893214D02*
X10111786Y-15893214D01*
X10140357Y-15907500D01*
X10154643Y-15921786D01*
X10168928Y-15950357D01*
X10183214Y-16007500D01*
X10183214Y-16078929D01*
X10168928Y-16136071D01*
X10154643Y-16164643D01*
X10140357Y-16178929D01*
X10111786Y-16193214D01*
X10083214Y-16193214D01*
X10054643Y-16178929D01*
X10040357Y-16164643D01*
X10026071Y-16136071D01*
X10011786Y-16078929D01*
X10011786Y-16007500D01*
X10026071Y-15950357D01*
X10040357Y-15921786D01*
X10054643Y-15907500D01*
X10083214Y-15893214D01*
X10311786Y-16164643D02*
X10326071Y-16178929D01*
X10311786Y-16193214D01*
X10297500Y-16178929D01*
X10311786Y-16164643D01*
X10311786Y-16193214D01*
X10511786Y-15893214D02*
X10540357Y-15893214D01*
X10568928Y-15907500D01*
X10583214Y-15921786D01*
X10597500Y-15950357D01*
X10611786Y-16007500D01*
X10611786Y-16078929D01*
X10597500Y-16136071D01*
X10583214Y-16164643D01*
X10568928Y-16178929D01*
X10540357Y-16193214D01*
X10511786Y-16193214D01*
X10483214Y-16178929D01*
X10468928Y-16164643D01*
X10454643Y-16136071D01*
X10440357Y-16078929D01*
X10440357Y-16007500D01*
X10454643Y-15950357D01*
X10468928Y-15921786D01*
X10483214Y-15907500D01*
X10511786Y-15893214D01*
X10883214Y-15893214D02*
X10740357Y-15893214D01*
X10726071Y-16036071D01*
X10740357Y-16021786D01*
X10768928Y-16007500D01*
X10840357Y-16007500D01*
X10868928Y-16021786D01*
X10883214Y-16036071D01*
X10897500Y-16064643D01*
X10897500Y-16136071D01*
X10883214Y-16164643D01*
X10868928Y-16178929D01*
X10840357Y-16193214D01*
X10768928Y-16193214D01*
X10740357Y-16178929D01*
X10726071Y-16164643D01*
X11040357Y-16193214D02*
X11097500Y-16193214D01*
X11126071Y-16178929D01*
X11140357Y-16164643D01*
X11168928Y-16121786D01*
X11183214Y-16064643D01*
X11183214Y-15950357D01*
X11168928Y-15921786D01*
X11154643Y-15907500D01*
X11126071Y-15893214D01*
X11068928Y-15893214D01*
X11040357Y-15907500D01*
X11026071Y-15921786D01*
X11011786Y-15950357D01*
X11011786Y-16021786D01*
X11026071Y-16050357D01*
X11040357Y-16064643D01*
X11068928Y-16078929D01*
X11126071Y-16078929D01*
X11154643Y-16064643D01*
X11168928Y-16050357D01*
X11183214Y-16021786D01*
X11468928Y-16193214D02*
X11297500Y-16193214D01*
X11383214Y-16193214D02*
X11383214Y-15893214D01*
X11354643Y-15936071D01*
X11326071Y-15964643D01*
X11297500Y-15978929D01*
X11583214Y-15893214D02*
X11583214Y-15950357D01*
X11697500Y-15893214D02*
X11697500Y-15950357D01*
X12140357Y-16307500D02*
X12126071Y-16293214D01*
X12097500Y-16250357D01*
X12083214Y-16221786D01*
X12068928Y-16178929D01*
X12054643Y-16107500D01*
X12054643Y-16050357D01*
X12068928Y-15978929D01*
X12083214Y-15936071D01*
X12097500Y-15907500D01*
X12126071Y-15864643D01*
X12140357Y-15850357D01*
X12240357Y-15921786D02*
X12254643Y-15907500D01*
X12283214Y-15893214D01*
X12354643Y-15893214D01*
X12383214Y-15907500D01*
X12397500Y-15921786D01*
X12411786Y-15950357D01*
X12411786Y-15978929D01*
X12397500Y-16021786D01*
X12226071Y-16193214D01*
X12411786Y-16193214D01*
X12768928Y-16193214D02*
X12768928Y-15893214D01*
X12897500Y-16193214D02*
X12897500Y-16036071D01*
X12883214Y-16007500D01*
X12854643Y-15993214D01*
X12811786Y-15993214D01*
X12783214Y-16007500D01*
X12768928Y-16021786D01*
X13083214Y-16193214D02*
X13054643Y-16178929D01*
X13040357Y-16164643D01*
X13026071Y-16136071D01*
X13026071Y-16050357D01*
X13040357Y-16021786D01*
X13054643Y-16007500D01*
X13083214Y-15993214D01*
X13126071Y-15993214D01*
X13154643Y-16007500D01*
X13168928Y-16021786D01*
X13183214Y-16050357D01*
X13183214Y-16136071D01*
X13168928Y-16164643D01*
X13154643Y-16178929D01*
X13126071Y-16193214D01*
X13083214Y-16193214D01*
X13354643Y-16193214D02*
X13326071Y-16178929D01*
X13311786Y-16150357D01*
X13311786Y-15893214D01*
X13583214Y-16178929D02*
X13554643Y-16193214D01*
X13497500Y-16193214D01*
X13468928Y-16178929D01*
X13454643Y-16150357D01*
X13454643Y-16036071D01*
X13468928Y-16007500D01*
X13497500Y-15993214D01*
X13554643Y-15993214D01*
X13583214Y-16007500D01*
X13597500Y-16036071D01*
X13597500Y-16064643D01*
X13454643Y-16093214D01*
X13711786Y-16178929D02*
X13740357Y-16193214D01*
X13797500Y-16193214D01*
X13826071Y-16178929D01*
X13840357Y-16150357D01*
X13840357Y-16136071D01*
X13826071Y-16107500D01*
X13797500Y-16093214D01*
X13754643Y-16093214D01*
X13726071Y-16078929D01*
X13711786Y-16050357D01*
X13711786Y-16036071D01*
X13726071Y-16007500D01*
X13754643Y-15993214D01*
X13797500Y-15993214D01*
X13826071Y-16007500D01*
X13940357Y-16307500D02*
X13954643Y-16293214D01*
X13983214Y-16250357D01*
X13997500Y-16221786D01*
X14011786Y-16178929D01*
X14026071Y-16107500D01*
X14026071Y-16050357D01*
X14011786Y-15978929D01*
X13997500Y-15936071D01*
X13983214Y-15907500D01*
X13954643Y-15864643D01*
X13940357Y-15850357D01*
X6672500Y-16348500D02*
X6882500Y-16558500D01*
X6882500Y-16348500D02*
X6672500Y-16558500D01*
X6777500Y-16348500D02*
X6777500Y-16558500D01*
X6672500Y-16453500D02*
X6882500Y-16453500D01*
X7154643Y-16317786D02*
X7168928Y-16303500D01*
X7197500Y-16289214D01*
X7268928Y-16289214D01*
X7297500Y-16303500D01*
X7311786Y-16317786D01*
X7326071Y-16346357D01*
X7326071Y-16374929D01*
X7311786Y-16417786D01*
X7140357Y-16589214D01*
X7326071Y-16589214D01*
X7454643Y-16560643D02*
X7468928Y-16574929D01*
X7454643Y-16589214D01*
X7440357Y-16574929D01*
X7454643Y-16560643D01*
X7454643Y-16589214D01*
X7754643Y-16589214D02*
X7583214Y-16589214D01*
X7668928Y-16589214D02*
X7668928Y-16289214D01*
X7640357Y-16332071D01*
X7611786Y-16360643D01*
X7583214Y-16374929D01*
X7940357Y-16289214D02*
X7968928Y-16289214D01*
X7997500Y-16303500D01*
X8011786Y-16317786D01*
X8026071Y-16346357D01*
X8040357Y-16403500D01*
X8040357Y-16474929D01*
X8026071Y-16532071D01*
X8011786Y-16560643D01*
X7997500Y-16574929D01*
X7968928Y-16589214D01*
X7940357Y-16589214D01*
X7911786Y-16574929D01*
X7897500Y-16560643D01*
X7883214Y-16532071D01*
X7868928Y-16474929D01*
X7868928Y-16403500D01*
X7883214Y-16346357D01*
X7897500Y-16317786D01*
X7911786Y-16303500D01*
X7940357Y-16289214D01*
X8226071Y-16289214D02*
X8254643Y-16289214D01*
X8283214Y-16303500D01*
X8297500Y-16317786D01*
X8311786Y-16346357D01*
X8326071Y-16403500D01*
X8326071Y-16474929D01*
X8311786Y-16532071D01*
X8297500Y-16560643D01*
X8283214Y-16574929D01*
X8254643Y-16589214D01*
X8226071Y-16589214D01*
X8197500Y-16574929D01*
X8183214Y-16560643D01*
X8168928Y-16532071D01*
X8154643Y-16474929D01*
X8154643Y-16403500D01*
X8168928Y-16346357D01*
X8183214Y-16317786D01*
X8197500Y-16303500D01*
X8226071Y-16289214D01*
X8454643Y-16589214D02*
X8454643Y-16389214D01*
X8454643Y-16417786D02*
X8468928Y-16403500D01*
X8497500Y-16389214D01*
X8540357Y-16389214D01*
X8568928Y-16403500D01*
X8583214Y-16432071D01*
X8583214Y-16589214D01*
X8583214Y-16432071D02*
X8597500Y-16403500D01*
X8626071Y-16389214D01*
X8668928Y-16389214D01*
X8697500Y-16403500D01*
X8711786Y-16432071D01*
X8711786Y-16589214D01*
X8854643Y-16589214D02*
X8854643Y-16389214D01*
X8854643Y-16417786D02*
X8868928Y-16403500D01*
X8897500Y-16389214D01*
X8940357Y-16389214D01*
X8968928Y-16403500D01*
X8983214Y-16432071D01*
X8983214Y-16589214D01*
X8983214Y-16432071D02*
X8997500Y-16403500D01*
X9026071Y-16389214D01*
X9068928Y-16389214D01*
X9097500Y-16403500D01*
X9111786Y-16432071D01*
X9111786Y-16589214D01*
X9697500Y-16274929D02*
X9440357Y-16660643D01*
X10083214Y-16289214D02*
X10111786Y-16289214D01*
X10140357Y-16303500D01*
X10154643Y-16317786D01*
X10168928Y-16346357D01*
X10183214Y-16403500D01*
X10183214Y-16474929D01*
X10168928Y-16532071D01*
X10154643Y-16560643D01*
X10140357Y-16574929D01*
X10111786Y-16589214D01*
X10083214Y-16589214D01*
X10054643Y-16574929D01*
X10040357Y-16560643D01*
X10026071Y-16532071D01*
X10011786Y-16474929D01*
X10011786Y-16403500D01*
X10026071Y-16346357D01*
X10040357Y-16317786D01*
X10054643Y-16303500D01*
X10083214Y-16289214D01*
X10311786Y-16560643D02*
X10326071Y-16574929D01*
X10311786Y-16589214D01*
X10297500Y-16574929D01*
X10311786Y-16560643D01*
X10311786Y-16589214D01*
X10511786Y-16289214D02*
X10540357Y-16289214D01*
X10568928Y-16303500D01*
X10583214Y-16317786D01*
X10597500Y-16346357D01*
X10611786Y-16403500D01*
X10611786Y-16474929D01*
X10597500Y-16532071D01*
X10583214Y-16560643D01*
X10568928Y-16574929D01*
X10540357Y-16589214D01*
X10511786Y-16589214D01*
X10483214Y-16574929D01*
X10468928Y-16560643D01*
X10454643Y-16532071D01*
X10440357Y-16474929D01*
X10440357Y-16403500D01*
X10454643Y-16346357D01*
X10468928Y-16317786D01*
X10483214Y-16303500D01*
X10511786Y-16289214D01*
X10783214Y-16417786D02*
X10754643Y-16403500D01*
X10740357Y-16389214D01*
X10726071Y-16360643D01*
X10726071Y-16346357D01*
X10740357Y-16317786D01*
X10754643Y-16303500D01*
X10783214Y-16289214D01*
X10840357Y-16289214D01*
X10868928Y-16303500D01*
X10883214Y-16317786D01*
X10897500Y-16346357D01*
X10897500Y-16360643D01*
X10883214Y-16389214D01*
X10868928Y-16403500D01*
X10840357Y-16417786D01*
X10783214Y-16417786D01*
X10754643Y-16432071D01*
X10740357Y-16446357D01*
X10726071Y-16474929D01*
X10726071Y-16532071D01*
X10740357Y-16560643D01*
X10754643Y-16574929D01*
X10783214Y-16589214D01*
X10840357Y-16589214D01*
X10868928Y-16574929D01*
X10883214Y-16560643D01*
X10897500Y-16532071D01*
X10897500Y-16474929D01*
X10883214Y-16446357D01*
X10868928Y-16432071D01*
X10840357Y-16417786D01*
X11011786Y-16317786D02*
X11026071Y-16303500D01*
X11054643Y-16289214D01*
X11126071Y-16289214D01*
X11154643Y-16303500D01*
X11168928Y-16317786D01*
X11183214Y-16346357D01*
X11183214Y-16374929D01*
X11168928Y-16417786D01*
X10997500Y-16589214D01*
X11183214Y-16589214D01*
X11283214Y-16289214D02*
X11483214Y-16289214D01*
X11354643Y-16589214D01*
X11583214Y-16289214D02*
X11583214Y-16346357D01*
X11697500Y-16289214D02*
X11697500Y-16346357D01*
X12140357Y-16703500D02*
X12126071Y-16689214D01*
X12097500Y-16646357D01*
X12083214Y-16617786D01*
X12068928Y-16574929D01*
X12054643Y-16503500D01*
X12054643Y-16446357D01*
X12068928Y-16374929D01*
X12083214Y-16332071D01*
X12097500Y-16303500D01*
X12126071Y-16260643D01*
X12140357Y-16246357D01*
X12240357Y-16317786D02*
X12254643Y-16303500D01*
X12283214Y-16289214D01*
X12354643Y-16289214D01*
X12383214Y-16303500D01*
X12397500Y-16317786D01*
X12411786Y-16346357D01*
X12411786Y-16374929D01*
X12397500Y-16417786D01*
X12226071Y-16589214D01*
X12411786Y-16589214D01*
X12768928Y-16589214D02*
X12768928Y-16289214D01*
X12897500Y-16589214D02*
X12897500Y-16432071D01*
X12883214Y-16403500D01*
X12854643Y-16389214D01*
X12811786Y-16389214D01*
X12783214Y-16403500D01*
X12768928Y-16417786D01*
X13083214Y-16589214D02*
X13054643Y-16574929D01*
X13040357Y-16560643D01*
X13026071Y-16532071D01*
X13026071Y-16446357D01*
X13040357Y-16417786D01*
X13054643Y-16403500D01*
X13083214Y-16389214D01*
X13126071Y-16389214D01*
X13154643Y-16403500D01*
X13168928Y-16417786D01*
X13183214Y-16446357D01*
X13183214Y-16532071D01*
X13168928Y-16560643D01*
X13154643Y-16574929D01*
X13126071Y-16589214D01*
X13083214Y-16589214D01*
X13354643Y-16589214D02*
X13326071Y-16574929D01*
X13311786Y-16546357D01*
X13311786Y-16289214D01*
X13583214Y-16574929D02*
X13554643Y-16589214D01*
X13497500Y-16589214D01*
X13468928Y-16574929D01*
X13454643Y-16546357D01*
X13454643Y-16432071D01*
X13468928Y-16403500D01*
X13497500Y-16389214D01*
X13554643Y-16389214D01*
X13583214Y-16403500D01*
X13597500Y-16432071D01*
X13597500Y-16460643D01*
X13454643Y-16489214D01*
X13711786Y-16574929D02*
X13740357Y-16589214D01*
X13797500Y-16589214D01*
X13826071Y-16574929D01*
X13840357Y-16546357D01*
X13840357Y-16532071D01*
X13826071Y-16503500D01*
X13797500Y-16489214D01*
X13754643Y-16489214D01*
X13726071Y-16474929D01*
X13711786Y-16446357D01*
X13711786Y-16432071D01*
X13726071Y-16403500D01*
X13754643Y-16389214D01*
X13797500Y-16389214D01*
X13826071Y-16403500D01*
X13940357Y-16703500D02*
X13954643Y-16689214D01*
X13983214Y-16646357D01*
X13997500Y-16617786D01*
X14011786Y-16574929D01*
X14026071Y-16503500D01*
X14026071Y-16446357D01*
X14011786Y-16374929D01*
X13997500Y-16332071D01*
X13983214Y-16303500D01*
X13954643Y-16260643D01*
X13940357Y-16246357D01*
M02*
