M48
; DRILL file {KiCad (5.1.12)-1} date 08/25/22 20:44:37
; FORMAT={-:-/ absolute / metric / decimal}
; #@! TF.CreationDate,2022-08-25T20:44:37-05:00
; #@! TF.GenerationSoftware,Kicad,Pcbnew,(5.1.12)-1
; #@! TF.FileFunction,Plated,1,4,PTH
FMAT,2
METRIC
T1C0.200
T2C0.300
T3C0.400
T4C1.000
T5C1.100
T6C1.500
T7C2.100
%
G90
G05
T1
X78.6Y-90.2
X78.7Y-103.3
X78.8Y-99.6
X80.3Y-91.6
X80.388Y-110.612
X81.0Y-97.3
X81.2Y-96.4
X81.3Y-101.1
X81.4Y-89.6
X85.3Y-110.4
X87.1Y-94.5
X88.0Y-93.7
X89.2Y-116.7
X89.6Y-116.1
X90.1Y-115.5
X90.3Y-83.7
X91.35Y-81.75
X91.5Y-94.7
X91.9Y-83.3
X92.8Y-96.4
X93.3Y-80.4
X93.5Y-92.6
X93.5Y-96.9
X93.6Y-97.9
X93.7Y-87.1
X94.0Y-84.9
X94.3Y-98.0
X94.4Y-88.3
X94.9Y-91.4
X94.9Y-93.9
X95.1Y-98.2
X95.8Y-99.7
X96.3Y-92.6
X96.425Y-109.525
X96.8Y-108.9
X97.7Y-108.6
X97.8Y-80.5
X98.5Y-108.7
X98.75Y-80.55
X98.75Y-84.9
X99.7Y-92.5
X99.8Y-95.9
X100.3Y-94.1
X101.4Y-90.9
X101.6Y-108.7
X102.0Y-92.6
X102.2Y-80.5
X102.6Y-108.7
X102.925Y-109.5
X103.1Y-88.6
X103.9Y-95.1
X103.975Y-109.525
X104.1Y-89.7
X104.25Y-113.35
X106.6Y-96.0
X108.1Y-86.8
X108.35Y-81.65
X108.35Y-83.55
X108.4Y-82.7
X110.3Y-91.8
X110.6Y-110.1
X112.3Y-113.3
X115.55Y-97.55
X117.45Y-97.55
T2
X97.6Y-113.375
X97.6Y-115.625
X99.2Y-113.375
X99.2Y-115.625
X100.8Y-113.375
X100.8Y-115.625
X102.4Y-113.375
X102.4Y-115.625
T3
X84.3Y-120.2
X85.7Y-120.2
X87.1Y-120.2
X88.4Y-118.5
X89.0Y-111.2
X89.0Y-113.4
X93.4Y-128.2
X93.4Y-129.7
X96.04Y-128.2
X96.04Y-129.7
X96.2Y-113.5
X98.68Y-128.2
X98.68Y-129.7
X101.32Y-128.2
X101.32Y-129.7
X103.96Y-128.2
X103.96Y-129.7
X106.1Y-116.3
X106.6Y-128.2
X106.6Y-129.7
X109.5Y-119.8
X110.2Y-116.55
X110.4Y-118.9
X111.2Y-92.6
X111.2Y-93.8
X111.2Y-95.0
X111.3Y-118.0
X112.8Y-92.6
X112.8Y-93.8
X112.8Y-95.0
X112.8Y-96.2
X115.1Y-106.7
X115.1Y-110.1
X116.5Y-102.1
X117.9Y-106.7
X117.9Y-110.1
T4
X83.6Y-92.6
X83.6Y-107.6
X97.0Y-87.0
X100.0Y-87.0
X103.0Y-87.0
X115.0Y-90.45
X115.0Y-92.99
X115.0Y-95.53
X117.54Y-90.45
X117.54Y-92.99
X117.54Y-95.53
T5
X74.5Y-89.12
X74.5Y-91.66
X74.5Y-94.2
X74.5Y-96.74
X74.5Y-103.29
X74.5Y-105.83
X74.5Y-108.37
X74.5Y-110.91
X96.19Y-126.0
X98.73Y-126.0
X101.27Y-126.0
X103.81Y-126.0
T6
X89.78Y-105.9
X110.22Y-105.9
T7
X91.5Y-100.0
X108.5Y-100.0
T0
M30
