G04 #@! TF.GenerationSoftware,KiCad,Pcbnew,(5.1.12)-1*
G04 #@! TF.CreationDate,2022-08-25T21:37:31-05:00*
G04 #@! TF.ProjectId,Stepper_Motor_Controller,53746570-7065-4725-9f4d-6f746f725f43,rev?*
G04 #@! TF.SameCoordinates,Original*
G04 #@! TF.FileFunction,Paste,Top*
G04 #@! TF.FilePolarity,Positive*
%FSLAX46Y46*%
G04 Gerber Fmt 4.6, Leading zero omitted, Abs format (unit mm)*
G04 Created by KiCad (PCBNEW (5.1.12)-1) date 2022-08-25 21:37:31*
%MOMM*%
%LPD*%
G01*
G04 APERTURE LIST*
%ADD10R,2.750000X3.050000*%
%ADD11R,1.200000X2.750000*%
%ADD12R,1.560000X0.650000*%
G04 APERTURE END LIST*
G36*
G01*
X83200000Y-95949999D02*
X83200000Y-96850001D01*
G75*
G02*
X82950001Y-97100000I-249999J0D01*
G01*
X82424999Y-97100000D01*
G75*
G02*
X82175000Y-96850001I0J249999D01*
G01*
X82175000Y-95949999D01*
G75*
G02*
X82424999Y-95700000I249999J0D01*
G01*
X82950001Y-95700000D01*
G75*
G02*
X83200000Y-95949999I0J-249999D01*
G01*
G37*
G36*
G01*
X85025000Y-95949999D02*
X85025000Y-96850001D01*
G75*
G02*
X84775001Y-97100000I-249999J0D01*
G01*
X84249999Y-97100000D01*
G75*
G02*
X84000000Y-96850001I0J249999D01*
G01*
X84000000Y-95949999D01*
G75*
G02*
X84249999Y-95700000I249999J0D01*
G01*
X84775001Y-95700000D01*
G75*
G02*
X85025000Y-95949999I0J-249999D01*
G01*
G37*
G36*
G01*
X83200000Y-100649999D02*
X83200000Y-101550001D01*
G75*
G02*
X82950001Y-101800000I-249999J0D01*
G01*
X82424999Y-101800000D01*
G75*
G02*
X82175000Y-101550001I0J249999D01*
G01*
X82175000Y-100649999D01*
G75*
G02*
X82424999Y-100400000I249999J0D01*
G01*
X82950001Y-100400000D01*
G75*
G02*
X83200000Y-100649999I0J-249999D01*
G01*
G37*
G36*
G01*
X85025000Y-100649999D02*
X85025000Y-101550001D01*
G75*
G02*
X84775001Y-101800000I-249999J0D01*
G01*
X84249999Y-101800000D01*
G75*
G02*
X84000000Y-101550001I0J249999D01*
G01*
X84000000Y-100649999D01*
G75*
G02*
X84249999Y-100400000I249999J0D01*
G01*
X84775001Y-100400000D01*
G75*
G02*
X85025000Y-100649999I0J-249999D01*
G01*
G37*
G36*
G01*
X82825000Y-98075000D02*
X82825000Y-99325000D01*
G75*
G02*
X82575000Y-99575000I-250000J0D01*
G01*
X81825000Y-99575000D01*
G75*
G02*
X81575000Y-99325000I0J250000D01*
G01*
X81575000Y-98075000D01*
G75*
G02*
X81825000Y-97825000I250000J0D01*
G01*
X82575000Y-97825000D01*
G75*
G02*
X82825000Y-98075000I0J-250000D01*
G01*
G37*
G36*
G01*
X85625000Y-98075000D02*
X85625000Y-99325000D01*
G75*
G02*
X85375000Y-99575000I-250000J0D01*
G01*
X84625000Y-99575000D01*
G75*
G02*
X84375000Y-99325000I0J250000D01*
G01*
X84375000Y-98075000D01*
G75*
G02*
X84625000Y-97825000I250000J0D01*
G01*
X85375000Y-97825000D01*
G75*
G02*
X85625000Y-98075000I0J-250000D01*
G01*
G37*
G36*
G01*
X82825000Y-102775000D02*
X82825000Y-104025000D01*
G75*
G02*
X82575000Y-104275000I-250000J0D01*
G01*
X81825000Y-104275000D01*
G75*
G02*
X81575000Y-104025000I0J250000D01*
G01*
X81575000Y-102775000D01*
G75*
G02*
X81825000Y-102525000I250000J0D01*
G01*
X82575000Y-102525000D01*
G75*
G02*
X82825000Y-102775000I0J-250000D01*
G01*
G37*
G36*
G01*
X85625000Y-102775000D02*
X85625000Y-104025000D01*
G75*
G02*
X85375000Y-104275000I-250000J0D01*
G01*
X84625000Y-104275000D01*
G75*
G02*
X84375000Y-104025000I0J250000D01*
G01*
X84375000Y-102775000D01*
G75*
G02*
X84625000Y-102525000I250000J0D01*
G01*
X85375000Y-102525000D01*
G75*
G02*
X85625000Y-102775000I0J-250000D01*
G01*
G37*
G36*
G01*
X111050001Y-112000000D02*
X110149999Y-112000000D01*
G75*
G02*
X109900000Y-111750001I0J249999D01*
G01*
X109900000Y-111224999D01*
G75*
G02*
X110149999Y-110975000I249999J0D01*
G01*
X111050001Y-110975000D01*
G75*
G02*
X111300000Y-111224999I0J-249999D01*
G01*
X111300000Y-111750001D01*
G75*
G02*
X111050001Y-112000000I-249999J0D01*
G01*
G37*
G36*
G01*
X111050001Y-113825000D02*
X110149999Y-113825000D01*
G75*
G02*
X109900000Y-113575001I0J249999D01*
G01*
X109900000Y-113049999D01*
G75*
G02*
X110149999Y-112800000I249999J0D01*
G01*
X111050001Y-112800000D01*
G75*
G02*
X111300000Y-113049999I0J-249999D01*
G01*
X111300000Y-113575001D01*
G75*
G02*
X111050001Y-113825000I-249999J0D01*
G01*
G37*
G36*
G01*
X106250001Y-89000000D02*
X105349999Y-89000000D01*
G75*
G02*
X105100000Y-88750001I0J249999D01*
G01*
X105100000Y-88224999D01*
G75*
G02*
X105349999Y-87975000I249999J0D01*
G01*
X106250001Y-87975000D01*
G75*
G02*
X106500000Y-88224999I0J-249999D01*
G01*
X106500000Y-88750001D01*
G75*
G02*
X106250001Y-89000000I-249999J0D01*
G01*
G37*
G36*
G01*
X106250001Y-90825000D02*
X105349999Y-90825000D01*
G75*
G02*
X105100000Y-90575001I0J249999D01*
G01*
X105100000Y-90049999D01*
G75*
G02*
X105349999Y-89800000I249999J0D01*
G01*
X106250001Y-89800000D01*
G75*
G02*
X106500000Y-90049999I0J-249999D01*
G01*
X106500000Y-90575001D01*
G75*
G02*
X106250001Y-90825000I-249999J0D01*
G01*
G37*
G36*
G01*
X78349999Y-97700000D02*
X79250001Y-97700000D01*
G75*
G02*
X79500000Y-97949999I0J-249999D01*
G01*
X79500000Y-98475001D01*
G75*
G02*
X79250001Y-98725000I-249999J0D01*
G01*
X78349999Y-98725000D01*
G75*
G02*
X78100000Y-98475001I0J249999D01*
G01*
X78100000Y-97949999D01*
G75*
G02*
X78349999Y-97700000I249999J0D01*
G01*
G37*
G36*
G01*
X78349999Y-95875000D02*
X79250001Y-95875000D01*
G75*
G02*
X79500000Y-96124999I0J-249999D01*
G01*
X79500000Y-96650001D01*
G75*
G02*
X79250001Y-96900000I-249999J0D01*
G01*
X78349999Y-96900000D01*
G75*
G02*
X78100000Y-96650001I0J249999D01*
G01*
X78100000Y-96124999D01*
G75*
G02*
X78349999Y-95875000I249999J0D01*
G01*
G37*
G36*
G01*
X78349999Y-94000000D02*
X79250001Y-94000000D01*
G75*
G02*
X79500000Y-94249999I0J-249999D01*
G01*
X79500000Y-94775001D01*
G75*
G02*
X79250001Y-95025000I-249999J0D01*
G01*
X78349999Y-95025000D01*
G75*
G02*
X78100000Y-94775001I0J249999D01*
G01*
X78100000Y-94249999D01*
G75*
G02*
X78349999Y-94000000I249999J0D01*
G01*
G37*
G36*
G01*
X78349999Y-92175000D02*
X79250001Y-92175000D01*
G75*
G02*
X79500000Y-92424999I0J-249999D01*
G01*
X79500000Y-92950001D01*
G75*
G02*
X79250001Y-93200000I-249999J0D01*
G01*
X78349999Y-93200000D01*
G75*
G02*
X78100000Y-92950001I0J249999D01*
G01*
X78100000Y-92424999D01*
G75*
G02*
X78349999Y-92175000I249999J0D01*
G01*
G37*
G36*
G01*
X78249999Y-110100000D02*
X79150001Y-110100000D01*
G75*
G02*
X79400000Y-110349999I0J-249999D01*
G01*
X79400000Y-110875001D01*
G75*
G02*
X79150001Y-111125000I-249999J0D01*
G01*
X78249999Y-111125000D01*
G75*
G02*
X78000000Y-110875001I0J249999D01*
G01*
X78000000Y-110349999D01*
G75*
G02*
X78249999Y-110100000I249999J0D01*
G01*
G37*
G36*
G01*
X78249999Y-108275000D02*
X79150001Y-108275000D01*
G75*
G02*
X79400000Y-108524999I0J-249999D01*
G01*
X79400000Y-109050001D01*
G75*
G02*
X79150001Y-109300000I-249999J0D01*
G01*
X78249999Y-109300000D01*
G75*
G02*
X78000000Y-109050001I0J249999D01*
G01*
X78000000Y-108524999D01*
G75*
G02*
X78249999Y-108275000I249999J0D01*
G01*
G37*
G36*
G01*
X78249999Y-106100000D02*
X79150001Y-106100000D01*
G75*
G02*
X79400000Y-106349999I0J-249999D01*
G01*
X79400000Y-106875001D01*
G75*
G02*
X79150001Y-107125000I-249999J0D01*
G01*
X78249999Y-107125000D01*
G75*
G02*
X78000000Y-106875001I0J249999D01*
G01*
X78000000Y-106349999D01*
G75*
G02*
X78249999Y-106100000I249999J0D01*
G01*
G37*
G36*
G01*
X78249999Y-104275000D02*
X79150001Y-104275000D01*
G75*
G02*
X79400000Y-104524999I0J-249999D01*
G01*
X79400000Y-105050001D01*
G75*
G02*
X79150001Y-105300000I-249999J0D01*
G01*
X78249999Y-105300000D01*
G75*
G02*
X78000000Y-105050001I0J249999D01*
G01*
X78000000Y-104524999D01*
G75*
G02*
X78249999Y-104275000I249999J0D01*
G01*
G37*
G36*
G01*
X95368494Y-91261765D02*
X95075045Y-91555214D01*
G75*
G02*
X94781595Y-91555214I-146725J146725D01*
G01*
X94488146Y-91261765D01*
G75*
G02*
X94488146Y-90968315I146725J146725D01*
G01*
X94781595Y-90674866D01*
G75*
G02*
X95075045Y-90674866I146725J-146725D01*
G01*
X95368494Y-90968315D01*
G75*
G02*
X95368494Y-91261765I-146725J-146725D01*
G01*
G37*
G36*
G01*
X94640174Y-91990085D02*
X94346725Y-92283534D01*
G75*
G02*
X94053275Y-92283534I-146725J146725D01*
G01*
X93759826Y-91990085D01*
G75*
G02*
X93759826Y-91696635I146725J146725D01*
G01*
X94053275Y-91403186D01*
G75*
G02*
X94346725Y-91403186I146725J-146725D01*
G01*
X94640174Y-91696635D01*
G75*
G02*
X94640174Y-91990085I-146725J-146725D01*
G01*
G37*
G36*
G01*
X93911854Y-92718405D02*
X93618405Y-93011854D01*
G75*
G02*
X93324955Y-93011854I-146725J146725D01*
G01*
X93031506Y-92718405D01*
G75*
G02*
X93031506Y-92424955I146725J146725D01*
G01*
X93324955Y-92131506D01*
G75*
G02*
X93618405Y-92131506I146725J-146725D01*
G01*
X93911854Y-92424955D01*
G75*
G02*
X93911854Y-92718405I-146725J-146725D01*
G01*
G37*
G36*
G01*
X96096814Y-91990085D02*
X95803365Y-92283534D01*
G75*
G02*
X95509915Y-92283534I-146725J146725D01*
G01*
X95216466Y-91990085D01*
G75*
G02*
X95216466Y-91696635I146725J146725D01*
G01*
X95509915Y-91403186D01*
G75*
G02*
X95803365Y-91403186I146725J-146725D01*
G01*
X96096814Y-91696635D01*
G75*
G02*
X96096814Y-91990085I-146725J-146725D01*
G01*
G37*
G36*
G01*
X95368494Y-92718405D02*
X95075045Y-93011854D01*
G75*
G02*
X94781595Y-93011854I-146725J146725D01*
G01*
X94488146Y-92718405D01*
G75*
G02*
X94488146Y-92424955I146725J146725D01*
G01*
X94781595Y-92131506D01*
G75*
G02*
X95075045Y-92131506I146725J-146725D01*
G01*
X95368494Y-92424955D01*
G75*
G02*
X95368494Y-92718405I-146725J-146725D01*
G01*
G37*
G36*
G01*
X94640174Y-93446725D02*
X94346725Y-93740174D01*
G75*
G02*
X94053275Y-93740174I-146725J146725D01*
G01*
X93759826Y-93446725D01*
G75*
G02*
X93759826Y-93153275I146725J146725D01*
G01*
X94053275Y-92859826D01*
G75*
G02*
X94346725Y-92859826I146725J-146725D01*
G01*
X94640174Y-93153275D01*
G75*
G02*
X94640174Y-93446725I-146725J-146725D01*
G01*
G37*
G36*
G01*
X96825134Y-92718405D02*
X96531685Y-93011854D01*
G75*
G02*
X96238235Y-93011854I-146725J146725D01*
G01*
X95944786Y-92718405D01*
G75*
G02*
X95944786Y-92424955I146725J146725D01*
G01*
X96238235Y-92131506D01*
G75*
G02*
X96531685Y-92131506I146725J-146725D01*
G01*
X96825134Y-92424955D01*
G75*
G02*
X96825134Y-92718405I-146725J-146725D01*
G01*
G37*
G36*
G01*
X96096814Y-93446725D02*
X95803365Y-93740174D01*
G75*
G02*
X95509915Y-93740174I-146725J146725D01*
G01*
X95216466Y-93446725D01*
G75*
G02*
X95216466Y-93153275I146725J146725D01*
G01*
X95509915Y-92859826D01*
G75*
G02*
X95803365Y-92859826I146725J-146725D01*
G01*
X96096814Y-93153275D01*
G75*
G02*
X96096814Y-93446725I-146725J-146725D01*
G01*
G37*
G36*
G01*
X95368494Y-94175045D02*
X95075045Y-94468494D01*
G75*
G02*
X94781595Y-94468494I-146725J146725D01*
G01*
X94488146Y-94175045D01*
G75*
G02*
X94488146Y-93881595I146725J146725D01*
G01*
X94781595Y-93588146D01*
G75*
G02*
X95075045Y-93588146I146725J-146725D01*
G01*
X95368494Y-93881595D01*
G75*
G02*
X95368494Y-94175045I-146725J-146725D01*
G01*
G37*
G36*
G01*
X94795737Y-95355913D02*
X94265407Y-95886243D01*
G75*
G02*
X94177019Y-95886243I-44194J44194D01*
G01*
X94088631Y-95797855D01*
G75*
G02*
X94088631Y-95709467I44194J44194D01*
G01*
X94618961Y-95179137D01*
G75*
G02*
X94707349Y-95179137I44194J-44194D01*
G01*
X94795737Y-95267525D01*
G75*
G02*
X94795737Y-95355913I-44194J-44194D01*
G01*
G37*
G36*
G01*
X94442184Y-95002359D02*
X93911854Y-95532689D01*
G75*
G02*
X93823466Y-95532689I-44194J44194D01*
G01*
X93735078Y-95444301D01*
G75*
G02*
X93735078Y-95355913I44194J44194D01*
G01*
X94265408Y-94825583D01*
G75*
G02*
X94353796Y-94825583I44194J-44194D01*
G01*
X94442184Y-94913971D01*
G75*
G02*
X94442184Y-95002359I-44194J-44194D01*
G01*
G37*
G36*
G01*
X94088630Y-94648806D02*
X93558300Y-95179136D01*
G75*
G02*
X93469912Y-95179136I-44194J44194D01*
G01*
X93381524Y-95090748D01*
G75*
G02*
X93381524Y-95002360I44194J44194D01*
G01*
X93911854Y-94472030D01*
G75*
G02*
X94000242Y-94472030I44194J-44194D01*
G01*
X94088630Y-94560418D01*
G75*
G02*
X94088630Y-94648806I-44194J-44194D01*
G01*
G37*
G36*
G01*
X93735077Y-94295252D02*
X93204747Y-94825582D01*
G75*
G02*
X93116359Y-94825582I-44194J44194D01*
G01*
X93027971Y-94737194D01*
G75*
G02*
X93027971Y-94648806I44194J44194D01*
G01*
X93558301Y-94118476D01*
G75*
G02*
X93646689Y-94118476I44194J-44194D01*
G01*
X93735077Y-94206864D01*
G75*
G02*
X93735077Y-94295252I-44194J-44194D01*
G01*
G37*
G36*
G01*
X93381524Y-93941699D02*
X92851194Y-94472029D01*
G75*
G02*
X92762806Y-94472029I-44194J44194D01*
G01*
X92674418Y-94383641D01*
G75*
G02*
X92674418Y-94295253I44194J44194D01*
G01*
X93204748Y-93764923D01*
G75*
G02*
X93293136Y-93764923I44194J-44194D01*
G01*
X93381524Y-93853311D01*
G75*
G02*
X93381524Y-93941699I-44194J-44194D01*
G01*
G37*
G36*
G01*
X93027970Y-93588146D02*
X92497640Y-94118476D01*
G75*
G02*
X92409252Y-94118476I-44194J44194D01*
G01*
X92320864Y-94030088D01*
G75*
G02*
X92320864Y-93941700I44194J44194D01*
G01*
X92851194Y-93411370D01*
G75*
G02*
X92939582Y-93411370I44194J-44194D01*
G01*
X93027970Y-93499758D01*
G75*
G02*
X93027970Y-93588146I-44194J-44194D01*
G01*
G37*
G36*
G01*
X92674417Y-93234592D02*
X92144087Y-93764922D01*
G75*
G02*
X92055699Y-93764922I-44194J44194D01*
G01*
X91967311Y-93676534D01*
G75*
G02*
X91967311Y-93588146I44194J44194D01*
G01*
X92497641Y-93057816D01*
G75*
G02*
X92586029Y-93057816I44194J-44194D01*
G01*
X92674417Y-93146204D01*
G75*
G02*
X92674417Y-93234592I-44194J-44194D01*
G01*
G37*
G36*
G01*
X92320863Y-92881039D02*
X91790533Y-93411369D01*
G75*
G02*
X91702145Y-93411369I-44194J44194D01*
G01*
X91613757Y-93322981D01*
G75*
G02*
X91613757Y-93234593I44194J44194D01*
G01*
X92144087Y-92704263D01*
G75*
G02*
X92232475Y-92704263I44194J-44194D01*
G01*
X92320863Y-92792651D01*
G75*
G02*
X92320863Y-92881039I-44194J-44194D01*
G01*
G37*
G36*
G01*
X92320863Y-92350709D02*
X92232475Y-92439097D01*
G75*
G02*
X92144087Y-92439097I-44194J44194D01*
G01*
X91613757Y-91908767D01*
G75*
G02*
X91613757Y-91820379I44194J44194D01*
G01*
X91702145Y-91731991D01*
G75*
G02*
X91790533Y-91731991I44194J-44194D01*
G01*
X92320863Y-92262321D01*
G75*
G02*
X92320863Y-92350709I-44194J-44194D01*
G01*
G37*
G36*
G01*
X92674417Y-91997156D02*
X92586029Y-92085544D01*
G75*
G02*
X92497641Y-92085544I-44194J44194D01*
G01*
X91967311Y-91555214D01*
G75*
G02*
X91967311Y-91466826I44194J44194D01*
G01*
X92055699Y-91378438D01*
G75*
G02*
X92144087Y-91378438I44194J-44194D01*
G01*
X92674417Y-91908768D01*
G75*
G02*
X92674417Y-91997156I-44194J-44194D01*
G01*
G37*
G36*
G01*
X93027970Y-91643602D02*
X92939582Y-91731990D01*
G75*
G02*
X92851194Y-91731990I-44194J44194D01*
G01*
X92320864Y-91201660D01*
G75*
G02*
X92320864Y-91113272I44194J44194D01*
G01*
X92409252Y-91024884D01*
G75*
G02*
X92497640Y-91024884I44194J-44194D01*
G01*
X93027970Y-91555214D01*
G75*
G02*
X93027970Y-91643602I-44194J-44194D01*
G01*
G37*
G36*
G01*
X93381524Y-91290049D02*
X93293136Y-91378437D01*
G75*
G02*
X93204748Y-91378437I-44194J44194D01*
G01*
X92674418Y-90848107D01*
G75*
G02*
X92674418Y-90759719I44194J44194D01*
G01*
X92762806Y-90671331D01*
G75*
G02*
X92851194Y-90671331I44194J-44194D01*
G01*
X93381524Y-91201661D01*
G75*
G02*
X93381524Y-91290049I-44194J-44194D01*
G01*
G37*
G36*
G01*
X93735077Y-90936496D02*
X93646689Y-91024884D01*
G75*
G02*
X93558301Y-91024884I-44194J44194D01*
G01*
X93027971Y-90494554D01*
G75*
G02*
X93027971Y-90406166I44194J44194D01*
G01*
X93116359Y-90317778D01*
G75*
G02*
X93204747Y-90317778I44194J-44194D01*
G01*
X93735077Y-90848108D01*
G75*
G02*
X93735077Y-90936496I-44194J-44194D01*
G01*
G37*
G36*
G01*
X94088630Y-90582942D02*
X94000242Y-90671330D01*
G75*
G02*
X93911854Y-90671330I-44194J44194D01*
G01*
X93381524Y-90141000D01*
G75*
G02*
X93381524Y-90052612I44194J44194D01*
G01*
X93469912Y-89964224D01*
G75*
G02*
X93558300Y-89964224I44194J-44194D01*
G01*
X94088630Y-90494554D01*
G75*
G02*
X94088630Y-90582942I-44194J-44194D01*
G01*
G37*
G36*
G01*
X94442184Y-90229389D02*
X94353796Y-90317777D01*
G75*
G02*
X94265408Y-90317777I-44194J44194D01*
G01*
X93735078Y-89787447D01*
G75*
G02*
X93735078Y-89699059I44194J44194D01*
G01*
X93823466Y-89610671D01*
G75*
G02*
X93911854Y-89610671I44194J-44194D01*
G01*
X94442184Y-90141001D01*
G75*
G02*
X94442184Y-90229389I-44194J-44194D01*
G01*
G37*
G36*
G01*
X94795737Y-89875835D02*
X94707349Y-89964223D01*
G75*
G02*
X94618961Y-89964223I-44194J44194D01*
G01*
X94088631Y-89433893D01*
G75*
G02*
X94088631Y-89345505I44194J44194D01*
G01*
X94177019Y-89257117D01*
G75*
G02*
X94265407Y-89257117I44194J-44194D01*
G01*
X94795737Y-89787447D01*
G75*
G02*
X94795737Y-89875835I-44194J-44194D01*
G01*
G37*
G36*
G01*
X95768009Y-89433893D02*
X95237679Y-89964223D01*
G75*
G02*
X95149291Y-89964223I-44194J44194D01*
G01*
X95060903Y-89875835D01*
G75*
G02*
X95060903Y-89787447I44194J44194D01*
G01*
X95591233Y-89257117D01*
G75*
G02*
X95679621Y-89257117I44194J-44194D01*
G01*
X95768009Y-89345505D01*
G75*
G02*
X95768009Y-89433893I-44194J-44194D01*
G01*
G37*
G36*
G01*
X96121562Y-89787447D02*
X95591232Y-90317777D01*
G75*
G02*
X95502844Y-90317777I-44194J44194D01*
G01*
X95414456Y-90229389D01*
G75*
G02*
X95414456Y-90141001I44194J44194D01*
G01*
X95944786Y-89610671D01*
G75*
G02*
X96033174Y-89610671I44194J-44194D01*
G01*
X96121562Y-89699059D01*
G75*
G02*
X96121562Y-89787447I-44194J-44194D01*
G01*
G37*
G36*
G01*
X96475116Y-90141000D02*
X95944786Y-90671330D01*
G75*
G02*
X95856398Y-90671330I-44194J44194D01*
G01*
X95768010Y-90582942D01*
G75*
G02*
X95768010Y-90494554I44194J44194D01*
G01*
X96298340Y-89964224D01*
G75*
G02*
X96386728Y-89964224I44194J-44194D01*
G01*
X96475116Y-90052612D01*
G75*
G02*
X96475116Y-90141000I-44194J-44194D01*
G01*
G37*
G36*
G01*
X96828669Y-90494554D02*
X96298339Y-91024884D01*
G75*
G02*
X96209951Y-91024884I-44194J44194D01*
G01*
X96121563Y-90936496D01*
G75*
G02*
X96121563Y-90848108I44194J44194D01*
G01*
X96651893Y-90317778D01*
G75*
G02*
X96740281Y-90317778I44194J-44194D01*
G01*
X96828669Y-90406166D01*
G75*
G02*
X96828669Y-90494554I-44194J-44194D01*
G01*
G37*
G36*
G01*
X97182222Y-90848107D02*
X96651892Y-91378437D01*
G75*
G02*
X96563504Y-91378437I-44194J44194D01*
G01*
X96475116Y-91290049D01*
G75*
G02*
X96475116Y-91201661I44194J44194D01*
G01*
X97005446Y-90671331D01*
G75*
G02*
X97093834Y-90671331I44194J-44194D01*
G01*
X97182222Y-90759719D01*
G75*
G02*
X97182222Y-90848107I-44194J-44194D01*
G01*
G37*
G36*
G01*
X97535776Y-91201660D02*
X97005446Y-91731990D01*
G75*
G02*
X96917058Y-91731990I-44194J44194D01*
G01*
X96828670Y-91643602D01*
G75*
G02*
X96828670Y-91555214I44194J44194D01*
G01*
X97359000Y-91024884D01*
G75*
G02*
X97447388Y-91024884I44194J-44194D01*
G01*
X97535776Y-91113272D01*
G75*
G02*
X97535776Y-91201660I-44194J-44194D01*
G01*
G37*
G36*
G01*
X97889329Y-91555214D02*
X97358999Y-92085544D01*
G75*
G02*
X97270611Y-92085544I-44194J44194D01*
G01*
X97182223Y-91997156D01*
G75*
G02*
X97182223Y-91908768I44194J44194D01*
G01*
X97712553Y-91378438D01*
G75*
G02*
X97800941Y-91378438I44194J-44194D01*
G01*
X97889329Y-91466826D01*
G75*
G02*
X97889329Y-91555214I-44194J-44194D01*
G01*
G37*
G36*
G01*
X98242883Y-91908767D02*
X97712553Y-92439097D01*
G75*
G02*
X97624165Y-92439097I-44194J44194D01*
G01*
X97535777Y-92350709D01*
G75*
G02*
X97535777Y-92262321I44194J44194D01*
G01*
X98066107Y-91731991D01*
G75*
G02*
X98154495Y-91731991I44194J-44194D01*
G01*
X98242883Y-91820379D01*
G75*
G02*
X98242883Y-91908767I-44194J-44194D01*
G01*
G37*
G36*
G01*
X98242883Y-93322981D02*
X98154495Y-93411369D01*
G75*
G02*
X98066107Y-93411369I-44194J44194D01*
G01*
X97535777Y-92881039D01*
G75*
G02*
X97535777Y-92792651I44194J44194D01*
G01*
X97624165Y-92704263D01*
G75*
G02*
X97712553Y-92704263I44194J-44194D01*
G01*
X98242883Y-93234593D01*
G75*
G02*
X98242883Y-93322981I-44194J-44194D01*
G01*
G37*
G36*
G01*
X97889329Y-93676534D02*
X97800941Y-93764922D01*
G75*
G02*
X97712553Y-93764922I-44194J44194D01*
G01*
X97182223Y-93234592D01*
G75*
G02*
X97182223Y-93146204I44194J44194D01*
G01*
X97270611Y-93057816D01*
G75*
G02*
X97358999Y-93057816I44194J-44194D01*
G01*
X97889329Y-93588146D01*
G75*
G02*
X97889329Y-93676534I-44194J-44194D01*
G01*
G37*
G36*
G01*
X97535776Y-94030088D02*
X97447388Y-94118476D01*
G75*
G02*
X97359000Y-94118476I-44194J44194D01*
G01*
X96828670Y-93588146D01*
G75*
G02*
X96828670Y-93499758I44194J44194D01*
G01*
X96917058Y-93411370D01*
G75*
G02*
X97005446Y-93411370I44194J-44194D01*
G01*
X97535776Y-93941700D01*
G75*
G02*
X97535776Y-94030088I-44194J-44194D01*
G01*
G37*
G36*
G01*
X97182222Y-94383641D02*
X97093834Y-94472029D01*
G75*
G02*
X97005446Y-94472029I-44194J44194D01*
G01*
X96475116Y-93941699D01*
G75*
G02*
X96475116Y-93853311I44194J44194D01*
G01*
X96563504Y-93764923D01*
G75*
G02*
X96651892Y-93764923I44194J-44194D01*
G01*
X97182222Y-94295253D01*
G75*
G02*
X97182222Y-94383641I-44194J-44194D01*
G01*
G37*
G36*
G01*
X96828669Y-94737194D02*
X96740281Y-94825582D01*
G75*
G02*
X96651893Y-94825582I-44194J44194D01*
G01*
X96121563Y-94295252D01*
G75*
G02*
X96121563Y-94206864I44194J44194D01*
G01*
X96209951Y-94118476D01*
G75*
G02*
X96298339Y-94118476I44194J-44194D01*
G01*
X96828669Y-94648806D01*
G75*
G02*
X96828669Y-94737194I-44194J-44194D01*
G01*
G37*
G36*
G01*
X96475116Y-95090748D02*
X96386728Y-95179136D01*
G75*
G02*
X96298340Y-95179136I-44194J44194D01*
G01*
X95768010Y-94648806D01*
G75*
G02*
X95768010Y-94560418I44194J44194D01*
G01*
X95856398Y-94472030D01*
G75*
G02*
X95944786Y-94472030I44194J-44194D01*
G01*
X96475116Y-95002360D01*
G75*
G02*
X96475116Y-95090748I-44194J-44194D01*
G01*
G37*
G36*
G01*
X96121562Y-95444301D02*
X96033174Y-95532689D01*
G75*
G02*
X95944786Y-95532689I-44194J44194D01*
G01*
X95414456Y-95002359D01*
G75*
G02*
X95414456Y-94913971I44194J44194D01*
G01*
X95502844Y-94825583D01*
G75*
G02*
X95591232Y-94825583I44194J-44194D01*
G01*
X96121562Y-95355913D01*
G75*
G02*
X96121562Y-95444301I-44194J-44194D01*
G01*
G37*
G36*
G01*
X95768009Y-95797855D02*
X95679621Y-95886243D01*
G75*
G02*
X95591233Y-95886243I-44194J44194D01*
G01*
X95060903Y-95355913D01*
G75*
G02*
X95060903Y-95267525I44194J44194D01*
G01*
X95149291Y-95179137D01*
G75*
G02*
X95237679Y-95179137I44194J-44194D01*
G01*
X95768009Y-95709467D01*
G75*
G02*
X95768009Y-95797855I-44194J-44194D01*
G01*
G37*
G36*
G01*
X108049999Y-112800000D02*
X108950001Y-112800000D01*
G75*
G02*
X109200000Y-113049999I0J-249999D01*
G01*
X109200000Y-113575001D01*
G75*
G02*
X108950001Y-113825000I-249999J0D01*
G01*
X108049999Y-113825000D01*
G75*
G02*
X107800000Y-113575001I0J249999D01*
G01*
X107800000Y-113049999D01*
G75*
G02*
X108049999Y-112800000I249999J0D01*
G01*
G37*
G36*
G01*
X108049999Y-110975000D02*
X108950001Y-110975000D01*
G75*
G02*
X109200000Y-111224999I0J-249999D01*
G01*
X109200000Y-111750001D01*
G75*
G02*
X108950001Y-112000000I-249999J0D01*
G01*
X108049999Y-112000000D01*
G75*
G02*
X107800000Y-111750001I0J249999D01*
G01*
X107800000Y-111224999D01*
G75*
G02*
X108049999Y-110975000I249999J0D01*
G01*
G37*
G36*
G01*
X109849999Y-89800000D02*
X110750001Y-89800000D01*
G75*
G02*
X111000000Y-90049999I0J-249999D01*
G01*
X111000000Y-90575001D01*
G75*
G02*
X110750001Y-90825000I-249999J0D01*
G01*
X109849999Y-90825000D01*
G75*
G02*
X109600000Y-90575001I0J249999D01*
G01*
X109600000Y-90049999D01*
G75*
G02*
X109849999Y-89800000I249999J0D01*
G01*
G37*
G36*
G01*
X109849999Y-87975000D02*
X110750001Y-87975000D01*
G75*
G02*
X111000000Y-88224999I0J-249999D01*
G01*
X111000000Y-88750001D01*
G75*
G02*
X110750001Y-89000000I-249999J0D01*
G01*
X109849999Y-89000000D01*
G75*
G02*
X109600000Y-88750001I0J249999D01*
G01*
X109600000Y-88224999D01*
G75*
G02*
X109849999Y-87975000I249999J0D01*
G01*
G37*
G36*
G01*
X107649999Y-89800000D02*
X108550001Y-89800000D01*
G75*
G02*
X108800000Y-90049999I0J-249999D01*
G01*
X108800000Y-90575001D01*
G75*
G02*
X108550001Y-90825000I-249999J0D01*
G01*
X107649999Y-90825000D01*
G75*
G02*
X107400000Y-90575001I0J249999D01*
G01*
X107400000Y-90049999D01*
G75*
G02*
X107649999Y-89800000I249999J0D01*
G01*
G37*
G36*
G01*
X107649999Y-87975000D02*
X108550001Y-87975000D01*
G75*
G02*
X108800000Y-88224999I0J-249999D01*
G01*
X108800000Y-88750001D01*
G75*
G02*
X108550001Y-89000000I-249999J0D01*
G01*
X107649999Y-89000000D01*
G75*
G02*
X107400000Y-88750001I0J249999D01*
G01*
X107400000Y-88224999D01*
G75*
G02*
X107649999Y-87975000I249999J0D01*
G01*
G37*
G36*
G01*
X93212500Y-111650001D02*
X93212500Y-110749999D01*
G75*
G02*
X93462499Y-110500000I249999J0D01*
G01*
X93987501Y-110500000D01*
G75*
G02*
X94237500Y-110749999I0J-249999D01*
G01*
X94237500Y-111650001D01*
G75*
G02*
X93987501Y-111900000I-249999J0D01*
G01*
X93462499Y-111900000D01*
G75*
G02*
X93212500Y-111650001I0J249999D01*
G01*
G37*
G36*
G01*
X91387500Y-111650001D02*
X91387500Y-110749999D01*
G75*
G02*
X91637499Y-110500000I249999J0D01*
G01*
X92162501Y-110500000D01*
G75*
G02*
X92412500Y-110749999I0J-249999D01*
G01*
X92412500Y-111650001D01*
G75*
G02*
X92162501Y-111900000I-249999J0D01*
G01*
X91637499Y-111900000D01*
G75*
G02*
X91387500Y-111650001I0J249999D01*
G01*
G37*
G36*
G01*
X90517678Y-86445927D02*
X89845927Y-87117678D01*
G75*
G02*
X89492373Y-87117678I-176777J176777D01*
G01*
X89138820Y-86764125D01*
G75*
G02*
X89138820Y-86410571I176777J176777D01*
G01*
X89810571Y-85738820D01*
G75*
G02*
X90164125Y-85738820I176777J-176777D01*
G01*
X90517678Y-86092373D01*
G75*
G02*
X90517678Y-86445927I-176777J-176777D01*
G01*
G37*
G36*
G01*
X91861180Y-87789429D02*
X91189429Y-88461180D01*
G75*
G02*
X90835875Y-88461180I-176777J176777D01*
G01*
X90482322Y-88107627D01*
G75*
G02*
X90482322Y-87754073I176777J176777D01*
G01*
X91154073Y-87082322D01*
G75*
G02*
X91507627Y-87082322I176777J-176777D01*
G01*
X91861180Y-87435875D01*
G75*
G02*
X91861180Y-87789429I-176777J-176777D01*
G01*
G37*
G36*
G01*
X92117678Y-84845927D02*
X91445927Y-85517678D01*
G75*
G02*
X91092373Y-85517678I-176777J176777D01*
G01*
X90738820Y-85164125D01*
G75*
G02*
X90738820Y-84810571I176777J176777D01*
G01*
X91410571Y-84138820D01*
G75*
G02*
X91764125Y-84138820I176777J-176777D01*
G01*
X92117678Y-84492373D01*
G75*
G02*
X92117678Y-84845927I-176777J-176777D01*
G01*
G37*
G36*
G01*
X93461180Y-86189429D02*
X92789429Y-86861180D01*
G75*
G02*
X92435875Y-86861180I-176777J176777D01*
G01*
X92082322Y-86507627D01*
G75*
G02*
X92082322Y-86154073I176777J176777D01*
G01*
X92754073Y-85482322D01*
G75*
G02*
X93107627Y-85482322I176777J-176777D01*
G01*
X93461180Y-85835875D01*
G75*
G02*
X93461180Y-86189429I-176777J-176777D01*
G01*
G37*
G36*
G01*
X88045927Y-95282322D02*
X88717678Y-95954073D01*
G75*
G02*
X88717678Y-96307627I-176777J-176777D01*
G01*
X88364125Y-96661180D01*
G75*
G02*
X88010571Y-96661180I-176777J176777D01*
G01*
X87338820Y-95989429D01*
G75*
G02*
X87338820Y-95635875I176777J176777D01*
G01*
X87692373Y-95282322D01*
G75*
G02*
X88045927Y-95282322I176777J-176777D01*
G01*
G37*
G36*
G01*
X89389429Y-93938820D02*
X90061180Y-94610571D01*
G75*
G02*
X90061180Y-94964125I-176777J-176777D01*
G01*
X89707627Y-95317678D01*
G75*
G02*
X89354073Y-95317678I-176777J176777D01*
G01*
X88682322Y-94645927D01*
G75*
G02*
X88682322Y-94292373I176777J176777D01*
G01*
X89035875Y-93938820D01*
G75*
G02*
X89389429Y-93938820I176777J-176777D01*
G01*
G37*
G36*
G01*
X89645927Y-96982322D02*
X90317678Y-97654073D01*
G75*
G02*
X90317678Y-98007627I-176777J-176777D01*
G01*
X89964125Y-98361180D01*
G75*
G02*
X89610571Y-98361180I-176777J176777D01*
G01*
X88938820Y-97689429D01*
G75*
G02*
X88938820Y-97335875I176777J176777D01*
G01*
X89292373Y-96982322D01*
G75*
G02*
X89645927Y-96982322I176777J-176777D01*
G01*
G37*
G36*
G01*
X90989429Y-95638820D02*
X91661180Y-96310571D01*
G75*
G02*
X91661180Y-96664125I-176777J-176777D01*
G01*
X91307627Y-97017678D01*
G75*
G02*
X90954073Y-97017678I-176777J176777D01*
G01*
X90282322Y-96345927D01*
G75*
G02*
X90282322Y-95992373I176777J176777D01*
G01*
X90635875Y-95638820D01*
G75*
G02*
X90989429Y-95638820I176777J-176777D01*
G01*
G37*
G36*
G01*
X104200000Y-122225001D02*
X104200000Y-120974999D01*
G75*
G02*
X104449999Y-120725000I249999J0D01*
G01*
X105075001Y-120725000D01*
G75*
G02*
X105325000Y-120974999I0J-249999D01*
G01*
X105325000Y-122225001D01*
G75*
G02*
X105075001Y-122475000I-249999J0D01*
G01*
X104449999Y-122475000D01*
G75*
G02*
X104200000Y-122225001I0J249999D01*
G01*
G37*
G36*
G01*
X101275000Y-122225001D02*
X101275000Y-120974999D01*
G75*
G02*
X101524999Y-120725000I249999J0D01*
G01*
X102150001Y-120725000D01*
G75*
G02*
X102400000Y-120974999I0J-249999D01*
G01*
X102400000Y-122225001D01*
G75*
G02*
X102150001Y-122475000I-249999J0D01*
G01*
X101524999Y-122475000D01*
G75*
G02*
X101275000Y-122225001I0J249999D01*
G01*
G37*
G36*
G01*
X95800000Y-120874999D02*
X95800000Y-122125001D01*
G75*
G02*
X95550001Y-122375000I-249999J0D01*
G01*
X94924999Y-122375000D01*
G75*
G02*
X94675000Y-122125001I0J249999D01*
G01*
X94675000Y-120874999D01*
G75*
G02*
X94924999Y-120625000I249999J0D01*
G01*
X95550001Y-120625000D01*
G75*
G02*
X95800000Y-120874999I0J-249999D01*
G01*
G37*
G36*
G01*
X98725000Y-120874999D02*
X98725000Y-122125001D01*
G75*
G02*
X98475001Y-122375000I-249999J0D01*
G01*
X97849999Y-122375000D01*
G75*
G02*
X97600000Y-122125001I0J249999D01*
G01*
X97600000Y-120874999D01*
G75*
G02*
X97849999Y-120625000I249999J0D01*
G01*
X98475001Y-120625000D01*
G75*
G02*
X98725000Y-120874999I0J-249999D01*
G01*
G37*
G36*
G01*
X106875000Y-111950000D02*
X105925000Y-111950000D01*
G75*
G02*
X105675000Y-111700000I0J250000D01*
G01*
X105675000Y-111200000D01*
G75*
G02*
X105925000Y-110950000I250000J0D01*
G01*
X106875000Y-110950000D01*
G75*
G02*
X107125000Y-111200000I0J-250000D01*
G01*
X107125000Y-111700000D01*
G75*
G02*
X106875000Y-111950000I-250000J0D01*
G01*
G37*
G36*
G01*
X106875000Y-113850000D02*
X105925000Y-113850000D01*
G75*
G02*
X105675000Y-113600000I0J250000D01*
G01*
X105675000Y-113100000D01*
G75*
G02*
X105925000Y-112850000I250000J0D01*
G01*
X106875000Y-112850000D01*
G75*
G02*
X107125000Y-113100000I0J-250000D01*
G01*
X107125000Y-113600000D01*
G75*
G02*
X106875000Y-113850000I-250000J0D01*
G01*
G37*
G36*
G01*
X93250000Y-118975000D02*
X93250000Y-118025000D01*
G75*
G02*
X93500000Y-117775000I250000J0D01*
G01*
X94000000Y-117775000D01*
G75*
G02*
X94250000Y-118025000I0J-250000D01*
G01*
X94250000Y-118975000D01*
G75*
G02*
X94000000Y-119225000I-250000J0D01*
G01*
X93500000Y-119225000D01*
G75*
G02*
X93250000Y-118975000I0J250000D01*
G01*
G37*
G36*
G01*
X91350000Y-118975000D02*
X91350000Y-118025000D01*
G75*
G02*
X91600000Y-117775000I250000J0D01*
G01*
X92100000Y-117775000D01*
G75*
G02*
X92350000Y-118025000I0J-250000D01*
G01*
X92350000Y-118975000D01*
G75*
G02*
X92100000Y-119225000I-250000J0D01*
G01*
X91600000Y-119225000D01*
G75*
G02*
X91350000Y-118975000I0J250000D01*
G01*
G37*
G36*
G01*
X106850000Y-118025000D02*
X106850000Y-118975000D01*
G75*
G02*
X106600000Y-119225000I-250000J0D01*
G01*
X106100000Y-119225000D01*
G75*
G02*
X105850000Y-118975000I0J250000D01*
G01*
X105850000Y-118025000D01*
G75*
G02*
X106100000Y-117775000I250000J0D01*
G01*
X106600000Y-117775000D01*
G75*
G02*
X106850000Y-118025000I0J-250000D01*
G01*
G37*
G36*
G01*
X108750000Y-118025000D02*
X108750000Y-118975000D01*
G75*
G02*
X108500000Y-119225000I-250000J0D01*
G01*
X108000000Y-119225000D01*
G75*
G02*
X107750000Y-118975000I0J250000D01*
G01*
X107750000Y-118025000D01*
G75*
G02*
X108000000Y-117775000I250000J0D01*
G01*
X108500000Y-117775000D01*
G75*
G02*
X108750000Y-118025000I0J-250000D01*
G01*
G37*
G36*
G01*
X92350000Y-112925000D02*
X92350000Y-113875000D01*
G75*
G02*
X92100000Y-114125000I-250000J0D01*
G01*
X91600000Y-114125000D01*
G75*
G02*
X91350000Y-113875000I0J250000D01*
G01*
X91350000Y-112925000D01*
G75*
G02*
X91600000Y-112675000I250000J0D01*
G01*
X92100000Y-112675000D01*
G75*
G02*
X92350000Y-112925000I0J-250000D01*
G01*
G37*
G36*
G01*
X94250000Y-112925000D02*
X94250000Y-113875000D01*
G75*
G02*
X94000000Y-114125000I-250000J0D01*
G01*
X93500000Y-114125000D01*
G75*
G02*
X93250000Y-113875000I0J250000D01*
G01*
X93250000Y-112925000D01*
G75*
G02*
X93500000Y-112675000I250000J0D01*
G01*
X94000000Y-112675000D01*
G75*
G02*
X94250000Y-112925000I0J-250000D01*
G01*
G37*
G36*
G01*
X115050000Y-99475000D02*
X115050000Y-98525000D01*
G75*
G02*
X115300000Y-98275000I250000J0D01*
G01*
X115800000Y-98275000D01*
G75*
G02*
X116050000Y-98525000I0J-250000D01*
G01*
X116050000Y-99475000D01*
G75*
G02*
X115800000Y-99725000I-250000J0D01*
G01*
X115300000Y-99725000D01*
G75*
G02*
X115050000Y-99475000I0J250000D01*
G01*
G37*
G36*
G01*
X113150000Y-99475000D02*
X113150000Y-98525000D01*
G75*
G02*
X113400000Y-98275000I250000J0D01*
G01*
X113900000Y-98275000D01*
G75*
G02*
X114150000Y-98525000I0J-250000D01*
G01*
X114150000Y-99475000D01*
G75*
G02*
X113900000Y-99725000I-250000J0D01*
G01*
X113400000Y-99725000D01*
G75*
G02*
X113150000Y-99475000I0J250000D01*
G01*
G37*
G36*
G01*
X117950000Y-98575000D02*
X117950000Y-99525000D01*
G75*
G02*
X117700000Y-99775000I-250000J0D01*
G01*
X117200000Y-99775000D01*
G75*
G02*
X116950000Y-99525000I0J250000D01*
G01*
X116950000Y-98575000D01*
G75*
G02*
X117200000Y-98325000I250000J0D01*
G01*
X117700000Y-98325000D01*
G75*
G02*
X117950000Y-98575000I0J-250000D01*
G01*
G37*
G36*
G01*
X119850000Y-98575000D02*
X119850000Y-99525000D01*
G75*
G02*
X119600000Y-99775000I-250000J0D01*
G01*
X119100000Y-99775000D01*
G75*
G02*
X118850000Y-99525000I0J250000D01*
G01*
X118850000Y-98575000D01*
G75*
G02*
X119100000Y-98325000I250000J0D01*
G01*
X119600000Y-98325000D01*
G75*
G02*
X119850000Y-98575000I0J-250000D01*
G01*
G37*
D10*
X114950000Y-106725000D03*
X118000000Y-110075000D03*
X118000000Y-106725000D03*
X114950000Y-110075000D03*
D11*
X114195000Y-102100000D03*
X118755000Y-102100000D03*
G36*
G01*
X92350000Y-115225000D02*
X92350000Y-116175000D01*
G75*
G02*
X92100000Y-116425000I-250000J0D01*
G01*
X91600000Y-116425000D01*
G75*
G02*
X91350000Y-116175000I0J250000D01*
G01*
X91350000Y-115225000D01*
G75*
G02*
X91600000Y-114975000I250000J0D01*
G01*
X92100000Y-114975000D01*
G75*
G02*
X92350000Y-115225000I0J-250000D01*
G01*
G37*
G36*
G01*
X94250000Y-115225000D02*
X94250000Y-116175000D01*
G75*
G02*
X94000000Y-116425000I-250000J0D01*
G01*
X93500000Y-116425000D01*
G75*
G02*
X93250000Y-116175000I0J250000D01*
G01*
X93250000Y-115225000D01*
G75*
G02*
X93500000Y-114975000I250000J0D01*
G01*
X94000000Y-114975000D01*
G75*
G02*
X94250000Y-115225000I0J-250000D01*
G01*
G37*
G36*
G01*
X94925000Y-83150000D02*
X95875000Y-83150000D01*
G75*
G02*
X96125000Y-83400000I0J-250000D01*
G01*
X96125000Y-83900000D01*
G75*
G02*
X95875000Y-84150000I-250000J0D01*
G01*
X94925000Y-84150000D01*
G75*
G02*
X94675000Y-83900000I0J250000D01*
G01*
X94675000Y-83400000D01*
G75*
G02*
X94925000Y-83150000I250000J0D01*
G01*
G37*
G36*
G01*
X94925000Y-81250000D02*
X95875000Y-81250000D01*
G75*
G02*
X96125000Y-81500000I0J-250000D01*
G01*
X96125000Y-82000000D01*
G75*
G02*
X95875000Y-82250000I-250000J0D01*
G01*
X94925000Y-82250000D01*
G75*
G02*
X94675000Y-82000000I0J250000D01*
G01*
X94675000Y-81500000D01*
G75*
G02*
X94925000Y-81250000I250000J0D01*
G01*
G37*
D12*
X98750000Y-82700000D03*
X98750000Y-83650000D03*
X98750000Y-81750000D03*
X101450000Y-81750000D03*
X101450000Y-82700000D03*
X101450000Y-83650000D03*
G36*
G01*
X102275000Y-115650000D02*
X101325000Y-115650000D01*
G75*
G02*
X101075000Y-115400000I0J250000D01*
G01*
X101075000Y-113600000D01*
G75*
G02*
X101325000Y-113350000I250000J0D01*
G01*
X102275000Y-113350000D01*
G75*
G02*
X102525000Y-113600000I0J-250000D01*
G01*
X102525000Y-115400000D01*
G75*
G02*
X102275000Y-115650000I-250000J0D01*
G01*
G37*
G36*
G01*
X100475000Y-115650000D02*
X99525000Y-115650000D01*
G75*
G02*
X99275000Y-115400000I0J250000D01*
G01*
X99275000Y-113600000D01*
G75*
G02*
X99525000Y-113350000I250000J0D01*
G01*
X100475000Y-113350000D01*
G75*
G02*
X100725000Y-113600000I0J-250000D01*
G01*
X100725000Y-115400000D01*
G75*
G02*
X100475000Y-115650000I-250000J0D01*
G01*
G37*
G36*
G01*
X98675000Y-115650000D02*
X97725000Y-115650000D01*
G75*
G02*
X97475000Y-115400000I0J250000D01*
G01*
X97475000Y-113600000D01*
G75*
G02*
X97725000Y-113350000I250000J0D01*
G01*
X98675000Y-113350000D01*
G75*
G02*
X98925000Y-113600000I0J-250000D01*
G01*
X98925000Y-115400000D01*
G75*
G02*
X98675000Y-115650000I-250000J0D01*
G01*
G37*
G36*
G01*
X95875000Y-112375000D02*
X95675000Y-112375000D01*
G75*
G02*
X95575000Y-112275000I0J100000D01*
G01*
X95575000Y-111000000D01*
G75*
G02*
X95675000Y-110900000I100000J0D01*
G01*
X95875000Y-110900000D01*
G75*
G02*
X95975000Y-111000000I0J-100000D01*
G01*
X95975000Y-112275000D01*
G75*
G02*
X95875000Y-112375000I-100000J0D01*
G01*
G37*
G36*
G01*
X96525000Y-112375000D02*
X96325000Y-112375000D01*
G75*
G02*
X96225000Y-112275000I0J100000D01*
G01*
X96225000Y-111000000D01*
G75*
G02*
X96325000Y-110900000I100000J0D01*
G01*
X96525000Y-110900000D01*
G75*
G02*
X96625000Y-111000000I0J-100000D01*
G01*
X96625000Y-112275000D01*
G75*
G02*
X96525000Y-112375000I-100000J0D01*
G01*
G37*
G36*
G01*
X97175000Y-112375000D02*
X96975000Y-112375000D01*
G75*
G02*
X96875000Y-112275000I0J100000D01*
G01*
X96875000Y-111000000D01*
G75*
G02*
X96975000Y-110900000I100000J0D01*
G01*
X97175000Y-110900000D01*
G75*
G02*
X97275000Y-111000000I0J-100000D01*
G01*
X97275000Y-112275000D01*
G75*
G02*
X97175000Y-112375000I-100000J0D01*
G01*
G37*
G36*
G01*
X97825000Y-112375000D02*
X97625000Y-112375000D01*
G75*
G02*
X97525000Y-112275000I0J100000D01*
G01*
X97525000Y-111000000D01*
G75*
G02*
X97625000Y-110900000I100000J0D01*
G01*
X97825000Y-110900000D01*
G75*
G02*
X97925000Y-111000000I0J-100000D01*
G01*
X97925000Y-112275000D01*
G75*
G02*
X97825000Y-112375000I-100000J0D01*
G01*
G37*
G36*
G01*
X98475000Y-112375000D02*
X98275000Y-112375000D01*
G75*
G02*
X98175000Y-112275000I0J100000D01*
G01*
X98175000Y-111000000D01*
G75*
G02*
X98275000Y-110900000I100000J0D01*
G01*
X98475000Y-110900000D01*
G75*
G02*
X98575000Y-111000000I0J-100000D01*
G01*
X98575000Y-112275000D01*
G75*
G02*
X98475000Y-112375000I-100000J0D01*
G01*
G37*
G36*
G01*
X99125000Y-112375000D02*
X98925000Y-112375000D01*
G75*
G02*
X98825000Y-112275000I0J100000D01*
G01*
X98825000Y-111000000D01*
G75*
G02*
X98925000Y-110900000I100000J0D01*
G01*
X99125000Y-110900000D01*
G75*
G02*
X99225000Y-111000000I0J-100000D01*
G01*
X99225000Y-112275000D01*
G75*
G02*
X99125000Y-112375000I-100000J0D01*
G01*
G37*
G36*
G01*
X99775000Y-112375000D02*
X99575000Y-112375000D01*
G75*
G02*
X99475000Y-112275000I0J100000D01*
G01*
X99475000Y-111000000D01*
G75*
G02*
X99575000Y-110900000I100000J0D01*
G01*
X99775000Y-110900000D01*
G75*
G02*
X99875000Y-111000000I0J-100000D01*
G01*
X99875000Y-112275000D01*
G75*
G02*
X99775000Y-112375000I-100000J0D01*
G01*
G37*
G36*
G01*
X100425000Y-112375000D02*
X100225000Y-112375000D01*
G75*
G02*
X100125000Y-112275000I0J100000D01*
G01*
X100125000Y-111000000D01*
G75*
G02*
X100225000Y-110900000I100000J0D01*
G01*
X100425000Y-110900000D01*
G75*
G02*
X100525000Y-111000000I0J-100000D01*
G01*
X100525000Y-112275000D01*
G75*
G02*
X100425000Y-112375000I-100000J0D01*
G01*
G37*
G36*
G01*
X101075000Y-112375000D02*
X100875000Y-112375000D01*
G75*
G02*
X100775000Y-112275000I0J100000D01*
G01*
X100775000Y-111000000D01*
G75*
G02*
X100875000Y-110900000I100000J0D01*
G01*
X101075000Y-110900000D01*
G75*
G02*
X101175000Y-111000000I0J-100000D01*
G01*
X101175000Y-112275000D01*
G75*
G02*
X101075000Y-112375000I-100000J0D01*
G01*
G37*
G36*
G01*
X101725000Y-112375000D02*
X101525000Y-112375000D01*
G75*
G02*
X101425000Y-112275000I0J100000D01*
G01*
X101425000Y-111000000D01*
G75*
G02*
X101525000Y-110900000I100000J0D01*
G01*
X101725000Y-110900000D01*
G75*
G02*
X101825000Y-111000000I0J-100000D01*
G01*
X101825000Y-112275000D01*
G75*
G02*
X101725000Y-112375000I-100000J0D01*
G01*
G37*
G36*
G01*
X102375000Y-112375000D02*
X102175000Y-112375000D01*
G75*
G02*
X102075000Y-112275000I0J100000D01*
G01*
X102075000Y-111000000D01*
G75*
G02*
X102175000Y-110900000I100000J0D01*
G01*
X102375000Y-110900000D01*
G75*
G02*
X102475000Y-111000000I0J-100000D01*
G01*
X102475000Y-112275000D01*
G75*
G02*
X102375000Y-112375000I-100000J0D01*
G01*
G37*
G36*
G01*
X103025000Y-112375000D02*
X102825000Y-112375000D01*
G75*
G02*
X102725000Y-112275000I0J100000D01*
G01*
X102725000Y-111000000D01*
G75*
G02*
X102825000Y-110900000I100000J0D01*
G01*
X103025000Y-110900000D01*
G75*
G02*
X103125000Y-111000000I0J-100000D01*
G01*
X103125000Y-112275000D01*
G75*
G02*
X103025000Y-112375000I-100000J0D01*
G01*
G37*
G36*
G01*
X103675000Y-112375000D02*
X103475000Y-112375000D01*
G75*
G02*
X103375000Y-112275000I0J100000D01*
G01*
X103375000Y-111000000D01*
G75*
G02*
X103475000Y-110900000I100000J0D01*
G01*
X103675000Y-110900000D01*
G75*
G02*
X103775000Y-111000000I0J-100000D01*
G01*
X103775000Y-112275000D01*
G75*
G02*
X103675000Y-112375000I-100000J0D01*
G01*
G37*
G36*
G01*
X104325000Y-112375000D02*
X104125000Y-112375000D01*
G75*
G02*
X104025000Y-112275000I0J100000D01*
G01*
X104025000Y-111000000D01*
G75*
G02*
X104125000Y-110900000I100000J0D01*
G01*
X104325000Y-110900000D01*
G75*
G02*
X104425000Y-111000000I0J-100000D01*
G01*
X104425000Y-112275000D01*
G75*
G02*
X104325000Y-112375000I-100000J0D01*
G01*
G37*
G36*
G01*
X104325000Y-118100000D02*
X104125000Y-118100000D01*
G75*
G02*
X104025000Y-118000000I0J100000D01*
G01*
X104025000Y-116725000D01*
G75*
G02*
X104125000Y-116625000I100000J0D01*
G01*
X104325000Y-116625000D01*
G75*
G02*
X104425000Y-116725000I0J-100000D01*
G01*
X104425000Y-118000000D01*
G75*
G02*
X104325000Y-118100000I-100000J0D01*
G01*
G37*
G36*
G01*
X103675000Y-118100000D02*
X103475000Y-118100000D01*
G75*
G02*
X103375000Y-118000000I0J100000D01*
G01*
X103375000Y-116725000D01*
G75*
G02*
X103475000Y-116625000I100000J0D01*
G01*
X103675000Y-116625000D01*
G75*
G02*
X103775000Y-116725000I0J-100000D01*
G01*
X103775000Y-118000000D01*
G75*
G02*
X103675000Y-118100000I-100000J0D01*
G01*
G37*
G36*
G01*
X103025000Y-118100000D02*
X102825000Y-118100000D01*
G75*
G02*
X102725000Y-118000000I0J100000D01*
G01*
X102725000Y-116725000D01*
G75*
G02*
X102825000Y-116625000I100000J0D01*
G01*
X103025000Y-116625000D01*
G75*
G02*
X103125000Y-116725000I0J-100000D01*
G01*
X103125000Y-118000000D01*
G75*
G02*
X103025000Y-118100000I-100000J0D01*
G01*
G37*
G36*
G01*
X102375000Y-118100000D02*
X102175000Y-118100000D01*
G75*
G02*
X102075000Y-118000000I0J100000D01*
G01*
X102075000Y-116725000D01*
G75*
G02*
X102175000Y-116625000I100000J0D01*
G01*
X102375000Y-116625000D01*
G75*
G02*
X102475000Y-116725000I0J-100000D01*
G01*
X102475000Y-118000000D01*
G75*
G02*
X102375000Y-118100000I-100000J0D01*
G01*
G37*
G36*
G01*
X101725000Y-118100000D02*
X101525000Y-118100000D01*
G75*
G02*
X101425000Y-118000000I0J100000D01*
G01*
X101425000Y-116725000D01*
G75*
G02*
X101525000Y-116625000I100000J0D01*
G01*
X101725000Y-116625000D01*
G75*
G02*
X101825000Y-116725000I0J-100000D01*
G01*
X101825000Y-118000000D01*
G75*
G02*
X101725000Y-118100000I-100000J0D01*
G01*
G37*
G36*
G01*
X101075000Y-118100000D02*
X100875000Y-118100000D01*
G75*
G02*
X100775000Y-118000000I0J100000D01*
G01*
X100775000Y-116725000D01*
G75*
G02*
X100875000Y-116625000I100000J0D01*
G01*
X101075000Y-116625000D01*
G75*
G02*
X101175000Y-116725000I0J-100000D01*
G01*
X101175000Y-118000000D01*
G75*
G02*
X101075000Y-118100000I-100000J0D01*
G01*
G37*
G36*
G01*
X100425000Y-118100000D02*
X100225000Y-118100000D01*
G75*
G02*
X100125000Y-118000000I0J100000D01*
G01*
X100125000Y-116725000D01*
G75*
G02*
X100225000Y-116625000I100000J0D01*
G01*
X100425000Y-116625000D01*
G75*
G02*
X100525000Y-116725000I0J-100000D01*
G01*
X100525000Y-118000000D01*
G75*
G02*
X100425000Y-118100000I-100000J0D01*
G01*
G37*
G36*
G01*
X99775000Y-118100000D02*
X99575000Y-118100000D01*
G75*
G02*
X99475000Y-118000000I0J100000D01*
G01*
X99475000Y-116725000D01*
G75*
G02*
X99575000Y-116625000I100000J0D01*
G01*
X99775000Y-116625000D01*
G75*
G02*
X99875000Y-116725000I0J-100000D01*
G01*
X99875000Y-118000000D01*
G75*
G02*
X99775000Y-118100000I-100000J0D01*
G01*
G37*
G36*
G01*
X99125000Y-118100000D02*
X98925000Y-118100000D01*
G75*
G02*
X98825000Y-118000000I0J100000D01*
G01*
X98825000Y-116725000D01*
G75*
G02*
X98925000Y-116625000I100000J0D01*
G01*
X99125000Y-116625000D01*
G75*
G02*
X99225000Y-116725000I0J-100000D01*
G01*
X99225000Y-118000000D01*
G75*
G02*
X99125000Y-118100000I-100000J0D01*
G01*
G37*
G36*
G01*
X98475000Y-118100000D02*
X98275000Y-118100000D01*
G75*
G02*
X98175000Y-118000000I0J100000D01*
G01*
X98175000Y-116725000D01*
G75*
G02*
X98275000Y-116625000I100000J0D01*
G01*
X98475000Y-116625000D01*
G75*
G02*
X98575000Y-116725000I0J-100000D01*
G01*
X98575000Y-118000000D01*
G75*
G02*
X98475000Y-118100000I-100000J0D01*
G01*
G37*
G36*
G01*
X97825000Y-118100000D02*
X97625000Y-118100000D01*
G75*
G02*
X97525000Y-118000000I0J100000D01*
G01*
X97525000Y-116725000D01*
G75*
G02*
X97625000Y-116625000I100000J0D01*
G01*
X97825000Y-116625000D01*
G75*
G02*
X97925000Y-116725000I0J-100000D01*
G01*
X97925000Y-118000000D01*
G75*
G02*
X97825000Y-118100000I-100000J0D01*
G01*
G37*
G36*
G01*
X97175000Y-118100000D02*
X96975000Y-118100000D01*
G75*
G02*
X96875000Y-118000000I0J100000D01*
G01*
X96875000Y-116725000D01*
G75*
G02*
X96975000Y-116625000I100000J0D01*
G01*
X97175000Y-116625000D01*
G75*
G02*
X97275000Y-116725000I0J-100000D01*
G01*
X97275000Y-118000000D01*
G75*
G02*
X97175000Y-118100000I-100000J0D01*
G01*
G37*
G36*
G01*
X96525000Y-118100000D02*
X96325000Y-118100000D01*
G75*
G02*
X96225000Y-118000000I0J100000D01*
G01*
X96225000Y-116725000D01*
G75*
G02*
X96325000Y-116625000I100000J0D01*
G01*
X96525000Y-116625000D01*
G75*
G02*
X96625000Y-116725000I0J-100000D01*
G01*
X96625000Y-118000000D01*
G75*
G02*
X96525000Y-118100000I-100000J0D01*
G01*
G37*
G36*
G01*
X95875000Y-118100000D02*
X95675000Y-118100000D01*
G75*
G02*
X95575000Y-118000000I0J100000D01*
G01*
X95575000Y-116725000D01*
G75*
G02*
X95675000Y-116625000I100000J0D01*
G01*
X95875000Y-116625000D01*
G75*
G02*
X95975000Y-116725000I0J-100000D01*
G01*
X95975000Y-118000000D01*
G75*
G02*
X95875000Y-118100000I-100000J0D01*
G01*
G37*
M02*
