G04 #@! TF.GenerationSoftware,KiCad,Pcbnew,(5.1.12)-1*
G04 #@! TF.CreationDate,2022-09-24T14:43:29-05:00*
G04 #@! TF.ProjectId,Power_Board_001,506f7765-725f-4426-9f61-72645f303031,rev?*
G04 #@! TF.SameCoordinates,Original*
G04 #@! TF.FileFunction,Soldermask,Top*
G04 #@! TF.FilePolarity,Negative*
%FSLAX46Y46*%
G04 Gerber Fmt 4.6, Leading zero omitted, Abs format (unit mm)*
G04 Created by KiCad (PCBNEW (5.1.12)-1) date 2022-09-24 14:43:29*
%MOMM*%
%LPD*%
G01*
G04 APERTURE LIST*
%ADD10C,1.700000*%
%ADD11C,3.800000*%
%ADD12C,5.600000*%
G04 APERTURE END LIST*
D10*
X152810000Y-88000000D03*
X150270000Y-88000000D03*
X145190000Y-88000000D03*
X147730000Y-88000000D03*
X152810000Y-74000000D03*
X150270000Y-74000000D03*
X145190000Y-74000000D03*
X147730000Y-74000000D03*
X135810000Y-88000000D03*
X133270000Y-88000000D03*
X128190000Y-88000000D03*
X130730000Y-88000000D03*
X135810000Y-74000000D03*
X133270000Y-74000000D03*
X128190000Y-74000000D03*
X130730000Y-74000000D03*
D11*
X127000000Y-81500000D03*
X154000000Y-81500000D03*
D12*
X120500000Y-88000000D03*
X120500000Y-75000000D03*
X160500000Y-88000000D03*
X160500000Y-75000000D03*
G36*
G01*
X148550000Y-82525000D02*
X148550000Y-83475000D01*
G75*
G02*
X148300000Y-83725000I-250000J0D01*
G01*
X147625000Y-83725000D01*
G75*
G02*
X147375000Y-83475000I0J250000D01*
G01*
X147375000Y-82525000D01*
G75*
G02*
X147625000Y-82275000I250000J0D01*
G01*
X148300000Y-82275000D01*
G75*
G02*
X148550000Y-82525000I0J-250000D01*
G01*
G37*
G36*
G01*
X150625000Y-82525000D02*
X150625000Y-83475000D01*
G75*
G02*
X150375000Y-83725000I-250000J0D01*
G01*
X149700000Y-83725000D01*
G75*
G02*
X149450000Y-83475000I0J250000D01*
G01*
X149450000Y-82525000D01*
G75*
G02*
X149700000Y-82275000I250000J0D01*
G01*
X150375000Y-82275000D01*
G75*
G02*
X150625000Y-82525000I0J-250000D01*
G01*
G37*
G36*
G01*
X148550000Y-79525000D02*
X148550000Y-80475000D01*
G75*
G02*
X148300000Y-80725000I-250000J0D01*
G01*
X147625000Y-80725000D01*
G75*
G02*
X147375000Y-80475000I0J250000D01*
G01*
X147375000Y-79525000D01*
G75*
G02*
X147625000Y-79275000I250000J0D01*
G01*
X148300000Y-79275000D01*
G75*
G02*
X148550000Y-79525000I0J-250000D01*
G01*
G37*
G36*
G01*
X150625000Y-79525000D02*
X150625000Y-80475000D01*
G75*
G02*
X150375000Y-80725000I-250000J0D01*
G01*
X149700000Y-80725000D01*
G75*
G02*
X149450000Y-80475000I0J250000D01*
G01*
X149450000Y-79525000D01*
G75*
G02*
X149700000Y-79275000I250000J0D01*
G01*
X150375000Y-79275000D01*
G75*
G02*
X150625000Y-79525000I0J-250000D01*
G01*
G37*
G36*
G01*
X131550000Y-82525000D02*
X131550000Y-83475000D01*
G75*
G02*
X131300000Y-83725000I-250000J0D01*
G01*
X130625000Y-83725000D01*
G75*
G02*
X130375000Y-83475000I0J250000D01*
G01*
X130375000Y-82525000D01*
G75*
G02*
X130625000Y-82275000I250000J0D01*
G01*
X131300000Y-82275000D01*
G75*
G02*
X131550000Y-82525000I0J-250000D01*
G01*
G37*
G36*
G01*
X133625000Y-82525000D02*
X133625000Y-83475000D01*
G75*
G02*
X133375000Y-83725000I-250000J0D01*
G01*
X132700000Y-83725000D01*
G75*
G02*
X132450000Y-83475000I0J250000D01*
G01*
X132450000Y-82525000D01*
G75*
G02*
X132700000Y-82275000I250000J0D01*
G01*
X133375000Y-82275000D01*
G75*
G02*
X133625000Y-82525000I0J-250000D01*
G01*
G37*
G36*
G01*
X131550000Y-79525000D02*
X131550000Y-80475000D01*
G75*
G02*
X131300000Y-80725000I-250000J0D01*
G01*
X130625000Y-80725000D01*
G75*
G02*
X130375000Y-80475000I0J250000D01*
G01*
X130375000Y-79525000D01*
G75*
G02*
X130625000Y-79275000I250000J0D01*
G01*
X131300000Y-79275000D01*
G75*
G02*
X131550000Y-79525000I0J-250000D01*
G01*
G37*
G36*
G01*
X133625000Y-79525000D02*
X133625000Y-80475000D01*
G75*
G02*
X133375000Y-80725000I-250000J0D01*
G01*
X132700000Y-80725000D01*
G75*
G02*
X132450000Y-80475000I0J250000D01*
G01*
X132450000Y-79525000D01*
G75*
G02*
X132700000Y-79275000I250000J0D01*
G01*
X133375000Y-79275000D01*
G75*
G02*
X133625000Y-79525000I0J-250000D01*
G01*
G37*
M02*
