G04 #@! TF.GenerationSoftware,KiCad,Pcbnew,(5.1.12)-1*
G04 #@! TF.CreationDate,2022-09-24T14:43:29-05:00*
G04 #@! TF.ProjectId,Power_Board_001,506f7765-725f-4426-9f61-72645f303031,rev?*
G04 #@! TF.SameCoordinates,Original*
G04 #@! TF.FileFunction,Legend,Top*
G04 #@! TF.FilePolarity,Positive*
%FSLAX46Y46*%
G04 Gerber Fmt 4.6, Leading zero omitted, Abs format (unit mm)*
G04 Created by KiCad (PCBNEW (5.1.12)-1) date 2022-09-24 14:43:29*
%MOMM*%
%LPD*%
G01*
G04 APERTURE LIST*
%ADD10C,0.150000*%
%ADD11C,0.120000*%
%ADD12C,1.700000*%
%ADD13C,3.800000*%
%ADD14C,5.600000*%
G04 APERTURE END LIST*
D10*
X153380952Y-70952380D02*
X152809523Y-70952380D01*
X153095238Y-70952380D02*
X153095238Y-69952380D01*
X153000000Y-70095238D01*
X152904761Y-70190476D01*
X152809523Y-70238095D01*
X153761904Y-70047619D02*
X153809523Y-70000000D01*
X153904761Y-69952380D01*
X154142857Y-69952380D01*
X154238095Y-70000000D01*
X154285714Y-70047619D01*
X154333333Y-70142857D01*
X154333333Y-70238095D01*
X154285714Y-70380952D01*
X153714285Y-70952380D01*
X154333333Y-70952380D01*
X154619047Y-69952380D02*
X154952380Y-70952380D01*
X155285714Y-69952380D01*
X149857142Y-70952380D02*
X149857142Y-69952380D01*
X150095238Y-69952380D01*
X150238095Y-70000000D01*
X150333333Y-70095238D01*
X150380952Y-70190476D01*
X150428571Y-70380952D01*
X150428571Y-70523809D01*
X150380952Y-70714285D01*
X150333333Y-70809523D01*
X150238095Y-70904761D01*
X150095238Y-70952380D01*
X149857142Y-70952380D01*
X150714285Y-69952380D02*
X151285714Y-69952380D01*
X151000000Y-70952380D02*
X151000000Y-69952380D01*
X143238095Y-70000000D02*
X143142857Y-69952380D01*
X143000000Y-69952380D01*
X142857142Y-70000000D01*
X142761904Y-70095238D01*
X142714285Y-70190476D01*
X142666666Y-70380952D01*
X142666666Y-70523809D01*
X142714285Y-70714285D01*
X142761904Y-70809523D01*
X142857142Y-70904761D01*
X143000000Y-70952380D01*
X143095238Y-70952380D01*
X143238095Y-70904761D01*
X143285714Y-70857142D01*
X143285714Y-70523809D01*
X143095238Y-70523809D01*
X143714285Y-70952380D02*
X143714285Y-69952380D01*
X144285714Y-70952380D01*
X144285714Y-69952380D01*
X144761904Y-70952380D02*
X144761904Y-69952380D01*
X145000000Y-69952380D01*
X145142857Y-70000000D01*
X145238095Y-70095238D01*
X145285714Y-70190476D01*
X145333333Y-70380952D01*
X145333333Y-70523809D01*
X145285714Y-70714285D01*
X145238095Y-70809523D01*
X145142857Y-70904761D01*
X145000000Y-70952380D01*
X144761904Y-70952380D01*
X146904761Y-70857142D02*
X146857142Y-70904761D01*
X146714285Y-70952380D01*
X146619047Y-70952380D01*
X146476190Y-70904761D01*
X146380952Y-70809523D01*
X146333333Y-70714285D01*
X146285714Y-70523809D01*
X146285714Y-70380952D01*
X146333333Y-70190476D01*
X146380952Y-70095238D01*
X146476190Y-70000000D01*
X146619047Y-69952380D01*
X146714285Y-69952380D01*
X146857142Y-70000000D01*
X146904761Y-70047619D01*
X147809523Y-70952380D02*
X147333333Y-70952380D01*
X147333333Y-69952380D01*
X148142857Y-70952380D02*
X148142857Y-69952380D01*
X148714285Y-70952380D02*
X148285714Y-70380952D01*
X148714285Y-69952380D02*
X148142857Y-70523809D01*
X135880952Y-70952380D02*
X135309523Y-70952380D01*
X135595238Y-70952380D02*
X135595238Y-69952380D01*
X135500000Y-70095238D01*
X135404761Y-70190476D01*
X135309523Y-70238095D01*
X136261904Y-70047619D02*
X136309523Y-70000000D01*
X136404761Y-69952380D01*
X136642857Y-69952380D01*
X136738095Y-70000000D01*
X136785714Y-70047619D01*
X136833333Y-70142857D01*
X136833333Y-70238095D01*
X136785714Y-70380952D01*
X136214285Y-70952380D01*
X136833333Y-70952380D01*
X137119047Y-69952380D02*
X137452380Y-70952380D01*
X137785714Y-69952380D01*
X132357142Y-70952380D02*
X132357142Y-69952380D01*
X132595238Y-69952380D01*
X132738095Y-70000000D01*
X132833333Y-70095238D01*
X132880952Y-70190476D01*
X132928571Y-70380952D01*
X132928571Y-70523809D01*
X132880952Y-70714285D01*
X132833333Y-70809523D01*
X132738095Y-70904761D01*
X132595238Y-70952380D01*
X132357142Y-70952380D01*
X133214285Y-69952380D02*
X133785714Y-69952380D01*
X133500000Y-70952380D02*
X133500000Y-69952380D01*
X125738095Y-70000000D02*
X125642857Y-69952380D01*
X125500000Y-69952380D01*
X125357142Y-70000000D01*
X125261904Y-70095238D01*
X125214285Y-70190476D01*
X125166666Y-70380952D01*
X125166666Y-70523809D01*
X125214285Y-70714285D01*
X125261904Y-70809523D01*
X125357142Y-70904761D01*
X125500000Y-70952380D01*
X125595238Y-70952380D01*
X125738095Y-70904761D01*
X125785714Y-70857142D01*
X125785714Y-70523809D01*
X125595238Y-70523809D01*
X126214285Y-70952380D02*
X126214285Y-69952380D01*
X126785714Y-70952380D01*
X126785714Y-69952380D01*
X127261904Y-70952380D02*
X127261904Y-69952380D01*
X127500000Y-69952380D01*
X127642857Y-70000000D01*
X127738095Y-70095238D01*
X127785714Y-70190476D01*
X127833333Y-70380952D01*
X127833333Y-70523809D01*
X127785714Y-70714285D01*
X127738095Y-70809523D01*
X127642857Y-70904761D01*
X127500000Y-70952380D01*
X127261904Y-70952380D01*
X129404761Y-70857142D02*
X129357142Y-70904761D01*
X129214285Y-70952380D01*
X129119047Y-70952380D01*
X128976190Y-70904761D01*
X128880952Y-70809523D01*
X128833333Y-70714285D01*
X128785714Y-70523809D01*
X128785714Y-70380952D01*
X128833333Y-70190476D01*
X128880952Y-70095238D01*
X128976190Y-70000000D01*
X129119047Y-69952380D01*
X129214285Y-69952380D01*
X129357142Y-70000000D01*
X129404761Y-70047619D01*
X130309523Y-70952380D02*
X129833333Y-70952380D01*
X129833333Y-69952380D01*
X130642857Y-70952380D02*
X130642857Y-69952380D01*
X131214285Y-70952380D02*
X130785714Y-70380952D01*
X131214285Y-69952380D02*
X130642857Y-70523809D01*
X136380952Y-92952380D02*
X135809523Y-92952380D01*
X136095238Y-92952380D02*
X136095238Y-91952380D01*
X136000000Y-92095238D01*
X135904761Y-92190476D01*
X135809523Y-92238095D01*
X136761904Y-92047619D02*
X136809523Y-92000000D01*
X136904761Y-91952380D01*
X137142857Y-91952380D01*
X137238095Y-92000000D01*
X137285714Y-92047619D01*
X137333333Y-92142857D01*
X137333333Y-92238095D01*
X137285714Y-92380952D01*
X136714285Y-92952380D01*
X137333333Y-92952380D01*
X137619047Y-91952380D02*
X137952380Y-92952380D01*
X138285714Y-91952380D01*
X132857142Y-92952380D02*
X132857142Y-91952380D01*
X133095238Y-91952380D01*
X133238095Y-92000000D01*
X133333333Y-92095238D01*
X133380952Y-92190476D01*
X133428571Y-92380952D01*
X133428571Y-92523809D01*
X133380952Y-92714285D01*
X133333333Y-92809523D01*
X133238095Y-92904761D01*
X133095238Y-92952380D01*
X132857142Y-92952380D01*
X133714285Y-91952380D02*
X134285714Y-91952380D01*
X134000000Y-92952380D02*
X134000000Y-91952380D01*
X126238095Y-92000000D02*
X126142857Y-91952380D01*
X126000000Y-91952380D01*
X125857142Y-92000000D01*
X125761904Y-92095238D01*
X125714285Y-92190476D01*
X125666666Y-92380952D01*
X125666666Y-92523809D01*
X125714285Y-92714285D01*
X125761904Y-92809523D01*
X125857142Y-92904761D01*
X126000000Y-92952380D01*
X126095238Y-92952380D01*
X126238095Y-92904761D01*
X126285714Y-92857142D01*
X126285714Y-92523809D01*
X126095238Y-92523809D01*
X126714285Y-92952380D02*
X126714285Y-91952380D01*
X127285714Y-92952380D01*
X127285714Y-91952380D01*
X127761904Y-92952380D02*
X127761904Y-91952380D01*
X128000000Y-91952380D01*
X128142857Y-92000000D01*
X128238095Y-92095238D01*
X128285714Y-92190476D01*
X128333333Y-92380952D01*
X128333333Y-92523809D01*
X128285714Y-92714285D01*
X128238095Y-92809523D01*
X128142857Y-92904761D01*
X128000000Y-92952380D01*
X127761904Y-92952380D01*
X129904761Y-92857142D02*
X129857142Y-92904761D01*
X129714285Y-92952380D01*
X129619047Y-92952380D01*
X129476190Y-92904761D01*
X129380952Y-92809523D01*
X129333333Y-92714285D01*
X129285714Y-92523809D01*
X129285714Y-92380952D01*
X129333333Y-92190476D01*
X129380952Y-92095238D01*
X129476190Y-92000000D01*
X129619047Y-91952380D01*
X129714285Y-91952380D01*
X129857142Y-92000000D01*
X129904761Y-92047619D01*
X130809523Y-92952380D02*
X130333333Y-92952380D01*
X130333333Y-91952380D01*
X131142857Y-92952380D02*
X131142857Y-91952380D01*
X131714285Y-92952380D02*
X131285714Y-92380952D01*
X131714285Y-91952380D02*
X131142857Y-92523809D01*
X143238095Y-92000000D02*
X143142857Y-91952380D01*
X143000000Y-91952380D01*
X142857142Y-92000000D01*
X142761904Y-92095238D01*
X142714285Y-92190476D01*
X142666666Y-92380952D01*
X142666666Y-92523809D01*
X142714285Y-92714285D01*
X142761904Y-92809523D01*
X142857142Y-92904761D01*
X143000000Y-92952380D01*
X143095238Y-92952380D01*
X143238095Y-92904761D01*
X143285714Y-92857142D01*
X143285714Y-92523809D01*
X143095238Y-92523809D01*
X143714285Y-92952380D02*
X143714285Y-91952380D01*
X144285714Y-92952380D01*
X144285714Y-91952380D01*
X144761904Y-92952380D02*
X144761904Y-91952380D01*
X145000000Y-91952380D01*
X145142857Y-92000000D01*
X145238095Y-92095238D01*
X145285714Y-92190476D01*
X145333333Y-92380952D01*
X145333333Y-92523809D01*
X145285714Y-92714285D01*
X145238095Y-92809523D01*
X145142857Y-92904761D01*
X145000000Y-92952380D01*
X144761904Y-92952380D01*
X146904761Y-92857142D02*
X146857142Y-92904761D01*
X146714285Y-92952380D01*
X146619047Y-92952380D01*
X146476190Y-92904761D01*
X146380952Y-92809523D01*
X146333333Y-92714285D01*
X146285714Y-92523809D01*
X146285714Y-92380952D01*
X146333333Y-92190476D01*
X146380952Y-92095238D01*
X146476190Y-92000000D01*
X146619047Y-91952380D01*
X146714285Y-91952380D01*
X146857142Y-92000000D01*
X146904761Y-92047619D01*
X147809523Y-92952380D02*
X147333333Y-92952380D01*
X147333333Y-91952380D01*
X148142857Y-92952380D02*
X148142857Y-91952380D01*
X148714285Y-92952380D02*
X148285714Y-92380952D01*
X148714285Y-91952380D02*
X148142857Y-92523809D01*
X149857142Y-92952380D02*
X149857142Y-91952380D01*
X150095238Y-91952380D01*
X150238095Y-92000000D01*
X150333333Y-92095238D01*
X150380952Y-92190476D01*
X150428571Y-92380952D01*
X150428571Y-92523809D01*
X150380952Y-92714285D01*
X150333333Y-92809523D01*
X150238095Y-92904761D01*
X150095238Y-92952380D01*
X149857142Y-92952380D01*
X150714285Y-91952380D02*
X151285714Y-91952380D01*
X151000000Y-92952380D02*
X151000000Y-91952380D01*
X153380952Y-92952380D02*
X152809523Y-92952380D01*
X153095238Y-92952380D02*
X153095238Y-91952380D01*
X153000000Y-92095238D01*
X152904761Y-92190476D01*
X152809523Y-92238095D01*
X153761904Y-92047619D02*
X153809523Y-92000000D01*
X153904761Y-91952380D01*
X154142857Y-91952380D01*
X154238095Y-92000000D01*
X154285714Y-92047619D01*
X154333333Y-92142857D01*
X154333333Y-92238095D01*
X154285714Y-92380952D01*
X153714285Y-92952380D01*
X154333333Y-92952380D01*
X154619047Y-91952380D02*
X154952380Y-92952380D01*
X155285714Y-91952380D01*
D11*
X142750000Y-91450000D02*
X142750000Y-85700000D01*
X155250000Y-91450000D02*
X142750000Y-91450000D01*
X155250000Y-85700000D02*
X155250000Y-91450000D01*
X151000000Y-85700000D02*
X147000000Y-85700000D01*
X142750000Y-85700000D02*
X145750000Y-85700000D01*
X155250000Y-85700000D02*
X152250000Y-85700000D01*
X142750000Y-77450000D02*
X142750000Y-71700000D01*
X155250000Y-77450000D02*
X142750000Y-77450000D01*
X155250000Y-71700000D02*
X155250000Y-77450000D01*
X151000000Y-71700000D02*
X147000000Y-71700000D01*
X142750000Y-71700000D02*
X145750000Y-71700000D01*
X155250000Y-71700000D02*
X152250000Y-71700000D01*
X125750000Y-91450000D02*
X125750000Y-85700000D01*
X138250000Y-91450000D02*
X125750000Y-91450000D01*
X138250000Y-85700000D02*
X138250000Y-91450000D01*
X134000000Y-85700000D02*
X130000000Y-85700000D01*
X125750000Y-85700000D02*
X128750000Y-85700000D01*
X138250000Y-85700000D02*
X135250000Y-85700000D01*
X125750000Y-77450000D02*
X125750000Y-71700000D01*
X138250000Y-77450000D02*
X125750000Y-77450000D01*
X138250000Y-71700000D02*
X138250000Y-77450000D01*
X134000000Y-71700000D02*
X130000000Y-71700000D01*
X125750000Y-71700000D02*
X128750000Y-71700000D01*
X138250000Y-71700000D02*
X135250000Y-71700000D01*
X149261252Y-82265000D02*
X148738748Y-82265000D01*
X149261252Y-83735000D02*
X148738748Y-83735000D01*
X149261252Y-79265000D02*
X148738748Y-79265000D01*
X149261252Y-80735000D02*
X148738748Y-80735000D01*
X132261252Y-82265000D02*
X131738748Y-82265000D01*
X132261252Y-83735000D02*
X131738748Y-83735000D01*
X132261252Y-79265000D02*
X131738748Y-79265000D01*
X132261252Y-80735000D02*
X131738748Y-80735000D01*
D10*
X153166666Y-89452380D02*
X153166666Y-90166666D01*
X153119047Y-90309523D01*
X153023809Y-90404761D01*
X152880952Y-90452380D01*
X152785714Y-90452380D01*
X154071428Y-89785714D02*
X154071428Y-90452380D01*
X153833333Y-89404761D02*
X153595238Y-90119047D01*
X154214285Y-90119047D01*
X153166666Y-75952380D02*
X153166666Y-76666666D01*
X153119047Y-76809523D01*
X153023809Y-76904761D01*
X152880952Y-76952380D01*
X152785714Y-76952380D01*
X153547619Y-75952380D02*
X154166666Y-75952380D01*
X153833333Y-76333333D01*
X153976190Y-76333333D01*
X154071428Y-76380952D01*
X154119047Y-76428571D01*
X154166666Y-76523809D01*
X154166666Y-76761904D01*
X154119047Y-76857142D01*
X154071428Y-76904761D01*
X153976190Y-76952380D01*
X153690476Y-76952380D01*
X153595238Y-76904761D01*
X153547619Y-76857142D01*
X136166666Y-89952380D02*
X136166666Y-90666666D01*
X136119047Y-90809523D01*
X136023809Y-90904761D01*
X135880952Y-90952380D01*
X135785714Y-90952380D01*
X136595238Y-90047619D02*
X136642857Y-90000000D01*
X136738095Y-89952380D01*
X136976190Y-89952380D01*
X137071428Y-90000000D01*
X137119047Y-90047619D01*
X137166666Y-90142857D01*
X137166666Y-90238095D01*
X137119047Y-90380952D01*
X136547619Y-90952380D01*
X137166666Y-90952380D01*
X136166666Y-75952380D02*
X136166666Y-76666666D01*
X136119047Y-76809523D01*
X136023809Y-76904761D01*
X135880952Y-76952380D01*
X135785714Y-76952380D01*
X137166666Y-76952380D02*
X136595238Y-76952380D01*
X136880952Y-76952380D02*
X136880952Y-75952380D01*
X136785714Y-76095238D01*
X136690476Y-76190476D01*
X136595238Y-76238095D01*
X126238095Y-79052380D02*
X126238095Y-78052380D01*
X126238095Y-78528571D02*
X126809523Y-78528571D01*
X126809523Y-79052380D02*
X126809523Y-78052380D01*
X127714285Y-78052380D02*
X127523809Y-78052380D01*
X127428571Y-78100000D01*
X127380952Y-78147619D01*
X127285714Y-78290476D01*
X127238095Y-78480952D01*
X127238095Y-78861904D01*
X127285714Y-78957142D01*
X127333333Y-79004761D01*
X127428571Y-79052380D01*
X127619047Y-79052380D01*
X127714285Y-79004761D01*
X127761904Y-78957142D01*
X127809523Y-78861904D01*
X127809523Y-78623809D01*
X127761904Y-78528571D01*
X127714285Y-78480952D01*
X127619047Y-78433333D01*
X127428571Y-78433333D01*
X127333333Y-78480952D01*
X127285714Y-78528571D01*
X127238095Y-78623809D01*
X156738095Y-81952380D02*
X156738095Y-80952380D01*
X156738095Y-81428571D02*
X157309523Y-81428571D01*
X157309523Y-81952380D02*
X157309523Y-80952380D01*
X158261904Y-80952380D02*
X157785714Y-80952380D01*
X157738095Y-81428571D01*
X157785714Y-81380952D01*
X157880952Y-81333333D01*
X158119047Y-81333333D01*
X158214285Y-81380952D01*
X158261904Y-81428571D01*
X158309523Y-81523809D01*
X158309523Y-81761904D01*
X158261904Y-81857142D01*
X158214285Y-81904761D01*
X158119047Y-81952380D01*
X157880952Y-81952380D01*
X157785714Y-81904761D01*
X157738095Y-81857142D01*
X148833333Y-85037142D02*
X148785714Y-85084761D01*
X148642857Y-85132380D01*
X148547619Y-85132380D01*
X148404761Y-85084761D01*
X148309523Y-84989523D01*
X148261904Y-84894285D01*
X148214285Y-84703809D01*
X148214285Y-84560952D01*
X148261904Y-84370476D01*
X148309523Y-84275238D01*
X148404761Y-84180000D01*
X148547619Y-84132380D01*
X148642857Y-84132380D01*
X148785714Y-84180000D01*
X148833333Y-84227619D01*
X149690476Y-84465714D02*
X149690476Y-85132380D01*
X149452380Y-84084761D02*
X149214285Y-84799047D01*
X149833333Y-84799047D01*
X148833333Y-82037142D02*
X148785714Y-82084761D01*
X148642857Y-82132380D01*
X148547619Y-82132380D01*
X148404761Y-82084761D01*
X148309523Y-81989523D01*
X148261904Y-81894285D01*
X148214285Y-81703809D01*
X148214285Y-81560952D01*
X148261904Y-81370476D01*
X148309523Y-81275238D01*
X148404761Y-81180000D01*
X148547619Y-81132380D01*
X148642857Y-81132380D01*
X148785714Y-81180000D01*
X148833333Y-81227619D01*
X149166666Y-81132380D02*
X149785714Y-81132380D01*
X149452380Y-81513333D01*
X149595238Y-81513333D01*
X149690476Y-81560952D01*
X149738095Y-81608571D01*
X149785714Y-81703809D01*
X149785714Y-81941904D01*
X149738095Y-82037142D01*
X149690476Y-82084761D01*
X149595238Y-82132380D01*
X149309523Y-82132380D01*
X149214285Y-82084761D01*
X149166666Y-82037142D01*
X131833333Y-85037142D02*
X131785714Y-85084761D01*
X131642857Y-85132380D01*
X131547619Y-85132380D01*
X131404761Y-85084761D01*
X131309523Y-84989523D01*
X131261904Y-84894285D01*
X131214285Y-84703809D01*
X131214285Y-84560952D01*
X131261904Y-84370476D01*
X131309523Y-84275238D01*
X131404761Y-84180000D01*
X131547619Y-84132380D01*
X131642857Y-84132380D01*
X131785714Y-84180000D01*
X131833333Y-84227619D01*
X132214285Y-84227619D02*
X132261904Y-84180000D01*
X132357142Y-84132380D01*
X132595238Y-84132380D01*
X132690476Y-84180000D01*
X132738095Y-84227619D01*
X132785714Y-84322857D01*
X132785714Y-84418095D01*
X132738095Y-84560952D01*
X132166666Y-85132380D01*
X132785714Y-85132380D01*
X131833333Y-82037142D02*
X131785714Y-82084761D01*
X131642857Y-82132380D01*
X131547619Y-82132380D01*
X131404761Y-82084761D01*
X131309523Y-81989523D01*
X131261904Y-81894285D01*
X131214285Y-81703809D01*
X131214285Y-81560952D01*
X131261904Y-81370476D01*
X131309523Y-81275238D01*
X131404761Y-81180000D01*
X131547619Y-81132380D01*
X131642857Y-81132380D01*
X131785714Y-81180000D01*
X131833333Y-81227619D01*
X132785714Y-82132380D02*
X132214285Y-82132380D01*
X132500000Y-82132380D02*
X132500000Y-81132380D01*
X132404761Y-81275238D01*
X132309523Y-81370476D01*
X132214285Y-81418095D01*
%LPC*%
D12*
X152810000Y-88000000D03*
X150270000Y-88000000D03*
X145190000Y-88000000D03*
X147730000Y-88000000D03*
X152810000Y-74000000D03*
X150270000Y-74000000D03*
X145190000Y-74000000D03*
X147730000Y-74000000D03*
X135810000Y-88000000D03*
X133270000Y-88000000D03*
X128190000Y-88000000D03*
X130730000Y-88000000D03*
X135810000Y-74000000D03*
X133270000Y-74000000D03*
X128190000Y-74000000D03*
X130730000Y-74000000D03*
D13*
X127000000Y-81500000D03*
X154000000Y-81500000D03*
D14*
X120500000Y-88000000D03*
X120500000Y-75000000D03*
X160500000Y-88000000D03*
X160500000Y-75000000D03*
G36*
G01*
X148550000Y-82525000D02*
X148550000Y-83475000D01*
G75*
G02*
X148300000Y-83725000I-250000J0D01*
G01*
X147625000Y-83725000D01*
G75*
G02*
X147375000Y-83475000I0J250000D01*
G01*
X147375000Y-82525000D01*
G75*
G02*
X147625000Y-82275000I250000J0D01*
G01*
X148300000Y-82275000D01*
G75*
G02*
X148550000Y-82525000I0J-250000D01*
G01*
G37*
G36*
G01*
X150625000Y-82525000D02*
X150625000Y-83475000D01*
G75*
G02*
X150375000Y-83725000I-250000J0D01*
G01*
X149700000Y-83725000D01*
G75*
G02*
X149450000Y-83475000I0J250000D01*
G01*
X149450000Y-82525000D01*
G75*
G02*
X149700000Y-82275000I250000J0D01*
G01*
X150375000Y-82275000D01*
G75*
G02*
X150625000Y-82525000I0J-250000D01*
G01*
G37*
G36*
G01*
X148550000Y-79525000D02*
X148550000Y-80475000D01*
G75*
G02*
X148300000Y-80725000I-250000J0D01*
G01*
X147625000Y-80725000D01*
G75*
G02*
X147375000Y-80475000I0J250000D01*
G01*
X147375000Y-79525000D01*
G75*
G02*
X147625000Y-79275000I250000J0D01*
G01*
X148300000Y-79275000D01*
G75*
G02*
X148550000Y-79525000I0J-250000D01*
G01*
G37*
G36*
G01*
X150625000Y-79525000D02*
X150625000Y-80475000D01*
G75*
G02*
X150375000Y-80725000I-250000J0D01*
G01*
X149700000Y-80725000D01*
G75*
G02*
X149450000Y-80475000I0J250000D01*
G01*
X149450000Y-79525000D01*
G75*
G02*
X149700000Y-79275000I250000J0D01*
G01*
X150375000Y-79275000D01*
G75*
G02*
X150625000Y-79525000I0J-250000D01*
G01*
G37*
G36*
G01*
X131550000Y-82525000D02*
X131550000Y-83475000D01*
G75*
G02*
X131300000Y-83725000I-250000J0D01*
G01*
X130625000Y-83725000D01*
G75*
G02*
X130375000Y-83475000I0J250000D01*
G01*
X130375000Y-82525000D01*
G75*
G02*
X130625000Y-82275000I250000J0D01*
G01*
X131300000Y-82275000D01*
G75*
G02*
X131550000Y-82525000I0J-250000D01*
G01*
G37*
G36*
G01*
X133625000Y-82525000D02*
X133625000Y-83475000D01*
G75*
G02*
X133375000Y-83725000I-250000J0D01*
G01*
X132700000Y-83725000D01*
G75*
G02*
X132450000Y-83475000I0J250000D01*
G01*
X132450000Y-82525000D01*
G75*
G02*
X132700000Y-82275000I250000J0D01*
G01*
X133375000Y-82275000D01*
G75*
G02*
X133625000Y-82525000I0J-250000D01*
G01*
G37*
G36*
G01*
X131550000Y-79525000D02*
X131550000Y-80475000D01*
G75*
G02*
X131300000Y-80725000I-250000J0D01*
G01*
X130625000Y-80725000D01*
G75*
G02*
X130375000Y-80475000I0J250000D01*
G01*
X130375000Y-79525000D01*
G75*
G02*
X130625000Y-79275000I250000J0D01*
G01*
X131300000Y-79275000D01*
G75*
G02*
X131550000Y-79525000I0J-250000D01*
G01*
G37*
G36*
G01*
X133625000Y-79525000D02*
X133625000Y-80475000D01*
G75*
G02*
X133375000Y-80725000I-250000J0D01*
G01*
X132700000Y-80725000D01*
G75*
G02*
X132450000Y-80475000I0J250000D01*
G01*
X132450000Y-79525000D01*
G75*
G02*
X132700000Y-79275000I250000J0D01*
G01*
X133375000Y-79275000D01*
G75*
G02*
X133625000Y-79525000I0J-250000D01*
G01*
G37*
M02*
