G04 #@! TF.GenerationSoftware,KiCad,Pcbnew,(5.1.12)-1*
G04 #@! TF.CreationDate,2022-09-24T14:43:29-05:00*
G04 #@! TF.ProjectId,Power_Board_001,506f7765-725f-4426-9f61-72645f303031,rev?*
G04 #@! TF.SameCoordinates,Original*
G04 #@! TF.FileFunction,Copper,L2,Bot*
G04 #@! TF.FilePolarity,Positive*
%FSLAX46Y46*%
G04 Gerber Fmt 4.6, Leading zero omitted, Abs format (unit mm)*
G04 Created by KiCad (PCBNEW (5.1.12)-1) date 2022-09-24 14:43:29*
%MOMM*%
%LPD*%
G01*
G04 APERTURE LIST*
G04 #@! TA.AperFunction,ComponentPad*
%ADD10C,1.700000*%
G04 #@! TD*
G04 #@! TA.AperFunction,ComponentPad*
%ADD11C,3.800000*%
G04 #@! TD*
G04 #@! TA.AperFunction,ComponentPad*
%ADD12C,5.600000*%
G04 #@! TD*
G04 #@! TA.AperFunction,ViaPad*
%ADD13C,0.800000*%
G04 #@! TD*
G04 #@! TA.AperFunction,Conductor*
%ADD14C,0.600000*%
G04 #@! TD*
G04 #@! TA.AperFunction,Conductor*
%ADD15C,0.254000*%
G04 #@! TD*
G04 #@! TA.AperFunction,Conductor*
%ADD16C,0.100000*%
G04 #@! TD*
G04 APERTURE END LIST*
D10*
X152810000Y-88000000D03*
X150270000Y-88000000D03*
X145190000Y-88000000D03*
X147730000Y-88000000D03*
X152810000Y-74000000D03*
X150270000Y-74000000D03*
X145190000Y-74000000D03*
X147730000Y-74000000D03*
X135810000Y-88000000D03*
X133270000Y-88000000D03*
X128190000Y-88000000D03*
X130730000Y-88000000D03*
X135810000Y-74000000D03*
X133270000Y-74000000D03*
X128190000Y-74000000D03*
X130730000Y-74000000D03*
D11*
X127000000Y-81500000D03*
X154000000Y-81500000D03*
D12*
X120500000Y-88000000D03*
X120500000Y-75000000D03*
X160500000Y-88000000D03*
X160500000Y-75000000D03*
D13*
X128500000Y-84500000D03*
X128500000Y-78500000D03*
X146000000Y-80000000D03*
X146000000Y-83000000D03*
D14*
X150270000Y-88000000D02*
X150270000Y-74000000D01*
X133270000Y-88000000D02*
X133270000Y-74000000D01*
X150270000Y-72770000D02*
X150270000Y-74000000D01*
X149500000Y-72000000D02*
X150270000Y-72770000D01*
X134000000Y-72000000D02*
X149500000Y-72000000D01*
X133270000Y-72730000D02*
X134000000Y-72000000D01*
X133270000Y-74000000D02*
X133270000Y-72730000D01*
X147730000Y-88000000D02*
X147730000Y-74000000D01*
X130730000Y-88000000D02*
X130730000Y-74000000D01*
D15*
X163840000Y-92840000D02*
X117160000Y-92840000D01*
X117160000Y-73853740D01*
X129245000Y-73853740D01*
X129245000Y-74146260D01*
X129302068Y-74433158D01*
X129414010Y-74703411D01*
X129576525Y-74946632D01*
X129783368Y-75153475D01*
X129795001Y-75161248D01*
X129795000Y-86838753D01*
X129783368Y-86846525D01*
X129576525Y-87053368D01*
X129414010Y-87296589D01*
X129302068Y-87566842D01*
X129245000Y-87853740D01*
X129245000Y-88146260D01*
X129302068Y-88433158D01*
X129414010Y-88703411D01*
X129576525Y-88946632D01*
X129783368Y-89153475D01*
X130026589Y-89315990D01*
X130296842Y-89427932D01*
X130583740Y-89485000D01*
X130876260Y-89485000D01*
X131163158Y-89427932D01*
X131433411Y-89315990D01*
X131676632Y-89153475D01*
X131883475Y-88946632D01*
X132000000Y-88772240D01*
X132116525Y-88946632D01*
X132323368Y-89153475D01*
X132566589Y-89315990D01*
X132836842Y-89427932D01*
X133123740Y-89485000D01*
X133416260Y-89485000D01*
X133703158Y-89427932D01*
X133973411Y-89315990D01*
X134216632Y-89153475D01*
X134423475Y-88946632D01*
X134540000Y-88772240D01*
X134656525Y-88946632D01*
X134863368Y-89153475D01*
X135106589Y-89315990D01*
X135376842Y-89427932D01*
X135663740Y-89485000D01*
X135956260Y-89485000D01*
X136243158Y-89427932D01*
X136513411Y-89315990D01*
X136756632Y-89153475D01*
X136963475Y-88946632D01*
X137125990Y-88703411D01*
X137237932Y-88433158D01*
X137295000Y-88146260D01*
X137295000Y-87853740D01*
X137237932Y-87566842D01*
X137125990Y-87296589D01*
X136963475Y-87053368D01*
X136756632Y-86846525D01*
X136513411Y-86684010D01*
X136243158Y-86572068D01*
X135956260Y-86515000D01*
X135663740Y-86515000D01*
X135376842Y-86572068D01*
X135106589Y-86684010D01*
X134863368Y-86846525D01*
X134656525Y-87053368D01*
X134540000Y-87227760D01*
X134423475Y-87053368D01*
X134216632Y-86846525D01*
X134205000Y-86838753D01*
X134205000Y-75161247D01*
X134216632Y-75153475D01*
X134423475Y-74946632D01*
X134540000Y-74772240D01*
X134656525Y-74946632D01*
X134863368Y-75153475D01*
X135106589Y-75315990D01*
X135376842Y-75427932D01*
X135663740Y-75485000D01*
X135956260Y-75485000D01*
X136243158Y-75427932D01*
X136513411Y-75315990D01*
X136756632Y-75153475D01*
X136963475Y-74946632D01*
X137125990Y-74703411D01*
X137237932Y-74433158D01*
X137295000Y-74146260D01*
X137295000Y-73853740D01*
X137237932Y-73566842D01*
X137125990Y-73296589D01*
X136963475Y-73053368D01*
X136845107Y-72935000D01*
X146694893Y-72935000D01*
X146576525Y-73053368D01*
X146414010Y-73296589D01*
X146302068Y-73566842D01*
X146245000Y-73853740D01*
X146245000Y-74146260D01*
X146302068Y-74433158D01*
X146414010Y-74703411D01*
X146576525Y-74946632D01*
X146783368Y-75153475D01*
X146795001Y-75161248D01*
X146795000Y-86838753D01*
X146783368Y-86846525D01*
X146576525Y-87053368D01*
X146414010Y-87296589D01*
X146302068Y-87566842D01*
X146245000Y-87853740D01*
X146245000Y-88146260D01*
X146302068Y-88433158D01*
X146414010Y-88703411D01*
X146576525Y-88946632D01*
X146783368Y-89153475D01*
X147026589Y-89315990D01*
X147296842Y-89427932D01*
X147583740Y-89485000D01*
X147876260Y-89485000D01*
X148163158Y-89427932D01*
X148433411Y-89315990D01*
X148676632Y-89153475D01*
X148883475Y-88946632D01*
X149000000Y-88772240D01*
X149116525Y-88946632D01*
X149323368Y-89153475D01*
X149566589Y-89315990D01*
X149836842Y-89427932D01*
X150123740Y-89485000D01*
X150416260Y-89485000D01*
X150703158Y-89427932D01*
X150973411Y-89315990D01*
X151216632Y-89153475D01*
X151423475Y-88946632D01*
X151540000Y-88772240D01*
X151656525Y-88946632D01*
X151863368Y-89153475D01*
X152106589Y-89315990D01*
X152376842Y-89427932D01*
X152663740Y-89485000D01*
X152956260Y-89485000D01*
X153243158Y-89427932D01*
X153513411Y-89315990D01*
X153756632Y-89153475D01*
X153963475Y-88946632D01*
X154125990Y-88703411D01*
X154237932Y-88433158D01*
X154295000Y-88146260D01*
X154295000Y-87853740D01*
X154237932Y-87566842D01*
X154125990Y-87296589D01*
X153963475Y-87053368D01*
X153756632Y-86846525D01*
X153513411Y-86684010D01*
X153243158Y-86572068D01*
X152956260Y-86515000D01*
X152663740Y-86515000D01*
X152376842Y-86572068D01*
X152106589Y-86684010D01*
X151863368Y-86846525D01*
X151656525Y-87053368D01*
X151540000Y-87227760D01*
X151423475Y-87053368D01*
X151216632Y-86846525D01*
X151205000Y-86838753D01*
X151205000Y-75161247D01*
X151216632Y-75153475D01*
X151423475Y-74946632D01*
X151540000Y-74772240D01*
X151656525Y-74946632D01*
X151863368Y-75153475D01*
X152106589Y-75315990D01*
X152376842Y-75427932D01*
X152663740Y-75485000D01*
X152956260Y-75485000D01*
X153243158Y-75427932D01*
X153513411Y-75315990D01*
X153756632Y-75153475D01*
X153963475Y-74946632D01*
X154125990Y-74703411D01*
X154237932Y-74433158D01*
X154295000Y-74146260D01*
X154295000Y-73853740D01*
X154237932Y-73566842D01*
X154125990Y-73296589D01*
X153963475Y-73053368D01*
X153756632Y-72846525D01*
X153513411Y-72684010D01*
X153243158Y-72572068D01*
X152956260Y-72515000D01*
X152663740Y-72515000D01*
X152376842Y-72572068D01*
X152106589Y-72684010D01*
X151863368Y-72846525D01*
X151656525Y-73053368D01*
X151540000Y-73227760D01*
X151423475Y-73053368D01*
X151216632Y-72846525D01*
X151205000Y-72838753D01*
X151205000Y-72815924D01*
X151209523Y-72769999D01*
X151205000Y-72724074D01*
X151205000Y-72724068D01*
X151191471Y-72586708D01*
X151179338Y-72546709D01*
X151138007Y-72410461D01*
X151138007Y-72410460D01*
X151051186Y-72248028D01*
X150934344Y-72105656D01*
X150898665Y-72076375D01*
X150193630Y-71371341D01*
X150164344Y-71335656D01*
X150021972Y-71218814D01*
X149859540Y-71131993D01*
X149683292Y-71078529D01*
X149545932Y-71065000D01*
X149500000Y-71060476D01*
X149454068Y-71065000D01*
X134045932Y-71065000D01*
X134000000Y-71060476D01*
X133954068Y-71065000D01*
X133816708Y-71078529D01*
X133640460Y-71131993D01*
X133478028Y-71218814D01*
X133335656Y-71335656D01*
X133306370Y-71371341D01*
X132641336Y-72036375D01*
X132605657Y-72065656D01*
X132488815Y-72208028D01*
X132407831Y-72359540D01*
X132401994Y-72370460D01*
X132348529Y-72546709D01*
X132330476Y-72730000D01*
X132335001Y-72775941D01*
X132335001Y-72838752D01*
X132323368Y-72846525D01*
X132116525Y-73053368D01*
X132000000Y-73227760D01*
X131883475Y-73053368D01*
X131676632Y-72846525D01*
X131433411Y-72684010D01*
X131163158Y-72572068D01*
X130876260Y-72515000D01*
X130583740Y-72515000D01*
X130296842Y-72572068D01*
X130026589Y-72684010D01*
X129783368Y-72846525D01*
X129576525Y-73053368D01*
X129414010Y-73296589D01*
X129302068Y-73566842D01*
X129245000Y-73853740D01*
X117160000Y-73853740D01*
X117160000Y-70160000D01*
X163840001Y-70160000D01*
X163840000Y-92840000D01*
G04 #@! TA.AperFunction,Conductor*
D16*
G36*
X163840000Y-92840000D02*
G01*
X117160000Y-92840000D01*
X117160000Y-73853740D01*
X129245000Y-73853740D01*
X129245000Y-74146260D01*
X129302068Y-74433158D01*
X129414010Y-74703411D01*
X129576525Y-74946632D01*
X129783368Y-75153475D01*
X129795001Y-75161248D01*
X129795000Y-86838753D01*
X129783368Y-86846525D01*
X129576525Y-87053368D01*
X129414010Y-87296589D01*
X129302068Y-87566842D01*
X129245000Y-87853740D01*
X129245000Y-88146260D01*
X129302068Y-88433158D01*
X129414010Y-88703411D01*
X129576525Y-88946632D01*
X129783368Y-89153475D01*
X130026589Y-89315990D01*
X130296842Y-89427932D01*
X130583740Y-89485000D01*
X130876260Y-89485000D01*
X131163158Y-89427932D01*
X131433411Y-89315990D01*
X131676632Y-89153475D01*
X131883475Y-88946632D01*
X132000000Y-88772240D01*
X132116525Y-88946632D01*
X132323368Y-89153475D01*
X132566589Y-89315990D01*
X132836842Y-89427932D01*
X133123740Y-89485000D01*
X133416260Y-89485000D01*
X133703158Y-89427932D01*
X133973411Y-89315990D01*
X134216632Y-89153475D01*
X134423475Y-88946632D01*
X134540000Y-88772240D01*
X134656525Y-88946632D01*
X134863368Y-89153475D01*
X135106589Y-89315990D01*
X135376842Y-89427932D01*
X135663740Y-89485000D01*
X135956260Y-89485000D01*
X136243158Y-89427932D01*
X136513411Y-89315990D01*
X136756632Y-89153475D01*
X136963475Y-88946632D01*
X137125990Y-88703411D01*
X137237932Y-88433158D01*
X137295000Y-88146260D01*
X137295000Y-87853740D01*
X137237932Y-87566842D01*
X137125990Y-87296589D01*
X136963475Y-87053368D01*
X136756632Y-86846525D01*
X136513411Y-86684010D01*
X136243158Y-86572068D01*
X135956260Y-86515000D01*
X135663740Y-86515000D01*
X135376842Y-86572068D01*
X135106589Y-86684010D01*
X134863368Y-86846525D01*
X134656525Y-87053368D01*
X134540000Y-87227760D01*
X134423475Y-87053368D01*
X134216632Y-86846525D01*
X134205000Y-86838753D01*
X134205000Y-75161247D01*
X134216632Y-75153475D01*
X134423475Y-74946632D01*
X134540000Y-74772240D01*
X134656525Y-74946632D01*
X134863368Y-75153475D01*
X135106589Y-75315990D01*
X135376842Y-75427932D01*
X135663740Y-75485000D01*
X135956260Y-75485000D01*
X136243158Y-75427932D01*
X136513411Y-75315990D01*
X136756632Y-75153475D01*
X136963475Y-74946632D01*
X137125990Y-74703411D01*
X137237932Y-74433158D01*
X137295000Y-74146260D01*
X137295000Y-73853740D01*
X137237932Y-73566842D01*
X137125990Y-73296589D01*
X136963475Y-73053368D01*
X136845107Y-72935000D01*
X146694893Y-72935000D01*
X146576525Y-73053368D01*
X146414010Y-73296589D01*
X146302068Y-73566842D01*
X146245000Y-73853740D01*
X146245000Y-74146260D01*
X146302068Y-74433158D01*
X146414010Y-74703411D01*
X146576525Y-74946632D01*
X146783368Y-75153475D01*
X146795001Y-75161248D01*
X146795000Y-86838753D01*
X146783368Y-86846525D01*
X146576525Y-87053368D01*
X146414010Y-87296589D01*
X146302068Y-87566842D01*
X146245000Y-87853740D01*
X146245000Y-88146260D01*
X146302068Y-88433158D01*
X146414010Y-88703411D01*
X146576525Y-88946632D01*
X146783368Y-89153475D01*
X147026589Y-89315990D01*
X147296842Y-89427932D01*
X147583740Y-89485000D01*
X147876260Y-89485000D01*
X148163158Y-89427932D01*
X148433411Y-89315990D01*
X148676632Y-89153475D01*
X148883475Y-88946632D01*
X149000000Y-88772240D01*
X149116525Y-88946632D01*
X149323368Y-89153475D01*
X149566589Y-89315990D01*
X149836842Y-89427932D01*
X150123740Y-89485000D01*
X150416260Y-89485000D01*
X150703158Y-89427932D01*
X150973411Y-89315990D01*
X151216632Y-89153475D01*
X151423475Y-88946632D01*
X151540000Y-88772240D01*
X151656525Y-88946632D01*
X151863368Y-89153475D01*
X152106589Y-89315990D01*
X152376842Y-89427932D01*
X152663740Y-89485000D01*
X152956260Y-89485000D01*
X153243158Y-89427932D01*
X153513411Y-89315990D01*
X153756632Y-89153475D01*
X153963475Y-88946632D01*
X154125990Y-88703411D01*
X154237932Y-88433158D01*
X154295000Y-88146260D01*
X154295000Y-87853740D01*
X154237932Y-87566842D01*
X154125990Y-87296589D01*
X153963475Y-87053368D01*
X153756632Y-86846525D01*
X153513411Y-86684010D01*
X153243158Y-86572068D01*
X152956260Y-86515000D01*
X152663740Y-86515000D01*
X152376842Y-86572068D01*
X152106589Y-86684010D01*
X151863368Y-86846525D01*
X151656525Y-87053368D01*
X151540000Y-87227760D01*
X151423475Y-87053368D01*
X151216632Y-86846525D01*
X151205000Y-86838753D01*
X151205000Y-75161247D01*
X151216632Y-75153475D01*
X151423475Y-74946632D01*
X151540000Y-74772240D01*
X151656525Y-74946632D01*
X151863368Y-75153475D01*
X152106589Y-75315990D01*
X152376842Y-75427932D01*
X152663740Y-75485000D01*
X152956260Y-75485000D01*
X153243158Y-75427932D01*
X153513411Y-75315990D01*
X153756632Y-75153475D01*
X153963475Y-74946632D01*
X154125990Y-74703411D01*
X154237932Y-74433158D01*
X154295000Y-74146260D01*
X154295000Y-73853740D01*
X154237932Y-73566842D01*
X154125990Y-73296589D01*
X153963475Y-73053368D01*
X153756632Y-72846525D01*
X153513411Y-72684010D01*
X153243158Y-72572068D01*
X152956260Y-72515000D01*
X152663740Y-72515000D01*
X152376842Y-72572068D01*
X152106589Y-72684010D01*
X151863368Y-72846525D01*
X151656525Y-73053368D01*
X151540000Y-73227760D01*
X151423475Y-73053368D01*
X151216632Y-72846525D01*
X151205000Y-72838753D01*
X151205000Y-72815924D01*
X151209523Y-72769999D01*
X151205000Y-72724074D01*
X151205000Y-72724068D01*
X151191471Y-72586708D01*
X151179338Y-72546709D01*
X151138007Y-72410461D01*
X151138007Y-72410460D01*
X151051186Y-72248028D01*
X150934344Y-72105656D01*
X150898665Y-72076375D01*
X150193630Y-71371341D01*
X150164344Y-71335656D01*
X150021972Y-71218814D01*
X149859540Y-71131993D01*
X149683292Y-71078529D01*
X149545932Y-71065000D01*
X149500000Y-71060476D01*
X149454068Y-71065000D01*
X134045932Y-71065000D01*
X134000000Y-71060476D01*
X133954068Y-71065000D01*
X133816708Y-71078529D01*
X133640460Y-71131993D01*
X133478028Y-71218814D01*
X133335656Y-71335656D01*
X133306370Y-71371341D01*
X132641336Y-72036375D01*
X132605657Y-72065656D01*
X132488815Y-72208028D01*
X132407831Y-72359540D01*
X132401994Y-72370460D01*
X132348529Y-72546709D01*
X132330476Y-72730000D01*
X132335001Y-72775941D01*
X132335001Y-72838752D01*
X132323368Y-72846525D01*
X132116525Y-73053368D01*
X132000000Y-73227760D01*
X131883475Y-73053368D01*
X131676632Y-72846525D01*
X131433411Y-72684010D01*
X131163158Y-72572068D01*
X130876260Y-72515000D01*
X130583740Y-72515000D01*
X130296842Y-72572068D01*
X130026589Y-72684010D01*
X129783368Y-72846525D01*
X129576525Y-73053368D01*
X129414010Y-73296589D01*
X129302068Y-73566842D01*
X129245000Y-73853740D01*
X117160000Y-73853740D01*
X117160000Y-70160000D01*
X163840001Y-70160000D01*
X163840000Y-92840000D01*
G37*
G04 #@! TD.AperFunction*
M02*
