G04 #@! TF.GenerationSoftware,KiCad,Pcbnew,(5.1.12)-1*
G04 #@! TF.CreationDate,2022-09-28T12:59:49-05:00*
G04 #@! TF.ProjectId,Controller_Borad,436f6e74-726f-46c6-9c65-725f426f7261,rev?*
G04 #@! TF.SameCoordinates,Original*
G04 #@! TF.FileFunction,Paste,Bot*
G04 #@! TF.FilePolarity,Positive*
%FSLAX46Y46*%
G04 Gerber Fmt 4.6, Leading zero omitted, Abs format (unit mm)*
G04 Created by KiCad (PCBNEW (5.1.12)-1) date 2022-09-28 12:59:49*
%MOMM*%
%LPD*%
G01*
G04 APERTURE LIST*
%ADD10R,2.500000X2.000000*%
%ADD11R,0.300000X1.900000*%
%ADD12R,0.900000X0.800000*%
%ADD13R,0.740000X2.400000*%
%ADD14R,2.750000X3.050000*%
%ADD15R,1.200000X2.200000*%
G04 APERTURE END LIST*
D10*
X232500000Y-61000000D03*
X247500000Y-61000000D03*
D11*
X245750000Y-58500000D03*
X245250000Y-58500000D03*
X244750000Y-58500000D03*
X244250000Y-58500000D03*
X243750000Y-58500000D03*
X243250000Y-58500000D03*
X242750000Y-58500000D03*
X242250000Y-58500000D03*
X241750000Y-58500000D03*
X241250000Y-58500000D03*
X240750000Y-58500000D03*
X240250000Y-58500000D03*
X239750000Y-58500000D03*
X239250000Y-58500000D03*
X238750000Y-58500000D03*
X238250000Y-58500000D03*
X237750000Y-58500000D03*
X237250000Y-58500000D03*
X236750000Y-58500000D03*
X236250000Y-58500000D03*
X235750000Y-58500000D03*
X235250000Y-58500000D03*
X234750000Y-58500000D03*
X234250000Y-58500000D03*
G36*
G01*
X235204073Y-112617678D02*
X234532322Y-111945927D01*
G75*
G02*
X234532322Y-111592373I176777J176777D01*
G01*
X234885875Y-111238820D01*
G75*
G02*
X235239429Y-111238820I176777J-176777D01*
G01*
X235911180Y-111910571D01*
G75*
G02*
X235911180Y-112264125I-176777J-176777D01*
G01*
X235557627Y-112617678D01*
G75*
G02*
X235204073Y-112617678I-176777J176777D01*
G01*
G37*
G36*
G01*
X233860571Y-113961180D02*
X233188820Y-113289429D01*
G75*
G02*
X233188820Y-112935875I176777J176777D01*
G01*
X233542373Y-112582322D01*
G75*
G02*
X233895927Y-112582322I176777J-176777D01*
G01*
X234567678Y-113254073D01*
G75*
G02*
X234567678Y-113607627I-176777J-176777D01*
G01*
X234214125Y-113961180D01*
G75*
G02*
X233860571Y-113961180I-176777J176777D01*
G01*
G37*
G36*
G01*
X234182322Y-109554073D02*
X234854073Y-108882322D01*
G75*
G02*
X235207627Y-108882322I176777J-176777D01*
G01*
X235561180Y-109235875D01*
G75*
G02*
X235561180Y-109589429I-176777J-176777D01*
G01*
X234889429Y-110261180D01*
G75*
G02*
X234535875Y-110261180I-176777J176777D01*
G01*
X234182322Y-109907627D01*
G75*
G02*
X234182322Y-109554073I176777J176777D01*
G01*
G37*
G36*
G01*
X232838820Y-108210571D02*
X233510571Y-107538820D01*
G75*
G02*
X233864125Y-107538820I176777J-176777D01*
G01*
X234217678Y-107892373D01*
G75*
G02*
X234217678Y-108245927I-176777J-176777D01*
G01*
X233545927Y-108917678D01*
G75*
G02*
X233192373Y-108917678I-176777J176777D01*
G01*
X232838820Y-108564125D01*
G75*
G02*
X232838820Y-108210571I176777J176777D01*
G01*
G37*
G36*
G01*
X232588908Y-111473833D02*
X232942461Y-111827386D01*
G75*
G02*
X232942461Y-112110228I-141421J-141421D01*
G01*
X232659618Y-112393071D01*
G75*
G02*
X232376776Y-112393071I-141421J141421D01*
G01*
X232023223Y-112039518D01*
G75*
G02*
X232023223Y-111756676I141421J141421D01*
G01*
X232306066Y-111473833D01*
G75*
G02*
X232588908Y-111473833I141421J-141421D01*
G01*
G37*
G36*
G01*
X233614213Y-110448528D02*
X233967766Y-110802081D01*
G75*
G02*
X233967766Y-111084923I-141421J-141421D01*
G01*
X233684923Y-111367766D01*
G75*
G02*
X233402081Y-111367766I-141421J141421D01*
G01*
X233048528Y-111014213D01*
G75*
G02*
X233048528Y-110731371I141421J141421D01*
G01*
X233331371Y-110448528D01*
G75*
G02*
X233614213Y-110448528I141421J-141421D01*
G01*
G37*
G36*
G01*
X231280761Y-110165686D02*
X231634314Y-110519239D01*
G75*
G02*
X231634314Y-110802081I-141421J-141421D01*
G01*
X231351471Y-111084924D01*
G75*
G02*
X231068629Y-111084924I-141421J141421D01*
G01*
X230715076Y-110731371D01*
G75*
G02*
X230715076Y-110448529I141421J141421D01*
G01*
X230997919Y-110165686D01*
G75*
G02*
X231280761Y-110165686I141421J-141421D01*
G01*
G37*
G36*
G01*
X232306066Y-109140381D02*
X232659619Y-109493934D01*
G75*
G02*
X232659619Y-109776776I-141421J-141421D01*
G01*
X232376776Y-110059619D01*
G75*
G02*
X232093934Y-110059619I-141421J141421D01*
G01*
X231740381Y-109706066D01*
G75*
G02*
X231740381Y-109423224I141421J141421D01*
G01*
X232023224Y-109140381D01*
G75*
G02*
X232306066Y-109140381I141421J-141421D01*
G01*
G37*
G36*
G01*
X219225000Y-111525000D02*
X219425000Y-111525000D01*
G75*
G02*
X219525000Y-111625000I0J-100000D01*
G01*
X219525000Y-112900000D01*
G75*
G02*
X219425000Y-113000000I-100000J0D01*
G01*
X219225000Y-113000000D01*
G75*
G02*
X219125000Y-112900000I0J100000D01*
G01*
X219125000Y-111625000D01*
G75*
G02*
X219225000Y-111525000I100000J0D01*
G01*
G37*
G36*
G01*
X219875000Y-111525000D02*
X220075000Y-111525000D01*
G75*
G02*
X220175000Y-111625000I0J-100000D01*
G01*
X220175000Y-112900000D01*
G75*
G02*
X220075000Y-113000000I-100000J0D01*
G01*
X219875000Y-113000000D01*
G75*
G02*
X219775000Y-112900000I0J100000D01*
G01*
X219775000Y-111625000D01*
G75*
G02*
X219875000Y-111525000I100000J0D01*
G01*
G37*
G36*
G01*
X220525000Y-111525000D02*
X220725000Y-111525000D01*
G75*
G02*
X220825000Y-111625000I0J-100000D01*
G01*
X220825000Y-112900000D01*
G75*
G02*
X220725000Y-113000000I-100000J0D01*
G01*
X220525000Y-113000000D01*
G75*
G02*
X220425000Y-112900000I0J100000D01*
G01*
X220425000Y-111625000D01*
G75*
G02*
X220525000Y-111525000I100000J0D01*
G01*
G37*
G36*
G01*
X221175000Y-111525000D02*
X221375000Y-111525000D01*
G75*
G02*
X221475000Y-111625000I0J-100000D01*
G01*
X221475000Y-112900000D01*
G75*
G02*
X221375000Y-113000000I-100000J0D01*
G01*
X221175000Y-113000000D01*
G75*
G02*
X221075000Y-112900000I0J100000D01*
G01*
X221075000Y-111625000D01*
G75*
G02*
X221175000Y-111525000I100000J0D01*
G01*
G37*
G36*
G01*
X221175000Y-105800000D02*
X221375000Y-105800000D01*
G75*
G02*
X221475000Y-105900000I0J-100000D01*
G01*
X221475000Y-107175000D01*
G75*
G02*
X221375000Y-107275000I-100000J0D01*
G01*
X221175000Y-107275000D01*
G75*
G02*
X221075000Y-107175000I0J100000D01*
G01*
X221075000Y-105900000D01*
G75*
G02*
X221175000Y-105800000I100000J0D01*
G01*
G37*
G36*
G01*
X220525000Y-105800000D02*
X220725000Y-105800000D01*
G75*
G02*
X220825000Y-105900000I0J-100000D01*
G01*
X220825000Y-107175000D01*
G75*
G02*
X220725000Y-107275000I-100000J0D01*
G01*
X220525000Y-107275000D01*
G75*
G02*
X220425000Y-107175000I0J100000D01*
G01*
X220425000Y-105900000D01*
G75*
G02*
X220525000Y-105800000I100000J0D01*
G01*
G37*
G36*
G01*
X219875000Y-105800000D02*
X220075000Y-105800000D01*
G75*
G02*
X220175000Y-105900000I0J-100000D01*
G01*
X220175000Y-107175000D01*
G75*
G02*
X220075000Y-107275000I-100000J0D01*
G01*
X219875000Y-107275000D01*
G75*
G02*
X219775000Y-107175000I0J100000D01*
G01*
X219775000Y-105900000D01*
G75*
G02*
X219875000Y-105800000I100000J0D01*
G01*
G37*
G36*
G01*
X219225000Y-105800000D02*
X219425000Y-105800000D01*
G75*
G02*
X219525000Y-105900000I0J-100000D01*
G01*
X219525000Y-107175000D01*
G75*
G02*
X219425000Y-107275000I-100000J0D01*
G01*
X219225000Y-107275000D01*
G75*
G02*
X219125000Y-107175000I0J100000D01*
G01*
X219125000Y-105900000D01*
G75*
G02*
X219225000Y-105800000I100000J0D01*
G01*
G37*
G36*
G01*
X247230167Y-116985266D02*
X246293251Y-117922182D01*
G75*
G02*
X246187185Y-117922182I-53033J53033D01*
G01*
X246081119Y-117816116D01*
G75*
G02*
X246081119Y-117710050I53033J53033D01*
G01*
X247018035Y-116773134D01*
G75*
G02*
X247124101Y-116773134I53033J-53033D01*
G01*
X247230167Y-116879200D01*
G75*
G02*
X247230167Y-116985266I-53033J-53033D01*
G01*
G37*
G36*
G01*
X246876613Y-116631713D02*
X245939697Y-117568629D01*
G75*
G02*
X245833631Y-117568629I-53033J53033D01*
G01*
X245727565Y-117462563D01*
G75*
G02*
X245727565Y-117356497I53033J53033D01*
G01*
X246664481Y-116419581D01*
G75*
G02*
X246770547Y-116419581I53033J-53033D01*
G01*
X246876613Y-116525647D01*
G75*
G02*
X246876613Y-116631713I-53033J-53033D01*
G01*
G37*
G36*
G01*
X246523060Y-116278159D02*
X245586144Y-117215075D01*
G75*
G02*
X245480078Y-117215075I-53033J53033D01*
G01*
X245374012Y-117109009D01*
G75*
G02*
X245374012Y-117002943I53033J53033D01*
G01*
X246310928Y-116066027D01*
G75*
G02*
X246416994Y-116066027I53033J-53033D01*
G01*
X246523060Y-116172093D01*
G75*
G02*
X246523060Y-116278159I-53033J-53033D01*
G01*
G37*
G36*
G01*
X246169506Y-115924606D02*
X245232590Y-116861522D01*
G75*
G02*
X245126524Y-116861522I-53033J53033D01*
G01*
X245020458Y-116755456D01*
G75*
G02*
X245020458Y-116649390I53033J53033D01*
G01*
X245957374Y-115712474D01*
G75*
G02*
X246063440Y-115712474I53033J-53033D01*
G01*
X246169506Y-115818540D01*
G75*
G02*
X246169506Y-115924606I-53033J-53033D01*
G01*
G37*
G36*
G01*
X245815953Y-115571053D02*
X244879037Y-116507969D01*
G75*
G02*
X244772971Y-116507969I-53033J53033D01*
G01*
X244666905Y-116401903D01*
G75*
G02*
X244666905Y-116295837I53033J53033D01*
G01*
X245603821Y-115358921D01*
G75*
G02*
X245709887Y-115358921I53033J-53033D01*
G01*
X245815953Y-115464987D01*
G75*
G02*
X245815953Y-115571053I-53033J-53033D01*
G01*
G37*
G36*
G01*
X245462400Y-115217499D02*
X244525484Y-116154415D01*
G75*
G02*
X244419418Y-116154415I-53033J53033D01*
G01*
X244313352Y-116048349D01*
G75*
G02*
X244313352Y-115942283I53033J53033D01*
G01*
X245250268Y-115005367D01*
G75*
G02*
X245356334Y-115005367I53033J-53033D01*
G01*
X245462400Y-115111433D01*
G75*
G02*
X245462400Y-115217499I-53033J-53033D01*
G01*
G37*
G36*
G01*
X245108846Y-114863946D02*
X244171930Y-115800862D01*
G75*
G02*
X244065864Y-115800862I-53033J53033D01*
G01*
X243959798Y-115694796D01*
G75*
G02*
X243959798Y-115588730I53033J53033D01*
G01*
X244896714Y-114651814D01*
G75*
G02*
X245002780Y-114651814I53033J-53033D01*
G01*
X245108846Y-114757880D01*
G75*
G02*
X245108846Y-114863946I-53033J-53033D01*
G01*
G37*
G36*
G01*
X244755293Y-114510393D02*
X243818377Y-115447309D01*
G75*
G02*
X243712311Y-115447309I-53033J53033D01*
G01*
X243606245Y-115341243D01*
G75*
G02*
X243606245Y-115235177I53033J53033D01*
G01*
X244543161Y-114298261D01*
G75*
G02*
X244649227Y-114298261I53033J-53033D01*
G01*
X244755293Y-114404327D01*
G75*
G02*
X244755293Y-114510393I-53033J-53033D01*
G01*
G37*
G36*
G01*
X244401739Y-114156839D02*
X243464823Y-115093755D01*
G75*
G02*
X243358757Y-115093755I-53033J53033D01*
G01*
X243252691Y-114987689D01*
G75*
G02*
X243252691Y-114881623I53033J53033D01*
G01*
X244189607Y-113944707D01*
G75*
G02*
X244295673Y-113944707I53033J-53033D01*
G01*
X244401739Y-114050773D01*
G75*
G02*
X244401739Y-114156839I-53033J-53033D01*
G01*
G37*
G36*
G01*
X244048186Y-113803286D02*
X243111270Y-114740202D01*
G75*
G02*
X243005204Y-114740202I-53033J53033D01*
G01*
X242899138Y-114634136D01*
G75*
G02*
X242899138Y-114528070I53033J53033D01*
G01*
X243836054Y-113591154D01*
G75*
G02*
X243942120Y-113591154I53033J-53033D01*
G01*
X244048186Y-113697220D01*
G75*
G02*
X244048186Y-113803286I-53033J-53033D01*
G01*
G37*
G36*
G01*
X243694633Y-113449732D02*
X242757717Y-114386648D01*
G75*
G02*
X242651651Y-114386648I-53033J53033D01*
G01*
X242545585Y-114280582D01*
G75*
G02*
X242545585Y-114174516I53033J53033D01*
G01*
X243482501Y-113237600D01*
G75*
G02*
X243588567Y-113237600I53033J-53033D01*
G01*
X243694633Y-113343666D01*
G75*
G02*
X243694633Y-113449732I-53033J-53033D01*
G01*
G37*
G36*
G01*
X243341079Y-113096179D02*
X242404163Y-114033095D01*
G75*
G02*
X242298097Y-114033095I-53033J53033D01*
G01*
X242192031Y-113927029D01*
G75*
G02*
X242192031Y-113820963I53033J53033D01*
G01*
X243128947Y-112884047D01*
G75*
G02*
X243235013Y-112884047I53033J-53033D01*
G01*
X243341079Y-112990113D01*
G75*
G02*
X243341079Y-113096179I-53033J-53033D01*
G01*
G37*
G36*
G01*
X242987526Y-112742626D02*
X242050610Y-113679542D01*
G75*
G02*
X241944544Y-113679542I-53033J53033D01*
G01*
X241838478Y-113573476D01*
G75*
G02*
X241838478Y-113467410I53033J53033D01*
G01*
X242775394Y-112530494D01*
G75*
G02*
X242881460Y-112530494I53033J-53033D01*
G01*
X242987526Y-112636560D01*
G75*
G02*
X242987526Y-112742626I-53033J-53033D01*
G01*
G37*
G36*
G01*
X242633973Y-112389072D02*
X241697057Y-113325988D01*
G75*
G02*
X241590991Y-113325988I-53033J53033D01*
G01*
X241484925Y-113219922D01*
G75*
G02*
X241484925Y-113113856I53033J53033D01*
G01*
X242421841Y-112176940D01*
G75*
G02*
X242527907Y-112176940I53033J-53033D01*
G01*
X242633973Y-112283006D01*
G75*
G02*
X242633973Y-112389072I-53033J-53033D01*
G01*
G37*
G36*
G01*
X242280419Y-112035519D02*
X241343503Y-112972435D01*
G75*
G02*
X241237437Y-112972435I-53033J53033D01*
G01*
X241131371Y-112866369D01*
G75*
G02*
X241131371Y-112760303I53033J53033D01*
G01*
X242068287Y-111823387D01*
G75*
G02*
X242174353Y-111823387I53033J-53033D01*
G01*
X242280419Y-111929453D01*
G75*
G02*
X242280419Y-112035519I-53033J-53033D01*
G01*
G37*
G36*
G01*
X241926866Y-111681965D02*
X240989950Y-112618881D01*
G75*
G02*
X240883884Y-112618881I-53033J53033D01*
G01*
X240777818Y-112512815D01*
G75*
G02*
X240777818Y-112406749I53033J53033D01*
G01*
X241714734Y-111469833D01*
G75*
G02*
X241820800Y-111469833I53033J-53033D01*
G01*
X241926866Y-111575899D01*
G75*
G02*
X241926866Y-111681965I-53033J-53033D01*
G01*
G37*
G36*
G01*
X239222182Y-112512815D02*
X239116116Y-112618881D01*
G75*
G02*
X239010050Y-112618881I-53033J53033D01*
G01*
X238073134Y-111681965D01*
G75*
G02*
X238073134Y-111575899I53033J53033D01*
G01*
X238179200Y-111469833D01*
G75*
G02*
X238285266Y-111469833I53033J-53033D01*
G01*
X239222182Y-112406749D01*
G75*
G02*
X239222182Y-112512815I-53033J-53033D01*
G01*
G37*
G36*
G01*
X238868629Y-112866369D02*
X238762563Y-112972435D01*
G75*
G02*
X238656497Y-112972435I-53033J53033D01*
G01*
X237719581Y-112035519D01*
G75*
G02*
X237719581Y-111929453I53033J53033D01*
G01*
X237825647Y-111823387D01*
G75*
G02*
X237931713Y-111823387I53033J-53033D01*
G01*
X238868629Y-112760303D01*
G75*
G02*
X238868629Y-112866369I-53033J-53033D01*
G01*
G37*
G36*
G01*
X238515075Y-113219922D02*
X238409009Y-113325988D01*
G75*
G02*
X238302943Y-113325988I-53033J53033D01*
G01*
X237366027Y-112389072D01*
G75*
G02*
X237366027Y-112283006I53033J53033D01*
G01*
X237472093Y-112176940D01*
G75*
G02*
X237578159Y-112176940I53033J-53033D01*
G01*
X238515075Y-113113856D01*
G75*
G02*
X238515075Y-113219922I-53033J-53033D01*
G01*
G37*
G36*
G01*
X238161522Y-113573476D02*
X238055456Y-113679542D01*
G75*
G02*
X237949390Y-113679542I-53033J53033D01*
G01*
X237012474Y-112742626D01*
G75*
G02*
X237012474Y-112636560I53033J53033D01*
G01*
X237118540Y-112530494D01*
G75*
G02*
X237224606Y-112530494I53033J-53033D01*
G01*
X238161522Y-113467410D01*
G75*
G02*
X238161522Y-113573476I-53033J-53033D01*
G01*
G37*
G36*
G01*
X237807969Y-113927029D02*
X237701903Y-114033095D01*
G75*
G02*
X237595837Y-114033095I-53033J53033D01*
G01*
X236658921Y-113096179D01*
G75*
G02*
X236658921Y-112990113I53033J53033D01*
G01*
X236764987Y-112884047D01*
G75*
G02*
X236871053Y-112884047I53033J-53033D01*
G01*
X237807969Y-113820963D01*
G75*
G02*
X237807969Y-113927029I-53033J-53033D01*
G01*
G37*
G36*
G01*
X237454415Y-114280582D02*
X237348349Y-114386648D01*
G75*
G02*
X237242283Y-114386648I-53033J53033D01*
G01*
X236305367Y-113449732D01*
G75*
G02*
X236305367Y-113343666I53033J53033D01*
G01*
X236411433Y-113237600D01*
G75*
G02*
X236517499Y-113237600I53033J-53033D01*
G01*
X237454415Y-114174516D01*
G75*
G02*
X237454415Y-114280582I-53033J-53033D01*
G01*
G37*
G36*
G01*
X237100862Y-114634136D02*
X236994796Y-114740202D01*
G75*
G02*
X236888730Y-114740202I-53033J53033D01*
G01*
X235951814Y-113803286D01*
G75*
G02*
X235951814Y-113697220I53033J53033D01*
G01*
X236057880Y-113591154D01*
G75*
G02*
X236163946Y-113591154I53033J-53033D01*
G01*
X237100862Y-114528070D01*
G75*
G02*
X237100862Y-114634136I-53033J-53033D01*
G01*
G37*
G36*
G01*
X236747309Y-114987689D02*
X236641243Y-115093755D01*
G75*
G02*
X236535177Y-115093755I-53033J53033D01*
G01*
X235598261Y-114156839D01*
G75*
G02*
X235598261Y-114050773I53033J53033D01*
G01*
X235704327Y-113944707D01*
G75*
G02*
X235810393Y-113944707I53033J-53033D01*
G01*
X236747309Y-114881623D01*
G75*
G02*
X236747309Y-114987689I-53033J-53033D01*
G01*
G37*
G36*
G01*
X236393755Y-115341243D02*
X236287689Y-115447309D01*
G75*
G02*
X236181623Y-115447309I-53033J53033D01*
G01*
X235244707Y-114510393D01*
G75*
G02*
X235244707Y-114404327I53033J53033D01*
G01*
X235350773Y-114298261D01*
G75*
G02*
X235456839Y-114298261I53033J-53033D01*
G01*
X236393755Y-115235177D01*
G75*
G02*
X236393755Y-115341243I-53033J-53033D01*
G01*
G37*
G36*
G01*
X236040202Y-115694796D02*
X235934136Y-115800862D01*
G75*
G02*
X235828070Y-115800862I-53033J53033D01*
G01*
X234891154Y-114863946D01*
G75*
G02*
X234891154Y-114757880I53033J53033D01*
G01*
X234997220Y-114651814D01*
G75*
G02*
X235103286Y-114651814I53033J-53033D01*
G01*
X236040202Y-115588730D01*
G75*
G02*
X236040202Y-115694796I-53033J-53033D01*
G01*
G37*
G36*
G01*
X235686648Y-116048349D02*
X235580582Y-116154415D01*
G75*
G02*
X235474516Y-116154415I-53033J53033D01*
G01*
X234537600Y-115217499D01*
G75*
G02*
X234537600Y-115111433I53033J53033D01*
G01*
X234643666Y-115005367D01*
G75*
G02*
X234749732Y-115005367I53033J-53033D01*
G01*
X235686648Y-115942283D01*
G75*
G02*
X235686648Y-116048349I-53033J-53033D01*
G01*
G37*
G36*
G01*
X235333095Y-116401903D02*
X235227029Y-116507969D01*
G75*
G02*
X235120963Y-116507969I-53033J53033D01*
G01*
X234184047Y-115571053D01*
G75*
G02*
X234184047Y-115464987I53033J53033D01*
G01*
X234290113Y-115358921D01*
G75*
G02*
X234396179Y-115358921I53033J-53033D01*
G01*
X235333095Y-116295837D01*
G75*
G02*
X235333095Y-116401903I-53033J-53033D01*
G01*
G37*
G36*
G01*
X234979542Y-116755456D02*
X234873476Y-116861522D01*
G75*
G02*
X234767410Y-116861522I-53033J53033D01*
G01*
X233830494Y-115924606D01*
G75*
G02*
X233830494Y-115818540I53033J53033D01*
G01*
X233936560Y-115712474D01*
G75*
G02*
X234042626Y-115712474I53033J-53033D01*
G01*
X234979542Y-116649390D01*
G75*
G02*
X234979542Y-116755456I-53033J-53033D01*
G01*
G37*
G36*
G01*
X234625988Y-117109009D02*
X234519922Y-117215075D01*
G75*
G02*
X234413856Y-117215075I-53033J53033D01*
G01*
X233476940Y-116278159D01*
G75*
G02*
X233476940Y-116172093I53033J53033D01*
G01*
X233583006Y-116066027D01*
G75*
G02*
X233689072Y-116066027I53033J-53033D01*
G01*
X234625988Y-117002943D01*
G75*
G02*
X234625988Y-117109009I-53033J-53033D01*
G01*
G37*
G36*
G01*
X234272435Y-117462563D02*
X234166369Y-117568629D01*
G75*
G02*
X234060303Y-117568629I-53033J53033D01*
G01*
X233123387Y-116631713D01*
G75*
G02*
X233123387Y-116525647I53033J53033D01*
G01*
X233229453Y-116419581D01*
G75*
G02*
X233335519Y-116419581I53033J-53033D01*
G01*
X234272435Y-117356497D01*
G75*
G02*
X234272435Y-117462563I-53033J-53033D01*
G01*
G37*
G36*
G01*
X233918881Y-117816116D02*
X233812815Y-117922182D01*
G75*
G02*
X233706749Y-117922182I-53033J53033D01*
G01*
X232769833Y-116985266D01*
G75*
G02*
X232769833Y-116879200I53033J53033D01*
G01*
X232875899Y-116773134D01*
G75*
G02*
X232981965Y-116773134I53033J-53033D01*
G01*
X233918881Y-117710050D01*
G75*
G02*
X233918881Y-117816116I-53033J-53033D01*
G01*
G37*
G36*
G01*
X233918881Y-119689950D02*
X232981965Y-120626866D01*
G75*
G02*
X232875899Y-120626866I-53033J53033D01*
G01*
X232769833Y-120520800D01*
G75*
G02*
X232769833Y-120414734I53033J53033D01*
G01*
X233706749Y-119477818D01*
G75*
G02*
X233812815Y-119477818I53033J-53033D01*
G01*
X233918881Y-119583884D01*
G75*
G02*
X233918881Y-119689950I-53033J-53033D01*
G01*
G37*
G36*
G01*
X234272435Y-120043503D02*
X233335519Y-120980419D01*
G75*
G02*
X233229453Y-120980419I-53033J53033D01*
G01*
X233123387Y-120874353D01*
G75*
G02*
X233123387Y-120768287I53033J53033D01*
G01*
X234060303Y-119831371D01*
G75*
G02*
X234166369Y-119831371I53033J-53033D01*
G01*
X234272435Y-119937437D01*
G75*
G02*
X234272435Y-120043503I-53033J-53033D01*
G01*
G37*
G36*
G01*
X234625988Y-120397057D02*
X233689072Y-121333973D01*
G75*
G02*
X233583006Y-121333973I-53033J53033D01*
G01*
X233476940Y-121227907D01*
G75*
G02*
X233476940Y-121121841I53033J53033D01*
G01*
X234413856Y-120184925D01*
G75*
G02*
X234519922Y-120184925I53033J-53033D01*
G01*
X234625988Y-120290991D01*
G75*
G02*
X234625988Y-120397057I-53033J-53033D01*
G01*
G37*
G36*
G01*
X234979542Y-120750610D02*
X234042626Y-121687526D01*
G75*
G02*
X233936560Y-121687526I-53033J53033D01*
G01*
X233830494Y-121581460D01*
G75*
G02*
X233830494Y-121475394I53033J53033D01*
G01*
X234767410Y-120538478D01*
G75*
G02*
X234873476Y-120538478I53033J-53033D01*
G01*
X234979542Y-120644544D01*
G75*
G02*
X234979542Y-120750610I-53033J-53033D01*
G01*
G37*
G36*
G01*
X235333095Y-121104163D02*
X234396179Y-122041079D01*
G75*
G02*
X234290113Y-122041079I-53033J53033D01*
G01*
X234184047Y-121935013D01*
G75*
G02*
X234184047Y-121828947I53033J53033D01*
G01*
X235120963Y-120892031D01*
G75*
G02*
X235227029Y-120892031I53033J-53033D01*
G01*
X235333095Y-120998097D01*
G75*
G02*
X235333095Y-121104163I-53033J-53033D01*
G01*
G37*
G36*
G01*
X235686648Y-121457717D02*
X234749732Y-122394633D01*
G75*
G02*
X234643666Y-122394633I-53033J53033D01*
G01*
X234537600Y-122288567D01*
G75*
G02*
X234537600Y-122182501I53033J53033D01*
G01*
X235474516Y-121245585D01*
G75*
G02*
X235580582Y-121245585I53033J-53033D01*
G01*
X235686648Y-121351651D01*
G75*
G02*
X235686648Y-121457717I-53033J-53033D01*
G01*
G37*
G36*
G01*
X236040202Y-121811270D02*
X235103286Y-122748186D01*
G75*
G02*
X234997220Y-122748186I-53033J53033D01*
G01*
X234891154Y-122642120D01*
G75*
G02*
X234891154Y-122536054I53033J53033D01*
G01*
X235828070Y-121599138D01*
G75*
G02*
X235934136Y-121599138I53033J-53033D01*
G01*
X236040202Y-121705204D01*
G75*
G02*
X236040202Y-121811270I-53033J-53033D01*
G01*
G37*
G36*
G01*
X236393755Y-122164823D02*
X235456839Y-123101739D01*
G75*
G02*
X235350773Y-123101739I-53033J53033D01*
G01*
X235244707Y-122995673D01*
G75*
G02*
X235244707Y-122889607I53033J53033D01*
G01*
X236181623Y-121952691D01*
G75*
G02*
X236287689Y-121952691I53033J-53033D01*
G01*
X236393755Y-122058757D01*
G75*
G02*
X236393755Y-122164823I-53033J-53033D01*
G01*
G37*
G36*
G01*
X236747309Y-122518377D02*
X235810393Y-123455293D01*
G75*
G02*
X235704327Y-123455293I-53033J53033D01*
G01*
X235598261Y-123349227D01*
G75*
G02*
X235598261Y-123243161I53033J53033D01*
G01*
X236535177Y-122306245D01*
G75*
G02*
X236641243Y-122306245I53033J-53033D01*
G01*
X236747309Y-122412311D01*
G75*
G02*
X236747309Y-122518377I-53033J-53033D01*
G01*
G37*
G36*
G01*
X237100862Y-122871930D02*
X236163946Y-123808846D01*
G75*
G02*
X236057880Y-123808846I-53033J53033D01*
G01*
X235951814Y-123702780D01*
G75*
G02*
X235951814Y-123596714I53033J53033D01*
G01*
X236888730Y-122659798D01*
G75*
G02*
X236994796Y-122659798I53033J-53033D01*
G01*
X237100862Y-122765864D01*
G75*
G02*
X237100862Y-122871930I-53033J-53033D01*
G01*
G37*
G36*
G01*
X237454415Y-123225484D02*
X236517499Y-124162400D01*
G75*
G02*
X236411433Y-124162400I-53033J53033D01*
G01*
X236305367Y-124056334D01*
G75*
G02*
X236305367Y-123950268I53033J53033D01*
G01*
X237242283Y-123013352D01*
G75*
G02*
X237348349Y-123013352I53033J-53033D01*
G01*
X237454415Y-123119418D01*
G75*
G02*
X237454415Y-123225484I-53033J-53033D01*
G01*
G37*
G36*
G01*
X237807969Y-123579037D02*
X236871053Y-124515953D01*
G75*
G02*
X236764987Y-124515953I-53033J53033D01*
G01*
X236658921Y-124409887D01*
G75*
G02*
X236658921Y-124303821I53033J53033D01*
G01*
X237595837Y-123366905D01*
G75*
G02*
X237701903Y-123366905I53033J-53033D01*
G01*
X237807969Y-123472971D01*
G75*
G02*
X237807969Y-123579037I-53033J-53033D01*
G01*
G37*
G36*
G01*
X238161522Y-123932590D02*
X237224606Y-124869506D01*
G75*
G02*
X237118540Y-124869506I-53033J53033D01*
G01*
X237012474Y-124763440D01*
G75*
G02*
X237012474Y-124657374I53033J53033D01*
G01*
X237949390Y-123720458D01*
G75*
G02*
X238055456Y-123720458I53033J-53033D01*
G01*
X238161522Y-123826524D01*
G75*
G02*
X238161522Y-123932590I-53033J-53033D01*
G01*
G37*
G36*
G01*
X238515075Y-124286144D02*
X237578159Y-125223060D01*
G75*
G02*
X237472093Y-125223060I-53033J53033D01*
G01*
X237366027Y-125116994D01*
G75*
G02*
X237366027Y-125010928I53033J53033D01*
G01*
X238302943Y-124074012D01*
G75*
G02*
X238409009Y-124074012I53033J-53033D01*
G01*
X238515075Y-124180078D01*
G75*
G02*
X238515075Y-124286144I-53033J-53033D01*
G01*
G37*
G36*
G01*
X238868629Y-124639697D02*
X237931713Y-125576613D01*
G75*
G02*
X237825647Y-125576613I-53033J53033D01*
G01*
X237719581Y-125470547D01*
G75*
G02*
X237719581Y-125364481I53033J53033D01*
G01*
X238656497Y-124427565D01*
G75*
G02*
X238762563Y-124427565I53033J-53033D01*
G01*
X238868629Y-124533631D01*
G75*
G02*
X238868629Y-124639697I-53033J-53033D01*
G01*
G37*
G36*
G01*
X239222182Y-124993251D02*
X238285266Y-125930167D01*
G75*
G02*
X238179200Y-125930167I-53033J53033D01*
G01*
X238073134Y-125824101D01*
G75*
G02*
X238073134Y-125718035I53033J53033D01*
G01*
X239010050Y-124781119D01*
G75*
G02*
X239116116Y-124781119I53033J-53033D01*
G01*
X239222182Y-124887185D01*
G75*
G02*
X239222182Y-124993251I-53033J-53033D01*
G01*
G37*
G36*
G01*
X241926866Y-125824101D02*
X241820800Y-125930167D01*
G75*
G02*
X241714734Y-125930167I-53033J53033D01*
G01*
X240777818Y-124993251D01*
G75*
G02*
X240777818Y-124887185I53033J53033D01*
G01*
X240883884Y-124781119D01*
G75*
G02*
X240989950Y-124781119I53033J-53033D01*
G01*
X241926866Y-125718035D01*
G75*
G02*
X241926866Y-125824101I-53033J-53033D01*
G01*
G37*
G36*
G01*
X242280419Y-125470547D02*
X242174353Y-125576613D01*
G75*
G02*
X242068287Y-125576613I-53033J53033D01*
G01*
X241131371Y-124639697D01*
G75*
G02*
X241131371Y-124533631I53033J53033D01*
G01*
X241237437Y-124427565D01*
G75*
G02*
X241343503Y-124427565I53033J-53033D01*
G01*
X242280419Y-125364481D01*
G75*
G02*
X242280419Y-125470547I-53033J-53033D01*
G01*
G37*
G36*
G01*
X242633973Y-125116994D02*
X242527907Y-125223060D01*
G75*
G02*
X242421841Y-125223060I-53033J53033D01*
G01*
X241484925Y-124286144D01*
G75*
G02*
X241484925Y-124180078I53033J53033D01*
G01*
X241590991Y-124074012D01*
G75*
G02*
X241697057Y-124074012I53033J-53033D01*
G01*
X242633973Y-125010928D01*
G75*
G02*
X242633973Y-125116994I-53033J-53033D01*
G01*
G37*
G36*
G01*
X242987526Y-124763440D02*
X242881460Y-124869506D01*
G75*
G02*
X242775394Y-124869506I-53033J53033D01*
G01*
X241838478Y-123932590D01*
G75*
G02*
X241838478Y-123826524I53033J53033D01*
G01*
X241944544Y-123720458D01*
G75*
G02*
X242050610Y-123720458I53033J-53033D01*
G01*
X242987526Y-124657374D01*
G75*
G02*
X242987526Y-124763440I-53033J-53033D01*
G01*
G37*
G36*
G01*
X243341079Y-124409887D02*
X243235013Y-124515953D01*
G75*
G02*
X243128947Y-124515953I-53033J53033D01*
G01*
X242192031Y-123579037D01*
G75*
G02*
X242192031Y-123472971I53033J53033D01*
G01*
X242298097Y-123366905D01*
G75*
G02*
X242404163Y-123366905I53033J-53033D01*
G01*
X243341079Y-124303821D01*
G75*
G02*
X243341079Y-124409887I-53033J-53033D01*
G01*
G37*
G36*
G01*
X243694633Y-124056334D02*
X243588567Y-124162400D01*
G75*
G02*
X243482501Y-124162400I-53033J53033D01*
G01*
X242545585Y-123225484D01*
G75*
G02*
X242545585Y-123119418I53033J53033D01*
G01*
X242651651Y-123013352D01*
G75*
G02*
X242757717Y-123013352I53033J-53033D01*
G01*
X243694633Y-123950268D01*
G75*
G02*
X243694633Y-124056334I-53033J-53033D01*
G01*
G37*
G36*
G01*
X244048186Y-123702780D02*
X243942120Y-123808846D01*
G75*
G02*
X243836054Y-123808846I-53033J53033D01*
G01*
X242899138Y-122871930D01*
G75*
G02*
X242899138Y-122765864I53033J53033D01*
G01*
X243005204Y-122659798D01*
G75*
G02*
X243111270Y-122659798I53033J-53033D01*
G01*
X244048186Y-123596714D01*
G75*
G02*
X244048186Y-123702780I-53033J-53033D01*
G01*
G37*
G36*
G01*
X244401739Y-123349227D02*
X244295673Y-123455293D01*
G75*
G02*
X244189607Y-123455293I-53033J53033D01*
G01*
X243252691Y-122518377D01*
G75*
G02*
X243252691Y-122412311I53033J53033D01*
G01*
X243358757Y-122306245D01*
G75*
G02*
X243464823Y-122306245I53033J-53033D01*
G01*
X244401739Y-123243161D01*
G75*
G02*
X244401739Y-123349227I-53033J-53033D01*
G01*
G37*
G36*
G01*
X244755293Y-122995673D02*
X244649227Y-123101739D01*
G75*
G02*
X244543161Y-123101739I-53033J53033D01*
G01*
X243606245Y-122164823D01*
G75*
G02*
X243606245Y-122058757I53033J53033D01*
G01*
X243712311Y-121952691D01*
G75*
G02*
X243818377Y-121952691I53033J-53033D01*
G01*
X244755293Y-122889607D01*
G75*
G02*
X244755293Y-122995673I-53033J-53033D01*
G01*
G37*
G36*
G01*
X245108846Y-122642120D02*
X245002780Y-122748186D01*
G75*
G02*
X244896714Y-122748186I-53033J53033D01*
G01*
X243959798Y-121811270D01*
G75*
G02*
X243959798Y-121705204I53033J53033D01*
G01*
X244065864Y-121599138D01*
G75*
G02*
X244171930Y-121599138I53033J-53033D01*
G01*
X245108846Y-122536054D01*
G75*
G02*
X245108846Y-122642120I-53033J-53033D01*
G01*
G37*
G36*
G01*
X245462400Y-122288567D02*
X245356334Y-122394633D01*
G75*
G02*
X245250268Y-122394633I-53033J53033D01*
G01*
X244313352Y-121457717D01*
G75*
G02*
X244313352Y-121351651I53033J53033D01*
G01*
X244419418Y-121245585D01*
G75*
G02*
X244525484Y-121245585I53033J-53033D01*
G01*
X245462400Y-122182501D01*
G75*
G02*
X245462400Y-122288567I-53033J-53033D01*
G01*
G37*
G36*
G01*
X245815953Y-121935013D02*
X245709887Y-122041079D01*
G75*
G02*
X245603821Y-122041079I-53033J53033D01*
G01*
X244666905Y-121104163D01*
G75*
G02*
X244666905Y-120998097I53033J53033D01*
G01*
X244772971Y-120892031D01*
G75*
G02*
X244879037Y-120892031I53033J-53033D01*
G01*
X245815953Y-121828947D01*
G75*
G02*
X245815953Y-121935013I-53033J-53033D01*
G01*
G37*
G36*
G01*
X246169506Y-121581460D02*
X246063440Y-121687526D01*
G75*
G02*
X245957374Y-121687526I-53033J53033D01*
G01*
X245020458Y-120750610D01*
G75*
G02*
X245020458Y-120644544I53033J53033D01*
G01*
X245126524Y-120538478D01*
G75*
G02*
X245232590Y-120538478I53033J-53033D01*
G01*
X246169506Y-121475394D01*
G75*
G02*
X246169506Y-121581460I-53033J-53033D01*
G01*
G37*
G36*
G01*
X246523060Y-121227907D02*
X246416994Y-121333973D01*
G75*
G02*
X246310928Y-121333973I-53033J53033D01*
G01*
X245374012Y-120397057D01*
G75*
G02*
X245374012Y-120290991I53033J53033D01*
G01*
X245480078Y-120184925D01*
G75*
G02*
X245586144Y-120184925I53033J-53033D01*
G01*
X246523060Y-121121841D01*
G75*
G02*
X246523060Y-121227907I-53033J-53033D01*
G01*
G37*
G36*
G01*
X246876613Y-120874353D02*
X246770547Y-120980419D01*
G75*
G02*
X246664481Y-120980419I-53033J53033D01*
G01*
X245727565Y-120043503D01*
G75*
G02*
X245727565Y-119937437I53033J53033D01*
G01*
X245833631Y-119831371D01*
G75*
G02*
X245939697Y-119831371I53033J-53033D01*
G01*
X246876613Y-120768287D01*
G75*
G02*
X246876613Y-120874353I-53033J-53033D01*
G01*
G37*
G36*
G01*
X247230167Y-120520800D02*
X247124101Y-120626866D01*
G75*
G02*
X247018035Y-120626866I-53033J53033D01*
G01*
X246081119Y-119689950D01*
G75*
G02*
X246081119Y-119583884I53033J53033D01*
G01*
X246187185Y-119477818D01*
G75*
G02*
X246293251Y-119477818I53033J-53033D01*
G01*
X247230167Y-120414734D01*
G75*
G02*
X247230167Y-120520800I-53033J-53033D01*
G01*
G37*
G36*
G01*
X253500000Y-111550002D02*
X253500000Y-110649998D01*
G75*
G02*
X253749998Y-110400000I249998J0D01*
G01*
X254275002Y-110400000D01*
G75*
G02*
X254525000Y-110649998I0J-249998D01*
G01*
X254525000Y-111550002D01*
G75*
G02*
X254275002Y-111800000I-249998J0D01*
G01*
X253749998Y-111800000D01*
G75*
G02*
X253500000Y-111550002I0J249998D01*
G01*
G37*
G36*
G01*
X251675000Y-111550002D02*
X251675000Y-110649998D01*
G75*
G02*
X251924998Y-110400000I249998J0D01*
G01*
X252450002Y-110400000D01*
G75*
G02*
X252700000Y-110649998I0J-249998D01*
G01*
X252700000Y-111550002D01*
G75*
G02*
X252450002Y-111800000I-249998J0D01*
G01*
X251924998Y-111800000D01*
G75*
G02*
X251675000Y-111550002I0J249998D01*
G01*
G37*
G36*
G01*
X252700000Y-112749998D02*
X252700000Y-113650002D01*
G75*
G02*
X252450002Y-113900000I-249998J0D01*
G01*
X251924998Y-113900000D01*
G75*
G02*
X251675000Y-113650002I0J249998D01*
G01*
X251675000Y-112749998D01*
G75*
G02*
X251924998Y-112500000I249998J0D01*
G01*
X252450002Y-112500000D01*
G75*
G02*
X252700000Y-112749998I0J-249998D01*
G01*
G37*
G36*
G01*
X254525000Y-112749998D02*
X254525000Y-113650002D01*
G75*
G02*
X254275002Y-113900000I-249998J0D01*
G01*
X253749998Y-113900000D01*
G75*
G02*
X253500000Y-113650002I0J249998D01*
G01*
X253500000Y-112749998D01*
G75*
G02*
X253749998Y-112500000I249998J0D01*
G01*
X254275002Y-112500000D01*
G75*
G02*
X254525000Y-112749998I0J-249998D01*
G01*
G37*
G36*
G01*
X255600000Y-122350002D02*
X255600000Y-121449998D01*
G75*
G02*
X255849998Y-121200000I249998J0D01*
G01*
X256375002Y-121200000D01*
G75*
G02*
X256625000Y-121449998I0J-249998D01*
G01*
X256625000Y-122350002D01*
G75*
G02*
X256375002Y-122600000I-249998J0D01*
G01*
X255849998Y-122600000D01*
G75*
G02*
X255600000Y-122350002I0J249998D01*
G01*
G37*
G36*
G01*
X253775000Y-122350002D02*
X253775000Y-121449998D01*
G75*
G02*
X254024998Y-121200000I249998J0D01*
G01*
X254550002Y-121200000D01*
G75*
G02*
X254800000Y-121449998I0J-249998D01*
G01*
X254800000Y-122350002D01*
G75*
G02*
X254550002Y-122600000I-249998J0D01*
G01*
X254024998Y-122600000D01*
G75*
G02*
X253775000Y-122350002I0J249998D01*
G01*
G37*
G36*
G01*
X254800000Y-123549998D02*
X254800000Y-124450002D01*
G75*
G02*
X254550002Y-124700000I-249998J0D01*
G01*
X254024998Y-124700000D01*
G75*
G02*
X253775000Y-124450002I0J249998D01*
G01*
X253775000Y-123549998D01*
G75*
G02*
X254024998Y-123300000I249998J0D01*
G01*
X254550002Y-123300000D01*
G75*
G02*
X254800000Y-123549998I0J-249998D01*
G01*
G37*
G36*
G01*
X256625000Y-123549998D02*
X256625000Y-124450002D01*
G75*
G02*
X256375002Y-124700000I-249998J0D01*
G01*
X255849998Y-124700000D01*
G75*
G02*
X255600000Y-124450002I0J249998D01*
G01*
X255600000Y-123549998D01*
G75*
G02*
X255849998Y-123300000I249998J0D01*
G01*
X256375002Y-123300000D01*
G75*
G02*
X256625000Y-123549998I0J-249998D01*
G01*
G37*
G36*
G01*
X242150002Y-108600000D02*
X241249998Y-108600000D01*
G75*
G02*
X241000000Y-108350002I0J249998D01*
G01*
X241000000Y-107824998D01*
G75*
G02*
X241249998Y-107575000I249998J0D01*
G01*
X242150002Y-107575000D01*
G75*
G02*
X242400000Y-107824998I0J-249998D01*
G01*
X242400000Y-108350002D01*
G75*
G02*
X242150002Y-108600000I-249998J0D01*
G01*
G37*
G36*
G01*
X242150002Y-110425000D02*
X241249998Y-110425000D01*
G75*
G02*
X241000000Y-110175002I0J249998D01*
G01*
X241000000Y-109649998D01*
G75*
G02*
X241249998Y-109400000I249998J0D01*
G01*
X242150002Y-109400000D01*
G75*
G02*
X242400000Y-109649998I0J-249998D01*
G01*
X242400000Y-110175002D01*
G75*
G02*
X242150002Y-110425000I-249998J0D01*
G01*
G37*
G36*
G01*
X243349998Y-109400000D02*
X244250002Y-109400000D01*
G75*
G02*
X244500000Y-109649998I0J-249998D01*
G01*
X244500000Y-110175002D01*
G75*
G02*
X244250002Y-110425000I-249998J0D01*
G01*
X243349998Y-110425000D01*
G75*
G02*
X243100000Y-110175002I0J249998D01*
G01*
X243100000Y-109649998D01*
G75*
G02*
X243349998Y-109400000I249998J0D01*
G01*
G37*
G36*
G01*
X243349998Y-107575000D02*
X244250002Y-107575000D01*
G75*
G02*
X244500000Y-107824998I0J-249998D01*
G01*
X244500000Y-108350002D01*
G75*
G02*
X244250002Y-108600000I-249998J0D01*
G01*
X243349998Y-108600000D01*
G75*
G02*
X243100000Y-108350002I0J249998D01*
G01*
X243100000Y-107824998D01*
G75*
G02*
X243349998Y-107575000I249998J0D01*
G01*
G37*
G36*
G01*
X251300000Y-122250002D02*
X251300000Y-121349998D01*
G75*
G02*
X251549998Y-121100000I249998J0D01*
G01*
X252075002Y-121100000D01*
G75*
G02*
X252325000Y-121349998I0J-249998D01*
G01*
X252325000Y-122250002D01*
G75*
G02*
X252075002Y-122500000I-249998J0D01*
G01*
X251549998Y-122500000D01*
G75*
G02*
X251300000Y-122250002I0J249998D01*
G01*
G37*
G36*
G01*
X249475000Y-122250002D02*
X249475000Y-121349998D01*
G75*
G02*
X249724998Y-121100000I249998J0D01*
G01*
X250250002Y-121100000D01*
G75*
G02*
X250500000Y-121349998I0J-249998D01*
G01*
X250500000Y-122250002D01*
G75*
G02*
X250250002Y-122500000I-249998J0D01*
G01*
X249724998Y-122500000D01*
G75*
G02*
X249475000Y-122250002I0J249998D01*
G01*
G37*
G36*
G01*
X250500000Y-123449998D02*
X250500000Y-124350002D01*
G75*
G02*
X250250002Y-124600000I-249998J0D01*
G01*
X249724998Y-124600000D01*
G75*
G02*
X249475000Y-124350002I0J249998D01*
G01*
X249475000Y-123449998D01*
G75*
G02*
X249724998Y-123200000I249998J0D01*
G01*
X250250002Y-123200000D01*
G75*
G02*
X250500000Y-123449998I0J-249998D01*
G01*
G37*
G36*
G01*
X252325000Y-123449998D02*
X252325000Y-124350002D01*
G75*
G02*
X252075002Y-124600000I-249998J0D01*
G01*
X251549998Y-124600000D01*
G75*
G02*
X251300000Y-124350002I0J249998D01*
G01*
X251300000Y-123449998D01*
G75*
G02*
X251549998Y-123200000I249998J0D01*
G01*
X252075002Y-123200000D01*
G75*
G02*
X252325000Y-123449998I0J-249998D01*
G01*
G37*
G36*
G01*
X249200000Y-111550002D02*
X249200000Y-110649998D01*
G75*
G02*
X249449998Y-110400000I249998J0D01*
G01*
X249975002Y-110400000D01*
G75*
G02*
X250225000Y-110649998I0J-249998D01*
G01*
X250225000Y-111550002D01*
G75*
G02*
X249975002Y-111800000I-249998J0D01*
G01*
X249449998Y-111800000D01*
G75*
G02*
X249200000Y-111550002I0J249998D01*
G01*
G37*
G36*
G01*
X247375000Y-111550002D02*
X247375000Y-110649998D01*
G75*
G02*
X247624998Y-110400000I249998J0D01*
G01*
X248150002Y-110400000D01*
G75*
G02*
X248400000Y-110649998I0J-249998D01*
G01*
X248400000Y-111550002D01*
G75*
G02*
X248150002Y-111800000I-249998J0D01*
G01*
X247624998Y-111800000D01*
G75*
G02*
X247375000Y-111550002I0J249998D01*
G01*
G37*
G36*
G01*
X248400000Y-112749998D02*
X248400000Y-113650002D01*
G75*
G02*
X248150002Y-113900000I-249998J0D01*
G01*
X247624998Y-113900000D01*
G75*
G02*
X247375000Y-113650002I0J249998D01*
G01*
X247375000Y-112749998D01*
G75*
G02*
X247624998Y-112500000I249998J0D01*
G01*
X248150002Y-112500000D01*
G75*
G02*
X248400000Y-112749998I0J-249998D01*
G01*
G37*
G36*
G01*
X250225000Y-112749998D02*
X250225000Y-113650002D01*
G75*
G02*
X249975002Y-113900000I-249998J0D01*
G01*
X249449998Y-113900000D01*
G75*
G02*
X249200000Y-113650002I0J249998D01*
G01*
X249200000Y-112749998D01*
G75*
G02*
X249449998Y-112500000I249998J0D01*
G01*
X249975002Y-112500000D01*
G75*
G02*
X250225000Y-112749998I0J-249998D01*
G01*
G37*
G36*
G01*
X256949998Y-113312500D02*
X257850002Y-113312500D01*
G75*
G02*
X258100000Y-113562498I0J-249998D01*
G01*
X258100000Y-114087502D01*
G75*
G02*
X257850002Y-114337500I-249998J0D01*
G01*
X256949998Y-114337500D01*
G75*
G02*
X256700000Y-114087502I0J249998D01*
G01*
X256700000Y-113562498D01*
G75*
G02*
X256949998Y-113312500I249998J0D01*
G01*
G37*
G36*
G01*
X256949998Y-111487500D02*
X257850002Y-111487500D01*
G75*
G02*
X258100000Y-111737498I0J-249998D01*
G01*
X258100000Y-112262502D01*
G75*
G02*
X257850002Y-112512500I-249998J0D01*
G01*
X256949998Y-112512500D01*
G75*
G02*
X256700000Y-112262502I0J249998D01*
G01*
X256700000Y-111737498D01*
G75*
G02*
X256949998Y-111487500I249998J0D01*
G01*
G37*
G36*
G01*
X259049998Y-113300000D02*
X259950002Y-113300000D01*
G75*
G02*
X260200000Y-113549998I0J-249998D01*
G01*
X260200000Y-114075002D01*
G75*
G02*
X259950002Y-114325000I-249998J0D01*
G01*
X259049998Y-114325000D01*
G75*
G02*
X258800000Y-114075002I0J249998D01*
G01*
X258800000Y-113549998D01*
G75*
G02*
X259049998Y-113300000I249998J0D01*
G01*
G37*
G36*
G01*
X259049998Y-111475000D02*
X259950002Y-111475000D01*
G75*
G02*
X260200000Y-111724998I0J-249998D01*
G01*
X260200000Y-112250002D01*
G75*
G02*
X259950002Y-112500000I-249998J0D01*
G01*
X259049998Y-112500000D01*
G75*
G02*
X258800000Y-112250002I0J249998D01*
G01*
X258800000Y-111724998D01*
G75*
G02*
X259049998Y-111475000I249998J0D01*
G01*
G37*
G36*
G01*
X261149998Y-113287500D02*
X262050002Y-113287500D01*
G75*
G02*
X262300000Y-113537498I0J-249998D01*
G01*
X262300000Y-114062502D01*
G75*
G02*
X262050002Y-114312500I-249998J0D01*
G01*
X261149998Y-114312500D01*
G75*
G02*
X260900000Y-114062502I0J249998D01*
G01*
X260900000Y-113537498D01*
G75*
G02*
X261149998Y-113287500I249998J0D01*
G01*
G37*
G36*
G01*
X261149998Y-111462500D02*
X262050002Y-111462500D01*
G75*
G02*
X262300000Y-111712498I0J-249998D01*
G01*
X262300000Y-112237502D01*
G75*
G02*
X262050002Y-112487500I-249998J0D01*
G01*
X261149998Y-112487500D01*
G75*
G02*
X260900000Y-112237502I0J249998D01*
G01*
X260900000Y-111712498D01*
G75*
G02*
X261149998Y-111462500I249998J0D01*
G01*
G37*
G36*
G01*
X225200000Y-134449998D02*
X225200000Y-135350002D01*
G75*
G02*
X224950002Y-135600000I-249998J0D01*
G01*
X224424998Y-135600000D01*
G75*
G02*
X224175000Y-135350002I0J249998D01*
G01*
X224175000Y-134449998D01*
G75*
G02*
X224424998Y-134200000I249998J0D01*
G01*
X224950002Y-134200000D01*
G75*
G02*
X225200000Y-134449998I0J-249998D01*
G01*
G37*
G36*
G01*
X227025000Y-134449998D02*
X227025000Y-135350002D01*
G75*
G02*
X226775002Y-135600000I-249998J0D01*
G01*
X226249998Y-135600000D01*
G75*
G02*
X226000000Y-135350002I0J249998D01*
G01*
X226000000Y-134449998D01*
G75*
G02*
X226249998Y-134200000I249998J0D01*
G01*
X226775002Y-134200000D01*
G75*
G02*
X227025000Y-134449998I0J-249998D01*
G01*
G37*
G36*
G01*
X226000000Y-133250002D02*
X226000000Y-132349998D01*
G75*
G02*
X226249998Y-132100000I249998J0D01*
G01*
X226775002Y-132100000D01*
G75*
G02*
X227025000Y-132349998I0J-249998D01*
G01*
X227025000Y-133250002D01*
G75*
G02*
X226775002Y-133500000I-249998J0D01*
G01*
X226249998Y-133500000D01*
G75*
G02*
X226000000Y-133250002I0J249998D01*
G01*
G37*
G36*
G01*
X224175000Y-133250002D02*
X224175000Y-132349998D01*
G75*
G02*
X224424998Y-132100000I249998J0D01*
G01*
X224950002Y-132100000D01*
G75*
G02*
X225200000Y-132349998I0J-249998D01*
G01*
X225200000Y-133250002D01*
G75*
G02*
X224950002Y-133500000I-249998J0D01*
G01*
X224424998Y-133500000D01*
G75*
G02*
X224175000Y-133250002I0J249998D01*
G01*
G37*
G36*
G01*
X217987500Y-114049998D02*
X217987500Y-114950002D01*
G75*
G02*
X217737502Y-115200000I-249998J0D01*
G01*
X217212498Y-115200000D01*
G75*
G02*
X216962500Y-114950002I0J249998D01*
G01*
X216962500Y-114049998D01*
G75*
G02*
X217212498Y-113800000I249998J0D01*
G01*
X217737502Y-113800000D01*
G75*
G02*
X217987500Y-114049998I0J-249998D01*
G01*
G37*
G36*
G01*
X219812500Y-114049998D02*
X219812500Y-114950002D01*
G75*
G02*
X219562502Y-115200000I-249998J0D01*
G01*
X219037498Y-115200000D01*
G75*
G02*
X218787500Y-114950002I0J249998D01*
G01*
X218787500Y-114049998D01*
G75*
G02*
X219037498Y-113800000I249998J0D01*
G01*
X219562502Y-113800000D01*
G75*
G02*
X219812500Y-114049998I0J-249998D01*
G01*
G37*
G36*
G01*
X227749998Y-53000000D02*
X228650002Y-53000000D01*
G75*
G02*
X228900000Y-53249998I0J-249998D01*
G01*
X228900000Y-53775002D01*
G75*
G02*
X228650002Y-54025000I-249998J0D01*
G01*
X227749998Y-54025000D01*
G75*
G02*
X227500000Y-53775002I0J249998D01*
G01*
X227500000Y-53249998D01*
G75*
G02*
X227749998Y-53000000I249998J0D01*
G01*
G37*
G36*
G01*
X227749998Y-51175000D02*
X228650002Y-51175000D01*
G75*
G02*
X228900000Y-51424998I0J-249998D01*
G01*
X228900000Y-51950002D01*
G75*
G02*
X228650002Y-52200000I-249998J0D01*
G01*
X227749998Y-52200000D01*
G75*
G02*
X227500000Y-51950002I0J249998D01*
G01*
X227500000Y-51424998D01*
G75*
G02*
X227749998Y-51175000I249998J0D01*
G01*
G37*
G36*
G01*
X225649998Y-53012500D02*
X226550002Y-53012500D01*
G75*
G02*
X226800000Y-53262498I0J-249998D01*
G01*
X226800000Y-53787502D01*
G75*
G02*
X226550002Y-54037500I-249998J0D01*
G01*
X225649998Y-54037500D01*
G75*
G02*
X225400000Y-53787502I0J249998D01*
G01*
X225400000Y-53262498D01*
G75*
G02*
X225649998Y-53012500I249998J0D01*
G01*
G37*
G36*
G01*
X225649998Y-51187500D02*
X226550002Y-51187500D01*
G75*
G02*
X226800000Y-51437498I0J-249998D01*
G01*
X226800000Y-51962502D01*
G75*
G02*
X226550002Y-52212500I-249998J0D01*
G01*
X225649998Y-52212500D01*
G75*
G02*
X225400000Y-51962502I0J249998D01*
G01*
X225400000Y-51437498D01*
G75*
G02*
X225649998Y-51187500I249998J0D01*
G01*
G37*
G36*
G01*
X223949998Y-116400000D02*
X224850002Y-116400000D01*
G75*
G02*
X225100000Y-116649998I0J-249998D01*
G01*
X225100000Y-117175002D01*
G75*
G02*
X224850002Y-117425000I-249998J0D01*
G01*
X223949998Y-117425000D01*
G75*
G02*
X223700000Y-117175002I0J249998D01*
G01*
X223700000Y-116649998D01*
G75*
G02*
X223949998Y-116400000I249998J0D01*
G01*
G37*
G36*
G01*
X223949998Y-114575000D02*
X224850002Y-114575000D01*
G75*
G02*
X225100000Y-114824998I0J-249998D01*
G01*
X225100000Y-115350002D01*
G75*
G02*
X224850002Y-115600000I-249998J0D01*
G01*
X223949998Y-115600000D01*
G75*
G02*
X223700000Y-115350002I0J249998D01*
G01*
X223700000Y-114824998D01*
G75*
G02*
X223949998Y-114575000I249998J0D01*
G01*
G37*
G36*
G01*
X226049998Y-116400000D02*
X226950002Y-116400000D01*
G75*
G02*
X227200000Y-116649998I0J-249998D01*
G01*
X227200000Y-117175002D01*
G75*
G02*
X226950002Y-117425000I-249998J0D01*
G01*
X226049998Y-117425000D01*
G75*
G02*
X225800000Y-117175002I0J249998D01*
G01*
X225800000Y-116649998D01*
G75*
G02*
X226049998Y-116400000I249998J0D01*
G01*
G37*
G36*
G01*
X226049998Y-114575000D02*
X226950002Y-114575000D01*
G75*
G02*
X227200000Y-114824998I0J-249998D01*
G01*
X227200000Y-115350002D01*
G75*
G02*
X226950002Y-115600000I-249998J0D01*
G01*
X226049998Y-115600000D01*
G75*
G02*
X225800000Y-115350002I0J249998D01*
G01*
X225800000Y-114824998D01*
G75*
G02*
X226049998Y-114575000I249998J0D01*
G01*
G37*
G36*
G01*
X253550000Y-109475000D02*
X253550000Y-108525000D01*
G75*
G02*
X253800000Y-108275000I250000J0D01*
G01*
X254300000Y-108275000D01*
G75*
G02*
X254550000Y-108525000I0J-250000D01*
G01*
X254550000Y-109475000D01*
G75*
G02*
X254300000Y-109725000I-250000J0D01*
G01*
X253800000Y-109725000D01*
G75*
G02*
X253550000Y-109475000I0J250000D01*
G01*
G37*
G36*
G01*
X251650000Y-109475000D02*
X251650000Y-108525000D01*
G75*
G02*
X251900000Y-108275000I250000J0D01*
G01*
X252400000Y-108275000D01*
G75*
G02*
X252650000Y-108525000I0J-250000D01*
G01*
X252650000Y-109475000D01*
G75*
G02*
X252400000Y-109725000I-250000J0D01*
G01*
X251900000Y-109725000D01*
G75*
G02*
X251650000Y-109475000I0J250000D01*
G01*
G37*
G36*
G01*
X255650000Y-120275000D02*
X255650000Y-119325000D01*
G75*
G02*
X255900000Y-119075000I250000J0D01*
G01*
X256400000Y-119075000D01*
G75*
G02*
X256650000Y-119325000I0J-250000D01*
G01*
X256650000Y-120275000D01*
G75*
G02*
X256400000Y-120525000I-250000J0D01*
G01*
X255900000Y-120525000D01*
G75*
G02*
X255650000Y-120275000I0J250000D01*
G01*
G37*
G36*
G01*
X253750000Y-120275000D02*
X253750000Y-119325000D01*
G75*
G02*
X254000000Y-119075000I250000J0D01*
G01*
X254500000Y-119075000D01*
G75*
G02*
X254750000Y-119325000I0J-250000D01*
G01*
X254750000Y-120275000D01*
G75*
G02*
X254500000Y-120525000I-250000J0D01*
G01*
X254000000Y-120525000D01*
G75*
G02*
X253750000Y-120275000I0J250000D01*
G01*
G37*
G36*
G01*
X240075000Y-108550000D02*
X239125000Y-108550000D01*
G75*
G02*
X238875000Y-108300000I0J250000D01*
G01*
X238875000Y-107800000D01*
G75*
G02*
X239125000Y-107550000I250000J0D01*
G01*
X240075000Y-107550000D01*
G75*
G02*
X240325000Y-107800000I0J-250000D01*
G01*
X240325000Y-108300000D01*
G75*
G02*
X240075000Y-108550000I-250000J0D01*
G01*
G37*
G36*
G01*
X240075000Y-110450000D02*
X239125000Y-110450000D01*
G75*
G02*
X238875000Y-110200000I0J250000D01*
G01*
X238875000Y-109700000D01*
G75*
G02*
X239125000Y-109450000I250000J0D01*
G01*
X240075000Y-109450000D01*
G75*
G02*
X240325000Y-109700000I0J-250000D01*
G01*
X240325000Y-110200000D01*
G75*
G02*
X240075000Y-110450000I-250000J0D01*
G01*
G37*
G36*
G01*
X251350000Y-120175000D02*
X251350000Y-119225000D01*
G75*
G02*
X251600000Y-118975000I250000J0D01*
G01*
X252100000Y-118975000D01*
G75*
G02*
X252350000Y-119225000I0J-250000D01*
G01*
X252350000Y-120175000D01*
G75*
G02*
X252100000Y-120425000I-250000J0D01*
G01*
X251600000Y-120425000D01*
G75*
G02*
X251350000Y-120175000I0J250000D01*
G01*
G37*
G36*
G01*
X249450000Y-120175000D02*
X249450000Y-119225000D01*
G75*
G02*
X249700000Y-118975000I250000J0D01*
G01*
X250200000Y-118975000D01*
G75*
G02*
X250450000Y-119225000I0J-250000D01*
G01*
X250450000Y-120175000D01*
G75*
G02*
X250200000Y-120425000I-250000J0D01*
G01*
X249700000Y-120425000D01*
G75*
G02*
X249450000Y-120175000I0J250000D01*
G01*
G37*
G36*
G01*
X249250000Y-109475000D02*
X249250000Y-108525000D01*
G75*
G02*
X249500000Y-108275000I250000J0D01*
G01*
X250000000Y-108275000D01*
G75*
G02*
X250250000Y-108525000I0J-250000D01*
G01*
X250250000Y-109475000D01*
G75*
G02*
X250000000Y-109725000I-250000J0D01*
G01*
X249500000Y-109725000D01*
G75*
G02*
X249250000Y-109475000I0J250000D01*
G01*
G37*
G36*
G01*
X247350000Y-109475000D02*
X247350000Y-108525000D01*
G75*
G02*
X247600000Y-108275000I250000J0D01*
G01*
X248100000Y-108275000D01*
G75*
G02*
X248350000Y-108525000I0J-250000D01*
G01*
X248350000Y-109475000D01*
G75*
G02*
X248100000Y-109725000I-250000J0D01*
G01*
X247600000Y-109725000D01*
G75*
G02*
X247350000Y-109475000I0J250000D01*
G01*
G37*
G36*
G01*
X217875000Y-108750000D02*
X216925000Y-108750000D01*
G75*
G02*
X216675000Y-108500000I0J250000D01*
G01*
X216675000Y-108000000D01*
G75*
G02*
X216925000Y-107750000I250000J0D01*
G01*
X217875000Y-107750000D01*
G75*
G02*
X218125000Y-108000000I0J-250000D01*
G01*
X218125000Y-108500000D01*
G75*
G02*
X217875000Y-108750000I-250000J0D01*
G01*
G37*
G36*
G01*
X217875000Y-110650000D02*
X216925000Y-110650000D01*
G75*
G02*
X216675000Y-110400000I0J250000D01*
G01*
X216675000Y-109900000D01*
G75*
G02*
X216925000Y-109650000I250000J0D01*
G01*
X217875000Y-109650000D01*
G75*
G02*
X218125000Y-109900000I0J-250000D01*
G01*
X218125000Y-110400000D01*
G75*
G02*
X217875000Y-110650000I-250000J0D01*
G01*
G37*
D12*
X230000000Y-52600000D03*
X232000000Y-53550000D03*
X232000000Y-51650000D03*
G36*
G01*
X231845927Y-126082322D02*
X232517678Y-126754073D01*
G75*
G02*
X232517678Y-127107627I-176777J-176777D01*
G01*
X232164125Y-127461180D01*
G75*
G02*
X231810571Y-127461180I-176777J176777D01*
G01*
X231138820Y-126789429D01*
G75*
G02*
X231138820Y-126435875I176777J176777D01*
G01*
X231492373Y-126082322D01*
G75*
G02*
X231845927Y-126082322I176777J-176777D01*
G01*
G37*
G36*
G01*
X233189429Y-124738820D02*
X233861180Y-125410571D01*
G75*
G02*
X233861180Y-125764125I-176777J-176777D01*
G01*
X233507627Y-126117678D01*
G75*
G02*
X233154073Y-126117678I-176777J176777D01*
G01*
X232482322Y-125445927D01*
G75*
G02*
X232482322Y-125092373I176777J176777D01*
G01*
X232835875Y-124738820D01*
G75*
G02*
X233189429Y-124738820I176777J-176777D01*
G01*
G37*
G36*
G01*
X234440000Y-52050000D02*
X233490000Y-52050000D01*
G75*
G02*
X233240000Y-51800000I0J250000D01*
G01*
X233240000Y-51300000D01*
G75*
G02*
X233490000Y-51050000I250000J0D01*
G01*
X234440000Y-51050000D01*
G75*
G02*
X234690000Y-51300000I0J-250000D01*
G01*
X234690000Y-51800000D01*
G75*
G02*
X234440000Y-52050000I-250000J0D01*
G01*
G37*
G36*
G01*
X234440000Y-53950000D02*
X233490000Y-53950000D01*
G75*
G02*
X233240000Y-53700000I0J250000D01*
G01*
X233240000Y-53200000D01*
G75*
G02*
X233490000Y-52950000I250000J0D01*
G01*
X234440000Y-52950000D01*
G75*
G02*
X234690000Y-53200000I0J-250000D01*
G01*
X234690000Y-53700000D01*
G75*
G02*
X234440000Y-53950000I-250000J0D01*
G01*
G37*
G36*
G01*
X236575000Y-52050000D02*
X235625000Y-52050000D01*
G75*
G02*
X235375000Y-51800000I0J250000D01*
G01*
X235375000Y-51300000D01*
G75*
G02*
X235625000Y-51050000I250000J0D01*
G01*
X236575000Y-51050000D01*
G75*
G02*
X236825000Y-51300000I0J-250000D01*
G01*
X236825000Y-51800000D01*
G75*
G02*
X236575000Y-52050000I-250000J0D01*
G01*
G37*
G36*
G01*
X236575000Y-53950000D02*
X235625000Y-53950000D01*
G75*
G02*
X235375000Y-53700000I0J250000D01*
G01*
X235375000Y-53200000D01*
G75*
G02*
X235625000Y-52950000I250000J0D01*
G01*
X236575000Y-52950000D01*
G75*
G02*
X236825000Y-53200000I0J-250000D01*
G01*
X236825000Y-53700000D01*
G75*
G02*
X236575000Y-53950000I-250000J0D01*
G01*
G37*
D13*
X249860000Y-130150000D03*
X249860000Y-134050000D03*
X251130000Y-130150000D03*
X251130000Y-134050000D03*
X252400000Y-130150000D03*
X252400000Y-134050000D03*
X253670000Y-130150000D03*
X253670000Y-134050000D03*
X254940000Y-130150000D03*
X254940000Y-134050000D03*
D14*
X222675000Y-125675000D03*
X225725000Y-122325000D03*
X225725000Y-125675000D03*
X222675000Y-122325000D03*
D15*
X221920000Y-130300000D03*
X226480000Y-130300000D03*
G36*
G01*
X216849998Y-125900000D02*
X217750002Y-125900000D01*
G75*
G02*
X218000000Y-126149998I0J-249998D01*
G01*
X218000000Y-126675002D01*
G75*
G02*
X217750002Y-126925000I-249998J0D01*
G01*
X216849998Y-126925000D01*
G75*
G02*
X216600000Y-126675002I0J249998D01*
G01*
X216600000Y-126149998D01*
G75*
G02*
X216849998Y-125900000I249998J0D01*
G01*
G37*
G36*
G01*
X216849998Y-124075000D02*
X217750002Y-124075000D01*
G75*
G02*
X218000000Y-124324998I0J-249998D01*
G01*
X218000000Y-124850002D01*
G75*
G02*
X217750002Y-125100000I-249998J0D01*
G01*
X216849998Y-125100000D01*
G75*
G02*
X216600000Y-124850002I0J249998D01*
G01*
X216600000Y-124324998D01*
G75*
G02*
X216849998Y-124075000I249998J0D01*
G01*
G37*
G36*
G01*
X219049998Y-125900000D02*
X219950002Y-125900000D01*
G75*
G02*
X220200000Y-126149998I0J-249998D01*
G01*
X220200000Y-126675002D01*
G75*
G02*
X219950002Y-126925000I-249998J0D01*
G01*
X219049998Y-126925000D01*
G75*
G02*
X218800000Y-126675002I0J249998D01*
G01*
X218800000Y-126149998D01*
G75*
G02*
X219049998Y-125900000I249998J0D01*
G01*
G37*
G36*
G01*
X219049998Y-124075000D02*
X219950002Y-124075000D01*
G75*
G02*
X220200000Y-124324998I0J-249998D01*
G01*
X220200000Y-124850002D01*
G75*
G02*
X219950002Y-125100000I-249998J0D01*
G01*
X219049998Y-125100000D01*
G75*
G02*
X218800000Y-124850002I0J249998D01*
G01*
X218800000Y-124324998D01*
G75*
G02*
X219049998Y-124075000I249998J0D01*
G01*
G37*
G36*
G01*
X217675000Y-130425000D02*
X218625000Y-130425000D01*
G75*
G02*
X218875000Y-130675000I0J-250000D01*
G01*
X218875000Y-131175000D01*
G75*
G02*
X218625000Y-131425000I-250000J0D01*
G01*
X217675000Y-131425000D01*
G75*
G02*
X217425000Y-131175000I0J250000D01*
G01*
X217425000Y-130675000D01*
G75*
G02*
X217675000Y-130425000I250000J0D01*
G01*
G37*
G36*
G01*
X217675000Y-128525000D02*
X218625000Y-128525000D01*
G75*
G02*
X218875000Y-128775000I0J-250000D01*
G01*
X218875000Y-129275000D01*
G75*
G02*
X218625000Y-129525000I-250000J0D01*
G01*
X217675000Y-129525000D01*
G75*
G02*
X217425000Y-129275000I0J250000D01*
G01*
X217425000Y-128775000D01*
G75*
G02*
X217675000Y-128525000I250000J0D01*
G01*
G37*
G36*
G01*
X229425000Y-129525000D02*
X228475000Y-129525000D01*
G75*
G02*
X228225000Y-129275000I0J250000D01*
G01*
X228225000Y-128775000D01*
G75*
G02*
X228475000Y-128525000I250000J0D01*
G01*
X229425000Y-128525000D01*
G75*
G02*
X229675000Y-128775000I0J-250000D01*
G01*
X229675000Y-129275000D01*
G75*
G02*
X229425000Y-129525000I-250000J0D01*
G01*
G37*
G36*
G01*
X229425000Y-131425000D02*
X228475000Y-131425000D01*
G75*
G02*
X228225000Y-131175000I0J250000D01*
G01*
X228225000Y-130675000D01*
G75*
G02*
X228475000Y-130425000I250000J0D01*
G01*
X229425000Y-130425000D01*
G75*
G02*
X229675000Y-130675000I0J-250000D01*
G01*
X229675000Y-131175000D01*
G75*
G02*
X229425000Y-131425000I-250000J0D01*
G01*
G37*
G36*
G01*
X236425000Y-129450000D02*
X237375000Y-129450000D01*
G75*
G02*
X237625000Y-129700000I0J-250000D01*
G01*
X237625000Y-130200000D01*
G75*
G02*
X237375000Y-130450000I-250000J0D01*
G01*
X236425000Y-130450000D01*
G75*
G02*
X236175000Y-130200000I0J250000D01*
G01*
X236175000Y-129700000D01*
G75*
G02*
X236425000Y-129450000I250000J0D01*
G01*
G37*
G36*
G01*
X236425000Y-127550000D02*
X237375000Y-127550000D01*
G75*
G02*
X237625000Y-127800000I0J-250000D01*
G01*
X237625000Y-128300000D01*
G75*
G02*
X237375000Y-128550000I-250000J0D01*
G01*
X236425000Y-128550000D01*
G75*
G02*
X236175000Y-128300000I0J250000D01*
G01*
X236175000Y-127800000D01*
G75*
G02*
X236425000Y-127550000I250000J0D01*
G01*
G37*
G36*
G01*
X230345927Y-124582322D02*
X231017678Y-125254073D01*
G75*
G02*
X231017678Y-125607627I-176777J-176777D01*
G01*
X230664125Y-125961180D01*
G75*
G02*
X230310571Y-125961180I-176777J176777D01*
G01*
X229638820Y-125289429D01*
G75*
G02*
X229638820Y-124935875I176777J176777D01*
G01*
X229992373Y-124582322D01*
G75*
G02*
X230345927Y-124582322I176777J-176777D01*
G01*
G37*
G36*
G01*
X231689429Y-123238820D02*
X232361180Y-123910571D01*
G75*
G02*
X232361180Y-124264125I-176777J-176777D01*
G01*
X232007627Y-124617678D01*
G75*
G02*
X231654073Y-124617678I-176777J176777D01*
G01*
X230982322Y-123945927D01*
G75*
G02*
X230982322Y-123592373I176777J176777D01*
G01*
X231335875Y-123238820D01*
G75*
G02*
X231689429Y-123238820I176777J-176777D01*
G01*
G37*
G36*
G01*
X233345927Y-127582322D02*
X234017678Y-128254073D01*
G75*
G02*
X234017678Y-128607627I-176777J-176777D01*
G01*
X233664125Y-128961180D01*
G75*
G02*
X233310571Y-128961180I-176777J176777D01*
G01*
X232638820Y-128289429D01*
G75*
G02*
X232638820Y-127935875I176777J176777D01*
G01*
X232992373Y-127582322D01*
G75*
G02*
X233345927Y-127582322I176777J-176777D01*
G01*
G37*
G36*
G01*
X234689429Y-126238820D02*
X235361180Y-126910571D01*
G75*
G02*
X235361180Y-127264125I-176777J-176777D01*
G01*
X235007627Y-127617678D01*
G75*
G02*
X234654073Y-127617678I-176777J176777D01*
G01*
X233982322Y-126945927D01*
G75*
G02*
X233982322Y-126592373I176777J176777D01*
G01*
X234335875Y-126238820D01*
G75*
G02*
X234689429Y-126238820I176777J-176777D01*
G01*
G37*
G36*
G01*
X238525000Y-129450000D02*
X239475000Y-129450000D01*
G75*
G02*
X239725000Y-129700000I0J-250000D01*
G01*
X239725000Y-130200000D01*
G75*
G02*
X239475000Y-130450000I-250000J0D01*
G01*
X238525000Y-130450000D01*
G75*
G02*
X238275000Y-130200000I0J250000D01*
G01*
X238275000Y-129700000D01*
G75*
G02*
X238525000Y-129450000I250000J0D01*
G01*
G37*
G36*
G01*
X238525000Y-127550000D02*
X239475000Y-127550000D01*
G75*
G02*
X239725000Y-127800000I0J-250000D01*
G01*
X239725000Y-128300000D01*
G75*
G02*
X239475000Y-128550000I-250000J0D01*
G01*
X238525000Y-128550000D01*
G75*
G02*
X238275000Y-128300000I0J250000D01*
G01*
X238275000Y-127800000D01*
G75*
G02*
X238525000Y-127550000I250000J0D01*
G01*
G37*
G36*
G01*
X250650000Y-117575000D02*
X250650000Y-116625000D01*
G75*
G02*
X250900000Y-116375000I250000J0D01*
G01*
X251400000Y-116375000D01*
G75*
G02*
X251650000Y-116625000I0J-250000D01*
G01*
X251650000Y-117575000D01*
G75*
G02*
X251400000Y-117825000I-250000J0D01*
G01*
X250900000Y-117825000D01*
G75*
G02*
X250650000Y-117575000I0J250000D01*
G01*
G37*
G36*
G01*
X248750000Y-117575000D02*
X248750000Y-116625000D01*
G75*
G02*
X249000000Y-116375000I250000J0D01*
G01*
X249500000Y-116375000D01*
G75*
G02*
X249750000Y-116625000I0J-250000D01*
G01*
X249750000Y-117575000D01*
G75*
G02*
X249500000Y-117825000I-250000J0D01*
G01*
X249000000Y-117825000D01*
G75*
G02*
X248750000Y-117575000I0J250000D01*
G01*
G37*
G36*
G01*
X237975000Y-108550000D02*
X237025000Y-108550000D01*
G75*
G02*
X236775000Y-108300000I0J250000D01*
G01*
X236775000Y-107800000D01*
G75*
G02*
X237025000Y-107550000I250000J0D01*
G01*
X237975000Y-107550000D01*
G75*
G02*
X238225000Y-107800000I0J-250000D01*
G01*
X238225000Y-108300000D01*
G75*
G02*
X237975000Y-108550000I-250000J0D01*
G01*
G37*
G36*
G01*
X237975000Y-110450000D02*
X237025000Y-110450000D01*
G75*
G02*
X236775000Y-110200000I0J250000D01*
G01*
X236775000Y-109700000D01*
G75*
G02*
X237025000Y-109450000I250000J0D01*
G01*
X237975000Y-109450000D01*
G75*
G02*
X238225000Y-109700000I0J-250000D01*
G01*
X238225000Y-110200000D01*
G75*
G02*
X237975000Y-110450000I-250000J0D01*
G01*
G37*
G36*
G01*
X231675000Y-118250000D02*
X230725000Y-118250000D01*
G75*
G02*
X230475000Y-118000000I0J250000D01*
G01*
X230475000Y-117500000D01*
G75*
G02*
X230725000Y-117250000I250000J0D01*
G01*
X231675000Y-117250000D01*
G75*
G02*
X231925000Y-117500000I0J-250000D01*
G01*
X231925000Y-118000000D01*
G75*
G02*
X231675000Y-118250000I-250000J0D01*
G01*
G37*
G36*
G01*
X231675000Y-120150000D02*
X230725000Y-120150000D01*
G75*
G02*
X230475000Y-119900000I0J250000D01*
G01*
X230475000Y-119400000D01*
G75*
G02*
X230725000Y-119150000I250000J0D01*
G01*
X231675000Y-119150000D01*
G75*
G02*
X231925000Y-119400000I0J-250000D01*
G01*
X231925000Y-119900000D01*
G75*
G02*
X231675000Y-120150000I-250000J0D01*
G01*
G37*
M02*
