G04 #@! TF.GenerationSoftware,KiCad,Pcbnew,(5.1.12)-1*
G04 #@! TF.CreationDate,2022-09-28T12:59:48-05:00*
G04 #@! TF.ProjectId,Controller_Borad,436f6e74-726f-46c6-9c65-725f426f7261,rev?*
G04 #@! TF.SameCoordinates,Original*
G04 #@! TF.FileFunction,Copper,L2,Inr*
G04 #@! TF.FilePolarity,Positive*
%FSLAX46Y46*%
G04 Gerber Fmt 4.6, Leading zero omitted, Abs format (unit mm)*
G04 Created by KiCad (PCBNEW (5.1.12)-1) date 2022-09-28 12:59:48*
%MOMM*%
%LPD*%
G01*
G04 APERTURE LIST*
G04 #@! TA.AperFunction,ComponentPad*
%ADD10O,30.000000X10.000000*%
G04 #@! TD*
G04 #@! TA.AperFunction,ComponentPad*
%ADD11C,1.700000*%
G04 #@! TD*
G04 #@! TA.AperFunction,ViaPad*
%ADD12C,0.800000*%
G04 #@! TD*
G04 #@! TA.AperFunction,ViaPad*
%ADD13C,0.450000*%
G04 #@! TD*
G04 #@! TA.AperFunction,Conductor*
%ADD14C,0.200000*%
G04 #@! TD*
G04 #@! TA.AperFunction,Conductor*
%ADD15C,0.300000*%
G04 #@! TD*
G04 #@! TA.AperFunction,Conductor*
%ADD16C,0.400000*%
G04 #@! TD*
G04 APERTURE END LIST*
D10*
X241800000Y-101000000D03*
D11*
X234390000Y-134100000D03*
X236930000Y-134100000D03*
X242010000Y-134100000D03*
X239470000Y-134100000D03*
D12*
X225300000Y-122300000D03*
X225300000Y-125600000D03*
X222300000Y-125600000D03*
X222300000Y-122300000D03*
D13*
X255200000Y-109000000D03*
X228200000Y-54900000D03*
X234750000Y-60750000D03*
X235800000Y-60799990D03*
X236100000Y-49700000D03*
X233965000Y-49965000D03*
X249860000Y-126960000D03*
X254940000Y-126940000D03*
D12*
X263200000Y-113800000D03*
D13*
X246100000Y-118700000D03*
X249750000Y-107450000D03*
X219775000Y-130925000D03*
X222400000Y-134100000D03*
X228950000Y-127850000D03*
X232600000Y-129000000D03*
X235550000Y-129950000D03*
X240350000Y-129950000D03*
X229500000Y-124443502D03*
X239900000Y-124400000D03*
X238700000Y-121500000D03*
X231000000Y-116600000D03*
X217100000Y-105800000D03*
X217475000Y-113175000D03*
X223200000Y-112500000D03*
X235600000Y-107600000D03*
X237500000Y-107000000D03*
X238400000Y-107000000D03*
X235900000Y-111200000D03*
X240400000Y-112900000D03*
X251150000Y-115750000D03*
X253100000Y-119600000D03*
X256150000Y-118300000D03*
X230800000Y-127500000D03*
X245300000Y-56300000D03*
D12*
X220600000Y-132700000D03*
D13*
X249250000Y-115750000D03*
X256112500Y-125487500D03*
X252900000Y-123900000D03*
X250900002Y-113200000D03*
X245400000Y-108087500D03*
X230000000Y-55000000D03*
X233000000Y-54900000D03*
X237550000Y-53450000D03*
X253670000Y-126970000D03*
X216800000Y-128200000D03*
X239300000Y-126600000D03*
X236000000Y-126900000D03*
X234100000Y-124800000D03*
X229850000Y-119650000D03*
X227500000Y-112300000D03*
X226500000Y-113000000D03*
X224400000Y-113000000D03*
X217300000Y-105000000D03*
X217100000Y-111800000D03*
X225200000Y-110900000D03*
X234456498Y-107300000D03*
X236700000Y-111400000D03*
X255200000Y-113200000D03*
X223800000Y-128200000D03*
X219500000Y-123000000D03*
X217300000Y-123000000D03*
X245200000Y-119300000D03*
X252400000Y-127900000D03*
X246800000Y-132000000D03*
X252400000Y-132300000D03*
X226100000Y-55500000D03*
X235300000Y-119700000D03*
X220900000Y-116300000D03*
X235216555Y-118816555D03*
X236900000Y-66200000D03*
X239700010Y-66400000D03*
X231900000Y-113400000D03*
X230000000Y-113000000D03*
X238500000Y-65200000D03*
X230900000Y-113200000D03*
X239500000Y-65400000D03*
X230200000Y-115074991D03*
X239600000Y-64600000D03*
X242625010Y-119200000D03*
X244500000Y-62400000D03*
X242100000Y-120200000D03*
X243900000Y-62800000D03*
X241500000Y-120600000D03*
X243300000Y-63300000D03*
X240900000Y-119700000D03*
X242700000Y-64000000D03*
X239700000Y-119000000D03*
X242474990Y-64800000D03*
X241914506Y-65291297D03*
X238000000Y-118300000D03*
X241100000Y-65600000D03*
X233300000Y-114300000D03*
X240400000Y-66000000D03*
X236600000Y-117700000D03*
X242300000Y-116900000D03*
X261700000Y-115100000D03*
X241900000Y-116000000D03*
X259500000Y-115100000D03*
X257300000Y-114900000D03*
X220100000Y-103900000D03*
X219600000Y-104700000D03*
X246400000Y-112500000D03*
X248800000Y-124800000D03*
X245487500Y-109912500D03*
X254287500Y-125387500D03*
X255400000Y-111100000D03*
X230600000Y-121000000D03*
X232900000Y-123300000D03*
X240700000Y-115300000D03*
X246400000Y-111200000D03*
X246000000Y-114400000D03*
X249950000Y-118400000D03*
X239700000Y-111300000D03*
X240700000Y-114600000D03*
X246600000Y-114900000D03*
X254249996Y-118100000D03*
X251000000Y-109000000D03*
X240700000Y-113800000D03*
X227800000Y-132700000D03*
X240800000Y-123400000D03*
X242900000Y-126200000D03*
X257400000Y-108900000D03*
X259500000Y-108900000D03*
X261600000Y-108900000D03*
D14*
X245200000Y-119300000D02*
X245200000Y-120600000D01*
X245200000Y-120600000D02*
X247800000Y-123200000D01*
X247800000Y-123200000D02*
X247800000Y-126500000D01*
X247800000Y-126500000D02*
X249200000Y-127900000D01*
X249200000Y-127900000D02*
X252400000Y-127900000D01*
X252400000Y-127900000D02*
X252400000Y-127900000D01*
X252100000Y-132000000D02*
X252400000Y-132300000D01*
X246800000Y-132000000D02*
X252100000Y-132000000D01*
X252400000Y-132300000D02*
X252400000Y-132300000D01*
X226100000Y-55500000D02*
X226100000Y-55500000D01*
D15*
X226100000Y-61200000D02*
X226100000Y-55500000D01*
X228300000Y-63400000D02*
X226100000Y-61200000D01*
D14*
X238499880Y-73599880D02*
X228300000Y-63400000D01*
X238499880Y-78046039D02*
X238499880Y-73599880D01*
X222968624Y-93577295D02*
X238499880Y-78046039D01*
X222968620Y-93577295D02*
X222968624Y-93577295D01*
X221245914Y-95300000D02*
X222968620Y-93577295D01*
X235300000Y-119700000D02*
X231600011Y-116000011D01*
X220799870Y-105353957D02*
X220799870Y-95746043D01*
X228670032Y-115170032D02*
X228670032Y-112361314D01*
X229500011Y-116000011D02*
X228670032Y-115170032D01*
X231600011Y-116000011D02*
X229500011Y-116000011D01*
X221102894Y-105665689D02*
X221102894Y-105656980D01*
X221102894Y-105656980D02*
X220799870Y-105353957D01*
X228670032Y-112361314D02*
X228661314Y-112361314D01*
X220799870Y-95746043D02*
X221245914Y-95300000D01*
X227831446Y-111531446D02*
X226968650Y-111531446D01*
X228661314Y-112361314D02*
X227831446Y-111531446D01*
X226968650Y-111531446D02*
X226300000Y-110862795D01*
X226300000Y-110862795D02*
X221102894Y-105665689D01*
X229800001Y-115600001D02*
X229070042Y-114870042D01*
X229070042Y-112195626D02*
X228005852Y-111131436D01*
X232000001Y-115600001D02*
X229800001Y-115600001D01*
X228005852Y-111131436D02*
X227134339Y-111131436D01*
X221502904Y-105491292D02*
X221199880Y-105188268D01*
X229070042Y-114870042D02*
X229070042Y-112195626D01*
X236900000Y-67200000D02*
X236900000Y-66200000D01*
X235216555Y-118816555D02*
X232000001Y-115600001D01*
X238899890Y-78211727D02*
X238899890Y-69199890D01*
X221199880Y-95911737D02*
X238899890Y-78211727D01*
X221199880Y-105188268D02*
X221199880Y-95911737D01*
X221502904Y-105500000D02*
X221502904Y-105491292D01*
X238899890Y-69199890D02*
X236900000Y-67200000D01*
X227134339Y-111131436D02*
X221502904Y-105500000D01*
X231900000Y-112762792D02*
X231900000Y-113400000D01*
X228668604Y-109531396D02*
X231900000Y-112762792D01*
X227805805Y-109531396D02*
X228668604Y-109531396D01*
X240499930Y-78874482D02*
X222799920Y-96574492D01*
X240499930Y-67199920D02*
X240499930Y-78874482D01*
X239700010Y-66400000D02*
X240499930Y-67199920D01*
X222799920Y-96574492D02*
X222799920Y-104525512D01*
X222799920Y-104525512D02*
X227805805Y-109531396D01*
X238500000Y-67000000D02*
X238500000Y-65200000D01*
X239699910Y-78543106D02*
X239699910Y-68199910D01*
X221999900Y-104856890D02*
X221999900Y-96243116D01*
X227474426Y-110331416D02*
X221999900Y-104856890D01*
X239699910Y-68199910D02*
X238500000Y-67000000D01*
X228337228Y-110331416D02*
X227474426Y-110331416D01*
X221999900Y-96243116D02*
X239699910Y-78543106D01*
X230000000Y-111994188D02*
X228337228Y-110331416D01*
X230000000Y-113000000D02*
X230000000Y-111994188D01*
X240099920Y-67699920D02*
X239175001Y-66775001D01*
X239175001Y-66775001D02*
X239175001Y-65724999D01*
X222399910Y-96408804D02*
X240099920Y-78708794D01*
X240099920Y-78708794D02*
X240099920Y-67699920D01*
X230800000Y-113505701D02*
X230800000Y-112228490D01*
X222399910Y-104691201D02*
X222399910Y-96408804D01*
X230800000Y-112228490D02*
X228502916Y-109931406D01*
X228502916Y-109931406D02*
X227640115Y-109931406D01*
X239175001Y-65724999D02*
X239500000Y-65400000D01*
X227640115Y-109931406D02*
X222399910Y-104691201D01*
X239299900Y-68699900D02*
X237700000Y-67100000D01*
X222000000Y-105431398D02*
X222000000Y-105422688D01*
X223300000Y-94377311D02*
X223300004Y-94377311D01*
X239000003Y-78677315D02*
X239299900Y-78377418D01*
X221599890Y-96077421D02*
X223300000Y-94377311D01*
X227300028Y-110731426D02*
X222000000Y-105431398D01*
X229470052Y-112029938D02*
X228171540Y-110731426D01*
X223300004Y-94377311D02*
X239000000Y-78677315D01*
X221599890Y-105022579D02*
X221599890Y-96077421D01*
X239299900Y-78377418D02*
X239299900Y-68699900D01*
X222000000Y-105422688D02*
X221599890Y-105022579D01*
X239000000Y-78677315D02*
X239000003Y-78677315D01*
X237700000Y-67100000D02*
X237700000Y-64800000D01*
X228171540Y-110731426D02*
X227300028Y-110731426D01*
X237700000Y-64800000D02*
X237900000Y-64600000D01*
X229470052Y-114345043D02*
X229470052Y-112029938D01*
X230200000Y-115074991D02*
X229470052Y-114345043D01*
X237900000Y-64600000D02*
X239600000Y-64600000D01*
X242625010Y-118881802D02*
X230043218Y-106300010D01*
X244500000Y-79400000D02*
X244500000Y-62400000D01*
X226000000Y-97900000D02*
X244500000Y-79400000D01*
X242625010Y-119200000D02*
X242625010Y-118881802D01*
X229100010Y-106300010D02*
X226000000Y-103200000D01*
X226000000Y-103200000D02*
X226000000Y-97900000D01*
X230043218Y-106300010D02*
X229100010Y-106300010D01*
X225599994Y-103365688D02*
X225599994Y-97734311D01*
X242100000Y-120200000D02*
X242100000Y-118965698D01*
X229834318Y-106700016D02*
X228934322Y-106700016D01*
X242100000Y-118965698D02*
X229834318Y-106700016D01*
X228934322Y-106700016D02*
X225599994Y-103365688D01*
X225599994Y-97734311D02*
X244024999Y-79309306D01*
X244024999Y-62924999D02*
X243900000Y-62800000D01*
X244024999Y-79309306D02*
X244024999Y-62924999D01*
X243524999Y-63524999D02*
X243300000Y-63300000D01*
X225199983Y-97568622D02*
X243524999Y-79243606D01*
X228768633Y-107100027D02*
X225199983Y-103531377D01*
X243524999Y-79243606D02*
X243524999Y-63524999D01*
X229668629Y-107100027D02*
X228768633Y-107100027D01*
X241474998Y-118906396D02*
X229668629Y-107100027D01*
X241474998Y-120574998D02*
X241474998Y-118906396D01*
X225199983Y-103531377D02*
X225199983Y-97568622D01*
X240900000Y-119700000D02*
X240900000Y-118934298D01*
X240900000Y-118934298D02*
X229465740Y-107500038D01*
X228602944Y-107500038D02*
X224799972Y-103697066D01*
X224799972Y-103697066D02*
X224799972Y-97402933D01*
X229465740Y-107500038D02*
X228602944Y-107500038D01*
X243000000Y-64300000D02*
X242700000Y-64000000D01*
X243000000Y-79202905D02*
X243000000Y-64300000D01*
X224799972Y-97402933D02*
X243000000Y-79202905D01*
X239700000Y-119000000D02*
X239700000Y-118300000D01*
X239700000Y-118300000D02*
X229300051Y-107900049D01*
X224399961Y-97237244D02*
X242474990Y-79162215D01*
X228437255Y-107900049D02*
X224399961Y-103862755D01*
X242474990Y-79162215D02*
X242474990Y-64800000D01*
X224399961Y-103862755D02*
X224399961Y-97237244D01*
X229300051Y-107900049D02*
X228437255Y-107900049D01*
X223999950Y-104028445D02*
X223999950Y-97071555D01*
X229134362Y-108300060D02*
X228271565Y-108300060D01*
X223999950Y-97071555D02*
X241914506Y-79156999D01*
X241914506Y-79156999D02*
X241914506Y-65291297D01*
X238000000Y-118300000D02*
X238000000Y-117165698D01*
X228271565Y-108300060D02*
X223999950Y-104028445D01*
X238000000Y-117165698D02*
X229134362Y-108300060D01*
X241299999Y-65799999D02*
X241100000Y-65600000D01*
X241299999Y-79205807D02*
X241299999Y-65799999D01*
X223599940Y-104194134D02*
X223599940Y-96905866D01*
X228105876Y-108700070D02*
X223599940Y-104194134D01*
X228968674Y-108700070D02*
X228105876Y-108700070D01*
X223599940Y-96905866D02*
X241299999Y-79205807D01*
X233300000Y-113031396D02*
X228968674Y-108700070D01*
X233300000Y-114300000D02*
X233300000Y-113031396D01*
X223199930Y-104359823D02*
X223199930Y-96740180D01*
X235559998Y-117700000D02*
X232674999Y-114815001D01*
X240899940Y-66499940D02*
X240400000Y-66000000D01*
X223199930Y-96740180D02*
X240899940Y-79040170D01*
X236600000Y-117700000D02*
X235559998Y-117700000D01*
X228802986Y-109100080D02*
X227940187Y-109100080D01*
X227940187Y-109100080D02*
X223199930Y-104359823D01*
X232674999Y-112972093D02*
X228802986Y-109100080D01*
X232674999Y-114815001D02*
X232674999Y-112972093D01*
X240899940Y-79040170D02*
X240899940Y-66499940D01*
X248768604Y-120200001D02*
X256599999Y-120200001D01*
X245468603Y-116900000D02*
X248768604Y-120200001D01*
X242300000Y-116900000D02*
X245468603Y-116900000D01*
X256599999Y-120200001D02*
X261700000Y-115100000D01*
X261700000Y-115100000D02*
X261700000Y-115100000D01*
X256390001Y-118950001D02*
X259500000Y-115840002D01*
X248084302Y-118950001D02*
X256390001Y-118950001D01*
X245134301Y-116000000D02*
X248084302Y-118950001D01*
X241900000Y-116000000D02*
X245134301Y-116000000D01*
X259500000Y-115840002D02*
X259500000Y-115100000D01*
X259500000Y-115100000D02*
X259500000Y-115100000D01*
D16*
X236930000Y-132930000D02*
X236930000Y-134100000D01*
X236200000Y-132200000D02*
X236930000Y-132930000D01*
X234600000Y-132200000D02*
X236200000Y-132200000D01*
X231700001Y-129300001D02*
X234600000Y-132200000D01*
X231700001Y-122100001D02*
X231700001Y-129300001D01*
X230600000Y-121000000D02*
X231700001Y-122100001D01*
X239470000Y-133070000D02*
X239470000Y-134100000D01*
X237800000Y-131400000D02*
X239470000Y-133070000D01*
X236000000Y-131400000D02*
X237800000Y-131400000D01*
X233200001Y-128600001D02*
X236000000Y-131400000D01*
X233200001Y-123600001D02*
X233200001Y-128600001D01*
X232900000Y-123300000D02*
X233200001Y-123600001D01*
D14*
X240700000Y-115300000D02*
X242300000Y-115300000D01*
X242300000Y-115300000D02*
X246400000Y-111200000D01*
X246400000Y-111200000D02*
X246400000Y-111200000D01*
X246000000Y-114400000D02*
X246000000Y-116300000D01*
X248100000Y-118400000D02*
X249950000Y-118400000D01*
X246000000Y-116300000D02*
X248100000Y-118400000D01*
X240700000Y-114600000D02*
X240300000Y-114600000D01*
X240300000Y-114600000D02*
X239700000Y-114000000D01*
X239700000Y-114000000D02*
X239700000Y-111300000D01*
X239700000Y-111300000D02*
X239700000Y-111300000D01*
X254249996Y-117749996D02*
X254249996Y-118100000D01*
X251400000Y-114900000D02*
X254249996Y-117749996D01*
X246600000Y-114900000D02*
X251400000Y-114900000D01*
X240700000Y-113800000D02*
X243000000Y-113800000D01*
X243000000Y-113800000D02*
X247800000Y-109000000D01*
X247800000Y-109000000D02*
X251000000Y-109000000D01*
X251000000Y-109000000D02*
X251000000Y-109000000D01*
D15*
X227800000Y-132700000D02*
X227800000Y-132700000D01*
X230100000Y-120200000D02*
X227800000Y-122500000D01*
X227800000Y-122500000D02*
X227800000Y-132700000D01*
X232200000Y-120200000D02*
X230100000Y-120200000D01*
X235400000Y-123400000D02*
X232200000Y-120200000D01*
X240800000Y-123400000D02*
X235400000Y-123400000D01*
M02*
