G04 #@! TF.GenerationSoftware,KiCad,Pcbnew,(5.1.12)-1*
G04 #@! TF.CreationDate,2022-09-28T12:59:49-05:00*
G04 #@! TF.ProjectId,Controller_Borad,436f6e74-726f-46c6-9c65-725f426f7261,rev?*
G04 #@! TF.SameCoordinates,Original*
G04 #@! TF.FileFunction,Soldermask,Top*
G04 #@! TF.FilePolarity,Negative*
%FSLAX46Y46*%
G04 Gerber Fmt 4.6, Leading zero omitted, Abs format (unit mm)*
G04 Created by KiCad (PCBNEW (5.1.12)-1) date 2022-09-28 12:59:49*
%MOMM*%
%LPD*%
G01*
G04 APERTURE LIST*
%ADD10R,1.550000X1.300000*%
%ADD11O,30.000000X10.000000*%
%ADD12C,2.200000*%
%ADD13R,1.500000X1.500000*%
%ADD14R,1.500000X1.000000*%
%ADD15C,0.100000*%
%ADD16C,1.700000*%
G04 APERTURE END LIST*
D10*
X236025000Y-116450000D03*
X236025000Y-120950000D03*
X243975000Y-120950000D03*
X243975000Y-116450000D03*
D11*
X241800000Y-101000000D03*
D12*
X218100000Y-134300000D03*
X218000000Y-118800000D03*
X261900000Y-134300000D03*
X262000000Y-118800000D03*
D10*
X236025000Y-123950000D03*
X236025000Y-128450000D03*
X243975000Y-128450000D03*
X243975000Y-123950000D03*
X232375000Y-120950000D03*
X232375000Y-116450000D03*
X224425000Y-116450000D03*
X224425000Y-120950000D03*
X247425000Y-116450000D03*
X247425000Y-120950000D03*
X255375000Y-120950000D03*
X255375000Y-116450000D03*
X243975000Y-113450000D03*
X243975000Y-108950000D03*
X236025000Y-108950000D03*
X236025000Y-113450000D03*
D13*
X251800000Y-111000000D03*
X258100000Y-117400000D03*
X233100000Y-110800000D03*
X250000000Y-123500000D03*
X248100000Y-110100000D03*
D14*
X223200000Y-109400000D03*
D15*
G36*
X223949398Y-110700000D02*
G01*
X223949398Y-110724534D01*
X223944588Y-110773365D01*
X223935016Y-110821490D01*
X223920772Y-110868445D01*
X223901995Y-110913778D01*
X223878864Y-110957051D01*
X223851604Y-110997850D01*
X223820476Y-111035779D01*
X223785779Y-111070476D01*
X223747850Y-111101604D01*
X223707051Y-111128864D01*
X223663778Y-111151995D01*
X223618445Y-111170772D01*
X223571490Y-111185016D01*
X223523365Y-111194588D01*
X223474534Y-111199398D01*
X223450000Y-111199398D01*
X223450000Y-111200000D01*
X222950000Y-111200000D01*
X222950000Y-111199398D01*
X222925466Y-111199398D01*
X222876635Y-111194588D01*
X222828510Y-111185016D01*
X222781555Y-111170772D01*
X222736222Y-111151995D01*
X222692949Y-111128864D01*
X222652150Y-111101604D01*
X222614221Y-111070476D01*
X222579524Y-111035779D01*
X222548396Y-110997850D01*
X222521136Y-110957051D01*
X222498005Y-110913778D01*
X222479228Y-110868445D01*
X222464984Y-110821490D01*
X222455412Y-110773365D01*
X222450602Y-110724534D01*
X222450602Y-110700000D01*
X222450000Y-110700000D01*
X222450000Y-110150000D01*
X223950000Y-110150000D01*
X223950000Y-110700000D01*
X223949398Y-110700000D01*
G37*
G36*
X222450000Y-108650000D02*
G01*
X222450000Y-108100000D01*
X222450602Y-108100000D01*
X222450602Y-108075466D01*
X222455412Y-108026635D01*
X222464984Y-107978510D01*
X222479228Y-107931555D01*
X222498005Y-107886222D01*
X222521136Y-107842949D01*
X222548396Y-107802150D01*
X222579524Y-107764221D01*
X222614221Y-107729524D01*
X222652150Y-107698396D01*
X222692949Y-107671136D01*
X222736222Y-107648005D01*
X222781555Y-107629228D01*
X222828510Y-107614984D01*
X222876635Y-107605412D01*
X222925466Y-107600602D01*
X222950000Y-107600602D01*
X222950000Y-107600000D01*
X223450000Y-107600000D01*
X223450000Y-107600602D01*
X223474534Y-107600602D01*
X223523365Y-107605412D01*
X223571490Y-107614984D01*
X223618445Y-107629228D01*
X223663778Y-107648005D01*
X223707051Y-107671136D01*
X223747850Y-107698396D01*
X223785779Y-107729524D01*
X223820476Y-107764221D01*
X223851604Y-107802150D01*
X223878864Y-107842949D01*
X223901995Y-107886222D01*
X223920772Y-107931555D01*
X223935016Y-107978510D01*
X223944588Y-108026635D01*
X223949398Y-108075466D01*
X223949398Y-108100000D01*
X223950000Y-108100000D01*
X223950000Y-108650000D01*
X222450000Y-108650000D01*
G37*
D14*
X219200000Y-109400000D03*
D15*
G36*
X219949398Y-110700000D02*
G01*
X219949398Y-110724534D01*
X219944588Y-110773365D01*
X219935016Y-110821490D01*
X219920772Y-110868445D01*
X219901995Y-110913778D01*
X219878864Y-110957051D01*
X219851604Y-110997850D01*
X219820476Y-111035779D01*
X219785779Y-111070476D01*
X219747850Y-111101604D01*
X219707051Y-111128864D01*
X219663778Y-111151995D01*
X219618445Y-111170772D01*
X219571490Y-111185016D01*
X219523365Y-111194588D01*
X219474534Y-111199398D01*
X219450000Y-111199398D01*
X219450000Y-111200000D01*
X218950000Y-111200000D01*
X218950000Y-111199398D01*
X218925466Y-111199398D01*
X218876635Y-111194588D01*
X218828510Y-111185016D01*
X218781555Y-111170772D01*
X218736222Y-111151995D01*
X218692949Y-111128864D01*
X218652150Y-111101604D01*
X218614221Y-111070476D01*
X218579524Y-111035779D01*
X218548396Y-110997850D01*
X218521136Y-110957051D01*
X218498005Y-110913778D01*
X218479228Y-110868445D01*
X218464984Y-110821490D01*
X218455412Y-110773365D01*
X218450602Y-110724534D01*
X218450602Y-110700000D01*
X218450000Y-110700000D01*
X218450000Y-110150000D01*
X219950000Y-110150000D01*
X219950000Y-110700000D01*
X219949398Y-110700000D01*
G37*
G36*
X218450000Y-108650000D02*
G01*
X218450000Y-108100000D01*
X218450602Y-108100000D01*
X218450602Y-108075466D01*
X218455412Y-108026635D01*
X218464984Y-107978510D01*
X218479228Y-107931555D01*
X218498005Y-107886222D01*
X218521136Y-107842949D01*
X218548396Y-107802150D01*
X218579524Y-107764221D01*
X218614221Y-107729524D01*
X218652150Y-107698396D01*
X218692949Y-107671136D01*
X218736222Y-107648005D01*
X218781555Y-107629228D01*
X218828510Y-107614984D01*
X218876635Y-107605412D01*
X218925466Y-107600602D01*
X218950000Y-107600602D01*
X218950000Y-107600000D01*
X219450000Y-107600000D01*
X219450000Y-107600602D01*
X219474534Y-107600602D01*
X219523365Y-107605412D01*
X219571490Y-107614984D01*
X219618445Y-107629228D01*
X219663778Y-107648005D01*
X219707051Y-107671136D01*
X219747850Y-107698396D01*
X219785779Y-107729524D01*
X219820476Y-107764221D01*
X219851604Y-107802150D01*
X219878864Y-107842949D01*
X219901995Y-107886222D01*
X219920772Y-107931555D01*
X219935016Y-107978510D01*
X219944588Y-108026635D01*
X219949398Y-108075466D01*
X219949398Y-108100000D01*
X219950000Y-108100000D01*
X219950000Y-108650000D01*
X218450000Y-108650000D01*
G37*
G36*
G01*
X261143750Y-113350000D02*
X262056250Y-113350000D01*
G75*
G02*
X262300000Y-113593750I0J-243750D01*
G01*
X262300000Y-114081250D01*
G75*
G02*
X262056250Y-114325000I-243750J0D01*
G01*
X261143750Y-114325000D01*
G75*
G02*
X260900000Y-114081250I0J243750D01*
G01*
X260900000Y-113593750D01*
G75*
G02*
X261143750Y-113350000I243750J0D01*
G01*
G37*
G36*
G01*
X261143750Y-111475000D02*
X262056250Y-111475000D01*
G75*
G02*
X262300000Y-111718750I0J-243750D01*
G01*
X262300000Y-112206250D01*
G75*
G02*
X262056250Y-112450000I-243750J0D01*
G01*
X261143750Y-112450000D01*
G75*
G02*
X260900000Y-112206250I0J243750D01*
G01*
X260900000Y-111718750D01*
G75*
G02*
X261143750Y-111475000I243750J0D01*
G01*
G37*
G36*
G01*
X259043750Y-113350000D02*
X259956250Y-113350000D01*
G75*
G02*
X260200000Y-113593750I0J-243750D01*
G01*
X260200000Y-114081250D01*
G75*
G02*
X259956250Y-114325000I-243750J0D01*
G01*
X259043750Y-114325000D01*
G75*
G02*
X258800000Y-114081250I0J243750D01*
G01*
X258800000Y-113593750D01*
G75*
G02*
X259043750Y-113350000I243750J0D01*
G01*
G37*
G36*
G01*
X259043750Y-111475000D02*
X259956250Y-111475000D01*
G75*
G02*
X260200000Y-111718750I0J-243750D01*
G01*
X260200000Y-112206250D01*
G75*
G02*
X259956250Y-112450000I-243750J0D01*
G01*
X259043750Y-112450000D01*
G75*
G02*
X258800000Y-112206250I0J243750D01*
G01*
X258800000Y-111718750D01*
G75*
G02*
X259043750Y-111475000I243750J0D01*
G01*
G37*
G36*
G01*
X256943750Y-113350000D02*
X257856250Y-113350000D01*
G75*
G02*
X258100000Y-113593750I0J-243750D01*
G01*
X258100000Y-114081250D01*
G75*
G02*
X257856250Y-114325000I-243750J0D01*
G01*
X256943750Y-114325000D01*
G75*
G02*
X256700000Y-114081250I0J243750D01*
G01*
X256700000Y-113593750D01*
G75*
G02*
X256943750Y-113350000I243750J0D01*
G01*
G37*
G36*
G01*
X256943750Y-111475000D02*
X257856250Y-111475000D01*
G75*
G02*
X258100000Y-111718750I0J-243750D01*
G01*
X258100000Y-112206250D01*
G75*
G02*
X257856250Y-112450000I-243750J0D01*
G01*
X256943750Y-112450000D01*
G75*
G02*
X256700000Y-112206250I0J243750D01*
G01*
X256700000Y-111718750D01*
G75*
G02*
X256943750Y-111475000I243750J0D01*
G01*
G37*
D13*
X260600000Y-126800000D03*
X219300000Y-114400000D03*
X239400000Y-131700000D03*
X236500000Y-131700000D03*
X226300000Y-132700000D03*
X247000000Y-127000000D03*
X217600000Y-130000000D03*
X260600000Y-123100000D03*
X229500000Y-133600000D03*
D16*
X234390000Y-134100000D03*
X236930000Y-134100000D03*
X242010000Y-134100000D03*
X239470000Y-134100000D03*
G36*
G01*
X216843750Y-125950000D02*
X217756250Y-125950000D01*
G75*
G02*
X218000000Y-126193750I0J-243750D01*
G01*
X218000000Y-126681250D01*
G75*
G02*
X217756250Y-126925000I-243750J0D01*
G01*
X216843750Y-126925000D01*
G75*
G02*
X216600000Y-126681250I0J243750D01*
G01*
X216600000Y-126193750D01*
G75*
G02*
X216843750Y-125950000I243750J0D01*
G01*
G37*
G36*
G01*
X216843750Y-124075000D02*
X217756250Y-124075000D01*
G75*
G02*
X218000000Y-124318750I0J-243750D01*
G01*
X218000000Y-124806250D01*
G75*
G02*
X217756250Y-125050000I-243750J0D01*
G01*
X216843750Y-125050000D01*
G75*
G02*
X216600000Y-124806250I0J243750D01*
G01*
X216600000Y-124318750D01*
G75*
G02*
X216843750Y-124075000I243750J0D01*
G01*
G37*
G36*
G01*
X219043750Y-125950000D02*
X219956250Y-125950000D01*
G75*
G02*
X220200000Y-126193750I0J-243750D01*
G01*
X220200000Y-126681250D01*
G75*
G02*
X219956250Y-126925000I-243750J0D01*
G01*
X219043750Y-126925000D01*
G75*
G02*
X218800000Y-126681250I0J243750D01*
G01*
X218800000Y-126193750D01*
G75*
G02*
X219043750Y-125950000I243750J0D01*
G01*
G37*
G36*
G01*
X219043750Y-124075000D02*
X219956250Y-124075000D01*
G75*
G02*
X220200000Y-124318750I0J-243750D01*
G01*
X220200000Y-124806250D01*
G75*
G02*
X219956250Y-125050000I-243750J0D01*
G01*
X219043750Y-125050000D01*
G75*
G02*
X218800000Y-124806250I0J243750D01*
G01*
X218800000Y-124318750D01*
G75*
G02*
X219043750Y-124075000I243750J0D01*
G01*
G37*
M02*
