G04 #@! TF.GenerationSoftware,KiCad,Pcbnew,(5.1.12)-1*
G04 #@! TF.CreationDate,2022-09-28T12:59:49-05:00*
G04 #@! TF.ProjectId,Controller_Borad,436f6e74-726f-46c6-9c65-725f426f7261,rev?*
G04 #@! TF.SameCoordinates,Original*
G04 #@! TF.FileFunction,Paste,Top*
G04 #@! TF.FilePolarity,Positive*
%FSLAX46Y46*%
G04 Gerber Fmt 4.6, Leading zero omitted, Abs format (unit mm)*
G04 Created by KiCad (PCBNEW (5.1.12)-1) date 2022-09-28 12:59:49*
%MOMM*%
%LPD*%
G01*
G04 APERTURE LIST*
%ADD10R,1.550000X1.300000*%
G04 APERTURE END LIST*
D10*
X236025000Y-116450000D03*
X236025000Y-120950000D03*
X243975000Y-120950000D03*
X243975000Y-116450000D03*
X236025000Y-123950000D03*
X236025000Y-128450000D03*
X243975000Y-128450000D03*
X243975000Y-123950000D03*
X232375000Y-120950000D03*
X232375000Y-116450000D03*
X224425000Y-116450000D03*
X224425000Y-120950000D03*
X247425000Y-116450000D03*
X247425000Y-120950000D03*
X255375000Y-120950000D03*
X255375000Y-116450000D03*
X243975000Y-113450000D03*
X243975000Y-108950000D03*
X236025000Y-108950000D03*
X236025000Y-113450000D03*
G36*
G01*
X261143750Y-113350000D02*
X262056250Y-113350000D01*
G75*
G02*
X262300000Y-113593750I0J-243750D01*
G01*
X262300000Y-114081250D01*
G75*
G02*
X262056250Y-114325000I-243750J0D01*
G01*
X261143750Y-114325000D01*
G75*
G02*
X260900000Y-114081250I0J243750D01*
G01*
X260900000Y-113593750D01*
G75*
G02*
X261143750Y-113350000I243750J0D01*
G01*
G37*
G36*
G01*
X261143750Y-111475000D02*
X262056250Y-111475000D01*
G75*
G02*
X262300000Y-111718750I0J-243750D01*
G01*
X262300000Y-112206250D01*
G75*
G02*
X262056250Y-112450000I-243750J0D01*
G01*
X261143750Y-112450000D01*
G75*
G02*
X260900000Y-112206250I0J243750D01*
G01*
X260900000Y-111718750D01*
G75*
G02*
X261143750Y-111475000I243750J0D01*
G01*
G37*
G36*
G01*
X259043750Y-113350000D02*
X259956250Y-113350000D01*
G75*
G02*
X260200000Y-113593750I0J-243750D01*
G01*
X260200000Y-114081250D01*
G75*
G02*
X259956250Y-114325000I-243750J0D01*
G01*
X259043750Y-114325000D01*
G75*
G02*
X258800000Y-114081250I0J243750D01*
G01*
X258800000Y-113593750D01*
G75*
G02*
X259043750Y-113350000I243750J0D01*
G01*
G37*
G36*
G01*
X259043750Y-111475000D02*
X259956250Y-111475000D01*
G75*
G02*
X260200000Y-111718750I0J-243750D01*
G01*
X260200000Y-112206250D01*
G75*
G02*
X259956250Y-112450000I-243750J0D01*
G01*
X259043750Y-112450000D01*
G75*
G02*
X258800000Y-112206250I0J243750D01*
G01*
X258800000Y-111718750D01*
G75*
G02*
X259043750Y-111475000I243750J0D01*
G01*
G37*
G36*
G01*
X256943750Y-113350000D02*
X257856250Y-113350000D01*
G75*
G02*
X258100000Y-113593750I0J-243750D01*
G01*
X258100000Y-114081250D01*
G75*
G02*
X257856250Y-114325000I-243750J0D01*
G01*
X256943750Y-114325000D01*
G75*
G02*
X256700000Y-114081250I0J243750D01*
G01*
X256700000Y-113593750D01*
G75*
G02*
X256943750Y-113350000I243750J0D01*
G01*
G37*
G36*
G01*
X256943750Y-111475000D02*
X257856250Y-111475000D01*
G75*
G02*
X258100000Y-111718750I0J-243750D01*
G01*
X258100000Y-112206250D01*
G75*
G02*
X257856250Y-112450000I-243750J0D01*
G01*
X256943750Y-112450000D01*
G75*
G02*
X256700000Y-112206250I0J243750D01*
G01*
X256700000Y-111718750D01*
G75*
G02*
X256943750Y-111475000I243750J0D01*
G01*
G37*
G36*
G01*
X216843750Y-125950000D02*
X217756250Y-125950000D01*
G75*
G02*
X218000000Y-126193750I0J-243750D01*
G01*
X218000000Y-126681250D01*
G75*
G02*
X217756250Y-126925000I-243750J0D01*
G01*
X216843750Y-126925000D01*
G75*
G02*
X216600000Y-126681250I0J243750D01*
G01*
X216600000Y-126193750D01*
G75*
G02*
X216843750Y-125950000I243750J0D01*
G01*
G37*
G36*
G01*
X216843750Y-124075000D02*
X217756250Y-124075000D01*
G75*
G02*
X218000000Y-124318750I0J-243750D01*
G01*
X218000000Y-124806250D01*
G75*
G02*
X217756250Y-125050000I-243750J0D01*
G01*
X216843750Y-125050000D01*
G75*
G02*
X216600000Y-124806250I0J243750D01*
G01*
X216600000Y-124318750D01*
G75*
G02*
X216843750Y-124075000I243750J0D01*
G01*
G37*
G36*
G01*
X219043750Y-125950000D02*
X219956250Y-125950000D01*
G75*
G02*
X220200000Y-126193750I0J-243750D01*
G01*
X220200000Y-126681250D01*
G75*
G02*
X219956250Y-126925000I-243750J0D01*
G01*
X219043750Y-126925000D01*
G75*
G02*
X218800000Y-126681250I0J243750D01*
G01*
X218800000Y-126193750D01*
G75*
G02*
X219043750Y-125950000I243750J0D01*
G01*
G37*
G36*
G01*
X219043750Y-124075000D02*
X219956250Y-124075000D01*
G75*
G02*
X220200000Y-124318750I0J-243750D01*
G01*
X220200000Y-124806250D01*
G75*
G02*
X219956250Y-125050000I-243750J0D01*
G01*
X219043750Y-125050000D01*
G75*
G02*
X218800000Y-124806250I0J243750D01*
G01*
X218800000Y-124318750D01*
G75*
G02*
X219043750Y-124075000I243750J0D01*
G01*
G37*
M02*
